<svg xmlns="http://www.w3.org/2000/svg" xmlns:xlink="http://www.w3.org/1999/xlink" width="121" height="121" viewBox="0 0 121 121">
  <defs>
    <clipPath id="clip-path">
      <rect id="Rectángulo_400938" data-name="Rectángulo 400938" width="121" height="121" transform="translate(0 0)" fill="none"/>
    </clipPath>
    <clipPath id="clip-path-2">
      <rect id="Rectángulo_401073" data-name="Rectángulo 401073" width="92.219" height="41.532" fill="#efb499"/>
    </clipPath>
  </defs>
  <g id="Grupo_1117002" data-name="Grupo 1117002" transform="translate(-744.711 -1687.798)">
    <g id="Grupo_1099379" data-name="Grupo 1099379" transform="translate(357.043 -4325.202)">
      <rect id="Rectángulo_401103" data-name="Rectángulo 401103" width="121" height="121" transform="translate(387.668 6013)" fill="none"/>
      <g id="Grupo_1099348" data-name="Grupo 1099348" transform="translate(387.668 6013)">
        <g id="Grupo_1099282" data-name="Grupo 1099282">
          <g id="Grupo_1099281" data-name="Grupo 1099281" clip-path="url(#clip-path-2)">
            <path id="Trazado_873375" data-name="Trazado 873375" d="M74.8,9.1c-4.139,0-6.28-2.03-8.17-3.821-1.855-1.756-3.452-3.274-6.792-3.274s-4.937,1.517-6.792,3.274C51.161,7.072,49.023,9.1,44.881,9.1s-6.28-2.03-8.169-3.821C34.857,3.525,33.26,2.007,29.92,2.007s-4.937,1.517-6.789,3.274C21.241,7.072,19.1,9.1,14.962,9.1S8.679,7.072,6.789,5.281C4.937,3.525,3.34,2.007,0,2.007V0C4.139,0,6.28,2.033,8.17,3.821c1.855,1.759,3.452,3.274,6.792,3.274S19.9,5.58,21.75,3.824C23.637,2.033,25.781,0,29.92,0s6.283,2.033,8.17,3.821c1.855,1.759,3.452,3.274,6.792,3.274s4.937-1.514,6.792-3.274C53.56,2.033,55.7,0,59.843,0s6.283,2.033,8.17,3.821C69.867,5.58,71.464,7.094,74.8,7.094S79.742,5.58,81.6,3.821C83.483,2.033,85.624,0,89.766,0V2.007c-3.34,0-4.937,1.517-6.792,3.274C81.084,7.072,78.943,9.1,74.8,9.1" transform="translate(2.453 32.43)" fill="#efb499"/>
            <path id="Trazado_873376" data-name="Trazado 873376" d="M74.8,9.1c-4.139,0-6.283-2.03-8.17-3.824-1.855-1.756-3.452-3.27-6.792-3.27s-4.937,1.514-6.792,3.27C51.164,7.072,49.023,9.1,44.881,9.1s-6.283-2.03-8.17-3.824c-1.855-1.756-3.452-3.27-6.792-3.27s-4.937,1.517-6.789,3.27C21.241,7.072,19.1,9.1,14.962,9.1S8.679,7.072,6.789,5.278C4.937,3.522,3.34,2.007,0,2.007V0C4.139,0,6.283,2.03,8.17,3.821c1.855,1.759,3.452,3.274,6.792,3.274S19.9,5.58,21.75,3.821C23.637,2.03,25.781,0,29.92,0S36.2,2.03,38.093,3.821c1.852,1.759,3.449,3.274,6.789,3.274s4.937-1.514,6.792-3.274C53.56,2.03,55.7,0,59.843,0s6.283,2.03,8.17,3.821C69.867,5.58,71.464,7.094,74.8,7.094S79.742,5.58,81.6,3.821C83.486,2.03,85.627,0,89.769,0V2.007c-3.34,0-4.94,1.517-6.8,3.27C81.084,7.072,78.943,9.1,74.8,9.1" transform="translate(1.635 21.62)" fill="#efb499"/>
            <path id="Trazado_873377" data-name="Trazado 873377" d="M74.8,9.1c-4.139,0-6.283-2.03-8.169-3.824-1.855-1.756-3.452-3.27-6.792-3.27s-4.937,1.514-6.792,3.27C51.164,7.072,49.02,9.1,44.881,9.1s-6.283-2.03-8.17-3.824c-1.855-1.756-3.452-3.27-6.792-3.27s-4.937,1.517-6.789,3.27C21.241,7.072,19.1,9.1,14.962,9.1S8.678,7.072,6.789,5.278C4.937,3.522,3.34,2.007,0,2.007V0C4.139,0,6.283,2.03,8.169,3.821c1.851,1.759,3.452,3.274,6.792,3.274S19.9,5.58,21.75,3.821C23.637,2.03,25.781,0,29.92,0S36.2,2.03,38.093,3.821c1.852,1.759,3.449,3.274,6.789,3.274s4.937-1.514,6.792-3.274C53.56,2.03,55.7,0,59.843,0s6.283,2.03,8.17,3.821C69.867,5.58,71.464,7.094,74.8,7.094S79.742,5.58,81.6,3.821C83.486,2.03,85.624,0,89.769,0V2.007c-3.34,0-4.941,1.517-6.8,3.27C81.084,7.072,78.943,9.1,74.8,9.1" transform="translate(0.818 10.81)" fill="#efb499"/>
            <path id="Trazado_873378" data-name="Trazado 873378" d="M74.8,9.1c-4.139,0-6.28-2.03-8.17-3.821-1.855-1.756-3.452-3.27-6.792-3.27s-4.937,1.514-6.789,3.27C51.164,7.069,49.023,9.1,44.881,9.1s-6.28-2.03-8.169-3.821c-1.855-1.756-3.452-3.27-6.792-3.27s-4.937,1.514-6.789,3.267C21.245,7.069,19.1,9.1,14.962,9.1S8.678,7.069,6.789,5.278C4.937,3.522,3.34,2.007,0,2.007V0C4.139,0,6.283,2.03,8.17,3.821c1.855,1.756,3.452,3.27,6.792,3.27S19.9,5.577,21.75,3.821C23.64,2.03,25.781,0,29.92,0s6.28,2.03,8.173,3.821c1.852,1.756,3.449,3.27,6.789,3.27s4.937-1.514,6.792-3.27C53.563,2.03,55.7,0,59.843,0s6.28,2.03,8.17,3.821c1.855,1.756,3.452,3.27,6.792,3.27s4.937-1.514,6.792-3.27C83.486,2.03,85.627,0,89.769,0V2.007c-3.344,0-4.941,1.514-6.8,3.27C81.084,7.069,78.943,9.1,74.8,9.1" transform="translate(0 0.003)" fill="#efb499"/>
          </g>
        </g>
      </g>
      <circle id="Elipse_11504" data-name="Elipse 11504" cx="50.5" cy="50.5" r="50.5" transform="translate(402.668 6031)" fill="#ffce73"/>
      <circle id="Elipse_11503" data-name="Elipse 11503" cx="52.5" cy="52.5" r="52.5" transform="translate(395.668 6021)" fill="#f3f9ff"/>
    </g>
    <g id="Grupo_1116997" data-name="Grupo 1116997" transform="translate(772.322 1716.095)">
      <path id="Trazado_903613" data-name="Trazado 903613" d="M30.225,26.456a13.5,13.5,0,0,0-6.746,1.8,1.029,1.029,0,0,0,1.029,1.782,11.458,11.458,0,1,1-2.352,1.8,1.028,1.028,0,1,0-1.45-1.457,13.494,13.494,0,1,0,9.519-3.929Z" transform="translate(6.197 9.117)" fill="#7d3a1b"/>
      <path id="Trazado_903614" data-name="Trazado 903614" d="M29.057,42.83h-2.58a1.518,1.518,0,0,1-1.521-1.517,1.028,1.028,0,0,0-2.056,0,3.577,3.577,0,0,0,3.573,3.573h.264v1.971a1.028,1.028,0,0,0,2.056,0V44.886h.262a3.573,3.573,0,0,0,0-7.145H26.477a1.518,1.518,0,0,1,0-3.035h2.58a1.518,1.518,0,0,1,1.517,1.517,1.028,1.028,0,1,0,2.056,0,3.577,3.577,0,0,0-3.573-3.573h-.264V30.678a1.028,1.028,0,1,0-2.056,0V32.65h-.26a3.574,3.574,0,1,0,0,7.147h2.58a1.517,1.517,0,1,1,0,3.034Z" transform="translate(8.482 10.3)" fill="#7d3a1b"/>
      <path id="Trazado_903615" data-name="Trazado 903615" d="M50.59,15.926a1.028,1.028,0,0,0-.548,1.98c2.781.773,3.407,1.644,3.407,1.88,0,.858-4.022,2.87-11.82,2.87s-11.821-2.012-11.821-2.87,4.021-2.87,11.821-2.87a37.456,37.456,0,0,1,5.513.388,1.029,1.029,0,0,0,.3-2.035,39.886,39.886,0,0,0-5.816-.411c-6.683,0-13.877,1.542-13.877,4.925v8c0,3.383,7.193,4.925,13.877,4.925,4.492,0,9.206-.7,11.82-2.186v1.258c0,.858-4.022,2.87-11.82,2.87-.895,0-1.766-.027-2.6-.082a1.039,1.039,0,0,0-1.1.959,1.026,1.026,0,0,0,.959,1.1c.884.058,1.8.088,2.741.088,4.492,0,9.206-.7,11.82-2.193v1.258c0,.858-4.022,2.878-11.82,2.878,0,0-.429.008-.619,0a1.068,1.068,0,0,0-1.058,1,1.031,1.031,0,0,0,1,1.059h.685c4.492,0,9.206-.7,11.82-2.193v1.258c0,.858-4.022,2.87-11.82,2.87a1.028,1.028,0,0,0,0,2.056c4.492,0,9.206-.7,11.82-2.186v1.358c0,.858-4.022,2.87-11.82,2.87h-.369a1.088,1.088,0,0,0-1.039,1.017,1.029,1.029,0,0,0,1.017,1.039h.391c6.672,0,13.866-1.538,13.866-4.921V19.786c0-1.137-.852-2.73-4.91-3.86Zm-8.965,8.786c4.492,0,9.206-.7,11.82-2.186v1.258c0,.858-4.022,2.878-11.82,2.878S29.8,24.648,29.8,23.783V22.525C32.417,24.011,37.136,24.711,41.624,24.711Zm0,5.941c-7.8,0-11.821-2.012-11.821-2.87V26.524c2.613,1.486,7.326,2.193,11.821,2.193s9.206-.7,11.82-2.193v1.258C53.444,28.64,49.422,30.652,41.624,30.652Z" transform="translate(10.279 4.821)" fill="#7d3a1b"/>
      <path id="Trazado_903616" data-name="Trazado 903616" d="M21.652,54.518c-.362.014-.726.022-1.1.022-10.895,0-18.5-6.25-18.5-15.2,0-7.3,4.933-18.089,12.291-22.522.1-.062.184-.137.274-.206h8.4a1.028,1.028,0,0,0,0-2.056H15.917a3.083,3.083,0,0,0-.447-2.228C12,6.947,11.321,4.526,11.447,3.9a.073.073,0,0,0,.044.01,16.034,16.034,0,0,1,4.554.693,15.888,15.888,0,0,0,4.4.685,20.718,20.718,0,0,0,4.992-.737,18.6,18.6,0,0,1,3.951-.641c-.037.774-.8,3.061-3.459,7.592H18.089a1.028,1.028,0,1,0,0,2.056h6.937a3.061,3.061,0,0,0,.066,1.147,3.3,3.3,0,0,0,1.553,2.036,25.152,25.152,0,0,1,8.7,9.687,1.028,1.028,0,1,0,1.8-.983,27.206,27.206,0,0,0-9.456-10.474,1.27,1.27,0,0,1-.607-.772,1.041,1.041,0,0,1,.125-.81C32.369,4.807,31.535,3.333,31.185,2.7a1.717,1.717,0,0,0-1.551-.856,19.61,19.61,0,0,0-4.659.7,18.832,18.832,0,0,1-4.522.685,13.978,13.978,0,0,1-3.878-.621,18.236,18.236,0,0,0-5.08-.762,1.953,1.953,0,0,0-1.829.994c-.345.634-1.264,2.32,4.082,10.6a1.04,1.04,0,0,1,.149.822,1.277,1.277,0,0,1-.608.8C5.345,19.849,0,31.483,0,39.34c0,10,8.647,17.26,20.556,17.26q.592,0,1.176-.025a1.029,1.029,0,0,0-.081-2.056Z" transform="translate(0)" fill="#7d3a1b"/>
    </g>
  </g>
</svg>
