<svg xmlns="http://www.w3.org/2000/svg" xmlns:xlink="http://www.w3.org/1999/xlink" width="121" height="121" viewBox="0 0 121 121">
  <defs>
    <clipPath id="clip-path">
      <rect id="Rectángulo_400938" data-name="Rectángulo 400938" width="121" height="121" transform="translate(0 0)" fill="none"/>
    </clipPath>
    <clipPath id="clip-path-2">
      <rect id="Rectángulo_401073" data-name="Rectángulo 401073" width="92.219" height="41.532" fill="#fff"/>
    </clipPath>
  </defs>
  <g id="Grupo_1117001" data-name="Grupo 1117001" transform="translate(-392.711 -1687.798)">
    <g id="Grupo_1099349" data-name="Grupo 1099349" transform="translate(5.043 -4325.202)">
      <rect id="Rectángulo_401103" data-name="Rectángulo 401103" width="121" height="121" transform="translate(387.668 6013)" fill="none"/>
      <g id="Grupo_1099348" data-name="Grupo 1099348" transform="translate(387.668 6013)">
        <g id="Grupo_1099282" data-name="Grupo 1099282">
          <g id="Grupo_1099281" data-name="Grupo 1099281" clip-path="url(#clip-path-2)">
            <path id="Trazado_873375" data-name="Trazado 873375" d="M74.8,9.1c-4.139,0-6.28-2.03-8.17-3.821-1.855-1.756-3.452-3.274-6.792-3.274s-4.937,1.517-6.792,3.274C51.161,7.072,49.023,9.1,44.881,9.1s-6.28-2.03-8.169-3.821C34.857,3.525,33.26,2.007,29.92,2.007s-4.937,1.517-6.789,3.274C21.241,7.072,19.1,9.1,14.962,9.1S8.679,7.072,6.789,5.281C4.937,3.525,3.34,2.007,0,2.007V0C4.139,0,6.28,2.033,8.17,3.821c1.855,1.759,3.452,3.274,6.792,3.274S19.9,5.58,21.75,3.824C23.637,2.033,25.781,0,29.92,0s6.283,2.033,8.17,3.821c1.855,1.759,3.452,3.274,6.792,3.274s4.937-1.514,6.792-3.274C53.56,2.033,55.7,0,59.843,0s6.283,2.033,8.17,3.821C69.867,5.58,71.464,7.094,74.8,7.094S79.742,5.58,81.6,3.821C83.483,2.033,85.624,0,89.766,0V2.007c-3.34,0-4.937,1.517-6.792,3.274C81.084,7.072,78.943,9.1,74.8,9.1" transform="translate(2.453 32.43)" fill="#fff"/>
            <path id="Trazado_873376" data-name="Trazado 873376" d="M74.8,9.1c-4.139,0-6.283-2.03-8.17-3.824-1.855-1.756-3.452-3.27-6.792-3.27s-4.937,1.514-6.792,3.27C51.164,7.072,49.023,9.1,44.881,9.1s-6.283-2.03-8.17-3.824c-1.855-1.756-3.452-3.27-6.792-3.27s-4.937,1.517-6.789,3.27C21.241,7.072,19.1,9.1,14.962,9.1S8.679,7.072,6.789,5.278C4.937,3.522,3.34,2.007,0,2.007V0C4.139,0,6.283,2.03,8.17,3.821c1.855,1.759,3.452,3.274,6.792,3.274S19.9,5.58,21.75,3.821C23.637,2.03,25.781,0,29.92,0S36.2,2.03,38.093,3.821c1.852,1.759,3.449,3.274,6.789,3.274s4.937-1.514,6.792-3.274C53.56,2.03,55.7,0,59.843,0s6.283,2.03,8.17,3.821C69.867,5.58,71.464,7.094,74.8,7.094S79.742,5.58,81.6,3.821C83.486,2.03,85.627,0,89.769,0V2.007c-3.34,0-4.94,1.517-6.8,3.27C81.084,7.072,78.943,9.1,74.8,9.1" transform="translate(1.635 21.62)" fill="#fff"/>
            <path id="Trazado_873377" data-name="Trazado 873377" d="M74.8,9.1c-4.139,0-6.283-2.03-8.169-3.824-1.855-1.756-3.452-3.27-6.792-3.27s-4.937,1.514-6.792,3.27C51.164,7.072,49.02,9.1,44.881,9.1s-6.283-2.03-8.17-3.824c-1.855-1.756-3.452-3.27-6.792-3.27s-4.937,1.517-6.789,3.27C21.241,7.072,19.1,9.1,14.962,9.1S8.678,7.072,6.789,5.278C4.937,3.522,3.34,2.007,0,2.007V0C4.139,0,6.283,2.03,8.169,3.821c1.851,1.759,3.452,3.274,6.792,3.274S19.9,5.58,21.75,3.821C23.637,2.03,25.781,0,29.92,0S36.2,2.03,38.093,3.821c1.852,1.759,3.449,3.274,6.789,3.274s4.937-1.514,6.792-3.274C53.56,2.03,55.7,0,59.843,0s6.283,2.03,8.17,3.821C69.867,5.58,71.464,7.094,74.8,7.094S79.742,5.58,81.6,3.821C83.486,2.03,85.624,0,89.769,0V2.007c-3.34,0-4.941,1.517-6.8,3.27C81.084,7.072,78.943,9.1,74.8,9.1" transform="translate(0.818 10.81)" fill="#fff"/>
            <path id="Trazado_873378" data-name="Trazado 873378" d="M74.8,9.1c-4.139,0-6.28-2.03-8.17-3.821-1.855-1.756-3.452-3.27-6.792-3.27s-4.937,1.514-6.789,3.27C51.164,7.069,49.023,9.1,44.881,9.1s-6.28-2.03-8.169-3.821c-1.855-1.756-3.452-3.27-6.792-3.27s-4.937,1.514-6.789,3.267C21.245,7.069,19.1,9.1,14.962,9.1S8.678,7.069,6.789,5.278C4.937,3.522,3.34,2.007,0,2.007V0C4.139,0,6.283,2.03,8.17,3.821c1.855,1.756,3.452,3.27,6.792,3.27S19.9,5.577,21.75,3.821C23.64,2.03,25.781,0,29.92,0s6.28,2.03,8.173,3.821c1.852,1.756,3.449,3.27,6.789,3.27s4.937-1.514,6.792-3.27C53.563,2.03,55.7,0,59.843,0s6.28,2.03,8.17,3.821c1.855,1.756,3.452,3.27,6.792,3.27s4.937-1.514,6.792-3.27C83.486,2.03,85.627,0,89.769,0V2.007c-3.344,0-4.941,1.514-6.8,3.27C81.084,7.069,78.943,9.1,74.8,9.1" transform="translate(0 0.003)" fill="#fff"/>
          </g>
        </g>
      </g>
      <circle id="Elipse_11504" data-name="Elipse 11504" cx="50.5" cy="50.5" r="50.5" transform="translate(402.668 6031)" fill="#fff"/>
      <circle id="Elipse_11503" data-name="Elipse 11503" cx="52.5" cy="52.5" r="52.5" transform="translate(395.668 6021)" fill="#09614d"/>
    </g>
    <g id="Grupo_1116996" data-name="Grupo 1116996" transform="translate(398.221 1715.467)">
      <path id="Trazado_903601" data-name="Trazado 903601" d="M102.436,309.992h-2.8a3.3,3.3,0,0,0-3.294,3.294V318.9a3.3,3.3,0,0,0,3.294,3.294h2.8a3.3,3.3,0,0,0,3.294-3.294v-5.611a3.3,3.3,0,0,0-3.294-3.294Zm1.371,8.906a1.372,1.372,0,0,1-1.371,1.371h-2.8a1.372,1.372,0,0,1-1.371-1.371v-5.611a1.372,1.372,0,0,1,1.371-1.371h2.8a1.372,1.372,0,0,1,1.371,1.371Z" transform="translate(-61.831 -270.236)" fill="#fff"/>
      <path id="Trazado_903602" data-name="Trazado 903602" d="M105.731,182.657a3.3,3.3,0,0,0-3.294-3.294h-2.8a3.3,3.3,0,0,0-3.294,3.294v5.611a3.3,3.3,0,0,0,3.294,3.294h2.8a3.3,3.3,0,0,0,3.294-3.294Zm-1.924,5.611a1.372,1.372,0,0,1-1.371,1.371h-2.8a1.372,1.372,0,0,1-1.371-1.371v-5.611a1.372,1.372,0,0,1,1.371-1.371h2.8a1.372,1.372,0,0,1,1.371,1.371Z" transform="translate(-61.831 -156.36)" fill="#fff"/>
      <path id="Trazado_903603" data-name="Trazado 903603" d="M222.7,179.363a3.3,3.3,0,0,0-3.294,3.294v5.611a3.3,3.3,0,0,0,3.294,3.294h2.8a3.3,3.3,0,0,0,3.294-3.294v-5.611a3.3,3.3,0,0,0-3.294-3.294Zm4.168,3.294v5.611a1.372,1.372,0,0,1-1.371,1.371h-2.8a1.372,1.372,0,0,1-1.371-1.371v-5.611a1.372,1.372,0,0,1,1.371-1.371h2.8A1.372,1.372,0,0,1,226.869,182.657Z" transform="translate(-169.11 -156.36)" fill="#fff"/>
      <path id="Trazado_903604" data-name="Trazado 903604" d="M348.561,309.992h-2.8a3.3,3.3,0,0,0-3.294,3.294V318.9a3.3,3.3,0,0,0,3.294,3.294h2.8a3.3,3.3,0,0,0,3.294-3.294v-5.611A3.3,3.3,0,0,0,348.561,309.992Zm1.371,8.906a1.372,1.372,0,0,1-1.371,1.371h-2.8a1.372,1.372,0,0,1-1.371-1.371v-5.611a1.372,1.372,0,0,1,1.371-1.371h2.8a1.372,1.372,0,0,1,1.371,1.371Z" transform="translate(-276.391 -270.236)" fill="#fff"/>
      <path id="Trazado_903605" data-name="Trazado 903605" d="M351.857,182.657a3.3,3.3,0,0,0-3.294-3.294h-2.8a3.3,3.3,0,0,0-3.294,3.294v5.611a3.3,3.3,0,0,0,3.294,3.294h2.8a3.3,3.3,0,0,0,3.294-3.294Zm-1.924,5.611a1.372,1.372,0,0,1-1.371,1.371h-2.8a1.372,1.372,0,0,1-1.371-1.371v-5.611a1.372,1.372,0,0,1,1.371-1.371h2.8a1.372,1.372,0,0,1,1.371,1.371Z" transform="translate(-276.392 -156.36)" fill="#fff"/>
      <path id="Trazado_903606" data-name="Trazado 903606" d="M364.248,39.787c-.484,0-1.092.005-1.586.006V33.462a.962.962,0,0,0-1.924,0v7.287a.962.962,0,0,0,.8.948c.206.035,2.292.016,2.722.014a.962.962,0,1,0-.011-1.924Z" transform="translate(-292.316 -28.332)" fill="#fff"/>
      <path id="Trazado_903607" data-name="Trazado 903607" d="M122.358,32.5a.962.962,0,0,0-.962.962v2.559h-3.123V33.462a.962.962,0,1,0-1.924,0v7.293a.962.962,0,1,0,1.924,0V37.945H121.4v2.81a.962.962,0,0,0,1.924,0V33.462A.962.962,0,0,0,122.358,32.5Z" transform="translate(-79.269 -28.332)" fill="#fff"/>
      <path id="Trazado_903608" data-name="Trazado 903608" d="M314.231,34.944a.962.962,0,1,0,0-1.924h-3.045a.962.962,0,0,0-.962.962v7.226a.962.962,0,0,0,.962.962h3.045a.962.962,0,1,0,0-1.924h-2.083V38.557h1.858a.962.962,0,0,0,0-1.924h-1.858V34.944Z" transform="translate(-248.28 -28.785)" fill="#fff"/>
      <path id="Trazado_903609" data-name="Trazado 903609" d="M257.748,32.5h-4.028a.962.962,0,0,0,0,1.924h1.044v6.331a.962.962,0,1,0,1.924,0V34.424h1.06a.962.962,0,0,0,0-1.924Z" transform="translate(-198.185 -28.332)" fill="#fff"/>
      <path id="Trazado_903610" data-name="Trazado 903610" d="M183.956,32.5a4.608,4.608,0,1,0,4.608,4.608A4.613,4.613,0,0,0,183.956,32.5Zm0,7.293a2.685,2.685,0,1,1,2.684-2.684A2.688,2.688,0,0,1,183.956,39.793Z" transform="translate(-134.189 -28.332)" fill="#fff"/>
      <path id="Trazado_903611" data-name="Trazado 903611" d="M94.854,0H62.282a6.163,6.163,0,0,0-6.156,6.156V16.777A7.836,7.836,0,0,0,52.465,23.4v19.6a.962.962,0,1,0,1.924,0V23.4A5.923,5.923,0,0,1,60.3,17.491H96.834a5.922,5.922,0,0,1,5.913,5.913v5.9a.962.962,0,0,0,1.924,0V23.4a7.836,7.836,0,0,0-3.661-6.627V6.156A6.163,6.163,0,0,0,94.854,0ZM60.3,15.567a7.976,7.976,0,0,0-2.252.331V6.156a4.237,4.237,0,0,1,4.232-4.232H94.854a4.237,4.237,0,0,1,4.232,4.232V15.9a7.965,7.965,0,0,0-2.252-.331Z" transform="translate(-23.578)" fill="#fff"/>
      <path id="Trazado_903612" data-name="Trazado 903612" d="M28.887,274.209a4.893,4.893,0,0,0-3.469,4.674V281.3a3.145,3.145,0,0,0,3.142,3.142H81.42a3.145,3.145,0,0,0,3.142-3.142v-2.419a4.893,4.893,0,0,0-3.469-4.674V251.93a.962.962,0,1,0-1.924,0V274H62.376V262.711a4.178,4.178,0,0,0-4.173-4.173H51.777a4.178,4.178,0,0,0-4.173,4.173V274H30.81v-8.364a.962.962,0,1,0-1.924,0Zm53.751,4.674V281.3a1.219,1.219,0,0,1-1.218,1.218H28.56a1.219,1.219,0,0,1-1.218-1.218v-2.419a2.964,2.964,0,0,1,2.616-2.94h0a2.99,2.99,0,0,1,.344-.021H79.677a2.959,2.959,0,0,1,.344.021h0A2.965,2.965,0,0,1,82.638,278.884Zm-33.11-16.173a2.252,2.252,0,0,1,2.249-2.249H58.2a2.252,2.252,0,0,1,2.249,2.249V274H49.528Z" transform="translate(0 -218.782)" fill="#fff"/>
    </g>
  </g>
</svg>
