<svg xmlns="http://www.w3.org/2000/svg" xmlns:xlink="http://www.w3.org/1999/xlink" width="102" height="60" viewBox="0 0 102 60">
  <defs>
    <clipPath id="clip-path">
      <rect id="Rect치ngulo_401073" data-name="Rect치ngulo 401073" width="92.219" height="41.532" fill="#efb499"/>
    </clipPath>
  </defs>
  <g id="Grupo_1117624" data-name="Grupo 1117624" transform="translate(-623.021 -2156)">
    <g id="Grupo_1099348" data-name="Grupo 1099348" transform="translate(623.021 2156)">
      <g id="Grupo_1099282" data-name="Grupo 1099282">
        <g id="Grupo_1099281" data-name="Grupo 1099281" clip-path="url(#clip-path)">
          <path id="Trazado_873375" data-name="Trazado 873375" d="M74.8,9.1c-4.139,0-6.28-2.03-8.17-3.821-1.855-1.756-3.452-3.274-6.792-3.274s-4.937,1.517-6.792,3.274C51.161,7.072,49.023,9.1,44.881,9.1s-6.28-2.03-8.169-3.821C34.857,3.525,33.26,2.007,29.92,2.007s-4.937,1.517-6.789,3.274C21.241,7.072,19.1,9.1,14.962,9.1S8.679,7.072,6.789,5.281C4.937,3.525,3.34,2.007,0,2.007V0C4.139,0,6.28,2.033,8.17,3.821c1.855,1.759,3.452,3.274,6.792,3.274S19.9,5.58,21.75,3.824C23.637,2.033,25.781,0,29.92,0s6.283,2.033,8.17,3.821c1.855,1.759,3.452,3.274,6.792,3.274s4.937-1.514,6.792-3.274C53.56,2.033,55.7,0,59.843,0s6.283,2.033,8.17,3.821C69.867,5.58,71.464,7.094,74.8,7.094S79.742,5.58,81.6,3.821C83.483,2.033,85.624,0,89.766,0V2.007c-3.34,0-4.937,1.517-6.792,3.274C81.084,7.072,78.943,9.1,74.8,9.1" transform="translate(2.453 32.43)" fill="#efb499"/>
          <path id="Trazado_873376" data-name="Trazado 873376" d="M74.8,9.1c-4.139,0-6.283-2.03-8.17-3.824-1.855-1.756-3.452-3.27-6.792-3.27s-4.937,1.514-6.792,3.27C51.164,7.072,49.023,9.1,44.881,9.1s-6.283-2.03-8.17-3.824c-1.855-1.756-3.452-3.27-6.792-3.27s-4.937,1.517-6.789,3.27C21.241,7.072,19.1,9.1,14.962,9.1S8.679,7.072,6.789,5.278C4.937,3.522,3.34,2.007,0,2.007V0C4.139,0,6.283,2.03,8.17,3.821c1.855,1.759,3.452,3.274,6.792,3.274S19.9,5.58,21.75,3.821C23.637,2.03,25.781,0,29.92,0S36.2,2.03,38.093,3.821c1.852,1.759,3.449,3.274,6.789,3.274s4.937-1.514,6.792-3.274C53.56,2.03,55.7,0,59.843,0s6.283,2.03,8.17,3.821C69.867,5.58,71.464,7.094,74.8,7.094S79.742,5.58,81.6,3.821C83.486,2.03,85.627,0,89.769,0V2.007c-3.34,0-4.94,1.517-6.8,3.27C81.084,7.072,78.943,9.1,74.8,9.1" transform="translate(1.635 21.62)" fill="#efb499"/>
          <path id="Trazado_873377" data-name="Trazado 873377" d="M74.8,9.1c-4.139,0-6.283-2.03-8.169-3.824-1.855-1.756-3.452-3.27-6.792-3.27s-4.937,1.514-6.792,3.27C51.164,7.072,49.02,9.1,44.881,9.1s-6.283-2.03-8.17-3.824c-1.855-1.756-3.452-3.27-6.792-3.27s-4.937,1.517-6.789,3.27C21.241,7.072,19.1,9.1,14.962,9.1S8.678,7.072,6.789,5.278C4.937,3.522,3.34,2.007,0,2.007V0C4.139,0,6.283,2.03,8.169,3.821c1.851,1.759,3.452,3.274,6.792,3.274S19.9,5.58,21.75,3.821C23.637,2.03,25.781,0,29.92,0S36.2,2.03,38.093,3.821c1.852,1.759,3.449,3.274,6.789,3.274s4.937-1.514,6.792-3.274C53.56,2.03,55.7,0,59.843,0s6.283,2.03,8.17,3.821C69.867,5.58,71.464,7.094,74.8,7.094S79.742,5.58,81.6,3.821C83.486,2.03,85.624,0,89.769,0V2.007c-3.34,0-4.941,1.517-6.8,3.27C81.084,7.072,78.943,9.1,74.8,9.1" transform="translate(0.818 10.81)" fill="#efb499"/>
          <path id="Trazado_873378" data-name="Trazado 873378" d="M74.8,9.1c-4.139,0-6.28-2.03-8.17-3.821-1.855-1.756-3.452-3.27-6.792-3.27s-4.937,1.514-6.789,3.27C51.164,7.069,49.023,9.1,44.881,9.1s-6.28-2.03-8.169-3.821c-1.855-1.756-3.452-3.27-6.792-3.27s-4.937,1.514-6.789,3.267C21.245,7.069,19.1,9.1,14.962,9.1S8.678,7.069,6.789,5.278C4.937,3.522,3.34,2.007,0,2.007V0C4.139,0,6.283,2.03,8.17,3.821c1.855,1.756,3.452,3.27,6.792,3.27S19.9,5.577,21.75,3.821C23.64,2.03,25.781,0,29.92,0s6.28,2.03,8.173,3.821c1.852,1.756,3.449,3.27,6.789,3.27s4.937-1.514,6.792-3.27C53.563,2.03,55.7,0,59.843,0s6.28,2.03,8.17,3.821c1.855,1.756,3.452,3.27,6.792,3.27s4.937-1.514,6.792-3.27C83.486,2.03,85.627,0,89.769,0V2.007c-3.344,0-4.941,1.514-6.8,3.27C81.084,7.069,78.943,9.1,74.8,9.1" transform="translate(0 0.003)" fill="#efb499"/>
        </g>
      </g>
    </g>
    <g id="_2._Receptionist" data-name="2. Receptionist" transform="translate(665.021 2156)">
      <path id="Trazado_903625" data-name="Trazado 903625" d="M110.5,28.625H88V19.25a11.25,11.25,0,1,1,22.5,0Z" transform="translate(-77.688 -7.062)" fill="#596060"/>
      <path id="Trazado_903626" data-name="Trazado 903626" d="M103.438,22.5h-22.5A.937.937,0,0,1,80,21.562v-3.75a.938.938,0,0,1,1.875,0v2.813H102.5V12.187a10.313,10.313,0,0,0-20.625,0v1.875a.938.938,0,1,1-1.875,0V12.187a12.187,12.187,0,0,1,24.375,0v9.375A.937.937,0,0,1,103.438,22.5Z" transform="translate(-70.625)"/>
      <path id="Trazado_903627" data-name="Trazado 903627" d="M79.875,184.079v2.671H48v-2.671a7.031,7.031,0,0,1,4.507-6.562l7.68-2.954L61.125,168H66.75l.938,6.563,7.68,2.954A7.031,7.031,0,0,1,79.875,184.079Z" transform="translate(-42.375 -148.313)" fill="#eaf2ff"/>
      <path id="Trazado_903628" data-name="Trazado 903628" d="M48,304v2.813H79.875V304Z" transform="translate(-42.375 -268.375)" fill="#c1d1f7"/>
      <path id="Trazado_903629" data-name="Trazado 903629" d="M72.812,180.625H40.938a.938.938,0,0,1-.937-.938v-2.671a8.017,8.017,0,0,1,5.108-7.438l7.166-2.756.86-6.018a.937.937,0,0,1,.928-.805h5.625a.937.937,0,0,1,.928.805l.86,6.018,7.166,2.756a8.017,8.017,0,0,1,5.108,7.438v2.671a.938.938,0,0,1-.938.938ZM41.875,178.75h30v-1.733a6.132,6.132,0,0,0-3.906-5.688l-7.68-2.953a.938.938,0,0,1-.586-.743l-.82-5.757H54.876l-.82,5.757a.938.938,0,0,1-.586.743l-7.68,2.953a6.132,6.132,0,0,0-3.914,5.688Z" transform="translate(-35.313 -141.25)"/>
      <path id="Trazado_903630" data-name="Trazado 903630" d="M116.625,177.087v9.663H96v-9.663l6.563-2.524L103.5,168h5.625l.938,6.563Z" transform="translate(-84.75 -148.313)" fill="#a8edfd"/>
      <path id="Trazado_903631" data-name="Trazado 903631" d="M96,304h20.625v2.813H96Z" transform="translate(-84.75 -268.375)" fill="#8bd4de"/>
      <path id="Trazado_903632" data-name="Trazado 903632" d="M159.5,174.563l-3.75,3.75-3.75-3.75.938-6.563h5.625Z" transform="translate(-134.187 -148.313)" fill="#e0c3aa"/>
      <path id="Trazado_903633" data-name="Trazado 903633" d="M109.562,180.625H88.938a.938.938,0,0,1-.937-.938v-9.663a.938.938,0,0,1,.6-.875l6.048-2.326.86-6.018a.937.937,0,0,1,.928-.805h5.625a.937.937,0,0,1,.928.805l.86,6.018,6.048,2.326a.938.938,0,0,1,.6.875v9.663A.938.938,0,0,1,109.562,180.625ZM89.875,178.75h18.75v-8.086l-5.961-2.292a.937.937,0,0,1-.586-.743l-.82-5.757H97.251l-.82,5.757a.937.937,0,0,1-.586.743l-5.97,2.292Z" transform="translate(-77.688 -141.25)"/>
      <path id="Trazado_903634" data-name="Trazado 903634" d="M127.5,95a7.5,7.5,0,0,1-7.5-7.5V82.812h2.892a9.87,9.87,0,0,0,5.076-1.406A9.871,9.871,0,0,1,133.045,80H135v7.5A7.5,7.5,0,0,1,127.5,95Z" transform="translate(-105.937 -70.625)" fill="#e0c3aa"/>
      <path id="Trazado_903635" data-name="Trazado 903635" d="M127.5,127.5A7.5,7.5,0,0,1,120,120v2.813a7.5,7.5,0,0,0,15,0V120A7.5,7.5,0,0,1,127.5,127.5Z" transform="translate(-105.937 -105.937)" fill="#d0a37f"/>
      <path id="Trazado_903636" data-name="Trazado 903636" d="M120.437,88.875A8.447,8.447,0,0,1,112,80.438V75.75a.937.937,0,0,1,.938-.937h2.892a8.932,8.932,0,0,0,4.592-1.272A10.807,10.807,0,0,1,125.983,72h1.955a.937.937,0,0,1,.937.938v7.5A8.447,8.447,0,0,1,120.437,88.875Zm-6.562-12.187v3.75a6.563,6.563,0,0,0,13.125,0V73.875h-1.017a8.932,8.932,0,0,0-4.592,1.272,10.807,10.807,0,0,1-5.561,1.541Z" transform="translate(-98.875 -63.563)"/>
      <path id="Trazado_903637" data-name="Trazado 903637" d="M8,328H66.125v5.625H8Z" transform="translate(-7.062 -289.562)" fill="#bc6857"/>
      <path id="Trazado_903638" data-name="Trazado 903638" d="M8,352H66.125v2.813H8Z" transform="translate(-7.062 -310.75)" fill="#a14939"/>
      <path id="Trazado_903639" data-name="Trazado 903639" d="M59.062,327.5H.937A.938.938,0,0,1,0,326.563v-5.625A.937.937,0,0,1,.938,320H59.062a.937.937,0,0,1,.938.937v5.625A.938.938,0,0,1,59.062,327.5ZM1.875,325.625h56.25v-3.75H1.875Z" transform="translate(0 -282.5)"/>
      <path id="Trazado_903640" data-name="Trazado 903640" d="M24,376H78.375v15H24Z" transform="translate(-21.187 -331.938)" fill="#e38343"/>
      <path id="Trazado_903641" data-name="Trazado 903641" d="M24,480H78.375v2.813H24Z" transform="translate(-21.187 -423.75)" fill="#df6117"/>
      <path id="Trazado_903642" data-name="Trazado 903642" d="M16.938,384.875a.938.938,0,0,1-.938-.937v-15a.938.938,0,0,1,.938-.937H71.312a.938.938,0,0,1,0,1.875H17.875v14.063A.938.938,0,0,1,16.938,384.875Z" transform="translate(-14.125 -324.875)"/>
      <path id="Trazado_903643" data-name="Trazado 903643" d="M480.937,413.125a.937.937,0,0,1-.937-.937v-11.25a.938.938,0,1,1,1.875,0v11.25A.937.937,0,0,1,480.937,413.125Z" transform="translate(-423.75 -353.125)"/>
      <rect id="Rect치ngulo_408148" data-name="Rect치ngulo 408148" width="22.113" height="20.007" rx="4" transform="translate(36.856 13.667)" fill="#dcdcdc"/>
      <path id="Trazado_903644" data-name="Trazado 903644" d="M332.625,249.875h-18.75A1.875,1.875,0,0,1,312,248v2.813a1.875,1.875,0,0,0,1.875,1.875h18.75a1.875,1.875,0,0,0,1.875-1.875V248A1.875,1.875,0,0,1,332.625,249.875Z" transform="translate(-275.437 -218.937)" fill="#bbb"/>
      <path id="Trazado_903645" data-name="Trazado 903645" d="M325.562,133.563h-18.75A2.813,2.813,0,0,1,304,130.75V114.812A2.813,2.813,0,0,1,306.812,112h18.75a2.813,2.813,0,0,1,2.813,2.813V130.75A2.813,2.813,0,0,1,325.562,133.563Zm-18.75-19.688a.937.937,0,0,0-.937.938V130.75a.937.937,0,0,0,.938.938h18.75a.938.938,0,0,0,.938-.937V114.812a.938.938,0,0,0-.938-.937Z" transform="translate(-268.375 -98.875)"/>
      <path id="Trazado_903646" data-name="Trazado 903646" d="M383.5,278.563H376L377.875,272h3.75Z" transform="translate(-331.938 -240.125)" fill="#bbb"/>
      <path id="Trazado_903647" data-name="Trazado 903647" d="M376.8,304l-.8,2.813h7.5L382.7,304Z" transform="translate(-331.938 -268.375)" fill="#8c8c8c"/>
      <path id="Trazado_903648" data-name="Trazado 903648" d="M376.439,272.438h-7.5a.938.938,0,0,1-.9-1.2l1.875-6.562a.937.937,0,0,1,.9-.68h3.75a.937.937,0,0,1,.9.68l1.875,6.563a.937.937,0,0,1-.9,1.2Zm-6.257-1.875H375.2l-1.335-4.687h-2.344Z" transform="translate(-324.876 -233.063)"/>
      <path id="Trazado_903649" data-name="Trazado 903649" d="M137.979,227.75l-2.812,3.75-3.3-6.593,2.359-.907Z" transform="translate(-116.416 -197.75)" fill="#6fc3e2"/>
      <path id="Trazado_903650" data-name="Trazado 903650" d="M127.278,224.9l-3.3-6.593a.937.937,0,0,1,.5-1.289l2.359-.907a.937.937,0,0,1,1,.212l3.75,3.75a.937.937,0,0,1,.087,1.226l-2.812,3.75a.938.938,0,0,1-1.589-.149Zm-1.153-6.513,2.156,4.312,1.414-1.886-2.75-2.74Z" transform="translate(-109.367 -190.728)"/>
      <path id="Trazado_903651" data-name="Trazado 903651" d="M190.109,224.907l-3.3,6.593L184,227.75l3.75-3.75Z" transform="translate(-162.437 -197.75)" fill="#6fc3e2"/>
      <path id="Trazado_903652" data-name="Trazado 903652" d="M179,225l-2.812-3.75a.938.938,0,0,1,.087-1.226l3.75-3.75a.937.937,0,0,1,1-.212l2.359.907a.938.938,0,0,1,.5,1.289l-3.3,6.593A.938.938,0,0,1,179,225Zm-.82-4.225,1.414,1.886,2.148-4.317-.82-.313Z" transform="translate(-155.373 -190.684)"/>
      <path id="Trazado_903653" data-name="Trazado 903653" d="M160.512,161.77a.938.938,0,0,1,.839-1.678,3.269,3.269,0,0,0,2.911,0,.938.938,0,1,1,.839,1.678A5.156,5.156,0,0,1,160.512,161.77Z" transform="translate(-141.244 -141.244)"/>
      <path id="Trazado_903654" data-name="Trazado 903654" d="M96,424h37.5v9.375H96Z" transform="translate(-84.75 -374.312)" fill="#e9a648"/>
      <path id="Trazado_903655" data-name="Trazado 903655" d="M96,480h37.5v2.813H96Z" transform="translate(-84.75 -423.75)" fill="#d08840"/>
      <path id="Trazado_903656" data-name="Trazado 903656" d="M126.438,427.25a.937.937,0,0,1-.937-.937v-8.438H89.875v8.438a.938.938,0,0,1-1.875,0v-9.375a.938.938,0,0,1,.938-.937h37.5a.938.938,0,0,1,.938.938v9.375A.937.937,0,0,1,126.438,427.25Z" transform="translate(-77.688 -367.25)"/>
    </g>
  </g>
</svg>
