<svg xmlns="http://www.w3.org/2000/svg" width="107" height="107" viewBox="0 0 107 107">
  <g id="Grupo_1116341" data-name="Grupo 1116341" transform="translate(-180.282 -1595)">
    <g id="Grupo_156312" data-name="Grupo 156312" transform="translate(-108.386 -2853.437)">
      <path id="Elipse_5845" data-name="Elipse 5845" d="M53.5,0A53.5,53.5,0,1,1,0,53.5,53.5,53.5,0,0,1,53.5,0Z" transform="translate(288.668 4448.437)" fill="#ffce73"/>
    </g>
    <g id="Layer_x0020_1" transform="translate(198.282 1616)">
      <g id="_721616752" transform="translate(0 0)">
        <g id="Grupo_1115072" data-name="Grupo 1115072">
          <g id="Grupo_1115060" data-name="Grupo 1115060" transform="translate(15.667)">
            <path id="Trazado_900895" data-name="Trazado 900895" d="M436.27,133.481H383.8a.933.933,0,0,1-.933-.933V108.965a.933.933,0,1,1,1.866,0v22.65h50.6V70.886h-50.6V91.653a.933.933,0,0,1-1.866,0v-21.7a.933.933,0,0,1,.933-.933h52.466a.933.933,0,0,1,.933.933v62.595a.933.933,0,0,1-.933.933Z" transform="translate(-382.87 -69.02)" fill="#7d3a1b" fill-rule="evenodd"/>
          </g>
          <g id="Grupo_1115061" data-name="Grupo 1115061" transform="translate(0 6.766)">
            <path id="Trazado_900896" data-name="Trazado 900896" d="M5.621,245.155a.932.932,0,0,1-.815-.48l-3.077-5.528a.932.932,0,0,1,.362-1.269l7.357-4.095a.932.932,0,0,1,1.269.362l3.077,5.528a.933.933,0,0,1-.362,1.269l-7.357,4.095a.943.943,0,0,1-.454.117Zm-1.807-6.1,2.169,3.9,5.726-3.187-2.169-3.9Z" transform="translate(-1.612 -233.666)" fill="#7d3a1b" fill-rule="evenodd"/>
          </g>
          <g id="Grupo_1115062" data-name="Grupo 1115062" transform="translate(22.145 46.554)">
            <path id="Trazado_900897" data-name="Trazado 900897" d="M549.512,1213.7a.931.931,0,0,1-.548-.177l-8.077-5.856a.934.934,0,0,1,1.1-1.512l6.453,4.679-.576-7.951a.934.934,0,0,1,1.862-.135l.72,9.951a.934.934,0,0,1-.477.883.923.923,0,0,1-.453.118Z" transform="translate(-540.502 -1201.886)" fill="#7d3a1b" fill-rule="evenodd"/>
          </g>
          <g id="Grupo_1115063" data-name="Grupo 1115063" transform="translate(3.076 12.293)">
            <path id="Trazado_900898" data-name="Trazado 900898" d="M96.476,408.388a.933.933,0,0,1-.816-.48L76.592,373.647a.933.933,0,0,1,1.631-.908l18.614,33.445L102.563,403,83.948,369.552a.933.933,0,1,1,1.631-.908l19.068,34.261a.934.934,0,0,1-.362,1.27l-7.357,4.095a.922.922,0,0,1-.453.118Z" transform="translate(-76.474 -368.165)" fill="#7d3a1b" fill-rule="evenodd"/>
          </g>
          <g id="Grupo_1115064" data-name="Grupo 1115064" transform="translate(37.963 30.673)">
            <path id="Trazado_900899" data-name="Trazado 900899" d="M938.492,841.547a13.054,13.054,0,1,1,13.054-13.053A13.068,13.068,0,0,1,938.492,841.547Zm0-24.241a11.187,11.187,0,1,0,11.188,11.187A11.2,11.2,0,0,0,938.492,817.306Z" transform="translate(-925.44 -815.44)" fill="#7d3a1b" fill-rule="evenodd"/>
          </g>
          <g id="Grupo_1115065" data-name="Grupo 1115065" transform="translate(37.963 30.674)">
            <path id="Trazado_900900" data-name="Trazado 900900" d="M938.473,841.566a.933.933,0,0,1-.933-.933v-6.542a.933.933,0,0,1,1.866,0v6.542A.934.934,0,0,1,938.473,841.566Zm12.12-12.12h-6.542a.933.933,0,1,1,0-1.866h6.542a.933.933,0,1,1,0,1.866Zm-17.7,0h-6.542a.933.933,0,1,1,0-1.866h6.542a.933.933,0,0,1,0,1.866Zm5.578-5.578a.933.933,0,0,1-.933-.933v-6.542a.933.933,0,0,1,1.866,0v6.542a.934.934,0,0,1-.933.934Z" transform="translate(-925.42 -815.46)" fill="#7d3a1b" fill-rule="evenodd"/>
          </g>
          <g id="Grupo_1115066" data-name="Grupo 1115066" transform="translate(41.679 7.528)">
            <path id="Trazado_900901" data-name="Trazado 900901" d="M1037.308,254.087h-20.525a.933.933,0,0,1,0-1.866h20.525a.933.933,0,0,1,0,1.866Z" transform="translate(-1015.85 -252.22)" fill="#7d3a1b" fill-rule="evenodd"/>
          </g>
          <g id="Grupo_1115067" data-name="Grupo 1115067" transform="translate(41.679 14.863)">
            <path id="Trazado_900902" data-name="Trazado 900902" d="M1037.308,432.576h-20.525a.933.933,0,0,1,0-1.866h20.525a.933.933,0,0,1,0,1.866Z" transform="translate(-1015.85 -430.71)" fill="#7d3a1b" fill-rule="evenodd"/>
          </g>
          <g id="Grupo_1115068" data-name="Grupo 1115068" transform="translate(41.679 22.197)">
            <path id="Trazado_900903" data-name="Trazado 900903" d="M1037.308,611.046h-20.525a.933.933,0,1,1,0-1.866h20.525a.933.933,0,1,1,0,1.866Z" transform="translate(-1015.85 -609.18)" fill="#7d3a1b" fill-rule="evenodd"/>
          </g>
          <g id="Grupo_1115069" data-name="Grupo 1115069" transform="translate(21.598 7.528)">
            <path id="Trazado_900904" data-name="Trazado 900904" d="M542.892,269.71H529.008A1.81,1.81,0,0,1,527.2,267.9V254.017a1.81,1.81,0,0,1,1.808-1.807h13.885a1.809,1.809,0,0,1,1.807,1.807V267.9A1.81,1.81,0,0,1,542.892,269.71Zm-13.826-1.867h13.767V254.076H529.067Z" transform="translate(-527.2 -252.21)" fill="#7d3a1b" fill-rule="evenodd"/>
          </g>
          <g id="Grupo_1115070" data-name="Grupo 1115070" transform="translate(25.863 7.528)">
            <path id="Trazado_900905" data-name="Trazado 900905" d="M631.923,263.15a.934.934,0,0,1-.933-.933v-9.074a.933.933,0,1,1,1.866,0v7.16l2.012-1.572a.933.933,0,0,1,1.143,0l2.082,1.6v-7.181a.933.933,0,0,1,1.867,0v9.074a.933.933,0,0,1-1.5.741l-3.01-2.31-2.95,2.3a.938.938,0,0,1-.575.2Z" transform="translate(-630.99 -252.21)" fill="#7d3a1b" fill-rule="evenodd"/>
          </g>
          <g id="Grupo_1115071" data-name="Grupo 1115071" transform="translate(42.245 34.955)">
            <path id="Trazado_900906" data-name="Trazado 900906" d="M1038.4,937.183a8.771,8.771,0,1,1,8.772-8.771A8.781,8.781,0,0,1,1038.4,937.183Zm0-15.676a6.905,6.905,0,1,0,6.906,6.906A6.913,6.913,0,0,0,1038.4,921.507Z" transform="translate(-1029.63 -919.64)" fill="#7d3a1b" fill-rule="evenodd"/>
          </g>
        </g>
      </g>
    </g>
  </g>
</svg>
