<svg xmlns="http://www.w3.org/2000/svg" xmlns:xlink="http://www.w3.org/1999/xlink" width="121" height="121" viewBox="0 0 121 121">
  <defs>
    <clipPath id="clip-path">
      <rect id="Rectángulo_400938" data-name="Rectángulo 400938" width="121" height="121" transform="translate(0 0)" fill="none"/>
    </clipPath>
    <clipPath id="clip-path-2">
      <rect id="Rectángulo_401073" data-name="Rectángulo 401073" width="92.219" height="41.532" fill="#efb499"/>
    </clipPath>
  </defs>
  <g id="Grupo_1099530" data-name="Grupo 1099530" transform="translate(-392.711 -1687.798)">
    <g id="Grupo_1099349" data-name="Grupo 1099349" transform="translate(5.043 -4325.202)">
      <rect id="Rectángulo_401103" data-name="Rectángulo 401103" width="121" height="121" transform="translate(387.668 6013)" fill="none"/>
      <g id="Grupo_1099348" data-name="Grupo 1099348" transform="translate(387.668 6013)">
        <g id="Grupo_1099282" data-name="Grupo 1099282">
          <g id="Grupo_1099281" data-name="Grupo 1099281" clip-path="url(#clip-path-2)">
            <path id="Trazado_873375" data-name="Trazado 873375" d="M74.8,9.1c-4.139,0-6.28-2.03-8.17-3.821-1.855-1.756-3.452-3.274-6.792-3.274s-4.937,1.517-6.792,3.274C51.161,7.072,49.023,9.1,44.881,9.1s-6.28-2.03-8.169-3.821C34.857,3.525,33.26,2.007,29.92,2.007s-4.937,1.517-6.789,3.274C21.241,7.072,19.1,9.1,14.962,9.1S8.679,7.072,6.789,5.281C4.937,3.525,3.34,2.007,0,2.007V0C4.139,0,6.28,2.033,8.17,3.821c1.855,1.759,3.452,3.274,6.792,3.274S19.9,5.58,21.75,3.824C23.637,2.033,25.781,0,29.92,0s6.283,2.033,8.17,3.821c1.855,1.759,3.452,3.274,6.792,3.274s4.937-1.514,6.792-3.274C53.56,2.033,55.7,0,59.843,0s6.283,2.033,8.17,3.821C69.867,5.58,71.464,7.094,74.8,7.094S79.742,5.58,81.6,3.821C83.483,2.033,85.624,0,89.766,0V2.007c-3.34,0-4.937,1.517-6.792,3.274C81.084,7.072,78.943,9.1,74.8,9.1" transform="translate(2.453 32.43)" fill="#efb499"/>
            <path id="Trazado_873376" data-name="Trazado 873376" d="M74.8,9.1c-4.139,0-6.283-2.03-8.17-3.824-1.855-1.756-3.452-3.27-6.792-3.27s-4.937,1.514-6.792,3.27C51.164,7.072,49.023,9.1,44.881,9.1s-6.283-2.03-8.17-3.824c-1.855-1.756-3.452-3.27-6.792-3.27s-4.937,1.517-6.789,3.27C21.241,7.072,19.1,9.1,14.962,9.1S8.679,7.072,6.789,5.278C4.937,3.522,3.34,2.007,0,2.007V0C4.139,0,6.283,2.03,8.17,3.821c1.855,1.759,3.452,3.274,6.792,3.274S19.9,5.58,21.75,3.821C23.637,2.03,25.781,0,29.92,0S36.2,2.03,38.093,3.821c1.852,1.759,3.449,3.274,6.789,3.274s4.937-1.514,6.792-3.274C53.56,2.03,55.7,0,59.843,0s6.283,2.03,8.17,3.821C69.867,5.58,71.464,7.094,74.8,7.094S79.742,5.58,81.6,3.821C83.486,2.03,85.627,0,89.769,0V2.007c-3.34,0-4.94,1.517-6.8,3.27C81.084,7.072,78.943,9.1,74.8,9.1" transform="translate(1.635 21.62)" fill="#efb499"/>
            <path id="Trazado_873377" data-name="Trazado 873377" d="M74.8,9.1c-4.139,0-6.283-2.03-8.169-3.824-1.855-1.756-3.452-3.27-6.792-3.27s-4.937,1.514-6.792,3.27C51.164,7.072,49.02,9.1,44.881,9.1s-6.283-2.03-8.17-3.824c-1.855-1.756-3.452-3.27-6.792-3.27s-4.937,1.517-6.789,3.27C21.241,7.072,19.1,9.1,14.962,9.1S8.678,7.072,6.789,5.278C4.937,3.522,3.34,2.007,0,2.007V0C4.139,0,6.283,2.03,8.169,3.821c1.851,1.759,3.452,3.274,6.792,3.274S19.9,5.58,21.75,3.821C23.637,2.03,25.781,0,29.92,0S36.2,2.03,38.093,3.821c1.852,1.759,3.449,3.274,6.789,3.274s4.937-1.514,6.792-3.274C53.56,2.03,55.7,0,59.843,0s6.283,2.03,8.17,3.821C69.867,5.58,71.464,7.094,74.8,7.094S79.742,5.58,81.6,3.821C83.486,2.03,85.624,0,89.769,0V2.007c-3.34,0-4.941,1.517-6.8,3.27C81.084,7.072,78.943,9.1,74.8,9.1" transform="translate(0.818 10.81)" fill="#efb499"/>
            <path id="Trazado_873378" data-name="Trazado 873378" d="M74.8,9.1c-4.139,0-6.28-2.03-8.17-3.821-1.855-1.756-3.452-3.27-6.792-3.27s-4.937,1.514-6.789,3.27C51.164,7.069,49.023,9.1,44.881,9.1s-6.28-2.03-8.169-3.821c-1.855-1.756-3.452-3.27-6.792-3.27s-4.937,1.514-6.789,3.267C21.245,7.069,19.1,9.1,14.962,9.1S8.678,7.069,6.789,5.278C4.937,3.522,3.34,2.007,0,2.007V0C4.139,0,6.283,2.03,8.17,3.821c1.855,1.756,3.452,3.27,6.792,3.27S19.9,5.577,21.75,3.821C23.64,2.03,25.781,0,29.92,0s6.28,2.03,8.173,3.821c1.852,1.756,3.449,3.27,6.789,3.27s4.937-1.514,6.792-3.27C53.563,2.03,55.7,0,59.843,0s6.28,2.03,8.17,3.821c1.855,1.756,3.452,3.27,6.792,3.27s4.937-1.514,6.792-3.27C83.486,2.03,85.627,0,89.769,0V2.007c-3.344,0-4.941,1.514-6.8,3.27C81.084,7.069,78.943,9.1,74.8,9.1" transform="translate(0 0.003)" fill="#efb499"/>
          </g>
        </g>
      </g>
      <circle id="Elipse_11504" data-name="Elipse 11504" cx="50.5" cy="50.5" r="50.5" transform="translate(402.668 6031)" fill="#ffce73"/>
      <circle id="Elipse_11503" data-name="Elipse 11503" cx="52.5" cy="52.5" r="52.5" transform="translate(395.668 6021)" fill="#f3f9ff"/>
    </g>
    <path id="Trazado_900870" data-name="Trazado 900870" d="M20.576,67.595a2.253,2.253,0,0,1-.554,2.373l-6.758,6.561,0,0a2.259,2.259,0,0,1-3.179-.052h0l-2.44-2.513h0a2.255,2.255,0,0,1,.046-3.182l6.762-6.563h0a2.264,2.264,0,0,1,2.388-.477l2.527-2.453a13.454,13.454,0,0,1,.821-15.007l-4.043.872a1.131,1.131,0,0,1-1.039-.306L8.037,39.783A1.132,1.132,0,0,1,8.6,37.877l3.448-.743-.355-.355a1.132,1.132,0,0,1,1.6-1.6l.355.355.743-3.448a1.132,1.132,0,0,1,1.907-.562l7.065,7.069a1.132,1.132,0,0,1,.306,1.039L22.8,43.67a13.386,13.386,0,0,1,8.111-2.721q.515,0,1.02.038A21.952,21.952,0,0,1,30.843,37.9l-3.45-1.328a1.132,1.132,0,0,1-.725-1.056V28.99a1.132,1.132,0,0,1,.725-1.056l3.45-1.328a21.8,21.8,0,0,1,2.184-5.263l-1.5-3.381a1.132,1.132,0,0,1,.234-1.26l4.613-4.613a1.132,1.132,0,0,1,1.26-.234l3.381,1.5a21.64,21.64,0,0,1,5.258-2.179L47.6,7.724A1.132,1.132,0,0,1,48.658,7h6.526a1.132,1.132,0,0,1,1.056.726l1.327,3.454a21.643,21.643,0,0,1,5.257,2.178l3.381-1.5a1.132,1.132,0,0,1,1.26.234L72.077,16.7a1.132,1.132,0,0,1,.235,1.258l-1.5,3.381a21.61,21.61,0,0,1,2.179,5.265l3.448,1.327a1.132,1.132,0,0,1,.725,1.056v6.526a1.132,1.132,0,0,1-.725,1.056L72.993,37.9a21.838,21.838,0,0,1-2.179,5.257l1.5,3.382a1.132,1.132,0,0,1-.235,1.259L67.464,52.41a1.131,1.131,0,0,1-1.258.235l-3.38-1.5a21.582,21.582,0,0,1-5.259,2.179L56.24,56.774a1.132,1.132,0,0,1-1.056.725H48.658a1.131,1.131,0,0,1-1.056-.725l-1.327-3.448q-1.034-.276-2.032-.652A13.455,13.455,0,0,1,30.907,67.838a13.384,13.384,0,0,1-7.922-2.581Zm-2.018-2.37.587.6,2.124-2.061q-.294-.3-.569-.623Zm3.682-17.9a11.18,11.18,0,1,0,1.6-1.6l1.113,1.113a9.615,9.615,0,1,1-1.6,1.6Zm12.445-5.84A13.475,13.475,0,0,1,43.6,49.946a19.345,19.345,0,0,0,3.782,1.324,1.132,1.132,0,0,1,.8.695l1.259,3.27h4.971l1.259-3.27a1.132,1.132,0,0,1,.795-.695,19.317,19.317,0,0,0,5.693-2.359,1.132,1.132,0,0,1,1.053-.072l3.207,1.421,3.515-3.516-1.421-3.207a1.132,1.132,0,0,1,.07-1.05,19.567,19.567,0,0,0,2.361-5.7A1.131,1.131,0,0,1,71.633,36l3.27-1.259V29.767l-3.27-1.259a1.131,1.131,0,0,1-.695-.8,19.358,19.358,0,0,0-2.359-5.7,1.132,1.132,0,0,1-.071-1.052l1.421-3.207-3.515-3.515-3.206,1.426a1.132,1.132,0,0,1-1.053-.071,19.394,19.394,0,0,0-5.694-2.36,1.132,1.132,0,0,1-.795-.695L54.406,9.263H49.434l-1.265,3.278a1.131,1.131,0,0,1-.794.694,19.394,19.394,0,0,0-5.694,2.36,1.132,1.132,0,0,1-1.053.071l-3.206-1.426-3.514,3.514,1.426,3.206a1.132,1.132,0,0,1-.071,1.053,19.553,19.553,0,0,0-2.367,5.7,1.131,1.131,0,0,1-.694.792l-3.27,1.259v4.972L32.2,36a1.131,1.131,0,0,1,.694.791,19.6,19.6,0,0,0,1.791,4.7ZM13.951,39.039l-2.845.613,5.16,5.16,2.845-.613Zm6.761,3.56.613-2.842-5.16-5.163-.613,2.844Zm4.257,7.458a7.352,7.352,0,1,0,1.6-1.6l5.138,5.138a1.132,1.132,0,0,1-1.6,1.6ZM51.917,47.51a15.26,15.26,0,1,1,15.26-15.26A15.29,15.29,0,0,1,51.917,47.51Zm0-2.263a13,13,0,1,0-13-13A13.022,13.022,0,0,0,51.917,45.247ZM50.786,24.29v-.978a1.132,1.132,0,1,1,2.263,0v.964a5.341,5.341,0,0,1,4.074,3.246,1.132,1.132,0,1,1-2.087.876,3.407,3.407,0,0,0-4.466-1.7,2.232,2.232,0,0,0-1.581,2.174v0a1.914,1.914,0,0,0,1.234,1.658,6.885,6.885,0,0,0,1.89.548h0c2.416.4,5.087,1.469,5.432,4.341s-2.062,4.457-4.5,4.821v.949a1.132,1.132,0,0,1-2.263,0v-.965a5.336,5.336,0,0,1-4.5-3.9,1.132,1.132,0,0,1,2.2-.547,3.361,3.361,0,0,0,3.588,2.28h0a4.608,4.608,0,0,0,2.442-.7,1.686,1.686,0,0,0,.783-1.666h0a2.265,2.265,0,0,0-1.494-1.811,8.284,8.284,0,0,0-2.057-.567c-2.355-.384-4.889-1.541-5.021-4.334a4.424,4.424,0,0,1,3.013-4.39,5.892,5.892,0,0,1,1.044-.3ZM9.272,72.4,11.7,74.9l6.741-6.545-2.424-2.5Z" transform="translate(411.125 1706.217)" fill="#7d3a1b" fill-rule="evenodd"/>
  </g>
</svg>
