<svg xmlns="http://www.w3.org/2000/svg" xmlns:xlink="http://www.w3.org/1999/xlink" width="121" height="121" viewBox="0 0 121 121">
  <defs>
    <clipPath id="clip-path">
      <rect id="Rectángulo_400938" data-name="Rectángulo 400938" width="121" height="121" transform="translate(0 0)" fill="none"/>
    </clipPath>
    <clipPath id="clip-path-2">
      <rect id="Rectángulo_401073" data-name="Rectángulo 401073" width="92.219" height="41.532" fill="#efb499"/>
    </clipPath>
  </defs>
  <g id="Grupo_1115031" data-name="Grupo 1115031" transform="translate(-1095.711 -1687.798)">
    <g id="Grupo_1099376" data-name="Grupo 1099376" transform="translate(708.043 -4325.202)">
      <rect id="Rectángulo_401103" data-name="Rectángulo 401103" width="121" height="121" transform="translate(387.668 6013)" fill="none"/>
      <g id="Grupo_1099348" data-name="Grupo 1099348" transform="translate(387.668 6013)">
        <g id="Grupo_1099282" data-name="Grupo 1099282">
          <g id="Grupo_1099281" data-name="Grupo 1099281" clip-path="url(#clip-path-2)">
            <path id="Trazado_873375" data-name="Trazado 873375" d="M74.8,9.1c-4.139,0-6.28-2.03-8.17-3.821-1.855-1.756-3.452-3.274-6.792-3.274s-4.937,1.517-6.792,3.274C51.161,7.072,49.023,9.1,44.881,9.1s-6.28-2.03-8.169-3.821C34.857,3.525,33.26,2.007,29.92,2.007s-4.937,1.517-6.789,3.274C21.241,7.072,19.1,9.1,14.962,9.1S8.679,7.072,6.789,5.281C4.937,3.525,3.34,2.007,0,2.007V0C4.139,0,6.28,2.033,8.17,3.821c1.855,1.759,3.452,3.274,6.792,3.274S19.9,5.58,21.75,3.824C23.637,2.033,25.781,0,29.92,0s6.283,2.033,8.17,3.821c1.855,1.759,3.452,3.274,6.792,3.274s4.937-1.514,6.792-3.274C53.56,2.033,55.7,0,59.843,0s6.283,2.033,8.17,3.821C69.867,5.58,71.464,7.094,74.8,7.094S79.742,5.58,81.6,3.821C83.483,2.033,85.624,0,89.766,0V2.007c-3.34,0-4.937,1.517-6.792,3.274C81.084,7.072,78.943,9.1,74.8,9.1" transform="translate(2.453 32.43)" fill="#efb499"/>
            <path id="Trazado_873376" data-name="Trazado 873376" d="M74.8,9.1c-4.139,0-6.283-2.03-8.17-3.824-1.855-1.756-3.452-3.27-6.792-3.27s-4.937,1.514-6.792,3.27C51.164,7.072,49.023,9.1,44.881,9.1s-6.283-2.03-8.17-3.824c-1.855-1.756-3.452-3.27-6.792-3.27s-4.937,1.517-6.789,3.27C21.241,7.072,19.1,9.1,14.962,9.1S8.679,7.072,6.789,5.278C4.937,3.522,3.34,2.007,0,2.007V0C4.139,0,6.283,2.03,8.17,3.821c1.855,1.759,3.452,3.274,6.792,3.274S19.9,5.58,21.75,3.821C23.637,2.03,25.781,0,29.92,0S36.2,2.03,38.093,3.821c1.852,1.759,3.449,3.274,6.789,3.274s4.937-1.514,6.792-3.274C53.56,2.03,55.7,0,59.843,0s6.283,2.03,8.17,3.821C69.867,5.58,71.464,7.094,74.8,7.094S79.742,5.58,81.6,3.821C83.486,2.03,85.627,0,89.769,0V2.007c-3.34,0-4.94,1.517-6.8,3.27C81.084,7.072,78.943,9.1,74.8,9.1" transform="translate(1.635 21.62)" fill="#efb499"/>
            <path id="Trazado_873377" data-name="Trazado 873377" d="M74.8,9.1c-4.139,0-6.283-2.03-8.169-3.824-1.855-1.756-3.452-3.27-6.792-3.27s-4.937,1.514-6.792,3.27C51.164,7.072,49.02,9.1,44.881,9.1s-6.283-2.03-8.17-3.824c-1.855-1.756-3.452-3.27-6.792-3.27s-4.937,1.517-6.789,3.27C21.241,7.072,19.1,9.1,14.962,9.1S8.678,7.072,6.789,5.278C4.937,3.522,3.34,2.007,0,2.007V0C4.139,0,6.283,2.03,8.169,3.821c1.851,1.759,3.452,3.274,6.792,3.274S19.9,5.58,21.75,3.821C23.637,2.03,25.781,0,29.92,0S36.2,2.03,38.093,3.821c1.852,1.759,3.449,3.274,6.789,3.274s4.937-1.514,6.792-3.274C53.56,2.03,55.7,0,59.843,0s6.283,2.03,8.17,3.821C69.867,5.58,71.464,7.094,74.8,7.094S79.742,5.58,81.6,3.821C83.486,2.03,85.624,0,89.769,0V2.007c-3.34,0-4.941,1.517-6.8,3.27C81.084,7.072,78.943,9.1,74.8,9.1" transform="translate(0.818 10.81)" fill="#efb499"/>
            <path id="Trazado_873378" data-name="Trazado 873378" d="M74.8,9.1c-4.139,0-6.28-2.03-8.17-3.821-1.855-1.756-3.452-3.27-6.792-3.27s-4.937,1.514-6.789,3.27C51.164,7.069,49.023,9.1,44.881,9.1s-6.28-2.03-8.169-3.821c-1.855-1.756-3.452-3.27-6.792-3.27s-4.937,1.514-6.789,3.267C21.245,7.069,19.1,9.1,14.962,9.1S8.678,7.069,6.789,5.278C4.937,3.522,3.34,2.007,0,2.007V0C4.139,0,6.283,2.03,8.17,3.821c1.855,1.756,3.452,3.27,6.792,3.27S19.9,5.577,21.75,3.821C23.64,2.03,25.781,0,29.92,0s6.28,2.03,8.173,3.821c1.852,1.756,3.449,3.27,6.789,3.27s4.937-1.514,6.792-3.27C53.563,2.03,55.7,0,59.843,0s6.28,2.03,8.17,3.821c1.855,1.756,3.452,3.27,6.792,3.27s4.937-1.514,6.792-3.27C83.486,2.03,85.627,0,89.769,0V2.007c-3.344,0-4.941,1.514-6.8,3.27C81.084,7.069,78.943,9.1,74.8,9.1" transform="translate(0 0.003)" fill="#efb499"/>
          </g>
        </g>
      </g>
      <circle id="Elipse_11504" data-name="Elipse 11504" cx="50.5" cy="50.5" r="50.5" transform="translate(402.668 6031)" fill="#ffce73"/>
      <circle id="Elipse_11503" data-name="Elipse 11503" cx="52.5" cy="52.5" r="52.5" transform="translate(395.668 6021)" fill="#f3f9ff"/>
    </g>
    <path id="Trazado_900875" data-name="Trazado 900875" d="M57.946,12.459,46.334,24.07l.237-.885A1.125,1.125,0,0,0,44.4,22.6l-1.324,4.94a1.125,1.125,0,0,0,1.378,1.378l4.94-1.324a1.125,1.125,0,1,0-.582-2.173l-.885.237L59.537,14.05l4.695,1.012a1.125,1.125,0,0,0,1.033-.3l6.4-6.4a1.125,1.125,0,0,0-.558-1.9l-4.584-.988L65.536.887a1.125,1.125,0,0,0-1.9-.558l-6.4,6.4a1.125,1.125,0,0,0-.3,1.033ZM63.771,3.38l.706,3.275a1.125,1.125,0,0,0,.863.863l3.275.706-4.509,4.509-3.985-.859-.859-3.985ZM37.123,31.241V18.667a1.125,1.125,0,1,0-2.25,0V31.241a4.888,4.888,0,1,0,4.68,8.108L46.7,43.475a1.125,1.125,0,1,0,1.125-1.948L40.68,37.4a4.886,4.886,0,0,0-3.557-6.161ZM36,38.636A2.639,2.639,0,1,1,38.637,36,2.642,2.642,0,0,1,36,38.636ZM72,36A36,36,0,0,1,10.543,61.452,36,36,0,0,1,52.8,4.158,1.125,1.125,0,0,1,51.75,6.146a33.736,33.736,0,1,0,14.1,14.1,1.125,1.125,0,0,1,1.989-1.052A36.076,36.076,0,0,1,72,36ZM47.013,14.672l1.153-1.8A26.117,26.117,0,0,0,37.123,9.9v2.176a1.125,1.125,0,1,1-2.25,0V9.9a25.942,25.942,0,0,0-10.949,2.937l1.087,1.883a1.125,1.125,0,1,1-1.949,1.125l-1.085-1.88a26.334,26.334,0,0,0-8.015,8.015l1.88,1.086a1.125,1.125,0,1,1-1.125,1.948l-1.882-1.087A25.941,25.941,0,0,0,9.9,34.872h2.177a1.125,1.125,0,0,1,0,2.25H9.9a25.942,25.942,0,0,0,2.937,10.949l1.883-1.087a1.125,1.125,0,1,1,1.125,1.949l-1.88,1.085a26.334,26.334,0,0,0,8.015,8.015l1.085-1.88a1.125,1.125,0,0,1,1.949,1.125l-1.087,1.883A25.942,25.942,0,0,0,34.873,62.1V59.921a1.125,1.125,0,0,1,2.25,0V62.1a25.943,25.943,0,0,0,10.95-2.937l-1.087-1.882a1.125,1.125,0,0,1,1.948-1.125l1.086,1.88a26.334,26.334,0,0,0,8.015-8.015l-1.88-1.085a1.125,1.125,0,0,1,1.125-1.949l1.883,1.087A25.943,25.943,0,0,0,62.1,37.122H59.921a1.125,1.125,0,1,1,0-2.25H62.1A26.139,26.139,0,0,0,59.17,23.918L57.279,25.01a1.125,1.125,0,0,1-1.125-1.948l2.856-1.652a1.175,1.175,0,0,1,1.375.152,1.915,1.915,0,0,1,.317.464A28.375,28.375,0,1,1,50.136,11.39a1.415,1.415,0,0,1,.679.753,1.132,1.132,0,0,1-.123.955l-1.785,2.788a1.125,1.125,0,0,1-1.894-1.215Z" transform="translate(1120.213 1712.3)" fill="#7d3a1b"/>
  </g>
</svg>
