<svg xmlns="http://www.w3.org/2000/svg" xmlns:xlink="http://www.w3.org/1999/xlink" width="121" height="121" viewBox="0 0 121 121">
  <defs>
    <clipPath id="clip-path">
      <rect id="Rectángulo_400938" data-name="Rectángulo 400938" width="121" height="121" transform="translate(0 0)" fill="none"/>
    </clipPath>
    <clipPath id="clip-path-2">
      <rect id="Rectángulo_401073" data-name="Rectángulo 401073" width="92.219" height="41.532" fill="#efb499"/>
    </clipPath>
  </defs>
  <g id="Grupo_1099530" data-name="Grupo 1099530" transform="translate(-392.711 -1687.798)">
    <g id="Grupo_1099349" data-name="Grupo 1099349" transform="translate(5.043 -4325.202)">
      <rect id="Rectángulo_401103" data-name="Rectángulo 401103" width="121" height="121" transform="translate(387.668 6013)" fill="none"/>
      <g id="Grupo_1099348" data-name="Grupo 1099348" transform="translate(387.668 6013)">
        <g id="Grupo_1099282" data-name="Grupo 1099282">
          <g id="Grupo_1099281" data-name="Grupo 1099281" clip-path="url(#clip-path-2)">
            <path id="Trazado_873375" data-name="Trazado 873375" d="M74.8,9.1c-4.139,0-6.28-2.03-8.17-3.821-1.855-1.756-3.452-3.274-6.792-3.274s-4.937,1.517-6.792,3.274C51.161,7.072,49.023,9.1,44.881,9.1s-6.28-2.03-8.169-3.821C34.857,3.525,33.26,2.007,29.92,2.007s-4.937,1.517-6.789,3.274C21.241,7.072,19.1,9.1,14.962,9.1S8.679,7.072,6.789,5.281C4.937,3.525,3.34,2.007,0,2.007V0C4.139,0,6.28,2.033,8.17,3.821c1.855,1.759,3.452,3.274,6.792,3.274S19.9,5.58,21.75,3.824C23.637,2.033,25.781,0,29.92,0s6.283,2.033,8.17,3.821c1.855,1.759,3.452,3.274,6.792,3.274s4.937-1.514,6.792-3.274C53.56,2.033,55.7,0,59.843,0s6.283,2.033,8.17,3.821C69.867,5.58,71.464,7.094,74.8,7.094S79.742,5.58,81.6,3.821C83.483,2.033,85.624,0,89.766,0V2.007c-3.34,0-4.937,1.517-6.792,3.274C81.084,7.072,78.943,9.1,74.8,9.1" transform="translate(2.453 32.43)" fill="#efb499"/>
            <path id="Trazado_873376" data-name="Trazado 873376" d="M74.8,9.1c-4.139,0-6.283-2.03-8.17-3.824-1.855-1.756-3.452-3.27-6.792-3.27s-4.937,1.514-6.792,3.27C51.164,7.072,49.023,9.1,44.881,9.1s-6.283-2.03-8.17-3.824c-1.855-1.756-3.452-3.27-6.792-3.27s-4.937,1.517-6.789,3.27C21.241,7.072,19.1,9.1,14.962,9.1S8.679,7.072,6.789,5.278C4.937,3.522,3.34,2.007,0,2.007V0C4.139,0,6.283,2.03,8.17,3.821c1.855,1.759,3.452,3.274,6.792,3.274S19.9,5.58,21.75,3.821C23.637,2.03,25.781,0,29.92,0S36.2,2.03,38.093,3.821c1.852,1.759,3.449,3.274,6.789,3.274s4.937-1.514,6.792-3.274C53.56,2.03,55.7,0,59.843,0s6.283,2.03,8.17,3.821C69.867,5.58,71.464,7.094,74.8,7.094S79.742,5.58,81.6,3.821C83.486,2.03,85.627,0,89.769,0V2.007c-3.34,0-4.94,1.517-6.8,3.27C81.084,7.072,78.943,9.1,74.8,9.1" transform="translate(1.635 21.62)" fill="#efb499"/>
            <path id="Trazado_873377" data-name="Trazado 873377" d="M74.8,9.1c-4.139,0-6.283-2.03-8.169-3.824-1.855-1.756-3.452-3.27-6.792-3.27s-4.937,1.514-6.792,3.27C51.164,7.072,49.02,9.1,44.881,9.1s-6.283-2.03-8.17-3.824c-1.855-1.756-3.452-3.27-6.792-3.27s-4.937,1.517-6.789,3.27C21.241,7.072,19.1,9.1,14.962,9.1S8.678,7.072,6.789,5.278C4.937,3.522,3.34,2.007,0,2.007V0C4.139,0,6.283,2.03,8.169,3.821c1.851,1.759,3.452,3.274,6.792,3.274S19.9,5.58,21.75,3.821C23.637,2.03,25.781,0,29.92,0S36.2,2.03,38.093,3.821c1.852,1.759,3.449,3.274,6.789,3.274s4.937-1.514,6.792-3.274C53.56,2.03,55.7,0,59.843,0s6.283,2.03,8.17,3.821C69.867,5.58,71.464,7.094,74.8,7.094S79.742,5.58,81.6,3.821C83.486,2.03,85.624,0,89.769,0V2.007c-3.34,0-4.941,1.517-6.8,3.27C81.084,7.072,78.943,9.1,74.8,9.1" transform="translate(0.818 10.81)" fill="#efb499"/>
            <path id="Trazado_873378" data-name="Trazado 873378" d="M74.8,9.1c-4.139,0-6.28-2.03-8.17-3.821-1.855-1.756-3.452-3.27-6.792-3.27s-4.937,1.514-6.789,3.27C51.164,7.069,49.023,9.1,44.881,9.1s-6.28-2.03-8.169-3.821c-1.855-1.756-3.452-3.27-6.792-3.27s-4.937,1.514-6.789,3.267C21.245,7.069,19.1,9.1,14.962,9.1S8.678,7.069,6.789,5.278C4.937,3.522,3.34,2.007,0,2.007V0C4.139,0,6.283,2.03,8.17,3.821c1.855,1.756,3.452,3.27,6.792,3.27S19.9,5.577,21.75,3.821C23.64,2.03,25.781,0,29.92,0s6.28,2.03,8.173,3.821c1.852,1.756,3.449,3.27,6.789,3.27s4.937-1.514,6.792-3.27C53.563,2.03,55.7,0,59.843,0s6.28,2.03,8.17,3.821c1.855,1.756,3.452,3.27,6.792,3.27s4.937-1.514,6.792-3.27C83.486,2.03,85.627,0,89.769,0V2.007c-3.344,0-4.941,1.514-6.8,3.27C81.084,7.069,78.943,9.1,74.8,9.1" transform="translate(0 0.003)" fill="#efb499"/>
          </g>
        </g>
      </g>
      <circle id="Elipse_11504" data-name="Elipse 11504" cx="50.5" cy="50.5" r="50.5" transform="translate(402.668 6031)" fill="#ffce73"/>
      <circle id="Elipse_11503" data-name="Elipse 11503" cx="52.5" cy="52.5" r="52.5" transform="translate(395.668 6021)" fill="#f3f9ff"/>
    </g>
    <path id="Trazado_873461" data-name="Trazado 873461" d="M100.111,81.406a2.3,2.3,0,1,1,2.308-2.3A2.3,2.3,0,0,1,100.111,81.406Zm0-7.044a4.74,4.74,0,1,0,4.743,4.74A4.742,4.742,0,0,0,100.111,74.362Zm7.725,3.454a1.208,1.208,0,0,1,.3-1.014l1.535-1.711-1.3-2.264-2.259.479a1.214,1.214,0,0,1-1.027-.251,7.928,7.928,0,0,0-2.22-1.286,1.215,1.215,0,0,1-.733-.764l-.714-2.19H98.81L98.1,71a1.218,1.218,0,0,1-.733.764,7.788,7.788,0,0,0-2.22,1.286,1.216,1.216,0,0,1-1.027.251l-2.259-.479-1.3,2.264L92.092,76.8a1.2,1.2,0,0,1,.3,1.013,7.615,7.615,0,0,0,0,2.572,1.205,1.205,0,0,1-.3,1.013l-1.535,1.712,1.3,2.264,2.259-.479a1.215,1.215,0,0,1,1.027.25,7.8,7.8,0,0,0,2.22,1.287,1.215,1.215,0,0,1,.733.764l.714,2.19h2.611l.714-2.19a1.219,1.219,0,0,1,.733-.764,7.792,7.792,0,0,0,2.22-1.286,1.215,1.215,0,0,1,1.027-.251l2.259.479,1.3-2.264L108.13,81.4a1.23,1.23,0,0,1-.293-1.013,7.764,7.764,0,0,0,0-2.572ZM111.953,82,110.32,80.19a10.131,10.131,0,0,0,0-2.177l1.633-1.815a1.475,1.475,0,0,0,.186-1.72l-2-3.475a1.474,1.474,0,0,0-1.584-.7l-2.386.508a10.385,10.385,0,0,0-1.887-1.09l-.753-2.318a1.468,1.468,0,0,0-1.4-1.019H98.106a1.468,1.468,0,0,0-1.4,1.017l-.753,2.319a10.087,10.087,0,0,0-1.887,1.09L91.682,70.3A1.474,1.474,0,0,0,90.1,71l-2,3.475a1.463,1.463,0,0,0,.186,1.722l1.633,1.813a10.117,10.117,0,0,0,0,2.177L88.278,82a1.463,1.463,0,0,0-.186,1.722l2,3.475a1.474,1.474,0,0,0,1.584.7l2.386-.508a10.127,10.127,0,0,0,1.887,1.09l.753,2.32a1.468,1.468,0,0,0,1.4,1.017h4.019a1.469,1.469,0,0,0,1.4-1.018l.753-2.318a10.132,10.132,0,0,0,1.887-1.091l2.386.508a1.474,1.474,0,0,0,1.584-.7l2-3.475A1.479,1.479,0,0,0,111.953,82Zm-18.9,21.868-5.339,5.343a.134.134,0,0,1-.186,0L77.6,99.292a.136.136,0,0,1,0-.186l5.339-5.344a.135.135,0,0,1,.186,0l9.926,9.924A.136.136,0,0,1,93.05,103.871ZM74.187,91.553l3.755,3.76,1.212-1.2-3.765-3.76ZM41.339,89.241a22.443,22.443,0,1,0,0-31.737A22.435,22.435,0,0,0,41.339,89.241Zm19.46-41.7-2.777-3.085L60.6,39.993l4.058.864a1.215,1.215,0,0,0,1.027-.251A13.106,13.106,0,0,1,69.4,38.459a1.217,1.217,0,0,0,.733-.764l1.281-3.947h5.154l1.281,3.947a1.217,1.217,0,0,0,.733.764A13.078,13.078,0,0,1,82.293,40.6a1.237,1.237,0,0,0,1.037.251l4.058-.864,2.582,4.463-2.777,3.085a1.207,1.207,0,0,0-.3,1.013,13.157,13.157,0,0,1,0,4.293,1.2,1.2,0,0,0,.3,1.013l2.777,3.086L87.388,61.41l-4.058-.862a1.2,1.2,0,0,0-1.027.25,13.219,13.219,0,0,1-2.7,1.715,25.106,25.106,0,0,0-1.555-2.742,9.932,9.932,0,1,0-13.906-10.3,24.871,24.871,0,0,0-3.08-.679,1.3,1.3,0,0,0-.264-1.251Zm14,8.241a24.8,24.8,0,0,0-8.292-5.495,7.5,7.5,0,1,1,10.053,7.455,24.974,24.974,0,0,0-1.76-1.961ZM84.846,92.039l9.926,9.924a2.558,2.558,0,0,1,0,3.63l-5.339,5.344a2.569,2.569,0,0,1-3.628,0l-9.926-9.924a2.559,2.559,0,0,1,0-3.631l.342-.347-3.9-3.9A24.877,24.877,0,1,1,58.414,48.524l-2.591-2.878a1.6,1.6,0,0,1-.205-1.894l3.168-5.49a1.621,1.621,0,0,1,1.741-.775l4.088.868A15.547,15.547,0,0,1,68,36.4l1.291-3.966a1.607,1.607,0,0,1,1.535-1.12h6.347A1.616,1.616,0,0,1,78.7,32.431L80,36.4a15.548,15.548,0,0,1,3.384,1.957l4.088-.868a1.608,1.608,0,0,1,1.731.775l3.178,5.491a1.621,1.621,0,0,1-.205,1.9l-2.787,3.1a16.34,16.34,0,0,1,0,3.909l2.787,3.1a1.619,1.619,0,0,1,.205,1.893L89.2,63.141a1.612,1.612,0,0,1-1.741.776l-4.078-.868a15.336,15.336,0,0,1-2.816,1.706,24.915,24.915,0,0,1-3.589,23.733l3.9,3.9.342-.347a2.568,2.568,0,0,1,3.628,0ZM69.131,85.3A16.858,16.858,0,0,1,40.391,74.59h5.173a1.225,1.225,0,0,0,1.076-.637L48.9,69.79l5.457,11.829A1.223,1.223,0,0,0,56.6,81.54L62.53,65.874l3.325,7.967a1.218,1.218,0,0,0,1.125.749H74.03A16.685,16.685,0,0,1,69.131,85.3ZM45.28,61.448a16.857,16.857,0,0,1,23.851,0,16.683,16.683,0,0,1,4.9,10.707H67.791L63.606,62.109a1.225,1.225,0,0,0-2.269.037L55.352,77.962l-5.261-11.4a1.216,1.216,0,0,0-2.171-.071l-3.08,5.661H40.391A16.721,16.721,0,0,1,45.28,61.448Zm25.572-1.723a19.3,19.3,0,1,0,0,27.294A19.292,19.292,0,0,0,70.852,59.725Z" transform="translate(382.667 1676.799)" fill="#7d3a1b" fill-rule="evenodd"/>
  </g>
</svg>
