<svg xmlns="http://www.w3.org/2000/svg" xmlns:xlink="http://www.w3.org/1999/xlink" width="121" height="121" viewBox="0 0 121 121">
  <defs>
    <clipPath id="clip-path">
      <rect id="Rectángulo_400938" data-name="Rectángulo 400938" width="121" height="121" transform="translate(0 0)" fill="none"/>
    </clipPath>
    <clipPath id="clip-path-2">
      <rect id="Rectángulo_401073" data-name="Rectángulo 401073" width="92.219" height="41.532" fill="#efb499"/>
    </clipPath>
  </defs>
  <g id="Grupo_1099539" data-name="Grupo 1099539" transform="translate(10407.125 9889.442)">
    <g id="Grupo_1099521" data-name="Grupo 1099521" transform="translate(-10794.793 -15902.442)">
      <rect id="Rectángulo_401103" data-name="Rectángulo 401103" width="121" height="121" transform="translate(387.668 6013)" fill="none"/>
      <g id="Grupo_1099348" data-name="Grupo 1099348" transform="translate(387.668 6013)">
        <g id="Grupo_1099282" data-name="Grupo 1099282">
          <g id="Grupo_1099281" data-name="Grupo 1099281" clip-path="url(#clip-path-2)">
            <path id="Trazado_873375" data-name="Trazado 873375" d="M74.8,9.1c-4.139,0-6.28-2.03-8.17-3.821-1.855-1.756-3.452-3.274-6.792-3.274s-4.937,1.517-6.792,3.274C51.161,7.072,49.023,9.1,44.881,9.1s-6.28-2.03-8.169-3.821C34.857,3.525,33.26,2.007,29.92,2.007s-4.937,1.517-6.789,3.274C21.241,7.072,19.1,9.1,14.962,9.1S8.679,7.072,6.789,5.281C4.937,3.525,3.34,2.007,0,2.007V0C4.139,0,6.28,2.033,8.17,3.821c1.855,1.759,3.452,3.274,6.792,3.274S19.9,5.58,21.75,3.824C23.637,2.033,25.781,0,29.92,0s6.283,2.033,8.17,3.821c1.855,1.759,3.452,3.274,6.792,3.274s4.937-1.514,6.792-3.274C53.56,2.033,55.7,0,59.843,0s6.283,2.033,8.17,3.821C69.867,5.58,71.464,7.094,74.8,7.094S79.742,5.58,81.6,3.821C83.483,2.033,85.624,0,89.766,0V2.007c-3.34,0-4.937,1.517-6.792,3.274C81.084,7.072,78.943,9.1,74.8,9.1" transform="translate(2.453 32.43)" fill="#efb499"/>
            <path id="Trazado_873376" data-name="Trazado 873376" d="M74.8,9.1c-4.139,0-6.283-2.03-8.17-3.824-1.855-1.756-3.452-3.27-6.792-3.27s-4.937,1.514-6.792,3.27C51.164,7.072,49.023,9.1,44.881,9.1s-6.283-2.03-8.17-3.824c-1.855-1.756-3.452-3.27-6.792-3.27s-4.937,1.517-6.789,3.27C21.241,7.072,19.1,9.1,14.962,9.1S8.679,7.072,6.789,5.278C4.937,3.522,3.34,2.007,0,2.007V0C4.139,0,6.283,2.03,8.17,3.821c1.855,1.759,3.452,3.274,6.792,3.274S19.9,5.58,21.75,3.821C23.637,2.03,25.781,0,29.92,0S36.2,2.03,38.093,3.821c1.852,1.759,3.449,3.274,6.789,3.274s4.937-1.514,6.792-3.274C53.56,2.03,55.7,0,59.843,0s6.283,2.03,8.17,3.821C69.867,5.58,71.464,7.094,74.8,7.094S79.742,5.58,81.6,3.821C83.486,2.03,85.627,0,89.769,0V2.007c-3.34,0-4.94,1.517-6.8,3.27C81.084,7.072,78.943,9.1,74.8,9.1" transform="translate(1.635 21.62)" fill="#efb499"/>
            <path id="Trazado_873377" data-name="Trazado 873377" d="M74.8,9.1c-4.139,0-6.283-2.03-8.169-3.824-1.855-1.756-3.452-3.27-6.792-3.27s-4.937,1.514-6.792,3.27C51.164,7.072,49.02,9.1,44.881,9.1s-6.283-2.03-8.17-3.824c-1.855-1.756-3.452-3.27-6.792-3.27s-4.937,1.517-6.789,3.27C21.241,7.072,19.1,9.1,14.962,9.1S8.678,7.072,6.789,5.278C4.937,3.522,3.34,2.007,0,2.007V0C4.139,0,6.283,2.03,8.169,3.821c1.851,1.759,3.452,3.274,6.792,3.274S19.9,5.58,21.75,3.821C23.637,2.03,25.781,0,29.92,0S36.2,2.03,38.093,3.821c1.852,1.759,3.449,3.274,6.789,3.274s4.937-1.514,6.792-3.274C53.56,2.03,55.7,0,59.843,0s6.283,2.03,8.17,3.821C69.867,5.58,71.464,7.094,74.8,7.094S79.742,5.58,81.6,3.821C83.486,2.03,85.624,0,89.769,0V2.007c-3.34,0-4.941,1.517-6.8,3.27C81.084,7.072,78.943,9.1,74.8,9.1" transform="translate(0.818 10.81)" fill="#efb499"/>
            <path id="Trazado_873378" data-name="Trazado 873378" d="M74.8,9.1c-4.139,0-6.28-2.03-8.17-3.821-1.855-1.756-3.452-3.27-6.792-3.27s-4.937,1.514-6.789,3.27C51.164,7.069,49.023,9.1,44.881,9.1s-6.28-2.03-8.169-3.821c-1.855-1.756-3.452-3.27-6.792-3.27s-4.937,1.514-6.789,3.267C21.245,7.069,19.1,9.1,14.962,9.1S8.678,7.069,6.789,5.278C4.937,3.522,3.34,2.007,0,2.007V0C4.139,0,6.283,2.03,8.17,3.821c1.855,1.756,3.452,3.27,6.792,3.27S19.9,5.577,21.75,3.821C23.64,2.03,25.781,0,29.92,0s6.28,2.03,8.173,3.821c1.852,1.756,3.449,3.27,6.789,3.27s4.937-1.514,6.792-3.27C53.563,2.03,55.7,0,59.843,0s6.28,2.03,8.17,3.821c1.855,1.756,3.452,3.27,6.792,3.27s4.937-1.514,6.792-3.27C83.486,2.03,85.627,0,89.769,0V2.007c-3.344,0-4.941,1.514-6.8,3.27C81.084,7.069,78.943,9.1,74.8,9.1" transform="translate(0 0.003)" fill="#efb499"/>
          </g>
        </g>
      </g>
      <circle id="Elipse_11504" data-name="Elipse 11504" cx="50.5" cy="50.5" r="50.5" transform="translate(402.668 6031)" fill="#ffce73"/>
      <circle id="Elipse_11503" data-name="Elipse 11503" cx="52.5" cy="52.5" r="52.5" transform="translate(395.668 6021)" fill="#f3f9ff"/>
    </g>
    <g id="Grupo_1099538" data-name="Grupo 1099538" transform="translate(-10386 -9870)">
      <path id="Trazado_873471" data-name="Trazado 873471" d="M43.176,7.891a2.912,2.912,0,0,0-2.257-1.967l-3.857-.668L35.251,1.619h0a2.871,2.871,0,0,0-5.168,0L28.272,5.257l-3.856.668a2.907,2.907,0,0,0-2.259,1.967,3,3,0,0,0,.659,3.017l2.773,2.936L25,17.933A2.975,2.975,0,0,0,26.216,20.8a2.838,2.838,0,0,0,2.965.2l3.484-1.815,3.484,1.815a2.836,2.836,0,0,0,2.967-.2,2.973,2.973,0,0,0,1.216-2.869l-.589-4.088,2.773-2.936a3,3,0,0,0,.659-3.017Zm-2.6,1.187-3.216,3.405a1.329,1.329,0,0,0-.351,1.105l.683,4.725a.313.313,0,0,1-.12.315.172.172,0,0,1-.193.015l-4.1-2.137a1.34,1.34,0,0,0-1.232,0l-4.1,2.137a.17.17,0,0,1-.193-.015.317.317,0,0,1-.12-.315l.683-4.725a1.329,1.329,0,0,0-.351-1.105L24.753,9.077a.338.338,0,0,1-.067-.344.238.238,0,0,1,.184-.181l4.523-.784a1.341,1.341,0,0,0,.967-.72l2.112-4.24a.222.222,0,0,1,.195-.141.219.219,0,0,1,.195.14l2.112,4.241a1.339,1.339,0,0,0,.967.72l4.524.784a.242.242,0,0,1,.183.181A.335.335,0,0,1,40.58,9.077Z" transform="translate(7.333)" fill="#7d3a1b"/>
      <path id="Trazado_873472" data-name="Trazado 873472" d="M25.176,15.891a2.912,2.912,0,0,0-2.257-1.967l-3.857-.668L17.25,9.619h0a2.87,2.87,0,0,0-5.167,0l-1.811,3.637-3.856.668a2.907,2.907,0,0,0-2.259,1.967,3,3,0,0,0,.659,3.017L7.59,21.845,7,25.933A2.975,2.975,0,0,0,8.217,28.8a2.838,2.838,0,0,0,2.965.2l3.484-1.815,3.484,1.815a2.836,2.836,0,0,0,2.967-.2,2.973,2.973,0,0,0,1.216-2.869l-.589-4.088,2.773-2.936a3,3,0,0,0,.659-3.017Zm-2.6,1.187-3.216,3.405a1.329,1.329,0,0,0-.351,1.105l.683,4.725a.313.313,0,0,1-.12.315.17.17,0,0,1-.193.015l-4.1-2.137a1.34,1.34,0,0,0-1.232,0l-4.1,2.137a.167.167,0,0,1-.193-.015.317.317,0,0,1-.12-.315l.683-4.725a1.329,1.329,0,0,0-.351-1.105L6.753,17.077a.338.338,0,0,1-.067-.344.238.238,0,0,1,.184-.181l4.523-.784a1.341,1.341,0,0,0,.967-.72l2.112-4.24a.222.222,0,0,1,.195-.141.219.219,0,0,1,.195.14l2.112,4.241a1.339,1.339,0,0,0,.967.72l4.524.784a.242.242,0,0,1,.183.181.335.335,0,0,1-.067.344Z" transform="translate(1.334 2.667)" fill="#7d3a1b"/>
      <path id="Trazado_873473" data-name="Trazado 873473" d="M61.176,15.891a2.912,2.912,0,0,0-2.257-1.967l-3.857-.668L53.25,9.619h0a2.87,2.87,0,0,0-5.167,0l-1.811,3.637-3.856.668a2.907,2.907,0,0,0-2.259,1.967,3,3,0,0,0,.659,3.017l2.773,2.936L43,25.933A2.975,2.975,0,0,0,44.217,28.8a2.838,2.838,0,0,0,2.965.2l3.484-1.815,3.484,1.815a2.836,2.836,0,0,0,2.967-.2,2.973,2.973,0,0,0,1.216-2.869l-.589-4.088,2.773-2.936a3,3,0,0,0,.659-3.017Zm-2.6,1.187-3.216,3.405a1.329,1.329,0,0,0-.351,1.105l.683,4.725a.313.313,0,0,1-.12.315.17.17,0,0,1-.193.015l-4.1-2.137a1.34,1.34,0,0,0-1.232,0l-4.1,2.137a.167.167,0,0,1-.193-.015.317.317,0,0,1-.12-.315l.683-4.725a1.329,1.329,0,0,0-.351-1.105l-3.216-3.405a.338.338,0,0,1-.067-.344.238.238,0,0,1,.184-.181l4.523-.784a1.341,1.341,0,0,0,.967-.72l2.112-4.24a.222.222,0,0,1,.195-.141.219.219,0,0,1,.195.14l2.112,4.241a1.339,1.339,0,0,0,.967.72l4.524.784a.242.242,0,0,1,.183.181.335.335,0,0,1-.067.344Z" transform="translate(13.334 2.667)" fill="#7d3a1b"/>
      <path id="Trazado_873474" data-name="Trazado 873474" d="M40,24A40.045,40.045,0,0,0,0,64a2.669,2.669,0,0,0,2.667,2.667h16A2.669,2.669,0,0,0,21.333,64,18.654,18.654,0,0,1,55.588,53.76c-5.947,2.1-10.557,3.8-13.952,5.133A6.564,6.564,0,0,0,40,58.667a6.667,6.667,0,1,0,5.967,9.583c3.484-1.9,7.956-4.473,12.455-7.113A18.643,18.643,0,0,1,58.667,64a2.669,2.669,0,0,0,2.667,2.667h16A2.669,2.669,0,0,0,80,64,40.045,40.045,0,0,0,40,24ZM54.1,48.012a21.292,21.292,0,0,0-12.769-5.3V26.7a37.181,37.181,0,0,1,24.088,9.993ZM18.667,64h-16A37.185,37.185,0,0,1,12.693,38.579L24.024,49.909A21.222,21.222,0,0,0,18.667,64Zm7.243-15.976L14.579,36.693A37.191,37.191,0,0,1,38.667,26.7V42.733a21.213,21.213,0,0,0-12.757,5.291ZM68.34,52.148c-6.4,3.829-15.263,9.1-21.724,12.7a6.628,6.628,0,0,0-1.953-4.264C50.029,58.535,57.816,55.76,68.34,52.148ZM40,69.333a4,4,0,1,1,4-4A4,4,0,0,1,40,69.333ZM61.332,64a21.288,21.288,0,0,0-.447-4.315c3.135-1.851,6.191-3.673,8.829-5.251a2.666,2.666,0,0,0-2.229-4.813C64.1,50.784,61,51.859,58.167,52.853A21.4,21.4,0,0,0,55.983,49.9L67.3,38.581A37.185,37.185,0,0,1,77.331,64h-16Z" transform="translate(0 8)" fill="#7d3a1b"/>
    </g>
  </g>
</svg>
