<svg xmlns="http://www.w3.org/2000/svg" xmlns:xlink="http://www.w3.org/1999/xlink" width="121" height="121" viewBox="0 0 121 121">
  <defs>
    <clipPath id="clip-path">
      <rect id="Rectángulo_400938" data-name="Rectángulo 400938" width="121" height="121" transform="translate(0 0)" fill="none"/>
    </clipPath>
    <clipPath id="clip-path-2">
      <rect id="Rectángulo_401073" data-name="Rectángulo 401073" width="92.219" height="41.532" fill="#efb499"/>
    </clipPath>
  </defs>
  <g id="Grupo_1117103" data-name="Grupo 1117103" transform="translate(-744.711 -1687.798)">
    <g id="Grupo_1099379" data-name="Grupo 1099379" transform="translate(357.043 -4325.202)">
      <rect id="Rectángulo_401103" data-name="Rectángulo 401103" width="121" height="121" transform="translate(387.668 6013)" fill="none"/>
      <g id="Grupo_1099348" data-name="Grupo 1099348" transform="translate(387.668 6013)">
        <g id="Grupo_1099282" data-name="Grupo 1099282">
          <g id="Grupo_1099281" data-name="Grupo 1099281" clip-path="url(#clip-path-2)">
            <path id="Trazado_873375" data-name="Trazado 873375" d="M74.8,9.1c-4.139,0-6.28-2.03-8.17-3.821-1.855-1.756-3.452-3.274-6.792-3.274s-4.937,1.517-6.792,3.274C51.161,7.072,49.023,9.1,44.881,9.1s-6.28-2.03-8.169-3.821C34.857,3.525,33.26,2.007,29.92,2.007s-4.937,1.517-6.789,3.274C21.241,7.072,19.1,9.1,14.962,9.1S8.679,7.072,6.789,5.281C4.937,3.525,3.34,2.007,0,2.007V0C4.139,0,6.28,2.033,8.17,3.821c1.855,1.759,3.452,3.274,6.792,3.274S19.9,5.58,21.75,3.824C23.637,2.033,25.781,0,29.92,0s6.283,2.033,8.17,3.821c1.855,1.759,3.452,3.274,6.792,3.274s4.937-1.514,6.792-3.274C53.56,2.033,55.7,0,59.843,0s6.283,2.033,8.17,3.821C69.867,5.58,71.464,7.094,74.8,7.094S79.742,5.58,81.6,3.821C83.483,2.033,85.624,0,89.766,0V2.007c-3.34,0-4.937,1.517-6.792,3.274C81.084,7.072,78.943,9.1,74.8,9.1" transform="translate(2.453 32.43)" fill="#efb499"/>
            <path id="Trazado_873376" data-name="Trazado 873376" d="M74.8,9.1c-4.139,0-6.283-2.03-8.17-3.824-1.855-1.756-3.452-3.27-6.792-3.27s-4.937,1.514-6.792,3.27C51.164,7.072,49.023,9.1,44.881,9.1s-6.283-2.03-8.17-3.824c-1.855-1.756-3.452-3.27-6.792-3.27s-4.937,1.517-6.789,3.27C21.241,7.072,19.1,9.1,14.962,9.1S8.679,7.072,6.789,5.278C4.937,3.522,3.34,2.007,0,2.007V0C4.139,0,6.283,2.03,8.17,3.821c1.855,1.759,3.452,3.274,6.792,3.274S19.9,5.58,21.75,3.821C23.637,2.03,25.781,0,29.92,0S36.2,2.03,38.093,3.821c1.852,1.759,3.449,3.274,6.789,3.274s4.937-1.514,6.792-3.274C53.56,2.03,55.7,0,59.843,0s6.283,2.03,8.17,3.821C69.867,5.58,71.464,7.094,74.8,7.094S79.742,5.58,81.6,3.821C83.486,2.03,85.627,0,89.769,0V2.007c-3.34,0-4.94,1.517-6.8,3.27C81.084,7.072,78.943,9.1,74.8,9.1" transform="translate(1.635 21.62)" fill="#efb499"/>
            <path id="Trazado_873377" data-name="Trazado 873377" d="M74.8,9.1c-4.139,0-6.283-2.03-8.169-3.824-1.855-1.756-3.452-3.27-6.792-3.27s-4.937,1.514-6.792,3.27C51.164,7.072,49.02,9.1,44.881,9.1s-6.283-2.03-8.17-3.824c-1.855-1.756-3.452-3.27-6.792-3.27s-4.937,1.517-6.789,3.27C21.241,7.072,19.1,9.1,14.962,9.1S8.678,7.072,6.789,5.278C4.937,3.522,3.34,2.007,0,2.007V0C4.139,0,6.283,2.03,8.169,3.821c1.851,1.759,3.452,3.274,6.792,3.274S19.9,5.58,21.75,3.821C23.637,2.03,25.781,0,29.92,0S36.2,2.03,38.093,3.821c1.852,1.759,3.449,3.274,6.789,3.274s4.937-1.514,6.792-3.274C53.56,2.03,55.7,0,59.843,0s6.283,2.03,8.17,3.821C69.867,5.58,71.464,7.094,74.8,7.094S79.742,5.58,81.6,3.821C83.486,2.03,85.624,0,89.769,0V2.007c-3.34,0-4.941,1.517-6.8,3.27C81.084,7.072,78.943,9.1,74.8,9.1" transform="translate(0.818 10.81)" fill="#efb499"/>
            <path id="Trazado_873378" data-name="Trazado 873378" d="M74.8,9.1c-4.139,0-6.28-2.03-8.17-3.821-1.855-1.756-3.452-3.27-6.792-3.27s-4.937,1.514-6.789,3.27C51.164,7.069,49.023,9.1,44.881,9.1s-6.28-2.03-8.169-3.821c-1.855-1.756-3.452-3.27-6.792-3.27s-4.937,1.514-6.789,3.267C21.245,7.069,19.1,9.1,14.962,9.1S8.678,7.069,6.789,5.278C4.937,3.522,3.34,2.007,0,2.007V0C4.139,0,6.283,2.03,8.17,3.821c1.855,1.756,3.452,3.27,6.792,3.27S19.9,5.577,21.75,3.821C23.64,2.03,25.781,0,29.92,0s6.28,2.03,8.173,3.821c1.852,1.756,3.449,3.27,6.789,3.27s4.937-1.514,6.792-3.27C53.563,2.03,55.7,0,59.843,0s6.28,2.03,8.17,3.821c1.855,1.756,3.452,3.27,6.792,3.27s4.937-1.514,6.792-3.27C83.486,2.03,85.627,0,89.769,0V2.007c-3.344,0-4.941,1.514-6.8,3.27C81.084,7.069,78.943,9.1,74.8,9.1" transform="translate(0 0.003)" fill="#efb499"/>
          </g>
        </g>
      </g>
      <circle id="Elipse_11504" data-name="Elipse 11504" cx="50.5" cy="50.5" r="50.5" transform="translate(402.668 6031)" fill="#ffce73"/>
      <circle id="Elipse_11503" data-name="Elipse 11503" cx="52.5" cy="52.5" r="52.5" transform="translate(395.668 6021)" fill="#f3f9ff"/>
    </g>
    <g id="layer2" transform="translate(769.513 1712.358)">
      <path id="path5277" d="M14.529,15.7a15.053,15.053,0,0,0,1.716,7H12.2V20.365a5.836,5.836,0,0,0-11.671,0V65.277a5.241,5.241,0,0,0,5.255,5.252H65.863a4.665,4.665,0,0,0,4.667-4.667v-38.5A4.656,4.656,0,0,0,65.863,22.7h-7v-1.67L69.8,16.653a1.167,1.167,0,0,0,.086-2.119L58.86,9.017V8.694a1.167,1.167,0,1,0-2.333,0v14H43.14a15.163,15.163,0,1,0-28.611-7ZM57.68.529a1.167,1.167,0,0,0-1.153,1.18V2.881a1.167,1.167,0,0,0,2.333,0V1.71A1.166,1.166,0,0,0,57.68.529ZM29.7,2.865A12.831,12.831,0,1,1,16.863,15.7,12.835,12.835,0,0,1,29.7,2.865ZM51.377,5.248l.825.827a1.169,1.169,0,0,0,1.654-1.652L53.029,3.6a1.111,1.111,0,0,0-.815-.34A1.165,1.165,0,0,0,51.377,5.248Zm11-1.652-.827.827A1.169,1.169,0,0,0,63.2,6.076l.827-.827a1.169,1.169,0,0,0-.866-1.992,1.12,1.12,0,0,0-.788.34ZM28.527,7.532V15.7a1.167,1.167,0,0,0,.346.827l3.5,3.5a1.167,1.167,0,0,0,1.654-1.645l-3.16-3.16V7.532a1.168,1.168,0,0,0-2.335,0Zm30.333,4.1,7.656,3.824L58.86,18.517ZM6.36,16.858a3.5,3.5,0,0,1,3.5,3.507V57.7a2.335,2.335,0,0,1-2.333,2.333H5.784a5.243,5.243,0,0,0-2.919.873V20.365a3.5,3.5,0,0,1,3.5-3.507Zm5.84,8.173h5.542a15.171,15.171,0,0,0,23.91,0H56.527V29.7H55.365a2.327,2.327,0,0,0-2.336,2.333v3.5a1.169,1.169,0,1,0,0,2.336H55.3l-9.219,6.77a3.492,3.492,0,0,0-4.712-.052l-8.26-5.959a3.422,3.422,0,0,0,.089-.759,3.5,3.5,0,1,0-7,0,3.392,3.392,0,0,0,.125.866L14.981,47.44a1.167,1.167,0,1,0,1.431,1.843l11.2-8.609a3.509,3.509,0,0,0,4.252-.064l8.374,6.036a3.821,3.821,0,0,0-.04.554,3.5,3.5,0,0,0,7,0,3.274,3.274,0,0,0-.035-.467l12.075-8.869h3.124a1.168,1.168,0,0,0,0-2.336v-3.5A2.337,2.337,0,0,0,60.032,29.7H58.861V25.032h7A2.32,2.32,0,0,1,68.2,27.365v38.5A2.326,2.326,0,0,1,65.863,68.2H5.784a2.916,2.916,0,1,1,0-5.831H7.532A4.668,4.668,0,0,0,12.2,57.7Zm29.16,6.993a1.173,1.173,0,0,0-.827,2l.927.923-.927.927a1.167,1.167,0,0,0,1.654,1.645l.923-.923.927.923a1.163,1.163,0,1,0,1.645-1.645l-.923-.927.923-.923a1.166,1.166,0,0,0-.834-2,1.179,1.179,0,0,0-.811.344l-.927.927-.923-.927a1.137,1.137,0,0,0-.827-.344Zm14,.009h4.667v3.5H55.365ZM29.7,36.692a1.171,1.171,0,0,1,1.162,1.174A1.159,1.159,0,0,1,29.7,39.027a1.168,1.168,0,1,1,0-2.336Zm29.169,7a1.165,1.165,0,0,0-.836,1.989l.927.927-.927.925a1.17,1.17,0,1,0,1.654,1.654l.923-.927.927.927a1.167,1.167,0,0,0,1.645-1.654l-.916-.925.925-.927a1.166,1.166,0,0,0-.861-1.989,1.136,1.136,0,0,0-.793.344l-.927.925-.923-.925a1.117,1.117,0,0,0-.818-.344ZM43.694,46.027A1.168,1.168,0,1,1,42.532,47.2,1.17,1.17,0,0,1,43.694,46.027Zm-22.176,4.66a1.166,1.166,0,0,0-.638.2l-3.5,2.333a1.169,1.169,0,1,0,1.292,1.948l2.851-1.9,2.86,1.9a1.167,1.167,0,0,0,1.29,0l2.851-1.9,2.853,1.9a1.167,1.167,0,0,0,1.3,0l2.851-1.9,2.851,1.9a1.169,1.169,0,1,0,1.292-1.948l-3.5-2.333a1.167,1.167,0,0,0-1.292,0l-2.851,1.9-2.86-1.9a1.167,1.167,0,0,0-1.292,0l-2.851,1.9-2.86-1.9a1.166,1.166,0,0,0-.654-.2ZM50.7,55.363a1.167,1.167,0,1,0,0,2.333h1.167a1.167,1.167,0,1,0,0-2.333Zm5.833,0a1.167,1.167,0,1,0,0,2.333H57.7a1.167,1.167,0,1,0,0-2.333Zm5.833,0a1.167,1.167,0,1,0,0,2.333h1.167a1.167,1.167,0,1,0,0-2.333ZM21.518,56.527a1.166,1.166,0,0,0-.638.2l-3.5,2.324A1.168,1.168,0,1,0,18.677,61l2.851-1.9,2.86,1.9a1.167,1.167,0,0,0,1.29,0l2.851-1.9L31.38,61a1.167,1.167,0,0,0,1.3,0l2.851-1.9L38.38,61a1.168,1.168,0,1,0,1.292-1.946l-3.5-2.324a1.167,1.167,0,0,0-1.292,0l-2.851,1.894-2.86-1.894a1.167,1.167,0,0,0-1.292,0l-2.851,1.894-2.86-1.894a1.166,1.166,0,0,0-.654-.2Z" transform="translate(0 0)" fill="#7d3a1b"/>
    </g>
  </g>
</svg>
