<svg xmlns="http://www.w3.org/2000/svg" xmlns:xlink="http://www.w3.org/1999/xlink" width="121" height="121" viewBox="0 0 121 121">
  <defs>
    <clipPath id="clip-path">
      <rect id="Rectángulo_400938" data-name="Rectángulo 400938" width="121" height="121" transform="translate(0 0)" fill="none"/>
    </clipPath>
    <clipPath id="clip-path-2">
      <rect id="Rectángulo_401073" data-name="Rectángulo 401073" width="92.219" height="41.532" fill="#efb499"/>
    </clipPath>
  </defs>
  <g id="Grupo_1117108" data-name="Grupo 1117108" transform="translate(-744.711 -1687.798)">
    <g id="Grupo_1099379" data-name="Grupo 1099379" transform="translate(357.043 -4325.202)">
      <rect id="Rectángulo_401103" data-name="Rectángulo 401103" width="121" height="121" transform="translate(387.668 6013)" fill="none"/>
      <g id="Grupo_1099348" data-name="Grupo 1099348" transform="translate(387.668 6013)">
        <g id="Grupo_1099282" data-name="Grupo 1099282">
          <g id="Grupo_1099281" data-name="Grupo 1099281" clip-path="url(#clip-path-2)">
            <path id="Trazado_873375" data-name="Trazado 873375" d="M74.8,9.1c-4.139,0-6.28-2.03-8.17-3.821-1.855-1.756-3.452-3.274-6.792-3.274s-4.937,1.517-6.792,3.274C51.161,7.072,49.023,9.1,44.881,9.1s-6.28-2.03-8.169-3.821C34.857,3.525,33.26,2.007,29.92,2.007s-4.937,1.517-6.789,3.274C21.241,7.072,19.1,9.1,14.962,9.1S8.679,7.072,6.789,5.281C4.937,3.525,3.34,2.007,0,2.007V0C4.139,0,6.28,2.033,8.17,3.821c1.855,1.759,3.452,3.274,6.792,3.274S19.9,5.58,21.75,3.824C23.637,2.033,25.781,0,29.92,0s6.283,2.033,8.17,3.821c1.855,1.759,3.452,3.274,6.792,3.274s4.937-1.514,6.792-3.274C53.56,2.033,55.7,0,59.843,0s6.283,2.033,8.17,3.821C69.867,5.58,71.464,7.094,74.8,7.094S79.742,5.58,81.6,3.821C83.483,2.033,85.624,0,89.766,0V2.007c-3.34,0-4.937,1.517-6.792,3.274C81.084,7.072,78.943,9.1,74.8,9.1" transform="translate(2.453 32.43)" fill="#efb499"/>
            <path id="Trazado_873376" data-name="Trazado 873376" d="M74.8,9.1c-4.139,0-6.283-2.03-8.17-3.824-1.855-1.756-3.452-3.27-6.792-3.27s-4.937,1.514-6.792,3.27C51.164,7.072,49.023,9.1,44.881,9.1s-6.283-2.03-8.17-3.824c-1.855-1.756-3.452-3.27-6.792-3.27s-4.937,1.517-6.789,3.27C21.241,7.072,19.1,9.1,14.962,9.1S8.679,7.072,6.789,5.278C4.937,3.522,3.34,2.007,0,2.007V0C4.139,0,6.283,2.03,8.17,3.821c1.855,1.759,3.452,3.274,6.792,3.274S19.9,5.58,21.75,3.821C23.637,2.03,25.781,0,29.92,0S36.2,2.03,38.093,3.821c1.852,1.759,3.449,3.274,6.789,3.274s4.937-1.514,6.792-3.274C53.56,2.03,55.7,0,59.843,0s6.283,2.03,8.17,3.821C69.867,5.58,71.464,7.094,74.8,7.094S79.742,5.58,81.6,3.821C83.486,2.03,85.627,0,89.769,0V2.007c-3.34,0-4.94,1.517-6.8,3.27C81.084,7.072,78.943,9.1,74.8,9.1" transform="translate(1.635 21.62)" fill="#efb499"/>
            <path id="Trazado_873377" data-name="Trazado 873377" d="M74.8,9.1c-4.139,0-6.283-2.03-8.169-3.824-1.855-1.756-3.452-3.27-6.792-3.27s-4.937,1.514-6.792,3.27C51.164,7.072,49.02,9.1,44.881,9.1s-6.283-2.03-8.17-3.824c-1.855-1.756-3.452-3.27-6.792-3.27s-4.937,1.517-6.789,3.27C21.241,7.072,19.1,9.1,14.962,9.1S8.678,7.072,6.789,5.278C4.937,3.522,3.34,2.007,0,2.007V0C4.139,0,6.283,2.03,8.169,3.821c1.851,1.759,3.452,3.274,6.792,3.274S19.9,5.58,21.75,3.821C23.637,2.03,25.781,0,29.92,0S36.2,2.03,38.093,3.821c1.852,1.759,3.449,3.274,6.789,3.274s4.937-1.514,6.792-3.274C53.56,2.03,55.7,0,59.843,0s6.283,2.03,8.17,3.821C69.867,5.58,71.464,7.094,74.8,7.094S79.742,5.58,81.6,3.821C83.486,2.03,85.624,0,89.769,0V2.007c-3.34,0-4.941,1.517-6.8,3.27C81.084,7.072,78.943,9.1,74.8,9.1" transform="translate(0.818 10.81)" fill="#efb499"/>
            <path id="Trazado_873378" data-name="Trazado 873378" d="M74.8,9.1c-4.139,0-6.28-2.03-8.17-3.821-1.855-1.756-3.452-3.27-6.792-3.27s-4.937,1.514-6.789,3.27C51.164,7.069,49.023,9.1,44.881,9.1s-6.28-2.03-8.169-3.821c-1.855-1.756-3.452-3.27-6.792-3.27s-4.937,1.514-6.789,3.267C21.245,7.069,19.1,9.1,14.962,9.1S8.678,7.069,6.789,5.278C4.937,3.522,3.34,2.007,0,2.007V0C4.139,0,6.283,2.03,8.17,3.821c1.855,1.756,3.452,3.27,6.792,3.27S19.9,5.577,21.75,3.821C23.64,2.03,25.781,0,29.92,0s6.28,2.03,8.173,3.821c1.852,1.756,3.449,3.27,6.789,3.27s4.937-1.514,6.792-3.27C53.563,2.03,55.7,0,59.843,0s6.28,2.03,8.17,3.821c1.855,1.756,3.452,3.27,6.792,3.27s4.937-1.514,6.792-3.27C83.486,2.03,85.627,0,89.769,0V2.007c-3.344,0-4.941,1.514-6.8,3.27C81.084,7.069,78.943,9.1,74.8,9.1" transform="translate(0 0.003)" fill="#efb499"/>
          </g>
        </g>
      </g>
      <circle id="Elipse_11504" data-name="Elipse 11504" cx="50.5" cy="50.5" r="50.5" transform="translate(402.668 6031)" fill="#ffce73"/>
      <circle id="Elipse_11503" data-name="Elipse 11503" cx="52.5" cy="52.5" r="52.5" transform="translate(395.668 6021)" fill="#f3f9ff"/>
    </g>
    <path id="Trazado_903753" data-name="Trazado 903753" d="M121.936,16.891h-8.9a2.908,2.908,0,0,0-2.633-1.683h-1.922a4.927,4.927,0,0,0-9.748,0H96.814a2.908,2.908,0,0,0-2.633,1.683h-8.9A7.293,7.293,0,0,0,78,24.175V74.218A7.293,7.293,0,0,0,85.285,81.5h36.651a7.293,7.293,0,0,0,7.285-7.285V24.175A7.293,7.293,0,0,0,121.936,16.891ZM95.346,18.114a1.47,1.47,0,0,1,1.468-1.468H99.4a.72.72,0,0,0,.719-.719,3.488,3.488,0,0,1,6.977,0,.72.72,0,0,0,.719.719h2.588a1.47,1.47,0,0,1,1.468,1.468v2.492a1.47,1.47,0,0,1-1.468,1.468H96.814a1.47,1.47,0,0,1-1.468-1.468Zm1.468,5.4h13.593a2.908,2.908,0,0,0,2.633-1.683h8.9a2.35,2.35,0,0,1,2.347,2.347V74.218a2.35,2.35,0,0,1-2.347,2.347H85.286a2.35,2.35,0,0,1-2.347-2.347V24.175a2.35,2.35,0,0,1,2.347-2.347h8.9a2.9,2.9,0,0,0,2.632,1.683Zm30.968,50.706a5.853,5.853,0,0,1-5.846,5.846H85.286a5.853,5.853,0,0,1-5.846-5.846V24.175a5.853,5.853,0,0,1,5.846-5.846h8.623v2.06H85.286A3.789,3.789,0,0,0,81.5,24.175V74.218A3.789,3.789,0,0,0,85.286,78h36.651a3.789,3.789,0,0,0,3.786-3.786V24.175a3.789,3.789,0,0,0-3.786-3.786h-8.623v-2.06h8.623a5.853,5.853,0,0,1,5.846,5.846V74.218ZM92.339,51.9H88.308a2.18,2.18,0,0,0-2.177,2.177V58.11a2.18,2.18,0,0,0,2.177,2.177h4.032a2.18,2.18,0,0,0,2.177-2.177V54.078A2.179,2.179,0,0,0,92.339,51.9Zm.738,6.21a.739.739,0,0,1-.738.738H88.308a.739.739,0,0,1-.738-.738V54.08a.739.739,0,0,1,.738-.738h4.032a.739.739,0,0,1,.738.738Zm-.738,5.237H88.308a2.18,2.18,0,0,0-2.177,2.177v4.032a2.18,2.18,0,0,0,2.177,2.177h4.032a2.18,2.18,0,0,0,2.177-2.177V65.526A2.179,2.179,0,0,0,92.339,63.349Zm.738,6.209a.739.739,0,0,1-.738.738H88.308a.739.739,0,0,1-.738-.738V65.526a.739.739,0,0,1,.738-.738h4.032a.739.739,0,0,1,.738.738Zm6.961-11.427a.72.72,0,0,1,.719-.719h14.124a.719.719,0,0,1,0,1.439H100.758A.72.72,0,0,1,100.038,58.13Zm.719-4.79h19.616a.719.719,0,0,1,0,1.439H100.758a.719.719,0,0,1,0-1.439Zm2.853-3.987a10.506,10.506,0,1,0-10.5-10.506A10.517,10.517,0,0,0,103.611,49.353Zm0-19.572a9.067,9.067,0,1,1-9.066,9.066A9.076,9.076,0,0,1,103.611,29.781Zm0,16.735a7.669,7.669,0,1,0-7.669-7.669A7.678,7.678,0,0,0,103.611,46.516Zm0-13.9a6.23,6.23,0,1,1-6.23,6.23A6.236,6.236,0,0,1,103.611,32.617ZM101.2,37.155a2.417,2.417,0,0,1,1.693-2.3V34.6a.719.719,0,1,1,1.439,0v.256a2.409,2.409,0,0,1,1.3.983.719.719,0,1,1-1.2.788.974.974,0,1,0-.816,1.506,2.412,2.412,0,0,1,.719,4.715V43.1a.719.719,0,1,1-1.439,0v-.256a2.409,2.409,0,0,1-1.3-.983.719.719,0,1,1,1.2-.788.974.974,0,1,0,.816-1.506,2.418,2.418,0,0,1-2.413-2.413Zm14.4,32.422a.72.72,0,0,1-.719.719H100.759a.719.719,0,1,1,0-1.439h14.124A.72.72,0,0,1,115.6,69.577Zm5.491-4.07a.72.72,0,0,1-.719.719H100.758a.719.719,0,0,1,0-1.439h19.616A.72.72,0,0,1,121.093,65.507ZM102.444,15.586a1.167,1.167,0,1,1,1.167,1.167A1.167,1.167,0,0,1,102.444,15.586Z" transform="translate(701.601 1702.047)" fill="#7d3a1b" fill-rule="evenodd"/>
  </g>
</svg>
