<svg xmlns="http://www.w3.org/2000/svg" xmlns:xlink="http://www.w3.org/1999/xlink" width="121" height="121" viewBox="0 0 121 121">
  <defs>
    <clipPath id="clip-path">
      <rect id="Rectángulo_400938" data-name="Rectángulo 400938" width="121" height="121" transform="translate(0 0)" fill="none"/>
    </clipPath>
    <clipPath id="clip-path-2">
      <rect id="Rectángulo_401073" data-name="Rectángulo 401073" width="92.219" height="41.532" fill="#fff"/>
    </clipPath>
  </defs>
  <g id="Grupo_1117001" data-name="Grupo 1117001" transform="translate(-392.711 -1687.798)">
    <g id="Grupo_1099349" data-name="Grupo 1099349" transform="translate(5.043 -4325.202)">
      <rect id="Rectángulo_401103" data-name="Rectángulo 401103" width="121" height="121" transform="translate(387.668 6013)" fill="none"/>
      <g id="Grupo_1099348" data-name="Grupo 1099348" transform="translate(387.668 6013)">
        <g id="Grupo_1099282" data-name="Grupo 1099282">
          <g id="Grupo_1099281" data-name="Grupo 1099281" clip-path="url(#clip-path-2)">
            <path id="Trazado_873375" data-name="Trazado 873375" d="M74.8,9.1c-4.139,0-6.28-2.03-8.17-3.821-1.855-1.756-3.452-3.274-6.792-3.274s-4.937,1.517-6.792,3.274C51.161,7.072,49.023,9.1,44.881,9.1s-6.28-2.03-8.169-3.821C34.857,3.525,33.26,2.007,29.92,2.007s-4.937,1.517-6.789,3.274C21.241,7.072,19.1,9.1,14.962,9.1S8.679,7.072,6.789,5.281C4.937,3.525,3.34,2.007,0,2.007V0C4.139,0,6.28,2.033,8.17,3.821c1.855,1.759,3.452,3.274,6.792,3.274S19.9,5.58,21.75,3.824C23.637,2.033,25.781,0,29.92,0s6.283,2.033,8.17,3.821c1.855,1.759,3.452,3.274,6.792,3.274s4.937-1.514,6.792-3.274C53.56,2.033,55.7,0,59.843,0s6.283,2.033,8.17,3.821C69.867,5.58,71.464,7.094,74.8,7.094S79.742,5.58,81.6,3.821C83.483,2.033,85.624,0,89.766,0V2.007c-3.34,0-4.937,1.517-6.792,3.274C81.084,7.072,78.943,9.1,74.8,9.1" transform="translate(2.453 32.43)" fill="#fff"/>
            <path id="Trazado_873376" data-name="Trazado 873376" d="M74.8,9.1c-4.139,0-6.283-2.03-8.17-3.824-1.855-1.756-3.452-3.27-6.792-3.27s-4.937,1.514-6.792,3.27C51.164,7.072,49.023,9.1,44.881,9.1s-6.283-2.03-8.17-3.824c-1.855-1.756-3.452-3.27-6.792-3.27s-4.937,1.517-6.789,3.27C21.241,7.072,19.1,9.1,14.962,9.1S8.679,7.072,6.789,5.278C4.937,3.522,3.34,2.007,0,2.007V0C4.139,0,6.283,2.03,8.17,3.821c1.855,1.759,3.452,3.274,6.792,3.274S19.9,5.58,21.75,3.821C23.637,2.03,25.781,0,29.92,0S36.2,2.03,38.093,3.821c1.852,1.759,3.449,3.274,6.789,3.274s4.937-1.514,6.792-3.274C53.56,2.03,55.7,0,59.843,0s6.283,2.03,8.17,3.821C69.867,5.58,71.464,7.094,74.8,7.094S79.742,5.58,81.6,3.821C83.486,2.03,85.627,0,89.769,0V2.007c-3.34,0-4.94,1.517-6.8,3.27C81.084,7.072,78.943,9.1,74.8,9.1" transform="translate(1.635 21.62)" fill="#fff"/>
            <path id="Trazado_873377" data-name="Trazado 873377" d="M74.8,9.1c-4.139,0-6.283-2.03-8.169-3.824-1.855-1.756-3.452-3.27-6.792-3.27s-4.937,1.514-6.792,3.27C51.164,7.072,49.02,9.1,44.881,9.1s-6.283-2.03-8.17-3.824c-1.855-1.756-3.452-3.27-6.792-3.27s-4.937,1.517-6.789,3.27C21.241,7.072,19.1,9.1,14.962,9.1S8.678,7.072,6.789,5.278C4.937,3.522,3.34,2.007,0,2.007V0C4.139,0,6.283,2.03,8.169,3.821c1.851,1.759,3.452,3.274,6.792,3.274S19.9,5.58,21.75,3.821C23.637,2.03,25.781,0,29.92,0S36.2,2.03,38.093,3.821c1.852,1.759,3.449,3.274,6.789,3.274s4.937-1.514,6.792-3.274C53.56,2.03,55.7,0,59.843,0s6.283,2.03,8.17,3.821C69.867,5.58,71.464,7.094,74.8,7.094S79.742,5.58,81.6,3.821C83.486,2.03,85.624,0,89.769,0V2.007c-3.34,0-4.941,1.517-6.8,3.27C81.084,7.072,78.943,9.1,74.8,9.1" transform="translate(0.818 10.81)" fill="#fff"/>
            <path id="Trazado_873378" data-name="Trazado 873378" d="M74.8,9.1c-4.139,0-6.28-2.03-8.17-3.821-1.855-1.756-3.452-3.27-6.792-3.27s-4.937,1.514-6.789,3.27C51.164,7.069,49.023,9.1,44.881,9.1s-6.28-2.03-8.169-3.821c-1.855-1.756-3.452-3.27-6.792-3.27s-4.937,1.514-6.789,3.267C21.245,7.069,19.1,9.1,14.962,9.1S8.678,7.069,6.789,5.278C4.937,3.522,3.34,2.007,0,2.007V0C4.139,0,6.283,2.03,8.17,3.821c1.855,1.756,3.452,3.27,6.792,3.27S19.9,5.577,21.75,3.821C23.64,2.03,25.781,0,29.92,0s6.28,2.03,8.173,3.821c1.852,1.756,3.449,3.27,6.789,3.27s4.937-1.514,6.792-3.27C53.563,2.03,55.7,0,59.843,0s6.28,2.03,8.17,3.821c1.855,1.756,3.452,3.27,6.792,3.27s4.937-1.514,6.792-3.27C83.486,2.03,85.627,0,89.769,0V2.007c-3.344,0-4.941,1.514-6.8,3.27C81.084,7.069,78.943,9.1,74.8,9.1" transform="translate(0 0.003)" fill="#fff"/>
          </g>
        </g>
      </g>
      <circle id="Elipse_11504" data-name="Elipse 11504" cx="50.5" cy="50.5" r="50.5" transform="translate(402.668 6031)" fill="#fff"/>
      <circle id="Elipse_11503" data-name="Elipse 11503" cx="52.5" cy="52.5" r="52.5" transform="translate(395.668 6021)" fill="#09614d"/>
    </g>
    <path id="Trazado_904629" data-name="Trazado 904629" d="M25.923,37.727a1.09,1.09,0,0,1,0-2.18h3.96a1.09,1.09,0,1,1,0,2.18Zm0,11.043a1.092,1.092,0,0,1,0-2.184H30.26a1.092,1.092,0,0,1,0,2.184Zm8.607,0a1.092,1.092,0,1,1,0-2.184H50.206a1.092,1.092,0,0,1,0,2.184Zm-8.607-5.522a1.092,1.092,0,0,1,0-2.184h18.66a1.092,1.092,0,0,1,0,2.184Zm23.927,0a1.092,1.092,0,0,1,0-2.184h5a1.092,1.092,0,0,1,0,2.184Zm-15.3-5.522a1.09,1.09,0,0,1,0-2.18H50.206a1.09,1.09,0,1,1,0,2.18Zm-8.624-16.1H44.537a1.089,1.089,0,0,1,1.09,1.09v7.633a1.089,1.089,0,0,1-1.09,1.09H25.923a1.091,1.091,0,0,1-1.09-1.09V22.721A1.091,1.091,0,0,1,25.923,21.631Zm17.524,2.184H27.017v5.448H43.445V23.815ZM37.3,54.261A1.091,1.091,0,1,1,38.842,55.8L26.97,67.675a1.091,1.091,0,1,1-1.543-1.543Zm-.468,9.5a1.341,1.341,0,1,0,0,1.9A1.343,1.343,0,0,0,36.831,63.765Zm1.543-1.543a3.524,3.524,0,1,1-4.983,0,3.529,3.529,0,0,1,4.983,0Zm-9.037-5.947a1.34,1.34,0,1,0,0,1.893A1.341,1.341,0,0,0,29.337,56.275ZM28.39,53.7a3.523,3.523,0,1,1-3.526,3.522A3.527,3.527,0,0,1,28.39,53.7ZM54.842,20.795v-.923a1.09,1.09,0,0,1,2.18,0v.923a7.221,7.221,0,0,1,2.862.948,3.577,3.577,0,0,1,1.929,3,1.092,1.092,0,0,1-2.184,0c0-.4-.337-.8-.877-1.136a6.059,6.059,0,0,0-5.638,0c-.542.333-.877.735-.877,1.136,0,1.284,1.926,1.566,3.851,1.844,2.862.417,5.726.831,5.726,4a3.577,3.577,0,0,1-1.929,3,7.236,7.236,0,0,1-2.862.948v.923a1.09,1.09,0,0,1-2.18,0v-.923a7.221,7.221,0,0,1-2.862-.948,3.574,3.574,0,0,1-1.926-3,1.09,1.09,0,0,1,2.18,0c0,.4.337.8.877,1.136a6.083,6.083,0,0,0,5.638,0c.542-.333.877-.735.877-1.136,0-1.284-1.926-1.566-3.851-1.844-2.862-.417-5.722-.831-5.722-4a3.574,3.574,0,0,1,1.926-3,7.214,7.214,0,0,1,2.862-.948Zm10.64,48.937.31-.023a12.913,12.913,0,0,0,2.358-1.315.733.733,0,0,1,.128-.093,14.4,14.4,0,0,0,3.96-4.424,16.655,16.655,0,0,0,2.247-9.288,47.011,47.011,0,0,0-8.761-4.872,46.933,46.933,0,0,0-8.761,4.872,16.885,16.885,0,0,0,2.158,9.349A13.364,13.364,0,0,0,65.482,69.732Zm1.323,1.91v2.9a20.006,20.006,0,0,0,3.581-2.223L68.7,70.636a15.878,15.878,0,0,1-1.9,1.005ZM64.62,74.681V71.726a14.889,14.889,0,0,1-1.964-1.013l-1.728,1.728A18.961,18.961,0,0,0,64.62,74.681Zm.008-26.861V44.888a69.53,69.53,0,0,0-11.364,6.325l2.59,1.5A48.868,48.868,0,0,1,64.628,47.819Zm2.181-2.935v2.935a48.755,48.755,0,0,1,8.77,4.883l2.59-1.5A69.682,69.682,0,0,0,66.809,44.884ZM54.775,54.6,52.25,53.143A25.46,25.46,0,0,0,55.1,65.365l1.511-1.509A19.043,19.043,0,0,1,54.775,54.6Zm24.414-1.477-2.521,1.458a18.762,18.762,0,0,1-1.914,9.21l1.473,1.469a25.17,25.17,0,0,0,2.961-12.137Zm-18.7,6.763A1.089,1.089,0,1,1,62.246,58.6l1.968,2.691,5.05-5.541a1.089,1.089,0,0,1,1.612,1.465l-5.951,6.527a1.09,1.09,0,0,1-1.682-.089Zm-2.769,5.95-4.9,4.9,2.274-.316a1.087,1.087,0,0,1,1.229,1.225l-.27,2.584,4.8-4.8A16.159,16.159,0,0,1,57.722,65.837Zm1.656,8.154L55.43,77.939a1.091,1.091,0,0,1-1.852-.881l.449-4.291-4.049.565a1.092,1.092,0,0,1-1.315-1.005H20.3a1.092,1.092,0,0,1-1.094-1.09V15.88A1.092,1.092,0,0,1,20.3,14.79H65.455a1.089,1.089,0,0,1,1.09,1.09V42.406a71.669,71.669,0,0,1,14.249,7.988,1.087,1.087,0,0,1,.445.765l0,0a26.909,26.909,0,0,1-3.41,15.71l4.624,4.624a1.091,1.091,0,0,1-.994,1.84l-4.049-.565.449,4.291a1.09,1.09,0,0,1-1.852.881h0L71.93,73.861a21.631,21.631,0,0,1-5.99,3.4,1.075,1.075,0,0,1-.761,0,21.109,21.109,0,0,1-5.8-3.271Zm-9.049-3.847,3.17-3.17A27.327,27.327,0,0,1,50.2,51.156a1.075,1.075,0,0,1,.5-.8,71.54,71.54,0,0,1,7.037-4.47,70.567,70.567,0,0,1,6.624-3.252V16.971H21.4V70.145Zm20.161-.809,4.887,4.887-.27-2.584a1.144,1.144,0,0,1,0-.3,1.086,1.086,0,0,1,1.226-.928l2.278.316-4.976-4.976A16.664,16.664,0,0,1,70.489,69.336Z" transform="translate(402.501 1702.007)" fill="#fff"/>
  </g>
</svg>
