<svg xmlns="http://www.w3.org/2000/svg" xmlns:xlink="http://www.w3.org/1999/xlink" width="121" height="121" viewBox="0 0 121 121">
  <defs>
    <clipPath id="clip-path">
      <rect id="Rectángulo_400938" data-name="Rectángulo 400938" width="121" height="121" transform="translate(0 0)" fill="none"/>
    </clipPath>
    <clipPath id="clip-path-2">
      <rect id="Rectángulo_401073" data-name="Rectángulo 401073" width="92.219" height="41.532" fill="#fff"/>
    </clipPath>
  </defs>
  <g id="Grupo_1117002" data-name="Grupo 1117002" transform="translate(-744.711 -1687.798)">
    <g id="Grupo_1099379" data-name="Grupo 1099379" transform="translate(357.043 -4325.202)">
      <rect id="Rectángulo_401103" data-name="Rectángulo 401103" width="121" height="121" transform="translate(387.668 6013)" fill="none"/>
      <g id="Grupo_1099348" data-name="Grupo 1099348" transform="translate(387.668 6013)">
        <g id="Grupo_1099282" data-name="Grupo 1099282">
          <g id="Grupo_1099281" data-name="Grupo 1099281" clip-path="url(#clip-path-2)">
            <path id="Trazado_873375" data-name="Trazado 873375" d="M74.8,9.1c-4.139,0-6.28-2.03-8.17-3.821-1.855-1.756-3.452-3.274-6.792-3.274s-4.937,1.517-6.792,3.274C51.161,7.072,49.023,9.1,44.881,9.1s-6.28-2.03-8.169-3.821C34.857,3.525,33.26,2.007,29.92,2.007s-4.937,1.517-6.789,3.274C21.241,7.072,19.1,9.1,14.962,9.1S8.679,7.072,6.789,5.281C4.937,3.525,3.34,2.007,0,2.007V0C4.139,0,6.28,2.033,8.17,3.821c1.855,1.759,3.452,3.274,6.792,3.274S19.9,5.58,21.75,3.824C23.637,2.033,25.781,0,29.92,0s6.283,2.033,8.17,3.821c1.855,1.759,3.452,3.274,6.792,3.274s4.937-1.514,6.792-3.274C53.56,2.033,55.7,0,59.843,0s6.283,2.033,8.17,3.821C69.867,5.58,71.464,7.094,74.8,7.094S79.742,5.58,81.6,3.821C83.483,2.033,85.624,0,89.766,0V2.007c-3.34,0-4.937,1.517-6.792,3.274C81.084,7.072,78.943,9.1,74.8,9.1" transform="translate(2.453 32.43)" fill="#fff"/>
            <path id="Trazado_873376" data-name="Trazado 873376" d="M74.8,9.1c-4.139,0-6.283-2.03-8.17-3.824-1.855-1.756-3.452-3.27-6.792-3.27s-4.937,1.514-6.792,3.27C51.164,7.072,49.023,9.1,44.881,9.1s-6.283-2.03-8.17-3.824c-1.855-1.756-3.452-3.27-6.792-3.27s-4.937,1.517-6.789,3.27C21.241,7.072,19.1,9.1,14.962,9.1S8.679,7.072,6.789,5.278C4.937,3.522,3.34,2.007,0,2.007V0C4.139,0,6.283,2.03,8.17,3.821c1.855,1.759,3.452,3.274,6.792,3.274S19.9,5.58,21.75,3.821C23.637,2.03,25.781,0,29.92,0S36.2,2.03,38.093,3.821c1.852,1.759,3.449,3.274,6.789,3.274s4.937-1.514,6.792-3.274C53.56,2.03,55.7,0,59.843,0s6.283,2.03,8.17,3.821C69.867,5.58,71.464,7.094,74.8,7.094S79.742,5.58,81.6,3.821C83.486,2.03,85.627,0,89.769,0V2.007c-3.34,0-4.94,1.517-6.8,3.27C81.084,7.072,78.943,9.1,74.8,9.1" transform="translate(1.635 21.62)" fill="#fff"/>
            <path id="Trazado_873377" data-name="Trazado 873377" d="M74.8,9.1c-4.139,0-6.283-2.03-8.169-3.824-1.855-1.756-3.452-3.27-6.792-3.27s-4.937,1.514-6.792,3.27C51.164,7.072,49.02,9.1,44.881,9.1s-6.283-2.03-8.17-3.824c-1.855-1.756-3.452-3.27-6.792-3.27s-4.937,1.517-6.789,3.27C21.241,7.072,19.1,9.1,14.962,9.1S8.678,7.072,6.789,5.278C4.937,3.522,3.34,2.007,0,2.007V0C4.139,0,6.283,2.03,8.169,3.821c1.851,1.759,3.452,3.274,6.792,3.274S19.9,5.58,21.75,3.821C23.637,2.03,25.781,0,29.92,0S36.2,2.03,38.093,3.821c1.852,1.759,3.449,3.274,6.789,3.274s4.937-1.514,6.792-3.274C53.56,2.03,55.7,0,59.843,0s6.283,2.03,8.17,3.821C69.867,5.58,71.464,7.094,74.8,7.094S79.742,5.58,81.6,3.821C83.486,2.03,85.624,0,89.769,0V2.007c-3.34,0-4.941,1.517-6.8,3.27C81.084,7.072,78.943,9.1,74.8,9.1" transform="translate(0.818 10.81)" fill="#fff"/>
            <path id="Trazado_873378" data-name="Trazado 873378" d="M74.8,9.1c-4.139,0-6.28-2.03-8.17-3.821-1.855-1.756-3.452-3.27-6.792-3.27s-4.937,1.514-6.789,3.27C51.164,7.069,49.023,9.1,44.881,9.1s-6.28-2.03-8.169-3.821c-1.855-1.756-3.452-3.27-6.792-3.27s-4.937,1.514-6.789,3.267C21.245,7.069,19.1,9.1,14.962,9.1S8.678,7.069,6.789,5.278C4.937,3.522,3.34,2.007,0,2.007V0C4.139,0,6.283,2.03,8.17,3.821c1.855,1.756,3.452,3.27,6.792,3.27S19.9,5.577,21.75,3.821C23.64,2.03,25.781,0,29.92,0s6.28,2.03,8.173,3.821c1.852,1.756,3.449,3.27,6.789,3.27s4.937-1.514,6.792-3.27C53.563,2.03,55.7,0,59.843,0s6.28,2.03,8.17,3.821c1.855,1.756,3.452,3.27,6.792,3.27s4.937-1.514,6.792-3.27C83.486,2.03,85.627,0,89.769,0V2.007c-3.344,0-4.941,1.514-6.8,3.27C81.084,7.069,78.943,9.1,74.8,9.1" transform="translate(0 0.003)" fill="#fff"/>
          </g>
        </g>
      </g>
      <circle id="Elipse_11504" data-name="Elipse 11504" cx="50.5" cy="50.5" r="50.5" transform="translate(402.668 6031)" fill="#fff"/>
      <circle id="Elipse_11503" data-name="Elipse 11503" cx="52.5" cy="52.5" r="52.5" transform="translate(395.668 6021)" fill="#09614d"/>
    </g>
    <path id="Trazado_904630" data-name="Trazado 904630" d="M32.894,18.314a.847.847,0,0,1,.847-.847h14a.847.847,0,0,1,0,1.694h-14A.847.847,0,0,1,32.894,18.314Zm.847,5.911h23.8a.847.847,0,0,0,0-1.694h-23.8a.847.847,0,1,0,0,1.694Zm0,5.067h23.8a.847.847,0,0,0,0-1.694h-23.8a.847.847,0,1,0,0,1.694Zm0,5.064H52.6a.847.847,0,0,0,0-1.694H33.741a.847.847,0,1,0,0,1.694Zm0,5.064H47.361a.847.847,0,0,0,0-1.694H33.741a.847.847,0,0,0,0,1.694Zm9.781,14.457H39.09a3.88,3.88,0,0,0-.173-3.056,2.205,2.205,0,0,0-2.176-1.27c-1.084.111-2.625,1.088-3.812,5.112a.847.847,0,1,0,1.625.479c.88-2.982,1.9-3.858,2.36-3.906.251-.026.427.23.51.384A2.394,2.394,0,0,1,37,54.182a.847.847,0,0,0,.653,1.387h5.873a.847.847,0,1,0,0-1.694ZM77.559,64.957a3.073,3.073,0,0,1-5.242,2.173l-5.69-5.69a.847.847,0,0,1-.841.747H62.613v.947H62.9a2.049,2.049,0,0,1,2.044,2.048v2a.847.847,0,0,1-.847.847H42.9a.847.847,0,0,1-.847-.847v-.916H21.422a.847.847,0,0,1-.847-.847V13.065a.847.847,0,0,1,.847-.847H24.65V8.845A.847.847,0,0,1,25.5,8h30.82a.847.847,0,0,1,.6.248l9.469,9.468a.847.847,0,0,1,.248.6V39.946l1.381,1.381a1.84,1.84,0,0,1,0,2.585l-1.3,1.3c-.027.027-.056.051-.085.076v7.471L76.66,62.785a3.045,3.045,0,0,1,.9,2.172ZM63.1,44.18l-6.217-6.217-9.392,9.392,6.22,6.217L63.1,44.18ZM45.266,47.523a.125.125,0,0,0-.093-.04h0a.132.132,0,0,0-.1.04l-1.3,1.3a.136.136,0,0,0,0,.188l8.278,8.278a.136.136,0,0,0,.188,0l1.3-1.3a.139.139,0,0,0,0-.194l-8.275-8.272Zm13.366,3.525L70.9,63.318l1.949-1.947L60.579,49.1Zm6.307.016V45.679a1.813,1.813,0,0,1-.626-.312L61.777,47.9l3.162,3.162Zm1.875-8.542L58.539,34.25a.136.136,0,0,0-.188,0l-1.3,1.3a.136.136,0,0,0,0,.188l8.278,8.278a.136.136,0,0,0,.188,0l1.3-1.3a.139.139,0,0,0,0-.194ZM57.165,17.466h6.576L57.165,10.89Zm-34.9,47.1H42.144a2.048,2.048,0,0,1,1.95-1.434h.288v-.947H25.5a.847.847,0,0,1-.847-.847V13.912H22.269V64.568Zm40.632.26H44.095a.357.357,0,0,0-.35.354v1.149H63.251V65.182a.357.357,0,0,0-.35-.354Zm-1.983-1.694V61.82a.456.456,0,0,0-.45-.45H46.527a.456.456,0,0,0-.45.45v1.314Zm4.021-3.382-7.505-7.505L54.9,54.783a1.84,1.84,0,0,1-.154,2.4l-1.3,1.3a1.829,1.829,0,0,1-2.584,0l-8.278-8.278a1.829,1.829,0,0,1,0-2.584l1.3-1.3a1.816,1.816,0,0,1,1.293-.536h0a1.805,1.805,0,0,1,1.106.38L55.7,36.753a1.829,1.829,0,0,1,.156-2.4l1.3-1.3a1.83,1.83,0,0,1,2.584,0l5.2,5.2V19.161H56.318a.847.847,0,0,1-.847-.847V9.692H26.345v50.8h18.5a2.139,2.139,0,0,1,1.68-.816H60.469a2.14,2.14,0,0,1,1.68.816h2.79v-.74Zm10.925,5.2a1.363,1.363,0,0,0-.4-.973L74.048,62.57,72.1,64.517l1.414,1.414a1.381,1.381,0,0,0,1.948,0A1.364,1.364,0,0,0,75.864,64.957ZM33.741,44.481h9.122a.847.847,0,0,0,0-1.694H33.741a.847.847,0,1,0,0,1.694Z" transform="translate(756.135 1709.8)" fill="#fff"/>
  </g>
</svg>
