<svg xmlns="http://www.w3.org/2000/svg" xmlns:xlink="http://www.w3.org/1999/xlink" width="121" height="121" viewBox="0 0 121 121">
  <defs>
    <clipPath id="clip-path">
      <rect id="Rectángulo_400938" data-name="Rectángulo 400938" width="121" height="121" transform="translate(0 0)" fill="none"/>
    </clipPath>
    <clipPath id="clip-path-2">
      <rect id="Rectángulo_401073" data-name="Rectángulo 401073" width="92.219" height="41.532" fill="#efb499"/>
    </clipPath>
  </defs>
  <g id="Grupo_1099537" data-name="Grupo 1099537" transform="translate(-1095.711 -1687.798)">
    <g id="Grupo_1099376" data-name="Grupo 1099376" transform="translate(708.043 -4325.202)">
      <rect id="Rectángulo_401103" data-name="Rectángulo 401103" width="121" height="121" transform="translate(387.668 6013)" fill="none"/>
      <g id="Grupo_1099348" data-name="Grupo 1099348" transform="translate(387.668 6013)">
        <g id="Grupo_1099282" data-name="Grupo 1099282">
          <g id="Grupo_1099281" data-name="Grupo 1099281" clip-path="url(#clip-path-2)">
            <path id="Trazado_873375" data-name="Trazado 873375" d="M74.8,9.1c-4.139,0-6.28-2.03-8.17-3.821-1.855-1.756-3.452-3.274-6.792-3.274s-4.937,1.517-6.792,3.274C51.161,7.072,49.023,9.1,44.881,9.1s-6.28-2.03-8.169-3.821C34.857,3.525,33.26,2.007,29.92,2.007s-4.937,1.517-6.789,3.274C21.241,7.072,19.1,9.1,14.962,9.1S8.679,7.072,6.789,5.281C4.937,3.525,3.34,2.007,0,2.007V0C4.139,0,6.28,2.033,8.17,3.821c1.855,1.759,3.452,3.274,6.792,3.274S19.9,5.58,21.75,3.824C23.637,2.033,25.781,0,29.92,0s6.283,2.033,8.17,3.821c1.855,1.759,3.452,3.274,6.792,3.274s4.937-1.514,6.792-3.274C53.56,2.033,55.7,0,59.843,0s6.283,2.033,8.17,3.821C69.867,5.58,71.464,7.094,74.8,7.094S79.742,5.58,81.6,3.821C83.483,2.033,85.624,0,89.766,0V2.007c-3.34,0-4.937,1.517-6.792,3.274C81.084,7.072,78.943,9.1,74.8,9.1" transform="translate(2.453 32.43)" fill="#efb499"/>
            <path id="Trazado_873376" data-name="Trazado 873376" d="M74.8,9.1c-4.139,0-6.283-2.03-8.17-3.824-1.855-1.756-3.452-3.27-6.792-3.27s-4.937,1.514-6.792,3.27C51.164,7.072,49.023,9.1,44.881,9.1s-6.283-2.03-8.17-3.824c-1.855-1.756-3.452-3.27-6.792-3.27s-4.937,1.517-6.789,3.27C21.241,7.072,19.1,9.1,14.962,9.1S8.679,7.072,6.789,5.278C4.937,3.522,3.34,2.007,0,2.007V0C4.139,0,6.283,2.03,8.17,3.821c1.855,1.759,3.452,3.274,6.792,3.274S19.9,5.58,21.75,3.821C23.637,2.03,25.781,0,29.92,0S36.2,2.03,38.093,3.821c1.852,1.759,3.449,3.274,6.789,3.274s4.937-1.514,6.792-3.274C53.56,2.03,55.7,0,59.843,0s6.283,2.03,8.17,3.821C69.867,5.58,71.464,7.094,74.8,7.094S79.742,5.58,81.6,3.821C83.486,2.03,85.627,0,89.769,0V2.007c-3.34,0-4.94,1.517-6.8,3.27C81.084,7.072,78.943,9.1,74.8,9.1" transform="translate(1.635 21.62)" fill="#efb499"/>
            <path id="Trazado_873377" data-name="Trazado 873377" d="M74.8,9.1c-4.139,0-6.283-2.03-8.169-3.824-1.855-1.756-3.452-3.27-6.792-3.27s-4.937,1.514-6.792,3.27C51.164,7.072,49.02,9.1,44.881,9.1s-6.283-2.03-8.17-3.824c-1.855-1.756-3.452-3.27-6.792-3.27s-4.937,1.517-6.789,3.27C21.241,7.072,19.1,9.1,14.962,9.1S8.678,7.072,6.789,5.278C4.937,3.522,3.34,2.007,0,2.007V0C4.139,0,6.283,2.03,8.169,3.821c1.851,1.759,3.452,3.274,6.792,3.274S19.9,5.58,21.75,3.821C23.637,2.03,25.781,0,29.92,0S36.2,2.03,38.093,3.821c1.852,1.759,3.449,3.274,6.789,3.274s4.937-1.514,6.792-3.274C53.56,2.03,55.7,0,59.843,0s6.283,2.03,8.17,3.821C69.867,5.58,71.464,7.094,74.8,7.094S79.742,5.58,81.6,3.821C83.486,2.03,85.624,0,89.769,0V2.007c-3.34,0-4.941,1.517-6.8,3.27C81.084,7.072,78.943,9.1,74.8,9.1" transform="translate(0.818 10.81)" fill="#efb499"/>
            <path id="Trazado_873378" data-name="Trazado 873378" d="M74.8,9.1c-4.139,0-6.28-2.03-8.17-3.821-1.855-1.756-3.452-3.27-6.792-3.27s-4.937,1.514-6.789,3.27C51.164,7.069,49.023,9.1,44.881,9.1s-6.28-2.03-8.169-3.821c-1.855-1.756-3.452-3.27-6.792-3.27s-4.937,1.514-6.789,3.267C21.245,7.069,19.1,9.1,14.962,9.1S8.678,7.069,6.789,5.278C4.937,3.522,3.34,2.007,0,2.007V0C4.139,0,6.283,2.03,8.17,3.821c1.855,1.756,3.452,3.27,6.792,3.27S19.9,5.577,21.75,3.821C23.64,2.03,25.781,0,29.92,0s6.28,2.03,8.173,3.821c1.852,1.756,3.449,3.27,6.789,3.27s4.937-1.514,6.792-3.27C53.563,2.03,55.7,0,59.843,0s6.28,2.03,8.17,3.821c1.855,1.756,3.452,3.27,6.792,3.27s4.937-1.514,6.792-3.27C83.486,2.03,85.627,0,89.769,0V2.007c-3.344,0-4.941,1.514-6.8,3.27C81.084,7.069,78.943,9.1,74.8,9.1" transform="translate(0 0.003)" fill="#efb499"/>
          </g>
        </g>
      </g>
      <circle id="Elipse_11504" data-name="Elipse 11504" cx="50.5" cy="50.5" r="50.5" transform="translate(402.668 6031)" fill="#ffce73"/>
      <circle id="Elipse_11503" data-name="Elipse 11503" cx="52.5" cy="52.5" r="52.5" transform="translate(395.668 6021)" fill="#f3f9ff"/>
    </g>
    <g id="Grupo_1099533" data-name="Grupo 1099533" transform="translate(1079.707 1701.646)">
      <path id="Trazado_873463" data-name="Trazado 873463" d="M131.119,137.649a1.366,1.366,0,0,0-1.9.337l-4.343,6.212-2.815-2.5a1.367,1.367,0,1,0-1.816,2.043l3,2.663a2.519,2.519,0,0,0,3.737-.439l4.482-6.411A1.367,1.367,0,0,0,131.119,137.649Z" transform="translate(-68.102 -112.362)" fill="#7d3a1b"/>
      <path id="Trazado_873464" data-name="Trazado 873464" d="M131.12,247.208a1.366,1.366,0,0,0-1.9.337l-4.343,6.212-2.815-2.5a1.367,1.367,0,0,0-1.816,2.043l3,2.664a2.519,2.519,0,0,0,3.736-.439l4.482-6.411A1.367,1.367,0,0,0,131.12,247.208Z" transform="translate(-68.103 -201.956)" fill="#7d3a1b"/>
      <path id="Trazado_873465" data-name="Trazado 873465" d="M131.119,355.3a1.366,1.366,0,0,0-1.9.337l-4.343,6.212-2.815-2.5a1.367,1.367,0,1,0-1.816,2.043l3,2.663a2.519,2.519,0,0,0,3.737-.439l4.482-6.411A1.367,1.367,0,0,0,131.119,355.3Z" transform="translate(-68.102 -290.347)" fill="#7d3a1b"/>
      <path id="Trazado_873466" data-name="Trazado 873466" d="M234.373,141.344H215.058a1.367,1.367,0,0,0,0,2.734h19.315a1.367,1.367,0,0,0,0-2.734Z" transform="translate(-144.897 -115.586)" fill="#7d3a1b"/>
      <path id="Trazado_873467" data-name="Trazado 873467" d="M234.373,174.675H215.058a1.367,1.367,0,0,0,0,2.734h19.315a1.367,1.367,0,0,0,0-2.734Z" transform="translate(-144.897 -142.843)" fill="#7d3a1b"/>
      <path id="Trazado_873468" data-name="Trazado 873468" d="M235.74,249.867a1.367,1.367,0,0,0-1.367-1.367H215.058a1.367,1.367,0,0,0,0,2.734h19.315A1.367,1.367,0,0,0,235.74,249.867Z" transform="translate(-144.897 -203.214)" fill="#7d3a1b"/>
      <path id="Trazado_873469" data-name="Trazado 873469" d="M215.058,281.831a1.367,1.367,0,1,0,0,2.733h9.658a1.367,1.367,0,1,0,0-2.733Z" transform="translate(-144.897 -230.471)" fill="#7d3a1b"/>
      <path id="Trazado_873470" data-name="Trazado 873470" d="M114.417,28.059a5.573,5.573,0,0,0-7.839.864L70.571,73.85c-.173.216.089-.225-4.692,9.353H46.36a.617.617,0,0,1-.616-.616v-69h9.023v.922A3.438,3.438,0,0,0,58.2,17.943H84.321a3.438,3.438,0,0,0,3.435-3.434v-.922h9.023V34.471a1.367,1.367,0,0,0,2.734,0V13.587h2.134a1.641,1.641,0,0,1,1.639,1.639V26.333a1.367,1.367,0,1,0,2.734,0V15.226a4.378,4.378,0,0,0-4.373-4.373H87.589A5.732,5.732,0,0,0,82.033,6.5H79.4a.821.821,0,0,1-.82-.82A5.684,5.684,0,0,0,72.905,0H69.618a5.684,5.684,0,0,0-5.677,5.677.821.821,0,0,1-.82.82H60.49a5.732,5.732,0,0,0-5.557,4.356H40.877A4.378,4.378,0,0,0,36.5,15.226V88.932A4.378,4.378,0,0,0,40.877,93.3h60.77a4.378,4.378,0,0,0,4.373-4.373V54.109a1.367,1.367,0,0,0-2.734,0V88.932a1.641,1.641,0,0,1-1.639,1.639H40.877a1.641,1.641,0,0,1-1.639-1.639V15.226a1.641,1.641,0,0,1,1.639-1.639h2.134v69a3.353,3.353,0,0,0,3.349,3.349H65.184A3.267,3.267,0,0,0,70.481,88l2.541-2.061H96.163a3.353,3.353,0,0,0,3.349-3.349V62.211a1.367,1.367,0,1,0-2.734,0V82.587a.617.617,0,0,1-.616.616H76.392a34.623,34.623,0,0,0,2.881-2.378L115.281,35.9a5.582,5.582,0,0,0-.864-7.838ZM57.5,12.221A2.993,2.993,0,0,1,60.49,9.231h2.63a3.558,3.558,0,0,0,3.554-3.554,2.947,2.947,0,0,1,2.944-2.944h3.287a2.947,2.947,0,0,1,2.944,2.944A3.558,3.558,0,0,0,79.4,9.231h2.63a2.993,2.993,0,0,1,2.989,2.989v2.289a.7.7,0,0,1-.7.7H58.2a.7.7,0,0,1-.7-.7ZM68.758,85.875a.542.542,0,0,1-.827-.662l4.2-8.443,3.947,3.163Zm9.279-7.88L73.6,74.44l29.256-36.5,4.436,3.555Zm35.111-43.807L109,39.359,104.567,35.8l4.145-5.171a2.843,2.843,0,0,1,4.436,3.555Z" fill="#7d3a1b"/>
    </g>
  </g>
</svg>
