<svg xmlns="http://www.w3.org/2000/svg" xmlns:xlink="http://www.w3.org/1999/xlink" width="121" height="121" viewBox="0 0 121 121">
  <defs>
    <clipPath id="clip-path">
      <rect id="Rectángulo_400938" data-name="Rectángulo 400938" width="121" height="121" transform="translate(0 0)" fill="none"/>
    </clipPath>
    <clipPath id="clip-path-2">
      <rect id="Rectángulo_401073" data-name="Rectángulo 401073" width="92.219" height="41.532" fill="#efb499"/>
    </clipPath>
  </defs>
  <g id="Grupo_1099532" data-name="Grupo 1099532" transform="translate(-744.711 -1687.798)">
    <g id="Grupo_1099379" data-name="Grupo 1099379" transform="translate(357.043 -4325.202)">
      <rect id="Rectángulo_401103" data-name="Rectángulo 401103" width="121" height="121" transform="translate(387.668 6013)" fill="none"/>
      <g id="Grupo_1099348" data-name="Grupo 1099348" transform="translate(387.668 6013)">
        <g id="Grupo_1099282" data-name="Grupo 1099282">
          <g id="Grupo_1099281" data-name="Grupo 1099281" clip-path="url(#clip-path-2)">
            <path id="Trazado_873375" data-name="Trazado 873375" d="M74.8,9.1c-4.139,0-6.28-2.03-8.17-3.821-1.855-1.756-3.452-3.274-6.792-3.274s-4.937,1.517-6.792,3.274C51.161,7.072,49.023,9.1,44.881,9.1s-6.28-2.03-8.169-3.821C34.857,3.525,33.26,2.007,29.92,2.007s-4.937,1.517-6.789,3.274C21.241,7.072,19.1,9.1,14.962,9.1S8.679,7.072,6.789,5.281C4.937,3.525,3.34,2.007,0,2.007V0C4.139,0,6.28,2.033,8.17,3.821c1.855,1.759,3.452,3.274,6.792,3.274S19.9,5.58,21.75,3.824C23.637,2.033,25.781,0,29.92,0s6.283,2.033,8.17,3.821c1.855,1.759,3.452,3.274,6.792,3.274s4.937-1.514,6.792-3.274C53.56,2.033,55.7,0,59.843,0s6.283,2.033,8.17,3.821C69.867,5.58,71.464,7.094,74.8,7.094S79.742,5.58,81.6,3.821C83.483,2.033,85.624,0,89.766,0V2.007c-3.34,0-4.937,1.517-6.792,3.274C81.084,7.072,78.943,9.1,74.8,9.1" transform="translate(2.453 32.43)" fill="#efb499"/>
            <path id="Trazado_873376" data-name="Trazado 873376" d="M74.8,9.1c-4.139,0-6.283-2.03-8.17-3.824-1.855-1.756-3.452-3.27-6.792-3.27s-4.937,1.514-6.792,3.27C51.164,7.072,49.023,9.1,44.881,9.1s-6.283-2.03-8.17-3.824c-1.855-1.756-3.452-3.27-6.792-3.27s-4.937,1.517-6.789,3.27C21.241,7.072,19.1,9.1,14.962,9.1S8.679,7.072,6.789,5.278C4.937,3.522,3.34,2.007,0,2.007V0C4.139,0,6.283,2.03,8.17,3.821c1.855,1.759,3.452,3.274,6.792,3.274S19.9,5.58,21.75,3.821C23.637,2.03,25.781,0,29.92,0S36.2,2.03,38.093,3.821c1.852,1.759,3.449,3.274,6.789,3.274s4.937-1.514,6.792-3.274C53.56,2.03,55.7,0,59.843,0s6.283,2.03,8.17,3.821C69.867,5.58,71.464,7.094,74.8,7.094S79.742,5.58,81.6,3.821C83.486,2.03,85.627,0,89.769,0V2.007c-3.34,0-4.94,1.517-6.8,3.27C81.084,7.072,78.943,9.1,74.8,9.1" transform="translate(1.635 21.62)" fill="#efb499"/>
            <path id="Trazado_873377" data-name="Trazado 873377" d="M74.8,9.1c-4.139,0-6.283-2.03-8.169-3.824-1.855-1.756-3.452-3.27-6.792-3.27s-4.937,1.514-6.792,3.27C51.164,7.072,49.02,9.1,44.881,9.1s-6.283-2.03-8.17-3.824c-1.855-1.756-3.452-3.27-6.792-3.27s-4.937,1.517-6.789,3.27C21.241,7.072,19.1,9.1,14.962,9.1S8.678,7.072,6.789,5.278C4.937,3.522,3.34,2.007,0,2.007V0C4.139,0,6.283,2.03,8.169,3.821c1.851,1.759,3.452,3.274,6.792,3.274S19.9,5.58,21.75,3.821C23.637,2.03,25.781,0,29.92,0S36.2,2.03,38.093,3.821c1.852,1.759,3.449,3.274,6.789,3.274s4.937-1.514,6.792-3.274C53.56,2.03,55.7,0,59.843,0s6.283,2.03,8.17,3.821C69.867,5.58,71.464,7.094,74.8,7.094S79.742,5.58,81.6,3.821C83.486,2.03,85.624,0,89.769,0V2.007c-3.34,0-4.941,1.517-6.8,3.27C81.084,7.072,78.943,9.1,74.8,9.1" transform="translate(0.818 10.81)" fill="#efb499"/>
            <path id="Trazado_873378" data-name="Trazado 873378" d="M74.8,9.1c-4.139,0-6.28-2.03-8.17-3.821-1.855-1.756-3.452-3.27-6.792-3.27s-4.937,1.514-6.789,3.27C51.164,7.069,49.023,9.1,44.881,9.1s-6.28-2.03-8.169-3.821c-1.855-1.756-3.452-3.27-6.792-3.27s-4.937,1.514-6.789,3.267C21.245,7.069,19.1,9.1,14.962,9.1S8.678,7.069,6.789,5.278C4.937,3.522,3.34,2.007,0,2.007V0C4.139,0,6.283,2.03,8.17,3.821c1.855,1.756,3.452,3.27,6.792,3.27S19.9,5.577,21.75,3.821C23.64,2.03,25.781,0,29.92,0s6.28,2.03,8.173,3.821c1.852,1.756,3.449,3.27,6.789,3.27s4.937-1.514,6.792-3.27C53.563,2.03,55.7,0,59.843,0s6.28,2.03,8.17,3.821c1.855,1.756,3.452,3.27,6.792,3.27s4.937-1.514,6.792-3.27C83.486,2.03,85.627,0,89.769,0V2.007c-3.344,0-4.941,1.514-6.8,3.27C81.084,7.069,78.943,9.1,74.8,9.1" transform="translate(0 0.003)" fill="#efb499"/>
          </g>
        </g>
      </g>
      <circle id="Elipse_11504" data-name="Elipse 11504" cx="50.5" cy="50.5" r="50.5" transform="translate(402.668 6031)" fill="#ffce73"/>
      <circle id="Elipse_11503" data-name="Elipse 11503" cx="52.5" cy="52.5" r="52.5" transform="translate(395.668 6021)" fill="#f3f9ff"/>
    </g>
    <path id="Trazado_900871" data-name="Trazado 900871" d="M64.852,36.419a1.1,1.1,0,0,0-.822-.763l-2.5-.538.062-.062A1.1,1.1,0,0,0,60.043,33.5l-.062.062-.538-2.5a1.1,1.1,0,0,0-1.85-.545l-4.822,4.822a15.591,15.591,0,1,0,6.972,6.995l4.833-4.833A1.1,1.1,0,0,0,64.852,36.419ZM57.719,33.5l.412,1.912-3.916,3.916L53.8,37.417Zm-8.9,15.784a3.039,3.039,0,1,1-1.789-2.767l-2.007,2.007a1.1,1.1,0,0,0,1.553,1.553l1.994-1.994a3.019,3.019,0,0,1,.248,1.2Zm-.177-4.379a5.241,5.241,0,1,0,1.546,1.561l2.141-2.141a8.235,8.235,0,1,1-1.549-1.557ZM45.779,62.684a13.4,13.4,0,1,1,5.733-25.507,1.1,1.1,0,0,0,.018.119l.837,3.883-.028.028a10.435,10.435,0,1,0,1.549,1.557l.032-.032,3.882.837c.034.007.067.012.1.016a13.4,13.4,0,0,1-12.125,19.1Zm11.9-21.389-1.911-.412,3.916-3.916,1.911.412ZM25,29.075a1.094,1.094,0,0,0,.619-.192L38.28,20.22a3.628,3.628,0,0,0,3.3.613l3.253,4.708a3.635,3.635,0,1,0,6.44,1.528l14.89-8.131-.073.116a1.1,1.1,0,1,0,1.86,1.169l2.317-3.685a1.1,1.1,0,0,0-.888-1.682l-4.35-.164a1.1,1.1,0,0,0-.083,2.2l.366.014L50.222,25.142a3.629,3.629,0,0,0-3.58-.852L43.39,19.583a3.635,3.635,0,1,0-6.353-1.174L24.381,27.07a1.1,1.1,0,0,0,.621,2Zm24.146-1.309a1.439,1.439,0,1,1-1.439-1.439A1.441,1.441,0,0,1,49.148,27.766ZM40.517,15.919a1.439,1.439,0,1,1-1.439,1.439A1.441,1.441,0,0,1,40.517,15.919Zm-22.24,49.9v-.779h2.452a1.1,1.1,0,1,0,0-2.2H18.277V60.236h2.452a1.391,1.391,0,0,0,0-2.731H18.277V54.363h2.452a1.1,1.1,0,0,0,0-2.2H18.277V49.023h2.452a1.1,1.1,0,0,0,0-2.2H18.277V43.684h2.452a1.1,1.1,0,1,0,0-2.2H18.277V38.344h2.452a1.1,1.1,0,0,0,0-2.2H18.277V33h2.452a1.1,1.1,0,1,0,0-2.2H18.277V27.665h2.452a1.1,1.1,0,1,0,0-2.2H18.277V22.326h2.452a1.1,1.1,0,0,0,0-2.2H18.277V16.987h2.452a1.1,1.1,0,0,0,0-2.2H18.277V8H8V76.1H76.1V65.82ZM73.9,73.9H10.2V10.2h5.884v57.82H73.9Z" transform="translate(763.162 1706.249)" fill="#7d3a1b"/>
  </g>
</svg>
