<svg xmlns="http://www.w3.org/2000/svg" xmlns:xlink="http://www.w3.org/1999/xlink" width="121" height="121" viewBox="0 0 121 121">
  <defs>
    <clipPath id="clip-path">
      <rect id="Rectángulo_400938" data-name="Rectángulo 400938" width="121" height="121" transform="translate(0 0)" fill="none"/>
    </clipPath>
    <clipPath id="clip-path-2">
      <rect id="Rectángulo_401073" data-name="Rectángulo 401073" width="92.219" height="41.532" fill="#efb499"/>
    </clipPath>
  </defs>
  <g id="Grupo_1117115" data-name="Grupo 1117115" transform="translate(-745.039 -1687.388)">
    <g id="Grupo_1099379" data-name="Grupo 1099379" transform="translate(357.371 -4325.612)">
      <rect id="Rectángulo_401103" data-name="Rectángulo 401103" width="121" height="121" transform="translate(387.668 6013)" fill="none"/>
      <g id="Grupo_1099348" data-name="Grupo 1099348" transform="translate(387.668 6013)">
        <g id="Grupo_1099282" data-name="Grupo 1099282">
          <g id="Grupo_1099281" data-name="Grupo 1099281" clip-path="url(#clip-path-2)">
            <path id="Trazado_873375" data-name="Trazado 873375" d="M74.8,9.1c-4.139,0-6.28-2.03-8.17-3.821-1.855-1.756-3.452-3.274-6.792-3.274s-4.937,1.517-6.792,3.274C51.161,7.072,49.023,9.1,44.881,9.1s-6.28-2.03-8.169-3.821C34.857,3.525,33.26,2.007,29.92,2.007s-4.937,1.517-6.789,3.274C21.241,7.072,19.1,9.1,14.962,9.1S8.679,7.072,6.789,5.281C4.937,3.525,3.34,2.007,0,2.007V0C4.139,0,6.28,2.033,8.17,3.821c1.855,1.759,3.452,3.274,6.792,3.274S19.9,5.58,21.75,3.824C23.637,2.033,25.781,0,29.92,0s6.283,2.033,8.17,3.821c1.855,1.759,3.452,3.274,6.792,3.274s4.937-1.514,6.792-3.274C53.56,2.033,55.7,0,59.843,0s6.283,2.033,8.17,3.821C69.867,5.58,71.464,7.094,74.8,7.094S79.742,5.58,81.6,3.821C83.483,2.033,85.624,0,89.766,0V2.007c-3.34,0-4.937,1.517-6.792,3.274C81.084,7.072,78.943,9.1,74.8,9.1" transform="translate(2.453 32.43)" fill="#efb499"/>
            <path id="Trazado_873376" data-name="Trazado 873376" d="M74.8,9.1c-4.139,0-6.283-2.03-8.17-3.824-1.855-1.756-3.452-3.27-6.792-3.27s-4.937,1.514-6.792,3.27C51.164,7.072,49.023,9.1,44.881,9.1s-6.283-2.03-8.17-3.824c-1.855-1.756-3.452-3.27-6.792-3.27s-4.937,1.517-6.789,3.27C21.241,7.072,19.1,9.1,14.962,9.1S8.679,7.072,6.789,5.278C4.937,3.522,3.34,2.007,0,2.007V0C4.139,0,6.283,2.03,8.17,3.821c1.855,1.759,3.452,3.274,6.792,3.274S19.9,5.58,21.75,3.821C23.637,2.03,25.781,0,29.92,0S36.2,2.03,38.093,3.821c1.852,1.759,3.449,3.274,6.789,3.274s4.937-1.514,6.792-3.274C53.56,2.03,55.7,0,59.843,0s6.283,2.03,8.17,3.821C69.867,5.58,71.464,7.094,74.8,7.094S79.742,5.58,81.6,3.821C83.486,2.03,85.627,0,89.769,0V2.007c-3.34,0-4.94,1.517-6.8,3.27C81.084,7.072,78.943,9.1,74.8,9.1" transform="translate(1.635 21.62)" fill="#efb499"/>
            <path id="Trazado_873377" data-name="Trazado 873377" d="M74.8,9.1c-4.139,0-6.283-2.03-8.169-3.824-1.855-1.756-3.452-3.27-6.792-3.27s-4.937,1.514-6.792,3.27C51.164,7.072,49.02,9.1,44.881,9.1s-6.283-2.03-8.17-3.824c-1.855-1.756-3.452-3.27-6.792-3.27s-4.937,1.517-6.789,3.27C21.241,7.072,19.1,9.1,14.962,9.1S8.678,7.072,6.789,5.278C4.937,3.522,3.34,2.007,0,2.007V0C4.139,0,6.283,2.03,8.169,3.821c1.851,1.759,3.452,3.274,6.792,3.274S19.9,5.58,21.75,3.821C23.637,2.03,25.781,0,29.92,0S36.2,2.03,38.093,3.821c1.852,1.759,3.449,3.274,6.789,3.274s4.937-1.514,6.792-3.274C53.56,2.03,55.7,0,59.843,0s6.283,2.03,8.17,3.821C69.867,5.58,71.464,7.094,74.8,7.094S79.742,5.58,81.6,3.821C83.486,2.03,85.624,0,89.769,0V2.007c-3.34,0-4.941,1.517-6.8,3.27C81.084,7.072,78.943,9.1,74.8,9.1" transform="translate(0.818 10.81)" fill="#efb499"/>
            <path id="Trazado_873378" data-name="Trazado 873378" d="M74.8,9.1c-4.139,0-6.28-2.03-8.17-3.821-1.855-1.756-3.452-3.27-6.792-3.27s-4.937,1.514-6.789,3.27C51.164,7.069,49.023,9.1,44.881,9.1s-6.28-2.03-8.169-3.821c-1.855-1.756-3.452-3.27-6.792-3.27s-4.937,1.514-6.789,3.267C21.245,7.069,19.1,9.1,14.962,9.1S8.678,7.069,6.789,5.278C4.937,3.522,3.34,2.007,0,2.007V0C4.139,0,6.283,2.03,8.17,3.821c1.855,1.756,3.452,3.27,6.792,3.27S19.9,5.577,21.75,3.821C23.64,2.03,25.781,0,29.92,0s6.28,2.03,8.173,3.821c1.852,1.756,3.449,3.27,6.789,3.27s4.937-1.514,6.792-3.27C53.563,2.03,55.7,0,59.843,0s6.28,2.03,8.17,3.821c1.855,1.756,3.452,3.27,6.792,3.27s4.937-1.514,6.792-3.27C83.486,2.03,85.627,0,89.769,0V2.007c-3.344,0-4.941,1.514-6.8,3.27C81.084,7.069,78.943,9.1,74.8,9.1" transform="translate(0 0.003)" fill="#efb499"/>
          </g>
        </g>
      </g>
      <circle id="Elipse_11504" data-name="Elipse 11504" cx="50.5" cy="50.5" r="50.5" transform="translate(402.668 6031)" fill="#ffce73"/>
      <circle id="Elipse_11503" data-name="Elipse 11503" cx="52.5" cy="52.5" r="52.5" transform="translate(395.668 6021)" fill="#f3f9ff"/>
    </g>
    <g id="Grupo_1117122" data-name="Grupo 1117122" transform="translate(770.04 1713.388)">
      <path id="Trazado_903761" data-name="Trazado 903761" d="M268.006,247.626a3.163,3.163,0,0,0,2.282-.962l5.375-5.51A3.187,3.187,0,0,0,271.1,236.7l-3.153,3.232-.552-.537a3.187,3.187,0,1,0-4.443,4.569l2.834,2.755A3.17,3.17,0,0,0,268.006,247.626Zm-3.645-6.73a1.133,1.133,0,0,1,1.6-.022l1.288,1.252a1.028,1.028,0,0,0,1.452-.019l3.869-3.967a1.132,1.132,0,0,1,1.621,1.58l-5.375,5.51a1.137,1.137,0,0,1-1.6.021l-2.834-2.755A1.133,1.133,0,0,1,264.362,240.9Z" transform="translate(-226.17 -203.514)" fill="#7d3a1b"/>
      <path id="Trazado_903762" data-name="Trazado 903762" d="M220.546,200.379a1.028,1.028,0,0,0-1.641,1.238,13.542,13.542,0,0,0,1.23,1.413,13.366,13.366,0,1,0-3.284-5.379,1.027,1.027,0,0,0,1.958-.625,11.329,11.329,0,1,1,2.779,4.551A11.5,11.5,0,0,1,220.546,200.379Z" transform="translate(-186.652 -155.567)" fill="#7d3a1b"/>
      <path id="Trazado_903763" data-name="Trazado 903763" d="M68.585,56.775,62.1,50.294a1.028,1.028,0,0,0-1.453,0l-.04.04-2.495-2.494a18.051,18.051,0,0,0,2.873-8.69,1.028,1.028,0,0,0-2.051-.129,16.013,16.013,0,0,1-15.98,15h-.1A16.018,16.018,0,1,1,58.716,35.163a1.028,1.028,0,0,0,2.023-.363,18.093,18.093,0,0,0-9.311-12.761v-8.28a1.04,1.04,0,0,0-.3-.727L38.394.3a1.041,1.041,0,0,0-.727-.3H3.082A3.086,3.086,0,0,0,0,3.082v8.636a1.028,1.028,0,0,0,2.055,0V3.082A1.029,1.029,0,0,1,3.082,2.055H36.64V11.7a3.086,3.086,0,0,0,3.083,3.082h9.65v6.323a18.156,18.156,0,0,0-6.236-1.173.224.224,0,0,0-.03,0H20.166a1.027,1.027,0,1,0,0,2.055H34.552a18.01,18.01,0,0,0-4.1,2.943H20.166a1.027,1.027,0,1,0,0,2.055H28.6a17.884,17.884,0,0,0-3.372,7.346H20.166a1.027,1.027,0,1,0,0,2.055h4.766q-.071.8-.072,1.62,0,.669.048,1.331H20.166a1.027,1.027,0,1,0,0,2.055h5.009a17.883,17.883,0,0,0,3.432,7.638H20.166a1.027,1.027,0,1,0,0,2.055H30.458a18.008,18.008,0,0,0,4.092,2.938H20.165a1.027,1.027,0,1,0,0,2.055H42.941A18.167,18.167,0,0,0,49.373,54.9V66.918a1.029,1.029,0,0,1-1.028,1.027H3.082a1.029,1.029,0,0,1-1.028-1.027V15.828a1.028,1.028,0,0,0-2.055,0v51.09A3.086,3.086,0,0,0,3.082,70H48.345a3.086,3.086,0,0,0,3.083-3.082V53.971q.688-.365,1.349-.794l2.494,2.494a1.036,1.036,0,0,0-.04,1.493l6.483,6.482a4.858,4.858,0,0,0,6.871-6.87ZM39.723,12.731A1.029,1.029,0,0,1,38.7,11.7v-8.2l9.225,9.223Zm14.73,39.216q.658-.544,1.274-1.158t1.158-1.274l2.271,2.271-2.432,2.432ZM67.132,62.193a2.817,2.817,0,0,1-3.965,0l-5.756-5.755,3.965-3.964,5.756,5.755A2.816,2.816,0,0,1,67.132,62.193Z" fill="#7d3a1b"/>
      <path id="Trazado_903764" data-name="Trazado 903764" d="M53.691,147.4h4.5a2.3,2.3,0,0,0,2.3-2.3v-4.495a2.3,2.3,0,0,0-2.3-2.3h-4.5a2.3,2.3,0,0,0-2.3,2.3V145.1a2.3,2.3,0,0,0,2.3,2.3Zm-.243-6.793a.244.244,0,0,1,.243-.243h4.5a.244.244,0,0,1,.243.243V145.1a.244.244,0,0,1-.243.243h-4.5a.243.243,0,0,1-.243-.243Z" transform="translate(-44.368 -119.4)" fill="#7d3a1b"/>
      <path id="Trazado_903765" data-name="Trazado 903765" d="M51.393,250.471a2.3,2.3,0,0,0,2.3,2.3h4.5a2.3,2.3,0,0,0,2.3-2.3v-4.495a2.3,2.3,0,0,0-2.3-2.3h-4.5a2.3,2.3,0,0,0-2.3,2.3Zm2.055-4.495a.244.244,0,0,1,.243-.243h4.5a.244.244,0,0,1,.243.243v4.495a.244.244,0,0,1-.243.243h-4.5a.243.243,0,0,1-.243-.243Z" transform="translate(-44.368 -210.363)" fill="#7d3a1b"/>
      <path id="Trazado_903766" data-name="Trazado 903766" d="M51.393,357.978a2.3,2.3,0,0,0,2.3,2.3h4.5a2.3,2.3,0,0,0,2.3-2.3v-4.495a2.3,2.3,0,0,0-2.3-2.3h-4.5a2.3,2.3,0,0,0-2.3,2.3Zm2.055-4.495a.244.244,0,0,1,.243-.243h4.5a.244.244,0,0,1,.243.243v4.495a.244.244,0,0,1-.243.243h-4.5a.243.243,0,0,1-.243-.243Z" transform="translate(-44.368 -303.172)" fill="#7d3a1b"/>
    </g>
  </g>
</svg>
