<svg xmlns="http://www.w3.org/2000/svg" xmlns:xlink="http://www.w3.org/1999/xlink" width="121" height="121" viewBox="0 0 121 121">
  <defs>
    <clipPath id="clip-path">
      <rect id="Rectángulo_400938" data-name="Rectángulo 400938" width="121" height="121" transform="translate(0 0)" fill="none"/>
    </clipPath>
    <clipPath id="clip-path-2">
      <rect id="Rectángulo_401073" data-name="Rectángulo 401073" width="92.219" height="41.532" fill="#efb499"/>
    </clipPath>
  </defs>
  <g id="Grupo_1117102" data-name="Grupo 1117102" transform="translate(-393.042 -1687.888)">
    <g id="Grupo_1099349" data-name="Grupo 1099349" transform="translate(5.375 -4325.112)">
      <rect id="Rectángulo_401103" data-name="Rectángulo 401103" width="121" height="121" transform="translate(387.668 6013)" fill="none"/>
      <g id="Grupo_1099348" data-name="Grupo 1099348" transform="translate(387.668 6013)">
        <g id="Grupo_1099282" data-name="Grupo 1099282">
          <g id="Grupo_1099281" data-name="Grupo 1099281" clip-path="url(#clip-path-2)">
            <path id="Trazado_873375" data-name="Trazado 873375" d="M74.8,9.1c-4.139,0-6.28-2.03-8.17-3.821-1.855-1.756-3.452-3.274-6.792-3.274s-4.937,1.517-6.792,3.274C51.161,7.072,49.023,9.1,44.881,9.1s-6.28-2.03-8.169-3.821C34.857,3.525,33.26,2.007,29.92,2.007s-4.937,1.517-6.789,3.274C21.241,7.072,19.1,9.1,14.962,9.1S8.679,7.072,6.789,5.281C4.937,3.525,3.34,2.007,0,2.007V0C4.139,0,6.28,2.033,8.17,3.821c1.855,1.759,3.452,3.274,6.792,3.274S19.9,5.58,21.75,3.824C23.637,2.033,25.781,0,29.92,0s6.283,2.033,8.17,3.821c1.855,1.759,3.452,3.274,6.792,3.274s4.937-1.514,6.792-3.274C53.56,2.033,55.7,0,59.843,0s6.283,2.033,8.17,3.821C69.867,5.58,71.464,7.094,74.8,7.094S79.742,5.58,81.6,3.821C83.483,2.033,85.624,0,89.766,0V2.007c-3.34,0-4.937,1.517-6.792,3.274C81.084,7.072,78.943,9.1,74.8,9.1" transform="translate(2.453 32.43)" fill="#efb499"/>
            <path id="Trazado_873376" data-name="Trazado 873376" d="M74.8,9.1c-4.139,0-6.283-2.03-8.17-3.824-1.855-1.756-3.452-3.27-6.792-3.27s-4.937,1.514-6.792,3.27C51.164,7.072,49.023,9.1,44.881,9.1s-6.283-2.03-8.17-3.824c-1.855-1.756-3.452-3.27-6.792-3.27s-4.937,1.517-6.789,3.27C21.241,7.072,19.1,9.1,14.962,9.1S8.679,7.072,6.789,5.278C4.937,3.522,3.34,2.007,0,2.007V0C4.139,0,6.283,2.03,8.17,3.821c1.855,1.759,3.452,3.274,6.792,3.274S19.9,5.58,21.75,3.821C23.637,2.03,25.781,0,29.92,0S36.2,2.03,38.093,3.821c1.852,1.759,3.449,3.274,6.789,3.274s4.937-1.514,6.792-3.274C53.56,2.03,55.7,0,59.843,0s6.283,2.03,8.17,3.821C69.867,5.58,71.464,7.094,74.8,7.094S79.742,5.58,81.6,3.821C83.486,2.03,85.627,0,89.769,0V2.007c-3.34,0-4.94,1.517-6.8,3.27C81.084,7.072,78.943,9.1,74.8,9.1" transform="translate(1.635 21.62)" fill="#efb499"/>
            <path id="Trazado_873377" data-name="Trazado 873377" d="M74.8,9.1c-4.139,0-6.283-2.03-8.169-3.824-1.855-1.756-3.452-3.27-6.792-3.27s-4.937,1.514-6.792,3.27C51.164,7.072,49.02,9.1,44.881,9.1s-6.283-2.03-8.17-3.824c-1.855-1.756-3.452-3.27-6.792-3.27s-4.937,1.517-6.789,3.27C21.241,7.072,19.1,9.1,14.962,9.1S8.678,7.072,6.789,5.278C4.937,3.522,3.34,2.007,0,2.007V0C4.139,0,6.283,2.03,8.169,3.821c1.851,1.759,3.452,3.274,6.792,3.274S19.9,5.58,21.75,3.821C23.637,2.03,25.781,0,29.92,0S36.2,2.03,38.093,3.821c1.852,1.759,3.449,3.274,6.789,3.274s4.937-1.514,6.792-3.274C53.56,2.03,55.7,0,59.843,0s6.283,2.03,8.17,3.821C69.867,5.58,71.464,7.094,74.8,7.094S79.742,5.58,81.6,3.821C83.486,2.03,85.624,0,89.769,0V2.007c-3.34,0-4.941,1.517-6.8,3.27C81.084,7.072,78.943,9.1,74.8,9.1" transform="translate(0.818 10.81)" fill="#efb499"/>
            <path id="Trazado_873378" data-name="Trazado 873378" d="M74.8,9.1c-4.139,0-6.28-2.03-8.17-3.821-1.855-1.756-3.452-3.27-6.792-3.27s-4.937,1.514-6.789,3.27C51.164,7.069,49.023,9.1,44.881,9.1s-6.28-2.03-8.169-3.821c-1.855-1.756-3.452-3.27-6.792-3.27s-4.937,1.514-6.789,3.267C21.245,7.069,19.1,9.1,14.962,9.1S8.678,7.069,6.789,5.278C4.937,3.522,3.34,2.007,0,2.007V0C4.139,0,6.283,2.03,8.17,3.821c1.855,1.756,3.452,3.27,6.792,3.27S19.9,5.577,21.75,3.821C23.64,2.03,25.781,0,29.92,0s6.28,2.03,8.173,3.821c1.852,1.756,3.449,3.27,6.789,3.27s4.937-1.514,6.792-3.27C53.563,2.03,55.7,0,59.843,0s6.28,2.03,8.17,3.821c1.855,1.756,3.452,3.27,6.792,3.27s4.937-1.514,6.792-3.27C83.486,2.03,85.627,0,89.769,0V2.007c-3.344,0-4.941,1.514-6.8,3.27C81.084,7.069,78.943,9.1,74.8,9.1" transform="translate(0 0.003)" fill="#efb499"/>
          </g>
        </g>
      </g>
      <circle id="Elipse_11504" data-name="Elipse 11504" cx="50.5" cy="50.5" r="50.5" transform="translate(402.668 6031)" fill="#ffce73"/>
      <circle id="Elipse_11503" data-name="Elipse 11503" cx="52.5" cy="52.5" r="52.5" transform="translate(395.668 6021)" fill="#f3f9ff"/>
    </g>
    <path id="Trazado_903730" data-name="Trazado 903730" d="M49.165,59.584H25.725A1.407,1.407,0,0,0,24.32,60.99v7.819a1.405,1.405,0,0,0,1.406,1.4h23.44a1.405,1.405,0,0,0,1.406-1.4V60.99A1.407,1.407,0,0,0,49.165,59.584Zm-.649,8.572H26.374V61.639H48.517ZM44.969,32.634A1.027,1.027,0,0,1,46,31.607H69.836a1.027,1.027,0,1,1,0,2.054H46A1.027,1.027,0,0,1,44.969,32.634Zm0-4.521A1.027,1.027,0,0,1,46,27.086H69.836a1.027,1.027,0,1,1,0,2.054H46A1.027,1.027,0,0,1,44.969,28.113Zm9.961-4.521a1.027,1.027,0,0,1,1.027-1.027H69.836a1.027,1.027,0,1,1,0,2.054H55.957A1.027,1.027,0,0,1,54.93,23.592ZM71.1,57.052a7.361,7.361,0,1,0,7.361,7.361A7.37,7.37,0,0,0,71.1,57.052Zm0,12.668A5.307,5.307,0,1,1,76.4,64.413,5.313,5.313,0,0,1,71.1,69.72Zm15.762-8.206-2.71-1.254-.886-2.137,1.03-2.8a1.027,1.027,0,0,0-.238-1.081L81.7,51.885V40.008a2.548,2.548,0,0,0-2.545-2.545h-2.6V14.754a1.027,1.027,0,0,0-1.027-1.027H70.863v-4.7A1.027,1.027,0,0,0,69.836,8H23.076a1.027,1.027,0,0,0-1.027,1.027V29.781H20a2.546,2.546,0,0,0-2.545,2.541v42.21A2.548,2.548,0,0,0,20,77.077H60.622l.3.3A1.027,1.027,0,0,0,62,77.612l2.8-1.03,2.14.883,1.25,2.712a1.027,1.027,0,0,0,.933.6h3.943a1.027,1.027,0,0,0,.933-.6l1.25-2.712,2.136-.883,2.8,1.03a1.027,1.027,0,0,0,1.081-.238l2.787-2.787a1.027,1.027,0,0,0,.238-1.081l-1.03-2.8.886-2.137,2.71-1.254a1.027,1.027,0,0,0,.6-.932V62.445a1.027,1.027,0,0,0-.6-.932Zm-7.706-22a.492.492,0,0,1,.491.491V51.417l-2.258.83-.837-.346V39.517h2.6ZM74.494,49.725,74,48.653a1.027,1.027,0,0,0-.933-.6H71.4V40.008a2.548,2.548,0,0,0-2.545-2.545H43.4a.467.467,0,0,1-.456-.312L40.724,31.4a2.631,2.631,0,0,0-.5-.8,2.515,2.515,0,0,0-1.875-.814H29.784v-5.6h7.37a1.027,1.027,0,0,0,1.027-1.027v-7.37H74.494V49.725Zm-43.257-27.6,4.89-4.891v4.891ZM24.1,10.054H68.809v3.673H37.154a1.027,1.027,0,0,0-.726.3l-8.4,8.4a1.028,1.028,0,0,0-.3.726v6.63H24.1ZM20,75.023a.492.492,0,0,1-.491-.491V32.322A.489.489,0,0,1,20,31.835H38.352a.468.468,0,0,1,.359.146.553.553,0,0,1,.1.166l2.216,5.743A2.524,2.524,0,0,0,43.4,39.517H68.854a.492.492,0,0,1,.491.491v8.048h-.221a1.027,1.027,0,0,0-.933.6l-1.25,2.712-2.14.883L62,51.217a1.028,1.028,0,0,0-1.081.238l-2.787,2.787a1.027,1.027,0,0,0-.237,1.082l1.034,2.8-.886,2.136-2.71,1.254a1.027,1.027,0,0,0-.6.932v3.939a1.027,1.027,0,0,0,.6.932l2.71,1.254.886,2.136-1.034,2.8a1.027,1.027,0,0,0,.237,1.082l.434.434Zm65.4-9.295-2.478,1.147a1.026,1.026,0,0,0-.517.539L81.21,70.291a1.026,1.026,0,0,0-.015.748l.942,2.561-1.858,1.858-2.561-.942a1.027,1.027,0,0,0-.747.015L74.093,75.72a1.028,1.028,0,0,0-.541.519L72.41,78.72H69.782l-1.143-2.48a1.027,1.027,0,0,0-.541-.52l-2.882-1.189a1.026,1.026,0,0,0-.746-.015l-2.561.942L60.051,73.6,61,71.04a1.026,1.026,0,0,0-.015-.749l-1.194-2.878a1.027,1.027,0,0,0-.517-.539l-2.478-1.147V63.1l2.478-1.147a1.026,1.026,0,0,0,.517-.539l1.194-2.878A1.026,1.026,0,0,0,61,57.79l-.945-2.561,1.857-1.857,2.561.942a1.027,1.027,0,0,0,.746-.015L68.1,53.11a1.027,1.027,0,0,0,.541-.52l1.143-2.48H72.41l1.143,2.48a1.027,1.027,0,0,0,.541.519L76.971,54.3a1.028,1.028,0,0,0,.747.015l2.561-.942,1.858,1.858-.942,2.561a1.026,1.026,0,0,0,.015.748L82.4,61.417a1.027,1.027,0,0,0,.517.539L85.4,63.1v2.626Z" transform="translate(400.589 1703.887)" fill="#7d3a1b"/>
  </g>
</svg>
