<svg xmlns="http://www.w3.org/2000/svg" xmlns:xlink="http://www.w3.org/1999/xlink" width="121" height="121" viewBox="0 0 121 121">
  <defs>
    <clipPath id="clip-path">
      <rect id="Rectángulo_400938" data-name="Rectángulo 400938" width="121" height="121" transform="translate(0 0)" fill="none"/>
    </clipPath>
    <clipPath id="clip-path-2">
      <rect id="Rectángulo_401073" data-name="Rectángulo 401073" width="92.219" height="41.532" fill="#fff"/>
    </clipPath>
  </defs>
  <g id="Grupo_1116991" data-name="Grupo 1116991" transform="translate(-1095.711 -1687.798)">
    <g id="Grupo_1099376" data-name="Grupo 1099376" transform="translate(708.043 -4325.202)">
      <rect id="Rectángulo_401103" data-name="Rectángulo 401103" width="121" height="121" transform="translate(387.668 6013)" fill="none"/>
      <g id="Grupo_1099348" data-name="Grupo 1099348" transform="translate(387.668 6013)">
        <g id="Grupo_1099282" data-name="Grupo 1099282">
          <g id="Grupo_1099281" data-name="Grupo 1099281" clip-path="url(#clip-path-2)">
            <path id="Trazado_873375" data-name="Trazado 873375" d="M74.8,9.1c-4.139,0-6.28-2.03-8.17-3.821-1.855-1.756-3.452-3.274-6.792-3.274s-4.937,1.517-6.792,3.274C51.161,7.072,49.023,9.1,44.881,9.1s-6.28-2.03-8.169-3.821C34.857,3.525,33.26,2.007,29.92,2.007s-4.937,1.517-6.789,3.274C21.241,7.072,19.1,9.1,14.962,9.1S8.679,7.072,6.789,5.281C4.937,3.525,3.34,2.007,0,2.007V0C4.139,0,6.28,2.033,8.17,3.821c1.855,1.759,3.452,3.274,6.792,3.274S19.9,5.58,21.75,3.824C23.637,2.033,25.781,0,29.92,0s6.283,2.033,8.17,3.821c1.855,1.759,3.452,3.274,6.792,3.274s4.937-1.514,6.792-3.274C53.56,2.033,55.7,0,59.843,0s6.283,2.033,8.17,3.821C69.867,5.58,71.464,7.094,74.8,7.094S79.742,5.58,81.6,3.821C83.483,2.033,85.624,0,89.766,0V2.007c-3.34,0-4.937,1.517-6.792,3.274C81.084,7.072,78.943,9.1,74.8,9.1" transform="translate(2.453 32.43)" fill="#fff"/>
            <path id="Trazado_873376" data-name="Trazado 873376" d="M74.8,9.1c-4.139,0-6.283-2.03-8.17-3.824-1.855-1.756-3.452-3.27-6.792-3.27s-4.937,1.514-6.792,3.27C51.164,7.072,49.023,9.1,44.881,9.1s-6.283-2.03-8.17-3.824c-1.855-1.756-3.452-3.27-6.792-3.27s-4.937,1.517-6.789,3.27C21.241,7.072,19.1,9.1,14.962,9.1S8.679,7.072,6.789,5.278C4.937,3.522,3.34,2.007,0,2.007V0C4.139,0,6.283,2.03,8.17,3.821c1.855,1.759,3.452,3.274,6.792,3.274S19.9,5.58,21.75,3.821C23.637,2.03,25.781,0,29.92,0S36.2,2.03,38.093,3.821c1.852,1.759,3.449,3.274,6.789,3.274s4.937-1.514,6.792-3.274C53.56,2.03,55.7,0,59.843,0s6.283,2.03,8.17,3.821C69.867,5.58,71.464,7.094,74.8,7.094S79.742,5.58,81.6,3.821C83.486,2.03,85.627,0,89.769,0V2.007c-3.34,0-4.94,1.517-6.8,3.27C81.084,7.072,78.943,9.1,74.8,9.1" transform="translate(1.635 21.62)" fill="#fff"/>
            <path id="Trazado_873377" data-name="Trazado 873377" d="M74.8,9.1c-4.139,0-6.283-2.03-8.169-3.824-1.855-1.756-3.452-3.27-6.792-3.27s-4.937,1.514-6.792,3.27C51.164,7.072,49.02,9.1,44.881,9.1s-6.283-2.03-8.17-3.824c-1.855-1.756-3.452-3.27-6.792-3.27s-4.937,1.517-6.789,3.27C21.241,7.072,19.1,9.1,14.962,9.1S8.678,7.072,6.789,5.278C4.937,3.522,3.34,2.007,0,2.007V0C4.139,0,6.283,2.03,8.169,3.821c1.851,1.759,3.452,3.274,6.792,3.274S19.9,5.58,21.75,3.821C23.637,2.03,25.781,0,29.92,0S36.2,2.03,38.093,3.821c1.852,1.759,3.449,3.274,6.789,3.274s4.937-1.514,6.792-3.274C53.56,2.03,55.7,0,59.843,0s6.283,2.03,8.17,3.821C69.867,5.58,71.464,7.094,74.8,7.094S79.742,5.58,81.6,3.821C83.486,2.03,85.624,0,89.769,0V2.007c-3.34,0-4.941,1.517-6.8,3.27C81.084,7.072,78.943,9.1,74.8,9.1" transform="translate(0.818 10.81)" fill="#fff"/>
            <path id="Trazado_873378" data-name="Trazado 873378" d="M74.8,9.1c-4.139,0-6.28-2.03-8.17-3.821-1.855-1.756-3.452-3.27-6.792-3.27s-4.937,1.514-6.789,3.27C51.164,7.069,49.023,9.1,44.881,9.1s-6.28-2.03-8.169-3.821c-1.855-1.756-3.452-3.27-6.792-3.27s-4.937,1.514-6.789,3.267C21.245,7.069,19.1,9.1,14.962,9.1S8.678,7.069,6.789,5.278C4.937,3.522,3.34,2.007,0,2.007V0C4.139,0,6.283,2.03,8.17,3.821c1.855,1.756,3.452,3.27,6.792,3.27S19.9,5.577,21.75,3.821C23.64,2.03,25.781,0,29.92,0s6.28,2.03,8.173,3.821c1.852,1.756,3.449,3.27,6.789,3.27s4.937-1.514,6.792-3.27C53.563,2.03,55.7,0,59.843,0s6.28,2.03,8.17,3.821c1.855,1.756,3.452,3.27,6.792,3.27s4.937-1.514,6.792-3.27C83.486,2.03,85.627,0,89.769,0V2.007c-3.344,0-4.941,1.514-6.8,3.27C81.084,7.069,78.943,9.1,74.8,9.1" transform="translate(0 0.003)" fill="#fff"/>
          </g>
        </g>
      </g>
      <circle id="Elipse_11504" data-name="Elipse 11504" cx="50.5" cy="50.5" r="50.5" transform="translate(402.668 6031)" fill="#fff"/>
      <circle id="Elipse_11503" data-name="Elipse 11503" cx="52.5" cy="52.5" r="52.5" transform="translate(395.668 6021)" fill="#09614d"/>
    </g>
    <path id="Trazado_904660" data-name="Trazado 904660" d="M63.816,8H36.485a5.035,5.035,0,0,0-5.029,5.029V19.65l-2.672,1.385a6.054,6.054,0,0,0-2.641-3.019,5.11,5.11,0,1,0-5.925,0,6.034,6.034,0,0,0-3.068,5.25V36.22a2.062,2.062,0,0,0,2.059,2.059h7.943a2.062,2.062,0,0,0,2.059-2.059V27.289l2.244-1.163v1.011a5.035,5.035,0,0,0,5.029,5.029H63.816a5.035,5.035,0,0,0,5.029-5.029V13.029A5.035,5.035,0,0,0,63.816,8ZM19.8,13.856a3.379,3.379,0,1,1,3.379,3.379A3.383,3.383,0,0,1,19.8,13.856Zm7.351,22.692H19.209a.332.332,0,0,1-.328-.328V23.266a4.3,4.3,0,0,1,8.521-.815l.22,1.137,5.11-2.649h0l.452-.234a1.1,1.1,0,0,1,1.532.512,1.059,1.059,0,0,1-.48,1.517l-6.758,3.5-2.107,1.092a1.162,1.162,0,0,1-.889.064,1.085,1.085,0,0,1-.646-.541,1.169,1.169,0,0,1-.106-.777.866.866,0,0,0-1.692-.369,2.921,2.921,0,0,0,.249,1.92,2.8,2.8,0,0,0,1.659,1.414,2.929,2.929,0,0,0,.906.143,2.862,2.862,0,0,0,1.316-.317l1.31-.679V36.22a.332.332,0,0,1-.328.328Zm39.961-9.411a3.3,3.3,0,0,1-3.3,3.3H36.485a3.3,3.3,0,0,1-3.3-3.3V25.228l1.849-.958a2.719,2.719,0,0,0,1.5-3.078L42.088,14.7a.866.866,0,0,0-1.316-1.125L35.625,19.59a2.739,2.739,0,0,0-2.438-.711V13.029a3.3,3.3,0,0,1,3.3-3.3H63.816a3.3,3.3,0,0,1,3.3,3.3ZM43.951,12.986a.866.866,0,0,1,.866-.866H52.7a.866.866,0,1,1,0,1.731H44.817A.866.866,0,0,1,43.951,12.986Zm16.983,0a.866.866,0,0,1-.866.866H56.635a.866.866,0,1,1,0-1.731h3.434A.866.866,0,0,1,60.934,12.986Zm-17.46,4.731a.866.866,0,0,1,.866-.866H59.972a.866.866,0,1,1,0,1.731H44.34A.866.866,0,0,1,43.474,17.717Zm-1.181,4.731a.866.866,0,0,1,.866-.866H53.191a.866.866,0,1,1,0,1.731H43.159a.866.866,0,0,1-.866-.866Zm18.545,0a.866.866,0,0,1-.866.866H56.81a.866.866,0,1,1,0-1.731h3.162A.866.866,0,0,1,60.838,22.449Zm.1,4.732a.866.866,0,0,1-.866.866H47.948a.866.866,0,1,1,0-1.731H60.069A.866.866,0,0,1,60.934,27.18Zm-15.941,0a.866.866,0,0,1-.866.866H40.79a.866.866,0,1,1,0-1.731h3.338A.866.866,0,0,1,44.993,27.18ZM66.162,54.6H64.811a9.216,9.216,0,0,0-5.543-6.1,5.522,5.522,0,1,0-6.631,0,9.236,9.236,0,0,0-2.356,1.341,9.119,9.119,0,0,0-3.958-2.964,5.522,5.522,0,1,0-6.65,0,9.119,9.119,0,0,0-3.961,2.968,9.237,9.237,0,0,0-2.356-1.342,5.52,5.52,0,1,0-6.63,0,9.212,9.212,0,0,0-5.54,6.092H19.833a2.686,2.686,0,0,0-2.683,2.683v2.806a1.59,1.59,0,0,0,1.588,1.588H67.257a1.59,1.59,0,0,0,1.588-1.588V57.282A2.686,2.686,0,0,0,66.162,54.6Zm-14-10.508a3.79,3.79,0,1,1,3.794,3.79h-.007A3.8,3.8,0,0,1,52.162,44.09Zm3.79,5.522h0A7.483,7.483,0,0,1,63,54.6H48.908a7.483,7.483,0,0,1,7.041-4.986h0ZM39.207,42.475a3.79,3.79,0,1,1,3.8,3.79h-.01a3.8,3.8,0,0,1-3.785-3.79ZM42.993,48H43a7.413,7.413,0,0,1,6.012,3.045A9.14,9.14,0,0,0,47.094,54.6h-8.2a9.138,9.138,0,0,0-1.918-3.552A7.412,7.412,0,0,1,42.993,48ZM26.251,44.1a3.788,3.788,0,1,1,3.792,3.788h-.007A3.793,3.793,0,0,1,26.251,44.1Zm3.785,5.52h.007A7.48,7.48,0,0,1,37.08,54.6H23A7.48,7.48,0,0,1,30.036,49.616ZM67.114,59.944H18.881V57.282a.953.953,0,0,1,.952-.952H66.162a.953.953,0,0,1,.952.952v2.663Z" transform="translate(1113.563 1712.961)" fill="#fff"/>
  </g>
</svg>
