<svg xmlns="http://www.w3.org/2000/svg" xmlns:xlink="http://www.w3.org/1999/xlink" width="121" height="121" viewBox="0 0 121 121">
  <defs>
    <clipPath id="clip-path">
      <rect id="Rectángulo_400938" data-name="Rectángulo 400938" width="121" height="121" transform="translate(0 0)" fill="none"/>
    </clipPath>
    <clipPath id="clip-path-2">
      <rect id="Rectángulo_401073" data-name="Rectángulo 401073" width="92.219" height="41.532" fill="#efb499"/>
    </clipPath>
  </defs>
  <g id="Grupo_1099534" data-name="Grupo 1099534" transform="translate(-1095.711 -1687.798)">
    <g id="Grupo_1099376" data-name="Grupo 1099376" transform="translate(708.043 -4325.202)">
      <rect id="Rectángulo_401103" data-name="Rectángulo 401103" width="121" height="121" transform="translate(387.668 6013)" fill="none"/>
      <g id="Grupo_1099348" data-name="Grupo 1099348" transform="translate(387.668 6013)">
        <g id="Grupo_1099282" data-name="Grupo 1099282">
          <g id="Grupo_1099281" data-name="Grupo 1099281" clip-path="url(#clip-path-2)">
            <path id="Trazado_873375" data-name="Trazado 873375" d="M74.8,9.1c-4.139,0-6.28-2.03-8.17-3.821-1.855-1.756-3.452-3.274-6.792-3.274s-4.937,1.517-6.792,3.274C51.161,7.072,49.023,9.1,44.881,9.1s-6.28-2.03-8.169-3.821C34.857,3.525,33.26,2.007,29.92,2.007s-4.937,1.517-6.789,3.274C21.241,7.072,19.1,9.1,14.962,9.1S8.679,7.072,6.789,5.281C4.937,3.525,3.34,2.007,0,2.007V0C4.139,0,6.28,2.033,8.17,3.821c1.855,1.759,3.452,3.274,6.792,3.274S19.9,5.58,21.75,3.824C23.637,2.033,25.781,0,29.92,0s6.283,2.033,8.17,3.821c1.855,1.759,3.452,3.274,6.792,3.274s4.937-1.514,6.792-3.274C53.56,2.033,55.7,0,59.843,0s6.283,2.033,8.17,3.821C69.867,5.58,71.464,7.094,74.8,7.094S79.742,5.58,81.6,3.821C83.483,2.033,85.624,0,89.766,0V2.007c-3.34,0-4.937,1.517-6.792,3.274C81.084,7.072,78.943,9.1,74.8,9.1" transform="translate(2.453 32.43)" fill="#efb499"/>
            <path id="Trazado_873376" data-name="Trazado 873376" d="M74.8,9.1c-4.139,0-6.283-2.03-8.17-3.824-1.855-1.756-3.452-3.27-6.792-3.27s-4.937,1.514-6.792,3.27C51.164,7.072,49.023,9.1,44.881,9.1s-6.283-2.03-8.17-3.824c-1.855-1.756-3.452-3.27-6.792-3.27s-4.937,1.517-6.789,3.27C21.241,7.072,19.1,9.1,14.962,9.1S8.679,7.072,6.789,5.278C4.937,3.522,3.34,2.007,0,2.007V0C4.139,0,6.283,2.03,8.17,3.821c1.855,1.759,3.452,3.274,6.792,3.274S19.9,5.58,21.75,3.821C23.637,2.03,25.781,0,29.92,0S36.2,2.03,38.093,3.821c1.852,1.759,3.449,3.274,6.789,3.274s4.937-1.514,6.792-3.274C53.56,2.03,55.7,0,59.843,0s6.283,2.03,8.17,3.821C69.867,5.58,71.464,7.094,74.8,7.094S79.742,5.58,81.6,3.821C83.486,2.03,85.627,0,89.769,0V2.007c-3.34,0-4.94,1.517-6.8,3.27C81.084,7.072,78.943,9.1,74.8,9.1" transform="translate(1.635 21.62)" fill="#efb499"/>
            <path id="Trazado_873377" data-name="Trazado 873377" d="M74.8,9.1c-4.139,0-6.283-2.03-8.169-3.824-1.855-1.756-3.452-3.27-6.792-3.27s-4.937,1.514-6.792,3.27C51.164,7.072,49.02,9.1,44.881,9.1s-6.283-2.03-8.17-3.824c-1.855-1.756-3.452-3.27-6.792-3.27s-4.937,1.517-6.789,3.27C21.241,7.072,19.1,9.1,14.962,9.1S8.678,7.072,6.789,5.278C4.937,3.522,3.34,2.007,0,2.007V0C4.139,0,6.283,2.03,8.169,3.821c1.851,1.759,3.452,3.274,6.792,3.274S19.9,5.58,21.75,3.821C23.637,2.03,25.781,0,29.92,0S36.2,2.03,38.093,3.821c1.852,1.759,3.449,3.274,6.789,3.274s4.937-1.514,6.792-3.274C53.56,2.03,55.7,0,59.843,0s6.283,2.03,8.17,3.821C69.867,5.58,71.464,7.094,74.8,7.094S79.742,5.58,81.6,3.821C83.486,2.03,85.624,0,89.769,0V2.007c-3.34,0-4.941,1.517-6.8,3.27C81.084,7.072,78.943,9.1,74.8,9.1" transform="translate(0.818 10.81)" fill="#efb499"/>
            <path id="Trazado_873378" data-name="Trazado 873378" d="M74.8,9.1c-4.139,0-6.28-2.03-8.17-3.821-1.855-1.756-3.452-3.27-6.792-3.27s-4.937,1.514-6.789,3.27C51.164,7.069,49.023,9.1,44.881,9.1s-6.28-2.03-8.169-3.821c-1.855-1.756-3.452-3.27-6.792-3.27s-4.937,1.514-6.789,3.267C21.245,7.069,19.1,9.1,14.962,9.1S8.678,7.069,6.789,5.278C4.937,3.522,3.34,2.007,0,2.007V0C4.139,0,6.283,2.03,8.17,3.821c1.855,1.756,3.452,3.27,6.792,3.27S19.9,5.577,21.75,3.821C23.64,2.03,25.781,0,29.92,0s6.28,2.03,8.173,3.821c1.852,1.756,3.449,3.27,6.789,3.27s4.937-1.514,6.792-3.27C53.563,2.03,55.7,0,59.843,0s6.28,2.03,8.17,3.821c1.855,1.756,3.452,3.27,6.792,3.27s4.937-1.514,6.792-3.27C83.486,2.03,85.627,0,89.769,0V2.007c-3.344,0-4.941,1.514-6.8,3.27C81.084,7.069,78.943,9.1,74.8,9.1" transform="translate(0 0.003)" fill="#efb499"/>
          </g>
        </g>
      </g>
      <circle id="Elipse_11504" data-name="Elipse 11504" cx="50.5" cy="50.5" r="50.5" transform="translate(402.668 6031)" fill="#ffce73"/>
      <circle id="Elipse_11503" data-name="Elipse 11503" cx="52.5" cy="52.5" r="52.5" transform="translate(395.668 6021)" fill="#f3f9ff"/>
    </g>
    <g id="Grupo_1099536" data-name="Grupo 1099536" transform="translate(1116.211 1662.985)">
      <path id="Trazado_873475" data-name="Trazado 873475" d="M71.4,62.27V57.939a1.905,1.905,0,0,0-1.891-1.891H65.623a1.9,1.9,0,0,0-1.891,1.891V62.27H71.4ZM22.416,83.331a1.171,1.171,0,0,1,1.657-1.657l1.068,1.068L28.1,79.774a1.173,1.173,0,1,1,1.657,1.661l-3.791,3.791a1.174,1.174,0,0,1-1.657,0ZM66.394,69.809a1.171,1.171,0,1,1,2.343,0V94.4a1.171,1.171,0,1,1-2.343,0Zm-18.474,39.65H55.13v-5.027H47.919ZM56.3,111.8H18.08a1.176,1.176,0,0,1-1.174-1.174v-7.37a1.172,1.172,0,0,1,1.174-1.169h8.385V95.409a1.168,1.168,0,0,1,1.169-1.169h9.558a1.168,1.168,0,0,1,1.169,1.169v2.082h8.384a1.176,1.176,0,0,1,1.174,1.174v3.424H56.3a1.172,1.172,0,0,1,1.174,1.169v7.37A1.176,1.176,0,0,1,56.3,111.8Zm-17.938-2.343h7.211v-9.62H38.361Zm-9.554,0h7.211V96.583H28.807Zm-9.558,0h7.215v-5.027H19.249ZM14.306,68.635H61.384v-10.7A4.249,4.249,0,0,1,65.623,53.7h3.889a4.249,4.249,0,0,1,4.234,4.234v10.7h5.085A1.172,1.172,0,0,1,80,69.809v45.943a1.168,1.168,0,0,1-1.169,1.169H46.387a1.172,1.172,0,0,1,0-2.343h31.27v-43.6H73.746v8.473a1.172,1.172,0,1,1-2.343,0V64.613H63.732V99.6H71.4V84.761a1.172,1.172,0,1,1,2.343,0v16.007a1.244,1.244,0,0,1-.2.664l-4.934,9.718a1.191,1.191,0,0,1-.523.523,1.167,1.167,0,0,1-1.568-.518l-4.952-9.744a1.247,1.247,0,0,1-.186-.642V70.978H14.306v8.867a1.172,1.172,0,1,1-2.343,0V57a6.215,6.215,0,0,0-3.326-.948,6.291,6.291,0,0,0-6.294,6.294v40.031c.062-.067.124-.133.186-.195a8.613,8.613,0,0,1,6.108-2.529,8.746,8.746,0,0,1,2.746.447c.2.066.39.142.58.221V85.156a1.172,1.172,0,1,1,2.343,0v17.172a1.172,1.172,0,0,1-1.878.93,6.136,6.136,0,0,0-1.789-.943,6.3,6.3,0,1,0-2,12.264H41.081a1.172,1.172,0,0,1,0,2.343H8.637A8.635,8.635,0,0,1,0,108.285V62.341A8.637,8.637,0,0,1,13.783,55.4a1.18,1.18,0,0,1,.523.979V68.635Zm56.362,33.307H64.463l3.1,6.108ZM55.006,75.735a1.171,1.171,0,0,1,0,2.343H39.145a1.171,1.171,0,0,1,0-2.343Zm-6.6,11.188a1.171,1.171,0,1,1,0,2.343H39.145a1.171,1.171,0,0,1,0-2.343Zm6.6-5.594a1.172,1.172,0,0,1,0,2.343H39.145a1.172,1.172,0,0,1,0-2.343ZM19.378,74.614H32.8a1.172,1.172,0,0,1,1.169,1.174V89.213A1.172,1.172,0,0,1,32.8,90.386H19.378A1.173,1.173,0,0,1,18.2,89.213V75.788a1.173,1.173,0,0,1,1.174-1.174Zm12.251,2.348H20.547V88.043H31.629Z" transform="translate(0 0)" fill="#7d3a1b"/>
    </g>
  </g>
</svg>
