<svg xmlns="http://www.w3.org/2000/svg" xmlns:xlink="http://www.w3.org/1999/xlink" width="145" height="145" viewBox="0 0 145 145">
  <defs>
    <clipPath id="clip-path">
      <rect id="Rectángulo_400938" data-name="Rectángulo 400938" width="145" height="145" transform="translate(0 -0.281)" fill="none"/>
    </clipPath>
    <clipPath id="clip-path-2">
      <rect id="Rectángulo_401073" data-name="Rectángulo 401073" width="110.228" height="49.642" fill="#7d3a1b"/>
    </clipPath>
  </defs>
  <g id="Grupo_1099408" data-name="Grupo 1099408" transform="translate(-175 -9540.719)">
    <g id="Grupo_1099404" data-name="Grupo 1099404" transform="translate(175 9541)">
      <g id="Grupo_1099379" data-name="Grupo 1099379" transform="translate(0 0)">
        <rect id="Rectángulo_401103" data-name="Rectángulo 401103" width="145" height="145" transform="translate(0 -0.281)" fill="none"/>
        <g id="Grupo_1099348" data-name="Grupo 1099348" transform="translate(0.045 0.045)">
          <g id="Grupo_1099282" data-name="Grupo 1099282">
            <g id="Grupo_1099281" data-name="Grupo 1099281" clip-path="url(#clip-path-2)">
              <path id="Trazado_873375" data-name="Trazado 873375" d="M89.413,10.879c-4.947,0-7.506-2.426-9.765-4.567C77.431,4.213,75.522,2.4,71.529,2.4s-5.9,1.814-8.118,3.913c-2.259,2.141-4.814,4.567-9.765,4.567S46.14,8.453,43.881,6.312C41.664,4.213,39.755,2.4,35.763,2.4s-5.9,1.814-8.114,3.913c-2.259,2.141-4.818,4.567-9.765,4.567s-7.51-2.426-9.769-4.567C5.9,4.213,3.993,2.4,0,2.4V0C4.947,0,7.506,2.43,9.765,4.567c2.217,2.1,4.126,3.913,8.118,3.913S23.785,6.67,26,4.571C28.253,2.43,30.816,0,35.763,0s7.51,2.43,9.765,4.567c2.217,2.1,4.126,3.913,8.118,3.913s5.9-1.81,8.118-3.913C64.019,2.43,66.582,0,71.529,0s7.51,2.43,9.765,4.567c2.217,2.1,4.126,3.913,8.118,3.913s5.9-1.81,8.118-3.913C99.786,2.43,102.345,0,107.3,0V2.4c-3.993,0-5.9,1.814-8.118,3.913-2.259,2.141-4.818,4.567-9.765,4.567" transform="translate(2.932 38.763)" fill="#7d3a1b"/>
              <path id="Trazado_873376" data-name="Trazado 873376" d="M89.413,10.879c-4.947,0-7.51-2.426-9.765-4.571C77.431,4.209,75.522,2.4,71.529,2.4s-5.9,1.81-8.118,3.909c-2.255,2.145-4.814,4.571-9.765,4.571s-7.51-2.426-9.765-4.571C41.664,4.209,39.755,2.4,35.763,2.4s-5.9,1.814-8.115,3.909c-2.259,2.145-4.818,4.571-9.765,4.571s-7.51-2.426-9.769-4.571C5.9,4.209,3.993,2.4,0,2.4V0C4.947,0,7.51,2.426,9.765,4.567c2.217,2.1,4.126,3.913,8.118,3.913S23.785,6.67,26,4.567C28.253,2.426,30.816,0,35.763,0s7.51,2.426,9.769,4.567c2.213,2.1,4.122,3.913,8.115,3.913s5.9-1.81,8.118-3.913C64.019,2.426,66.582,0,71.529,0s7.51,2.426,9.765,4.567c2.217,2.1,4.126,3.913,8.118,3.913s5.9-1.81,8.118-3.913C99.79,2.426,102.349,0,107.3,0V2.4c-3.993,0-5.905,1.814-8.122,3.909-2.259,2.145-4.818,4.571-9.765,4.571" transform="translate(1.955 25.842)" fill="#7d3a1b"/>
              <path id="Trazado_873377" data-name="Trazado 873377" d="M89.412,10.879c-4.947,0-7.51-2.426-9.765-4.571C77.431,4.209,75.522,2.4,71.529,2.4s-5.9,1.81-8.118,3.909c-2.255,2.145-4.818,4.571-9.765,4.571s-7.51-2.426-9.765-4.571C41.664,4.209,39.755,2.4,35.763,2.4s-5.9,1.814-8.115,3.909c-2.259,2.145-4.818,4.571-9.765,4.571s-7.51-2.426-9.769-4.571C5.9,4.209,3.993,2.4,0,2.4V0C4.947,0,7.51,2.426,9.765,4.567c2.213,2.1,4.126,3.913,8.118,3.913S23.785,6.67,26,4.567C28.253,2.426,30.816,0,35.763,0s7.51,2.426,9.769,4.567c2.213,2.1,4.122,3.913,8.115,3.913s5.9-1.81,8.118-3.913C64.019,2.426,66.582,0,71.529,0s7.51,2.426,9.765,4.567c2.217,2.1,4.126,3.913,8.118,3.913s5.9-1.81,8.118-3.913C99.79,2.426,102.345,0,107.3,0V2.4c-3.993,0-5.905,1.814-8.122,3.909-2.259,2.145-4.818,4.571-9.765,4.571" transform="translate(0.977 12.921)" fill="#7d3a1b"/>
              <path id="Trazado_873378" data-name="Trazado 873378" d="M89.413,10.875c-4.947,0-7.506-2.426-9.765-4.567C77.431,4.209,75.522,2.4,71.529,2.4s-5.9,1.81-8.115,3.909c-2.259,2.141-4.818,4.567-9.769,4.567S46.14,8.449,43.881,6.308C41.664,4.209,39.755,2.4,35.763,2.4s-5.9,1.81-8.115,3.905c-2.255,2.145-4.818,4.571-9.765,4.571s-7.51-2.426-9.769-4.567C5.9,4.209,3.993,2.4,0,2.4V0C4.947,0,7.51,2.426,9.765,4.567c2.217,2.1,4.126,3.909,8.118,3.909s5.9-1.81,8.115-3.909C28.257,2.426,30.816,0,35.763,0s7.506,2.426,9.769,4.567c2.213,2.1,4.122,3.909,8.115,3.909s5.9-1.81,8.118-3.909C64.023,2.426,66.582,0,71.529,0s7.506,2.426,9.765,4.567c2.217,2.1,4.126,3.909,8.118,3.909s5.9-1.81,8.118-3.909C99.79,2.426,102.349,0,107.3,0V2.4c-4,0-5.905,1.81-8.122,3.909-2.259,2.141-4.818,4.567-9.765,4.567" transform="translate(0 0.004)" fill="#7d3a1b"/>
            </g>
          </g>
        </g>
        <path id="Trazado_873425" data-name="Trazado 873425" d="M60.362,0A60.362,60.362,0,1,1,0,60.362,60.362,60.362,0,0,1,60.362,0Z" transform="translate(17.974 21.56)" fill="#efb499"/>
        <circle id="Elipse_11503" data-name="Elipse 11503" cx="63" cy="63" r="63" transform="translate(9 9.719)" fill="#fef7eb"/>
      </g>
    </g>
    <g id="Grupo_1099405" data-name="Grupo 1099405" transform="translate(206.234 9571.193)">
      <g id="Grupo_1099389" data-name="Grupo 1099389" transform="translate(0 0)">
        <rect id="Rectángulo_401104" data-name="Rectángulo 401104" width="81" height="83" transform="translate(-0.234 -0.475)" fill="none"/>
      </g>
      <path id="Trazado_903802" data-name="Trazado 903802" d="M72.884,86.462H98.415a1.732,1.732,0,0,0,1.724-1.724V77.353a1.732,1.732,0,0,0-1.724-1.724H75.582a28.651,28.651,0,0,1-2.7,10.833Zm6.751-28.57v14.88h18.78A4.59,4.59,0,0,1,103,77.353v7.385a4.565,4.565,0,0,1-1.263,3.153A4.565,4.565,0,0,1,103,91.042v7.385a4.59,4.59,0,0,1-4.581,4.581H49.962a7.044,7.044,0,0,1-.873-.089q-1.128.089-2.28.089A28.808,28.808,0,1,1,75.582,72.772h1.2V57.892L73.117,51.55c-6.591-.942-12.472-6.119-15.948-12.139a27.712,27.712,0,0,1-3.6-10.641,18.715,18.715,0,0,1,1.361-9.925h0a1.423,1.423,0,0,1,1.415-.821,18.729,18.729,0,0,1,9.287,3.787,28.654,28.654,0,0,1,11.015,19.08,19.124,19.124,0,0,1-1.064,9.239l2.625,4.546,2.625-4.546a19.124,19.124,0,0,1-1.064-9.239,28.653,28.653,0,0,1,11.015-19.08,18.727,18.727,0,0,1,9.287-3.787,1.423,1.423,0,0,1,1.415.821h0a18.708,18.708,0,0,1,1.361,9.925,28.654,28.654,0,0,1-11.015,19.08,19.146,19.146,0,0,1-8.535,3.7l-3.662,6.342Zm-8.472-9.725L63.874,35.54a1.422,1.422,0,1,1,2.466-1.417L73.625,46.74c.988-4.894-.4-10.493-3.047-15.066-2.953-5.1-7.9-9.684-13.454-10.676a16.6,16.6,0,0,0-.722,7.46,25.755,25.755,0,0,0,9.877,17.1,17.9,17.9,0,0,0,4.886,2.6ZM82.789,46.74l7.285-12.618a1.422,1.422,0,1,1,2.466,1.417l-7.29,12.627c4.765-1.6,8.873-5.591,11.528-10.18,2.953-5.1,4.419-11.714,2.512-16.99-5.555.993-10.5,5.575-13.455,10.677C83.19,36.247,81.8,41.847,82.79,46.74ZM53.725,69.517c0-3.085-2.509-5.426-5.487-5.982v-2.5a1.428,1.428,0,0,0-2.857,0v2.5c-2.978.555-5.487,2.9-5.487,5.982,0,3.568,3.321,6.112,6.916,6.112,3.535,0,5.391,3.4,2.954,5.484-2.53,2.159-7.013.682-7.013-2.23a1.428,1.428,0,1,0-2.857,0c0,3.085,2.51,5.426,5.487,5.981v2.5a1.428,1.428,0,0,0,2.857,0v-2.5c2.978-.555,5.487-2.9,5.487-5.981,0-3.568-3.321-6.112-6.916-6.112-3.535,0-5.391-3.4-2.954-5.485,2.53-2.16,7.012-.683,7.012,2.229a1.428,1.428,0,1,0,2.857,0ZM46.809,52.778A21.423,21.423,0,1,0,68.232,74.2,21.423,21.423,0,0,0,46.809,52.778Zm13.128,8.295a18.566,18.566,0,1,0,0,26.256,18.566,18.566,0,0,0,0-26.256ZM72.76,74.2a25.951,25.951,0,1,0-25.951,25.951A25.951,25.951,0,0,0,72.76,74.2Zm-13.428,25.95H98.415a1.732,1.732,0,0,0,1.724-1.724V91.042a1.732,1.732,0,0,0-1.724-1.724H71.335a28.924,28.924,0,0,1-12,10.833Z" transform="translate(-20.233 -19.489)" fill="#7d3a1b" fill-rule="evenodd"/>
    </g>
  </g>
</svg>
