<svg xmlns="http://www.w3.org/2000/svg" xmlns:xlink="http://www.w3.org/1999/xlink" width="121" height="121" viewBox="0 0 121 121">
  <defs>
    <clipPath id="clip-path">
      <rect id="Rectángulo_400938" data-name="Rectángulo 400938" width="121" height="121" transform="translate(0 0)" fill="none"/>
    </clipPath>
    <clipPath id="clip-path-2">
      <rect id="Rectángulo_401073" data-name="Rectángulo 401073" width="92.219" height="41.532" fill="#efb499"/>
    </clipPath>
  </defs>
  <g id="Grupo_1099540" data-name="Grupo 1099540" transform="translate(10758.125 9889.442)">
    <g id="Grupo_1099522" data-name="Grupo 1099522" transform="translate(-11145.793 -15902.442)">
      <rect id="Rectángulo_401103" data-name="Rectángulo 401103" width="121" height="121" transform="translate(387.668 6013)" fill="none"/>
      <g id="Grupo_1099348" data-name="Grupo 1099348" transform="translate(387.668 6013)">
        <g id="Grupo_1099282" data-name="Grupo 1099282">
          <g id="Grupo_1099281" data-name="Grupo 1099281" clip-path="url(#clip-path-2)">
            <path id="Trazado_873375" data-name="Trazado 873375" d="M74.8,9.1c-4.139,0-6.28-2.03-8.17-3.821-1.855-1.756-3.452-3.274-6.792-3.274s-4.937,1.517-6.792,3.274C51.161,7.072,49.023,9.1,44.881,9.1s-6.28-2.03-8.169-3.821C34.857,3.525,33.26,2.007,29.92,2.007s-4.937,1.517-6.789,3.274C21.241,7.072,19.1,9.1,14.962,9.1S8.679,7.072,6.789,5.281C4.937,3.525,3.34,2.007,0,2.007V0C4.139,0,6.28,2.033,8.17,3.821c1.855,1.759,3.452,3.274,6.792,3.274S19.9,5.58,21.75,3.824C23.637,2.033,25.781,0,29.92,0s6.283,2.033,8.17,3.821c1.855,1.759,3.452,3.274,6.792,3.274s4.937-1.514,6.792-3.274C53.56,2.033,55.7,0,59.843,0s6.283,2.033,8.17,3.821C69.867,5.58,71.464,7.094,74.8,7.094S79.742,5.58,81.6,3.821C83.483,2.033,85.624,0,89.766,0V2.007c-3.34,0-4.937,1.517-6.792,3.274C81.084,7.072,78.943,9.1,74.8,9.1" transform="translate(2.453 32.43)" fill="#efb499"/>
            <path id="Trazado_873376" data-name="Trazado 873376" d="M74.8,9.1c-4.139,0-6.283-2.03-8.17-3.824-1.855-1.756-3.452-3.27-6.792-3.27s-4.937,1.514-6.792,3.27C51.164,7.072,49.023,9.1,44.881,9.1s-6.283-2.03-8.17-3.824c-1.855-1.756-3.452-3.27-6.792-3.27s-4.937,1.517-6.789,3.27C21.241,7.072,19.1,9.1,14.962,9.1S8.679,7.072,6.789,5.278C4.937,3.522,3.34,2.007,0,2.007V0C4.139,0,6.283,2.03,8.17,3.821c1.855,1.759,3.452,3.274,6.792,3.274S19.9,5.58,21.75,3.821C23.637,2.03,25.781,0,29.92,0S36.2,2.03,38.093,3.821c1.852,1.759,3.449,3.274,6.789,3.274s4.937-1.514,6.792-3.274C53.56,2.03,55.7,0,59.843,0s6.283,2.03,8.17,3.821C69.867,5.58,71.464,7.094,74.8,7.094S79.742,5.58,81.6,3.821C83.486,2.03,85.627,0,89.769,0V2.007c-3.34,0-4.94,1.517-6.8,3.27C81.084,7.072,78.943,9.1,74.8,9.1" transform="translate(1.635 21.62)" fill="#efb499"/>
            <path id="Trazado_873377" data-name="Trazado 873377" d="M74.8,9.1c-4.139,0-6.283-2.03-8.169-3.824-1.855-1.756-3.452-3.27-6.792-3.27s-4.937,1.514-6.792,3.27C51.164,7.072,49.02,9.1,44.881,9.1s-6.283-2.03-8.17-3.824c-1.855-1.756-3.452-3.27-6.792-3.27s-4.937,1.517-6.789,3.27C21.241,7.072,19.1,9.1,14.962,9.1S8.678,7.072,6.789,5.278C4.937,3.522,3.34,2.007,0,2.007V0C4.139,0,6.283,2.03,8.169,3.821c1.851,1.759,3.452,3.274,6.792,3.274S19.9,5.58,21.75,3.821C23.637,2.03,25.781,0,29.92,0S36.2,2.03,38.093,3.821c1.852,1.759,3.449,3.274,6.789,3.274s4.937-1.514,6.792-3.274C53.56,2.03,55.7,0,59.843,0s6.283,2.03,8.17,3.821C69.867,5.58,71.464,7.094,74.8,7.094S79.742,5.58,81.6,3.821C83.486,2.03,85.624,0,89.769,0V2.007c-3.34,0-4.941,1.517-6.8,3.27C81.084,7.072,78.943,9.1,74.8,9.1" transform="translate(0.818 10.81)" fill="#efb499"/>
            <path id="Trazado_873378" data-name="Trazado 873378" d="M74.8,9.1c-4.139,0-6.28-2.03-8.17-3.821-1.855-1.756-3.452-3.27-6.792-3.27s-4.937,1.514-6.789,3.27C51.164,7.069,49.023,9.1,44.881,9.1s-6.28-2.03-8.169-3.821c-1.855-1.756-3.452-3.27-6.792-3.27s-4.937,1.514-6.789,3.267C21.245,7.069,19.1,9.1,14.962,9.1S8.678,7.069,6.789,5.278C4.937,3.522,3.34,2.007,0,2.007V0C4.139,0,6.283,2.03,8.17,3.821c1.855,1.756,3.452,3.27,6.792,3.27S19.9,5.577,21.75,3.821C23.64,2.03,25.781,0,29.92,0s6.28,2.03,8.173,3.821c1.852,1.756,3.449,3.27,6.789,3.27s4.937-1.514,6.792-3.27C53.563,2.03,55.7,0,59.843,0s6.28,2.03,8.17,3.821c1.855,1.756,3.452,3.27,6.792,3.27s4.937-1.514,6.792-3.27C83.486,2.03,85.627,0,89.769,0V2.007c-3.344,0-4.941,1.514-6.8,3.27C81.084,7.069,78.943,9.1,74.8,9.1" transform="translate(0 0.003)" fill="#efb499"/>
          </g>
        </g>
      </g>
      <circle id="Elipse_11504" data-name="Elipse 11504" cx="50.5" cy="50.5" r="50.5" transform="translate(402.668 6031)" fill="#ffce73"/>
      <circle id="Elipse_11503" data-name="Elipse 11503" cx="52.5" cy="52.5" r="52.5" transform="translate(395.668 6021)" fill="#f3f9ff"/>
    </g>
    <path id="Trazado_873476" data-name="Trazado 873476" d="M71.959,22.751v-8a1.29,1.29,0,1,1,2.581,0v7.252l5.142,2.969a1.29,1.29,0,1,1-1.29,2.235L72.6,23.868A1.29,1.29,0,0,1,71.959,22.751ZM22.972,21.429c-2.731-.448-2.782-1.508-2.8-1.907a2.07,2.07,0,0,1,1.845-2.01,2.957,2.957,0,0,1,3.508,1.649,1.29,1.29,0,0,0,2.379-1,5.261,5.261,0,0,0-3.862-3.182v-.748a1.29,1.29,0,0,0-2.581,0v.759l-.016,0a4.59,4.59,0,0,0-3.852,4.652c.078,1.616,1,3.679,4.961,4.328,2.675.439,3.121,1.343,3.21,2.082a1.291,1.291,0,0,1-.3,1.069,3.712,3.712,0,0,1-2.574.948,3.014,3.014,0,0,1-3.211-2.015,1.29,1.29,0,0,0-2.5.624,5.284,5.284,0,0,0,4.28,3.847v.738a1.29,1.29,0,0,0,2.581,0v-.717a5.7,5.7,0,0,0,3.38-1.737,3.855,3.855,0,0,0,.9-3.069c-.283-2.328-2.084-3.78-5.354-4.317ZM88,71.428v3.643a1.29,1.29,0,0,1-.827,1.2l-1.618.623a12.744,12.744,0,0,1-1.025,2.473l.7,1.585a1.29,1.29,0,0,1-.267,1.436l-2.576,2.576a1.29,1.29,0,0,1-1.436.267l-1.584-.7A12.743,12.743,0,0,1,76.9,85.556l-.622,1.617a1.29,1.29,0,0,1-1.2.827H71.428a1.29,1.29,0,0,1-1.2-.827L69.6,85.555a12.744,12.744,0,0,1-2.473-1.025l-1.585.7a1.291,1.291,0,0,1-1.436-.267l-2.576-2.576a1.29,1.29,0,0,1-.267-1.436l.7-1.584c-.093-.171-.18-.344-.265-.519H36.4A14.75,14.75,0,1,1,22.751,58.5q.581,0,1.15.045V37.457q-.57.044-1.15.045A14.751,14.751,0,1,1,36.4,17.148h23.21A14.75,14.75,0,1,1,73.249,37.5q-.581,0-1.15-.045V58.5h2.972a1.29,1.29,0,0,1,1.2.827l.623,1.618a12.746,12.746,0,0,1,2.473,1.025l1.585-.7a1.289,1.289,0,0,1,1.436.267l2.576,2.576a1.29,1.29,0,0,1,.267,1.436l-.7,1.584A12.743,12.743,0,0,1,85.556,69.6l1.617.622A1.291,1.291,0,0,1,88,71.428ZM61.08,22.751a12.17,12.17,0,1,0,12.17-12.17A12.184,12.184,0,0,0,61.08,22.751ZM22.751,34.921a12.17,12.17,0,1,0-12.17-12.17,12.184,12.184,0,0,0,12.17,12.17ZM10.581,73.249a12.1,12.1,0,0,0,2.166,6.92,10.661,10.661,0,0,1,5.788-6.05,6.043,6.043,0,1,1,8.432,0,10.661,10.661,0,0,1,5.788,6.05,12.167,12.167,0,1,0-22.174-6.92Zm23.838-9.014h3.01V60.84H34.034v2.919q.2.234.385.476ZM22.751,73.257a3.462,3.462,0,1,0-3.462-3.462A3.466,3.466,0,0,0,22.751,73.257Zm0,12.162a12.115,12.115,0,0,0,7.967-2.982,8.109,8.109,0,0,0-15.935,0A12.115,12.115,0,0,0,22.751,85.419ZM37.5,73.249a14.743,14.743,0,0,1-.312,3.022H59.318a1.29,1.29,0,0,1-.819-1.2V71.428a1.29,1.29,0,0,1,.827-1.2l1.617-.622a12.735,12.735,0,0,1,1.025-2.473l-.391-.88H42.869a1.29,1.29,0,1,1,0-2.581h19.1l2.136-2.136a1.29,1.29,0,0,1,1.436-.267l1.585.7a12.739,12.739,0,0,1,2.39-1V37.023A14.758,14.758,0,0,1,58.811,19.729H37.19A14.758,14.758,0,0,1,26.482,37.023V58.977a14.7,14.7,0,0,1,4.971,2.37v-1.8a1.29,1.29,0,0,1,1.29-1.29h5.975a1.29,1.29,0,0,1,1.29,1.29v5.975a1.29,1.29,0,0,1-1.29,1.29h-2.7A14.66,14.66,0,0,1,37.5,73.249Zm47.918-.936-1.4-.54a1.29,1.29,0,0,1-.792-.905,10.189,10.189,0,0,0-1.238-2.987,1.29,1.29,0,0,1-.081-1.2l.611-1.375-1.323-1.323-1.376.611a1.29,1.29,0,0,1-1.2-.081,10.187,10.187,0,0,0-2.986-1.238,1.29,1.29,0,0,1-.905-.792l-.54-1.4H72.313l-.54,1.4a1.29,1.29,0,0,1-.905.792,10.186,10.186,0,0,0-2.986,1.238,1.29,1.29,0,0,1-1.2.08l-1.376-.611-1.323,1.323.611,1.376a1.29,1.29,0,0,1-.081,1.2,10.179,10.179,0,0,0-1.238,2.986,1.29,1.29,0,0,1-.792.905l-1.4.54v1.871l1.4.54a1.29,1.29,0,0,1,.792.905,10.191,10.191,0,0,0,1.238,2.987,1.291,1.291,0,0,1,.081,1.2l-.611,1.375,1.323,1.323,1.376-.611a1.289,1.289,0,0,1,1.2.08,10.2,10.2,0,0,0,2.986,1.238,1.29,1.29,0,0,1,.905.792l.54,1.4h1.871l.54-1.4a1.29,1.29,0,0,1,.905-.792,10.189,10.189,0,0,0,2.987-1.238,1.29,1.29,0,0,1,1.2-.081l1.375.611,1.323-1.323-.611-1.376a1.291,1.291,0,0,1,.08-1.2,10.188,10.188,0,0,0,1.238-2.986,1.29,1.29,0,0,1,.792-.905l1.4-.54Zm-3.742.936a8.428,8.428,0,1,1-8.428-8.428A8.437,8.437,0,0,1,81.677,73.249Zm-2.581,0A5.847,5.847,0,1,0,73.249,79.1,5.854,5.854,0,0,0,79.1,73.249ZM31.453,42.944V36.969a1.29,1.29,0,0,1,1.29-1.29h5.975a1.29,1.29,0,0,1,1.29,1.29v5.975a1.29,1.29,0,0,1-1.29,1.29H32.744A1.29,1.29,0,0,1,31.453,42.944Zm2.581-1.29h3.395V38.259H34.034Zm8.835,2.013H62.421a1.29,1.29,0,1,0,0-2.581H42.869a1.29,1.29,0,1,0,0,2.581Zm0-4.839H62.421a1.29,1.29,0,1,0,0-2.581H42.869a1.29,1.29,0,1,0,0,2.581Zm-2.86,15.407a1.29,1.29,0,0,1-1.29,1.29H32.744a1.29,1.29,0,0,1-1.29-1.29V48.259a1.29,1.29,0,0,1,1.29-1.29h5.975a1.29,1.29,0,0,1,1.29,1.29ZM37.428,49.55H34.034v3.395h3.395Zm5.441,5.407H62.421a1.29,1.29,0,1,0,0-2.581H42.869a1.29,1.29,0,1,0,0,2.581Zm0-4.839H62.421a1.29,1.29,0,1,0,0-2.581H42.869a1.29,1.29,0,1,0,0,2.581Zm0,11.291H62.421a1.29,1.29,0,1,0,0-2.581H42.869a1.29,1.29,0,1,0,0,2.581Z" transform="translate(-10746 -9877)" fill="#7d3a1b"/>
  </g>
</svg>
