<svg xmlns="http://www.w3.org/2000/svg" xmlns:xlink="http://www.w3.org/1999/xlink" width="121" height="121" viewBox="0 0 121 121">
  <defs>
    <clipPath id="clip-path">
      <rect id="Rectángulo_400938" data-name="Rectángulo 400938" width="121" height="121" transform="translate(0 0)" fill="none"/>
    </clipPath>
    <clipPath id="clip-path-2">
      <rect id="Rectángulo_401073" data-name="Rectángulo 401073" width="92.219" height="41.532" fill="#efb499"/>
    </clipPath>
  </defs>
  <g id="Grupo_1115033" data-name="Grupo 1115033" transform="translate(-745.039 -1687.388)">
    <g id="Grupo_1099379" data-name="Grupo 1099379" transform="translate(357.371 -4325.612)">
      <rect id="Rectángulo_401103" data-name="Rectángulo 401103" width="121" height="121" transform="translate(387.668 6013)" fill="none"/>
      <g id="Grupo_1099348" data-name="Grupo 1099348" transform="translate(387.668 6013)">
        <g id="Grupo_1099282" data-name="Grupo 1099282">
          <g id="Grupo_1099281" data-name="Grupo 1099281" clip-path="url(#clip-path-2)">
            <path id="Trazado_873375" data-name="Trazado 873375" d="M74.8,9.1c-4.139,0-6.28-2.03-8.17-3.821-1.855-1.756-3.452-3.274-6.792-3.274s-4.937,1.517-6.792,3.274C51.161,7.072,49.023,9.1,44.881,9.1s-6.28-2.03-8.169-3.821C34.857,3.525,33.26,2.007,29.92,2.007s-4.937,1.517-6.789,3.274C21.241,7.072,19.1,9.1,14.962,9.1S8.679,7.072,6.789,5.281C4.937,3.525,3.34,2.007,0,2.007V0C4.139,0,6.28,2.033,8.17,3.821c1.855,1.759,3.452,3.274,6.792,3.274S19.9,5.58,21.75,3.824C23.637,2.033,25.781,0,29.92,0s6.283,2.033,8.17,3.821c1.855,1.759,3.452,3.274,6.792,3.274s4.937-1.514,6.792-3.274C53.56,2.033,55.7,0,59.843,0s6.283,2.033,8.17,3.821C69.867,5.58,71.464,7.094,74.8,7.094S79.742,5.58,81.6,3.821C83.483,2.033,85.624,0,89.766,0V2.007c-3.34,0-4.937,1.517-6.792,3.274C81.084,7.072,78.943,9.1,74.8,9.1" transform="translate(2.453 32.43)" fill="#efb499"/>
            <path id="Trazado_873376" data-name="Trazado 873376" d="M74.8,9.1c-4.139,0-6.283-2.03-8.17-3.824-1.855-1.756-3.452-3.27-6.792-3.27s-4.937,1.514-6.792,3.27C51.164,7.072,49.023,9.1,44.881,9.1s-6.283-2.03-8.17-3.824c-1.855-1.756-3.452-3.27-6.792-3.27s-4.937,1.517-6.789,3.27C21.241,7.072,19.1,9.1,14.962,9.1S8.679,7.072,6.789,5.278C4.937,3.522,3.34,2.007,0,2.007V0C4.139,0,6.283,2.03,8.17,3.821c1.855,1.759,3.452,3.274,6.792,3.274S19.9,5.58,21.75,3.821C23.637,2.03,25.781,0,29.92,0S36.2,2.03,38.093,3.821c1.852,1.759,3.449,3.274,6.789,3.274s4.937-1.514,6.792-3.274C53.56,2.03,55.7,0,59.843,0s6.283,2.03,8.17,3.821C69.867,5.58,71.464,7.094,74.8,7.094S79.742,5.58,81.6,3.821C83.486,2.03,85.627,0,89.769,0V2.007c-3.34,0-4.94,1.517-6.8,3.27C81.084,7.072,78.943,9.1,74.8,9.1" transform="translate(1.635 21.62)" fill="#efb499"/>
            <path id="Trazado_873377" data-name="Trazado 873377" d="M74.8,9.1c-4.139,0-6.283-2.03-8.169-3.824-1.855-1.756-3.452-3.27-6.792-3.27s-4.937,1.514-6.792,3.27C51.164,7.072,49.02,9.1,44.881,9.1s-6.283-2.03-8.17-3.824c-1.855-1.756-3.452-3.27-6.792-3.27s-4.937,1.517-6.789,3.27C21.241,7.072,19.1,9.1,14.962,9.1S8.678,7.072,6.789,5.278C4.937,3.522,3.34,2.007,0,2.007V0C4.139,0,6.283,2.03,8.169,3.821c1.851,1.759,3.452,3.274,6.792,3.274S19.9,5.58,21.75,3.821C23.637,2.03,25.781,0,29.92,0S36.2,2.03,38.093,3.821c1.852,1.759,3.449,3.274,6.789,3.274s4.937-1.514,6.792-3.274C53.56,2.03,55.7,0,59.843,0s6.283,2.03,8.17,3.821C69.867,5.58,71.464,7.094,74.8,7.094S79.742,5.58,81.6,3.821C83.486,2.03,85.624,0,89.769,0V2.007c-3.34,0-4.941,1.517-6.8,3.27C81.084,7.072,78.943,9.1,74.8,9.1" transform="translate(0.818 10.81)" fill="#efb499"/>
            <path id="Trazado_873378" data-name="Trazado 873378" d="M74.8,9.1c-4.139,0-6.28-2.03-8.17-3.821-1.855-1.756-3.452-3.27-6.792-3.27s-4.937,1.514-6.789,3.27C51.164,7.069,49.023,9.1,44.881,9.1s-6.28-2.03-8.169-3.821c-1.855-1.756-3.452-3.27-6.792-3.27s-4.937,1.514-6.789,3.267C21.245,7.069,19.1,9.1,14.962,9.1S8.678,7.069,6.789,5.278C4.937,3.522,3.34,2.007,0,2.007V0C4.139,0,6.283,2.03,8.17,3.821c1.855,1.756,3.452,3.27,6.792,3.27S19.9,5.577,21.75,3.821C23.64,2.03,25.781,0,29.92,0s6.28,2.03,8.173,3.821c1.852,1.756,3.449,3.27,6.789,3.27s4.937-1.514,6.792-3.27C53.563,2.03,55.7,0,59.843,0s6.28,2.03,8.17,3.821c1.855,1.756,3.452,3.27,6.792,3.27s4.937-1.514,6.792-3.27C83.486,2.03,85.627,0,89.769,0V2.007c-3.344,0-4.941,1.514-6.8,3.27C81.084,7.069,78.943,9.1,74.8,9.1" transform="translate(0 0.003)" fill="#efb499"/>
          </g>
        </g>
      </g>
      <circle id="Elipse_11504" data-name="Elipse 11504" cx="50.5" cy="50.5" r="50.5" transform="translate(402.668 6031)" fill="#ffce73"/>
      <circle id="Elipse_11503" data-name="Elipse 11503" cx="52.5" cy="52.5" r="52.5" transform="translate(395.668 6021)" fill="#f3f9ff"/>
    </g>
    <g id="Grupo_1117117" data-name="Grupo 1117117" transform="translate(770.039 1707.83)">
      <path id="Trazado_903732" data-name="Trazado 903732" d="M126.769,89.9a3.422,3.422,0,1,0-2.731-1.365l-5.616,7.848a3.408,3.408,0,0,0-3.391.747L111.288,95a3.418,3.418,0,1,0-6.683,0l-3.743,2.124a3.413,3.413,0,1,0,1.015,1.782l3.743-2.124a3.409,3.409,0,0,0,4.653,0l3.743,2.124a3.418,3.418,0,1,0,6.072-1.334l5.616-7.848A3.407,3.407,0,0,0,126.769,89.9Zm0-4.785a1.367,1.367,0,1,1-1.367,1.367A1.369,1.369,0,0,1,126.769,85.112ZM98.536,100.994A1.367,1.367,0,1,1,99.9,99.627,1.369,1.369,0,0,1,98.536,100.994Zm9.411-5.344a1.367,1.367,0,1,1,1.367-1.367A1.369,1.369,0,0,1,107.947,95.651Zm9.411,5.344a1.367,1.367,0,1,1,1.367-1.367A1.369,1.369,0,0,1,117.358,100.994Z" transform="translate(-82.114 -66.044)" fill="#7d3a1b"/>
      <path id="Trazado_903733" data-name="Trazado 903733" d="M57.257,86.17H2.9a.851.851,0,0,1-.85-.85v-42.3a.851.851,0,0,1,.85-.85H7.734a1.025,1.025,0,0,0,0-2.051H2.9a2.9,2.9,0,0,0-2.9,2.9v42.3a2.9,2.9,0,0,0,2.9,2.9h7.07v2.257A2.334,2.334,0,0,0,12.3,92.809H22.566l-4.832,9.433a1.025,1.025,0,1,0,1.825.935L24.87,92.809H36.207l5.311,10.368a1.025,1.025,0,1,0,1.825-.935l-4.832-9.433H48.775a2.334,2.334,0,0,0,2.331-2.331V88.22h6.15a1.025,1.025,0,1,0,0-2.051Zm-8.2,4.307a.281.281,0,0,1-.281.281H12.3a.281.281,0,0,1-.281-.281V88.22H49.056Z" transform="translate(0 -28.97)" fill="#7d3a1b"/>
      <path id="Trazado_903734" data-name="Trazado 903734" d="M80.1,13.2h46.341a.851.851,0,0,1,.85.85V23.8a1.025,1.025,0,1,0,2.051,0v-9.75a2.9,2.9,0,0,0-2.9-2.9H104.49V9.131a2.575,2.575,0,0,0-2.573-2.573H95.681a2.576,2.576,0,0,0-2.573,2.573v2.016H80.1a1.025,1.025,0,0,0,0,2.051ZM95.159,9.131a.522.522,0,0,1,.522-.522h6.237a.522.522,0,0,1,.522.522v2.016h-7.28V9.131Z" transform="translate(-68.261)" fill="#7d3a1b"/>
      <path id="Trazado_903735" data-name="Trazado 903735" d="M98.427,267.576A1.025,1.025,0,0,0,97.4,268.6v9.061a1.025,1.025,0,0,0,1.025,1.025h4.16a1.025,1.025,0,0,0,1.025-1.025V268.6a1.025,1.025,0,0,0-1.025-1.025Zm3.135,9.061H99.453v-7.01h2.109Z" transform="translate(-84.085 -225.332)" fill="#7d3a1b"/>
      <path id="Trazado_903736" data-name="Trazado 903736" d="M167.262,229.248a1.025,1.025,0,0,0-1.025,1.025v14.3a1.025,1.025,0,0,0,1.025,1.025h4.16a1.025,1.025,0,0,0,1.025-1.025v-14.3a1.025,1.025,0,0,0-1.025-1.025Zm3.135,14.3h-2.109V231.3H170.4Z" transform="translate(-143.509 -192.244)" fill="#7d3a1b"/>
      <path id="Trazado_903737" data-name="Trazado 903737" d="M236.1,267.576a1.025,1.025,0,0,0-1.025,1.025v9.061a1.025,1.025,0,0,0,1.025,1.025h4.16a1.025,1.025,0,0,0,1.025-1.025V268.6a1.025,1.025,0,0,0-1.025-1.025Zm3.135,9.061h-2.109v-7.01h2.109Z" transform="translate(-202.934 -225.332)" fill="#7d3a1b"/>
      <path id="Trazado_903738" data-name="Trazado 903738" d="M304.934,311.832a1.025,1.025,0,0,0-1.025,1.025v3.01a1.025,1.025,0,0,0,1.025,1.025h4.16a1.025,1.025,0,1,0,0-2.051H305.96v-1.985A1.025,1.025,0,0,0,304.934,311.832Z" transform="translate(-262.359 -263.537)" fill="#7d3a1b"/>
      <path id="Trazado_903739" data-name="Trazado 903739" d="M324.605,177.225l-5.883-10.189a13.409,13.409,0,1,0-13.259,3.784,13.476,13.476,0,0,0,3.49.462,13.234,13.234,0,0,0,3.018-.349l5.881,10.189a3.9,3.9,0,1,0,6.751-3.9Zm-18.611-8.386a11.352,11.352,0,1,1,8.613-1.134A11.278,11.278,0,0,1,305.994,168.838Zm16.159,11.935a1.849,1.849,0,0,1-2.523-.676l-5.659-9.8a13.457,13.457,0,0,0,3.2-1.848l5.66,9.8a1.845,1.845,0,0,1-.676,2.523Z" transform="translate(-255.128 -119.061)" fill="#7d3a1b"/>
      <path id="Trazado_903740" data-name="Trazado 903740" d="M341.337,183.87a9.7,9.7,0,0,0-.485-7.03,1.025,1.025,0,1,0-1.855.874,7.68,7.68,0,1,1-2.315-2.861,1.025,1.025,0,1,0,1.237-1.635,9.737,9.737,0,1,0,3.419,10.652Z" transform="translate(-278.236 -142.168)" fill="#7d3a1b"/>
    </g>
  </g>
</svg>
