<svg xmlns="http://www.w3.org/2000/svg" width="80" height="80" viewBox="0 0 80 80">
  <g id="Grupo_1071455" data-name="Grupo 1071455" transform="translate(-268.643 -956.703)">
    <circle id="Elipse_5614" data-name="Elipse 5614" cx="40" cy="40" r="40" transform="translate(268.643 956.703)" fill="#fff"/>
    <g id="Grupo_1115786" data-name="Grupo 1115786" transform="translate(282.555 971.193)">
      <path id="Trazado_902272" data-name="Trazado 902272" d="M30.127,49.68H28.52V41.8a.8.8,0,0,0-1.607,0V49.68H6.018V33.607H12.7A.8.8,0,1,0,12.7,32H5.214a.8.8,0,0,0-.8.8V49.68H2.8a.8.8,0,0,0-.8.8v1.607a4.018,4.018,0,0,0,4.018,4.018H26.912a4.018,4.018,0,0,0,4.018-4.018V50.483A.8.8,0,0,0,30.127,49.68Zm-.8,2.411A2.411,2.411,0,0,1,26.912,54.5H25.305v-.8a.8.8,0,1,0-1.607,0v.8H9.233v-.8a.8.8,0,1,0-1.607,0v.8H6.018a2.411,2.411,0,0,1-2.411-2.411v-.8H29.323Z" transform="translate(0 -6.088)" fill="#7d3a1b"/>
      <path id="Trazado_902273" data-name="Trazado 902273" d="M53.018,7.607h1.607a.8.8,0,0,0,0-1.607H53.018a2.411,2.411,0,0,0-2.411,2.411v.8h-.8a.8.8,0,1,0,0,1.607h.8v2.411a.8.8,0,1,0,1.607,0V10.822h.8a.8.8,0,1,0,0-1.607h-.8v-.8A.8.8,0,0,1,53.018,7.607Z" transform="translate(-9.23 -0.982)" fill="#7d3a1b"/>
      <path id="Trazado_902274" data-name="Trazado 902274" d="M56.054,2H46.411A2.411,2.411,0,0,0,44,4.411V6.018a.8.8,0,1,0,1.607,0V4.411a.8.8,0,0,1,.8-.8h9.643a.8.8,0,0,1,.8.8v9.643a.8.8,0,0,1-.8.8H46.411a.8.8,0,0,1-.8-.8V9.233a.8.8,0,1,0-1.607,0v4.822a2.411,2.411,0,0,0,2.411,2.411h9.643a2.411,2.411,0,0,0,2.411-2.411V4.411A2.411,2.411,0,0,0,56.054,2Z" transform="translate(-8.248 -0.196)" fill="#7d3a1b"/>
      <path id="Trazado_902275" data-name="Trazado 902275" d="M49,41.214A3.214,3.214,0,1,0,52.214,38,3.214,3.214,0,0,0,49,41.214Zm4.822,0a1.607,1.607,0,1,1-1.607-1.607A1.607,1.607,0,0,1,53.822,41.214Z" transform="translate(-9.23 -7.266)" fill="#7d3a1b"/>
      <path id="Trazado_902276" data-name="Trazado 902276" d="M56.054,33H46.411A2.411,2.411,0,0,0,44,35.411v9.643a2.411,2.411,0,0,0,2.411,2.411h9.643a2.411,2.411,0,0,0,2.411-2.411V43.447a.8.8,0,1,0-1.607,0v1.607a.8.8,0,0,1-.8.8H46.411a.8.8,0,0,1-.8-.8V35.411a.8.8,0,0,1,.8-.8h9.643a.8.8,0,0,1,.8.8v4.822a.8.8,0,1,0,1.607,0V35.411A2.411,2.411,0,0,0,56.054,33Z" transform="translate(-8.248 -6.284)" fill="#7d3a1b"/>
      <path id="Trazado_902277" data-name="Trazado 902277" d="M24.378,12.309a.8.8,0,0,0,.788.032L29.987,9.93a.8.8,0,0,0,0-1.43L25.165,6.089A.8.8,0,0,0,24,6.8v4.822A.8.8,0,0,0,24.378,12.309Zm1.23-4.2,2.218,1.109-2.218,1.109Z" transform="translate(-4.32 -0.982)" fill="#7d3a1b"/>
      <path id="Trazado_902278" data-name="Trazado 902278" d="M25.233,15.465A7.233,7.233,0,1,0,18,8.233,7.233,7.233,0,0,0,25.233,15.465Zm0-12.858a5.625,5.625,0,1,1-5.625,5.625,5.625,5.625,0,0,1,5.625-5.625Z" transform="translate(-3.142)" fill="#7d3a1b"/>
      <path id="Trazado_902279" data-name="Trazado 902279" d="M36.8,21.822a.8.8,0,0,0,.643-.321l2.411-3.214a.8.8,0,1,0-1.286-.964l-2.411,3.214a.8.8,0,0,0,.643,1.286Z" transform="translate(-6.677 -3.142)" fill="#7d3a1b"/>
      <path id="Trazado_902280" data-name="Trazado 902280" d="M39.161,25.7a.8.8,0,0,0,1.125.161L43.5,23.447a.8.8,0,1,0-.964-1.286l-3.214,2.411a.8.8,0,0,0-.161,1.125Z" transform="translate(-7.266 -4.124)" fill="#7d3a1b"/>
      <path id="Trazado_902281" data-name="Trazado 902281" d="M47.6,28.638A.8.8,0,0,0,46.64,28l-4.018.8a.808.808,0,0,0,.161,1.607h.161l4.018-.8a.8.8,0,0,0,.643-.964Z" transform="translate(-7.835 -5.298)" fill="#7d3a1b"/>
      <path id="Trazado_902282" data-name="Trazado 902282" d="M2.8,25.465h9.643a.8.8,0,0,0,.8-.8V11.8a.8.8,0,0,0-.8-.8H2.8a.8.8,0,0,0-.8.8V24.662A.8.8,0,0,0,2.8,25.465Zm.8-12.858h8.036V23.858H3.607Z" transform="translate(0 -1.964)" fill="#7d3a1b"/>
      <path id="Trazado_902283" data-name="Trazado 902283" d="M10.411,15H8.8a.8.8,0,0,0,0,1.607h1.607a.8.8,0,0,0,0-1.607Z" transform="translate(-1.178 -2.749)" fill="#7d3a1b"/>
      <path id="Trazado_902284" data-name="Trazado 902284" d="M10.018,19H6.8a.8.8,0,0,0,0,1.607h3.214a.8.8,0,1,0,0-1.607Z" transform="translate(-0.786 -3.535)" fill="#7d3a1b"/>
      <path id="Trazado_902285" data-name="Trazado 902285" d="M10.018,23H6.8a.8.8,0,0,0,0,1.607h3.214a.8.8,0,0,0,0-1.607Z" transform="translate(-0.786 -4.32)" fill="#7d3a1b"/>
      <path id="Trazado_902286" data-name="Trazado 902286" d="M30.8,27.581a.806.806,0,1,0-1.4.8l3.544,6.132L20.089,39.338h-.121l-2.089,1.205-1.39.8a1.6,1.6,0,0,1-2.194-.587L12.687,37.98a1.607,1.607,0,0,1,.6-2.122l2.781-1.607,2.009,3.48a.806.806,0,1,0,1.4-.8L17.4,33.343,27.49,25.026l.329.571a.806.806,0,0,0,1.4-.8l-.8-1.39a.814.814,0,0,0-1.213-.217L15.95,32.459l-3.423,1.977a3.214,3.214,0,0,0-1.479,3.64l-.8.458a2.409,2.409,0,0,0,1.205,4.5,2.459,2.459,0,0,0,1.205-.321l.8-.458a3.118,3.118,0,0,0,1.406.836,3.046,3.046,0,0,0,.844.113,3.166,3.166,0,0,0,1.607-.434l.7-.4,1.607,2.789a2.409,2.409,0,1,0,4.171-2.411L22.331,40.2l12.054-4.524a.806.806,0,0,0,.418-1.149ZM11.819,41.315a.8.8,0,1,1-.8-1.39l.7-.4.8,1.39Zm10.576,2.25a.8.8,0,0,1-1.39.8L19.4,41.58l1.334-.763H20.8Z" transform="translate(-1.381 -4.321)" fill="#7d3a1b"/>
    </g>
  </g>
</svg>
