<svg xmlns="http://www.w3.org/2000/svg" width="80" height="80" viewBox="0 0 80 80">
  <g id="Grupo_1115788" data-name="Grupo 1115788" transform="translate(-268.643 -956.703)">
    <circle id="Elipse_5614" data-name="Elipse 5614" cx="40" cy="40" r="40" transform="translate(268.643 956.703)" fill="#fff"/>
    <g id="Grupo_1115790" data-name="Grupo 1115790" transform="translate(280.317 967.892)">
      <path id="Trazado_902288" data-name="Trazado 902288" d="M49.723,41.1l-9.562,4.039a2.545,2.545,0,0,0,.034-.366,3.368,3.368,0,0,0-3.366-3.366H29.944a1.9,1.9,0,0,1-.81-.179L23.3,38.591a7.212,7.212,0,0,0-2.923-.631H15.619v1.7h4.755a5.437,5.437,0,0,1,2.224.477l5.837,2.642a3.7,3.7,0,0,0,1.517.324h6.886a1.662,1.662,0,1,1,0,3.324H27.916v1.7h8.914a3.313,3.313,0,0,0,1.611-.426v.009l11.939-5.053A3.856,3.856,0,0,1,55.2,44.249L34.128,55.43a6.865,6.865,0,0,1-5.267.469L18.55,52.584l-2.94-.043v1.7h2.548l10.184,3.272a8.39,8.39,0,0,0,2.591.4,8.478,8.478,0,0,0,3.988-.989l22.455-11.9-.247-.7a5.554,5.554,0,0,0-7.406-3.23Z" transform="translate(-2.103 -4.927)" fill="#7d3a1b"/>
      <path id="Trazado_902289" data-name="Trazado 902289" d="M11.666,55.206V37.114a1.709,1.709,0,0,0-1.7-1.7H1.38v1.7H9.962v18.1H1.38v1.7H9.962a1.722,1.722,0,0,0,1.7-1.713Z" transform="translate(0 -4.55)" fill="#7d3a1b"/>
      <path id="Trazado_902290" data-name="Trazado 902290" d="M8.4,55.322a1.2,1.2,0,1,1-1.193-1.2A1.2,1.2,0,0,1,8.4,55.322Z" transform="translate(-0.684 -7.315)" fill="#7d3a1b"/>
      <path id="Trazado_902291" data-name="Trazado 902291" d="M24.407,24.912l.92.682,6.34-3.511L37.4,25.534l.494.29.92-.665-1.381-7.107,5.071-4.4.409-.392-.358-1.057-7.175-.886L32.776,5.15l-.239-.511-.545-.009h-.579L28.353,11.2l-6.681.562-.571.068L20.76,12.9l5.292,4.934Zm-.724-11.607,5.3-.46.5-.06,2.446-5.249L34,12.419l.213.469,5.761.707-3.988,3.46-.4.341,1.108,5.71-4.568-2.753-.435-.23-5.053,2.8,1.185-5.113.145-.528Z" transform="translate(-2.865)" fill="#7d3a1b"/>
      <path id="Trazado_902292" data-name="Trazado 902292" d="M11.117,22.779,9.881,28.088l-.17.614.963.707,5.309-2.94,4.687,2.812.528.332.946-.69-1.159-5.957L22.221,21.9,21.1,20.614,19.46,22.037l-.247.29v.341l.8,4.235-3.46-2.088-.179-.17-.724-.017-.17.17-3.537,1.96.954-4.142v-.5L9.583,19.029l4.056-.358.392-.009.358-.358L16.2,14.4l1.636,3.86.264.5h.477l2.054.256.213-1.7-1.645-.2L17.04,12.015l-.29-.545-1.176.094-.162.5-2.3,4.951-5.42.469-.673.034L6.66,18.765l.469.307Z" transform="translate(-0.78 -1.011)" fill="#7d3a1b"/>
      <path id="Trazado_902293" data-name="Trazado 902293" d="M44.361,17.134l.153,1.7,1.645-.153.383-.017L46.9,18.3l1.815-3.9,1.56,3.673.017.69h.8l4.065.5L52,22.009l-.281.3v.366l.81,4.227-3.468-2.079-.179-.179-.75.009-.153.162-3.52,1.952.963-4.142-.009-.5-2.182-2.037L42.06,21.327l1.56,1.457-1.227,5.309-.17.571.929.767,5.343-2.957,4.7,2.821.528.324.929-.7-1.159-5.948,4.1-3.554a.9.9,0,0,0,.307-.937l-.2-.605-5.982-.733-2.182-5.13-.256-.469-1.014-.034L48,11.928l-2.386,5.1Z" transform="translate(-6.013 -1.017)" fill="#7d3a1b"/>
    </g>
  </g>
</svg>
