<svg xmlns="http://www.w3.org/2000/svg" width="107" height="107" viewBox="0 0 107 107">
  <g id="Grupo_1115074" data-name="Grupo 1115074" transform="translate(-180.282 -1794.999)">
    <g id="Grupo_156312" data-name="Grupo 156312" transform="translate(-108.386 -2653.438)">
      <path id="Elipse_5845" data-name="Elipse 5845" d="M53.5,0A53.5,53.5,0,1,1,0,53.5,53.5,53.5,0,0,1,53.5,0Z" transform="translate(288.668 4448.437)" fill="#ffce73"/>
    </g>
    <g id="Grupo_1115073" data-name="Grupo 1115073" transform="translate(199.282 1816)">
      <g id="Grupo_1115058" data-name="Grupo 1115058" transform="translate(0 0)">
        <g id="Grupo_1115055" data-name="Grupo 1115055">
          <path id="Trazado_900876" data-name="Trazado 900876" d="M255.085,113.221a1.091,1.091,0,0,1-1.094-1.094v-4.649h-5.916a1.094,1.094,0,1,1,0-2.188h7.01a1.091,1.091,0,0,1,1.094,1.094v5.743A1.094,1.094,0,0,1,255.085,113.221Z" transform="translate(-212.905 -92.854)" fill="#7d3a1b"/>
          <path id="Trazado_900877" data-name="Trazado 900877" d="M70.228,154.157h-36.6a1.091,1.091,0,0,1-1.094-1.094v-46.71a1.091,1.091,0,0,1,1.094-1.094h7.01a1.094,1.094,0,1,1,0,2.188H34.725v44.518h34.41v-4.147a1.094,1.094,0,1,1,2.188,0v5.241a1.1,1.1,0,0,1-1.094,1.1Z" transform="translate(-28.048 -92.826)" fill="#7d3a1b"/>
          <path id="Trazado_900878" data-name="Trazado 900878" d="M107.012,58.671H84.434a1.091,1.091,0,0,1-1.094-1.094V49.419a3.093,3.093,0,0,1,3.09-3.09h3.281a1.094,1.094,0,0,1,0,2.188H86.43a.9.9,0,0,0-.9.9v7.064h20.39V49.419a.9.9,0,0,0-.9-.9h-3.281a1.094,1.094,0,1,1,0-2.188h3.281a3.093,3.093,0,0,1,3.09,3.09v8.158A1.091,1.091,0,0,1,107.012,58.671Z" transform="translate(-71.841 -42.027)" fill="#7d3a1b"/>
          <path id="Trazado_900879" data-name="Trazado 900879" d="M46.674,130.6H1.094A1.091,1.091,0,0,1,0,129.5V73.816a1.091,1.091,0,0,1,1.094-1.094h11.5a1.094,1.094,0,0,1,0,2.188H2.188v53.5H45.58v-8.422a1.094,1.094,0,0,1,2.188,0V129.5A1.1,1.1,0,0,1,46.674,130.6Z" transform="translate(0 -64.778)" fill="#7d3a1b"/>
          <path id="Trazado_900880" data-name="Trazado 900880" d="M259.579,84.932a1.091,1.091,0,0,1-1.094-1.094V74.91H248.076a1.094,1.094,0,1,1,0-2.188h11.5a1.091,1.091,0,0,1,1.094,1.094V83.838A1.09,1.09,0,0,1,259.579,84.932Z" transform="translate(-212.905 -64.778)" fill="#7d3a1b"/>
          <path id="Trazado_900881" data-name="Trazado 900881" d="M134.709,24.021H122.686a1.091,1.091,0,0,1-1.094-1.094V16.241a1.091,1.091,0,0,1,1.094-1.094h12.023a1.091,1.091,0,0,1,1.094,1.094v6.686A1.091,1.091,0,0,1,134.709,24.021ZM123.78,21.833h9.835v-4.5H123.78Z" transform="translate(-104.816 -15.147)" fill="#7d3a1b"/>
          <g id="Grupo_1115054" data-name="Grupo 1115054" transform="translate(10.462 21.396)">
            <g id="Grupo_1115050" data-name="Grupo 1115050">
              <path id="Trazado_900882" data-name="Trazado 900882" d="M152.424,190.291H140.953a1.094,1.094,0,1,1,0-2.188h11.471a1.094,1.094,0,1,1,0,2.188Z" transform="translate(-131.024 -185.635)" fill="#7d3a1b"/>
              <path id="Trazado_900883" data-name="Trazado 900883" d="M78.343,175.7a1.093,1.093,0,0,1-.775-.319l-1.422-1.422a1.093,1.093,0,0,1,1.545-1.545l.647.647,2.52-2.52a1.093,1.093,0,0,1,1.545,1.545l-3.3,3.3A1.075,1.075,0,0,1,78.343,175.7Z" transform="translate(-75.825 -170.217)" fill="#7d3a1b"/>
            </g>
            <g id="Grupo_1115051" data-name="Grupo 1115051" transform="translate(0 8.828)">
              <path id="Trazado_900884" data-name="Trazado 900884" d="M148.034,254.308h-7.082a1.094,1.094,0,1,1,0-2.188h7.082a1.094,1.094,0,0,1,0,2.188Z" transform="translate(-131.023 -249.648)" fill="#7d3a1b"/>
              <path id="Trazado_900885" data-name="Trazado 900885" d="M78.344,239.682a1.093,1.093,0,0,1-.775-.319l-1.422-1.422a1.092,1.092,0,1,1,1.545-1.545l.647.647,2.52-2.52a1.092,1.092,0,0,1,1.545,1.545l-3.3,3.3A1.058,1.058,0,0,1,78.344,239.682Z" transform="translate(-75.826 -234.201)" fill="#7d3a1b"/>
            </g>
            <g id="Grupo_1115052" data-name="Grupo 1115052" transform="translate(0 17.661)">
              <path id="Trazado_900886" data-name="Trazado 900886" d="M148.568,318.291h-7.616a1.094,1.094,0,1,1,0-2.188h7.616a1.094,1.094,0,1,1,0,2.188Z" transform="translate(-131.023 -313.635)" fill="#7d3a1b"/>
              <path id="Trazado_900887" data-name="Trazado 900887" d="M78.343,303.7a1.093,1.093,0,0,1-.775-.319l-1.422-1.422a1.092,1.092,0,0,1,1.545-1.545l.647.647,2.52-2.52a1.093,1.093,0,0,1,1.545,1.545l-3.3,3.3A1.057,1.057,0,0,1,78.343,303.7Z" transform="translate(-75.825 -298.217)" fill="#7d3a1b"/>
            </g>
            <g id="Grupo_1115053" data-name="Grupo 1115053" transform="translate(0 26.493)">
              <path id="Trazado_900888" data-name="Trazado 900888" d="M154.729,382.308H140.952a1.094,1.094,0,0,1,0-2.188h13.778a1.094,1.094,0,1,1,0,2.188Z" transform="translate(-131.023 -377.652)" fill="#7d3a1b"/>
              <path id="Trazado_900889" data-name="Trazado 900889" d="M78.344,367.715a1.093,1.093,0,0,1-.775-.319l-1.422-1.422a1.093,1.093,0,0,1,1.545-1.545l.647.647,2.52-2.52a1.092,1.092,0,0,1,1.545,1.545l-3.3,3.3A1.076,1.076,0,0,1,78.344,367.715Z" transform="translate(-75.826 -362.234)" fill="#7d3a1b"/>
            </g>
          </g>
        </g>
        <g id="Grupo_1115057" data-name="Grupo 1115057" transform="translate(26.065 12.419)">
          <path id="Trazado_900890" data-name="Trazado 900890" d="M208.136,183.379a19.162,19.162,0,1,1,7.483-1.513A19.112,19.112,0,0,1,208.136,183.379Zm0-36.255a17.034,17.034,0,1,0,17.032,17.036A17.053,17.053,0,0,0,208.136,147.123Z" transform="translate(-188.912 -139.443)" fill="#7d3a1b"/>
          <path id="Trazado_900891" data-name="Trazado 900891" d="M246.206,215.389a13.133,13.133,0,1,1,9.284-3.847A13.042,13.042,0,0,1,246.206,215.389Zm0-24.073a10.939,10.939,0,1,0,7.739,3.2A10.888,10.888,0,0,0,246.206,191.316Z" transform="translate(-226.983 -177.542)" fill="#7d3a1b"/>
          <path id="Trazado_900892" data-name="Trazado 900892" d="M284.277,247.366a7.044,7.044,0,0,1-2.7-.529,7.01,7.01,0,0,1-4.339-6.508,7.028,7.028,0,0,1,.529-2.7,7.01,7.01,0,0,1,6.508-4.339,7.028,7.028,0,0,1,2.7.529,7.01,7.01,0,0,1,4.339,6.508,7.029,7.029,0,0,1-.529,2.7,7.01,7.01,0,0,1-6.508,4.339Zm0-11.891a4.789,4.789,0,1,0,1.859.365A4.829,4.829,0,0,0,284.277,235.475Z" transform="translate(-265.053 -215.613)" fill="#7d3a1b"/>
          <g id="Grupo_1115056" data-name="Grupo 1115056" transform="translate(18.128)">
            <path id="Trazado_900893" data-name="Trazado 900893" d="M321.393,171.845a1.092,1.092,0,0,1-.775-1.864L337.7,152.9a1.092,1.092,0,1,1,1.545,1.545l-17.077,17.077A1.072,1.072,0,0,1,321.393,171.845Z" transform="translate(-320.297 -146.035)" fill="#7d3a1b"/>
            <path id="Trazado_900894" data-name="Trazado 900894" d="M445.167,113.89a1.092,1.092,0,0,1-1.094-1.158l.191-3.254a1.08,1.08,0,0,1,.319-.711l3.29-3.291a1.093,1.093,0,0,1,1.864.839l-.118,2.024,2.023-.119a1.093,1.093,0,0,1,.839,1.864l-3.291,3.291a1.1,1.1,0,0,1-.711.319l-3.254.191A.222.222,0,0,1,445.167,113.89Zm1.258-3.869-.1,1.609,1.609-.1.962-.962-.383.023a1.1,1.1,0,0,1-1.158-1.158l.023-.383Z" transform="translate(-426.994 -105.157)" fill="#7d3a1b"/>
          </g>
        </g>
      </g>
    </g>
  </g>
</svg>
