<svg xmlns="http://www.w3.org/2000/svg" xmlns:xlink="http://www.w3.org/1999/xlink" width="121" height="121" viewBox="0 0 121 121">
  <defs>
    <clipPath id="clip-path">
      <rect id="Rectángulo_400938" data-name="Rectángulo 400938" width="121" height="121" transform="translate(0 0)" fill="none"/>
    </clipPath>
    <clipPath id="clip-path-2">
      <rect id="Rectángulo_401073" data-name="Rectángulo 401073" width="92.219" height="41.532" fill="#efb499"/>
    </clipPath>
  </defs>
  <g id="Grupo_1115033" data-name="Grupo 1115033" transform="translate(-744.711 -1687.798)">
    <g id="Grupo_1099379" data-name="Grupo 1099379" transform="translate(357.043 -4325.202)">
      <rect id="Rectángulo_401103" data-name="Rectángulo 401103" width="121" height="121" transform="translate(387.668 6013)" fill="none"/>
      <g id="Grupo_1099348" data-name="Grupo 1099348" transform="translate(387.668 6013)">
        <g id="Grupo_1099282" data-name="Grupo 1099282">
          <g id="Grupo_1099281" data-name="Grupo 1099281" clip-path="url(#clip-path-2)">
            <path id="Trazado_873375" data-name="Trazado 873375" d="M74.8,9.1c-4.139,0-6.28-2.03-8.17-3.821-1.855-1.756-3.452-3.274-6.792-3.274s-4.937,1.517-6.792,3.274C51.161,7.072,49.023,9.1,44.881,9.1s-6.28-2.03-8.169-3.821C34.857,3.525,33.26,2.007,29.92,2.007s-4.937,1.517-6.789,3.274C21.241,7.072,19.1,9.1,14.962,9.1S8.679,7.072,6.789,5.281C4.937,3.525,3.34,2.007,0,2.007V0C4.139,0,6.28,2.033,8.17,3.821c1.855,1.759,3.452,3.274,6.792,3.274S19.9,5.58,21.75,3.824C23.637,2.033,25.781,0,29.92,0s6.283,2.033,8.17,3.821c1.855,1.759,3.452,3.274,6.792,3.274s4.937-1.514,6.792-3.274C53.56,2.033,55.7,0,59.843,0s6.283,2.033,8.17,3.821C69.867,5.58,71.464,7.094,74.8,7.094S79.742,5.58,81.6,3.821C83.483,2.033,85.624,0,89.766,0V2.007c-3.34,0-4.937,1.517-6.792,3.274C81.084,7.072,78.943,9.1,74.8,9.1" transform="translate(2.453 32.43)" fill="#efb499"/>
            <path id="Trazado_873376" data-name="Trazado 873376" d="M74.8,9.1c-4.139,0-6.283-2.03-8.17-3.824-1.855-1.756-3.452-3.27-6.792-3.27s-4.937,1.514-6.792,3.27C51.164,7.072,49.023,9.1,44.881,9.1s-6.283-2.03-8.17-3.824c-1.855-1.756-3.452-3.27-6.792-3.27s-4.937,1.517-6.789,3.27C21.241,7.072,19.1,9.1,14.962,9.1S8.679,7.072,6.789,5.278C4.937,3.522,3.34,2.007,0,2.007V0C4.139,0,6.283,2.03,8.17,3.821c1.855,1.759,3.452,3.274,6.792,3.274S19.9,5.58,21.75,3.821C23.637,2.03,25.781,0,29.92,0S36.2,2.03,38.093,3.821c1.852,1.759,3.449,3.274,6.789,3.274s4.937-1.514,6.792-3.274C53.56,2.03,55.7,0,59.843,0s6.283,2.03,8.17,3.821C69.867,5.58,71.464,7.094,74.8,7.094S79.742,5.58,81.6,3.821C83.486,2.03,85.627,0,89.769,0V2.007c-3.34,0-4.94,1.517-6.8,3.27C81.084,7.072,78.943,9.1,74.8,9.1" transform="translate(1.635 21.62)" fill="#efb499"/>
            <path id="Trazado_873377" data-name="Trazado 873377" d="M74.8,9.1c-4.139,0-6.283-2.03-8.169-3.824-1.855-1.756-3.452-3.27-6.792-3.27s-4.937,1.514-6.792,3.27C51.164,7.072,49.02,9.1,44.881,9.1s-6.283-2.03-8.17-3.824c-1.855-1.756-3.452-3.27-6.792-3.27s-4.937,1.517-6.789,3.27C21.241,7.072,19.1,9.1,14.962,9.1S8.678,7.072,6.789,5.278C4.937,3.522,3.34,2.007,0,2.007V0C4.139,0,6.283,2.03,8.169,3.821c1.851,1.759,3.452,3.274,6.792,3.274S19.9,5.58,21.75,3.821C23.637,2.03,25.781,0,29.92,0S36.2,2.03,38.093,3.821c1.852,1.759,3.449,3.274,6.789,3.274s4.937-1.514,6.792-3.274C53.56,2.03,55.7,0,59.843,0s6.283,2.03,8.17,3.821C69.867,5.58,71.464,7.094,74.8,7.094S79.742,5.58,81.6,3.821C83.486,2.03,85.624,0,89.769,0V2.007c-3.34,0-4.941,1.517-6.8,3.27C81.084,7.072,78.943,9.1,74.8,9.1" transform="translate(0.818 10.81)" fill="#efb499"/>
            <path id="Trazado_873378" data-name="Trazado 873378" d="M74.8,9.1c-4.139,0-6.28-2.03-8.17-3.821-1.855-1.756-3.452-3.27-6.792-3.27s-4.937,1.514-6.789,3.27C51.164,7.069,49.023,9.1,44.881,9.1s-6.28-2.03-8.169-3.821c-1.855-1.756-3.452-3.27-6.792-3.27s-4.937,1.514-6.789,3.267C21.245,7.069,19.1,9.1,14.962,9.1S8.678,7.069,6.789,5.278C4.937,3.522,3.34,2.007,0,2.007V0C4.139,0,6.283,2.03,8.17,3.821c1.855,1.756,3.452,3.27,6.792,3.27S19.9,5.577,21.75,3.821C23.64,2.03,25.781,0,29.92,0s6.28,2.03,8.173,3.821c1.852,1.756,3.449,3.27,6.789,3.27s4.937-1.514,6.792-3.27C53.563,2.03,55.7,0,59.843,0s6.28,2.03,8.17,3.821c1.855,1.756,3.452,3.27,6.792,3.27s4.937-1.514,6.792-3.27C83.486,2.03,85.627,0,89.769,0V2.007c-3.344,0-4.941,1.514-6.8,3.27C81.084,7.069,78.943,9.1,74.8,9.1" transform="translate(0 0.003)" fill="#efb499"/>
          </g>
        </g>
      </g>
      <circle id="Elipse_11504" data-name="Elipse 11504" cx="50.5" cy="50.5" r="50.5" transform="translate(402.668 6031)" fill="#ffce73"/>
      <circle id="Elipse_11503" data-name="Elipse 11503" cx="52.5" cy="52.5" r="52.5" transform="translate(395.668 6021)" fill="#f3f9ff"/>
    </g>
    <g id="Grupo_1115049" data-name="Grupo 1115049" transform="translate(758.407 1715.225)">
      <g id="Grupo_1115036" data-name="Grupo 1115036" transform="translate(16 30.783)">
        <g id="Grupo_1115035" data-name="Grupo 1115035">
          <path id="Trazado_900873" data-name="Trazado 900873" d="M76.508,224H56.7a1.1,1.1,0,0,0-1.1,1.1h0v4.216l-.93-.146a1.113,1.113,0,0,0-.17-.013,4.2,4.2,0,1,0-.4,8.388q.2.01.4,0a1.116,1.116,0,0,0,.17-.013l.93-.146V240.5H50.1a1.1,1.1,0,0,0-1.1,1.1h0v2.063a2.211,2.211,0,0,1-4.4,0V241.6a1.1,1.1,0,0,0-1.1-1.1H38v-3.116l.93.146a1.112,1.112,0,0,0,.17.013,4.2,4.2,0,0,0,.4-8.389c-.134-.006-.269-.006-.4,0a1.116,1.116,0,0,0-.17.013l-.93.146V225.1a1.1,1.1,0,0,0-1.1-1.1H17.1a1.1,1.1,0,0,0-1.1,1.1h0v33a1.1,1.1,0,0,0,1.1,1.1H76.507a1.1,1.1,0,0,0,1.1-1.1h0v-33A1.1,1.1,0,0,0,76.508,224ZM18.2,226.2H35.8v4.4a1.1,1.1,0,0,0,1.27,1.087l2.108-.33a2,2,0,1,1,0,3.986l-2.108-.33a1.1,1.1,0,0,0-1.257.917,1.113,1.113,0,0,0-.013.17v4.4H31.4v-.963a4.406,4.406,0,0,0-8.8,0v.963H18.2ZM35.8,257H18.2V242.7h5.5a1.1,1.1,0,0,0,1.1-1.1h0v-2.063a2.211,2.211,0,0,1,4.4,0V241.6a1.1,1.1,0,0,0,1.1,1.1h5.5v3.116l-.93-.146a1.117,1.117,0,0,0-.17-.013,4.2,4.2,0,1,0-.4,8.388c.134.006.269.006.4,0a1.112,1.112,0,0,0,.17-.013l.93-.146V257Zm20.187-5.236a1.1,1.1,0,0,0-.385.836V257H38v-4.4a1.1,1.1,0,0,0-1.27-1.087l-2.108.33a2,2,0,1,1,0-3.986l2.108.33A1.1,1.1,0,0,0,38,247.1v-4.4h4.4v.963a4.406,4.406,0,0,0,8.8,0V242.7h4.4v4.4a1.1,1.1,0,0,0,1.27,1.087l2.108-.33a2,2,0,1,1,0,3.986l-2.108-.33A1.109,1.109,0,0,0,55.989,251.768ZM75.407,257h-17.6v-3.116l.93.146a1.117,1.117,0,0,0,.17.013,4.2,4.2,0,0,0,.4-8.389c-.134-.006-.269-.006-.4,0a1.112,1.112,0,0,0-.17.013l-.93.146V242.7h5.5a1.1,1.1,0,0,0,1.1-1.1h0v-2.063a2.211,2.211,0,0,1,4.4,0V241.6a1.1,1.1,0,0,0,1.1,1.1h5.5Zm0-16.5h-4.4v-.963a4.406,4.406,0,0,0-8.8,0v.963h-4.4v-4.4a1.1,1.1,0,0,0-1.27-1.087l-2.108.33a2,2,0,1,1,0-3.986l2.108.33a1.1,1.1,0,0,0,1.27-1.087v-4.4h17.6v14.3Z" transform="translate(-16 -224)" fill="#7d3a1b"/>
        </g>
      </g>
      <g id="Grupo_1115038" data-name="Grupo 1115038" transform="translate(35.802 7.68)">
        <g id="Grupo_1115037" data-name="Grupo 1115037">
          <path id="Trazado_900874" data-name="Trazado 900874" d="M178.468,63.44q.078,0,.156,0l2.106.334A1.1,1.1,0,0,0,182,62.688V57.1a1.1,1.1,0,0,0-1.1-1.1H161.1a1.1,1.1,0,0,0-1.1,1.1h0v5.588a1.1,1.1,0,0,0,1.273,1.086l2.106-.334a2.044,2.044,0,0,1,.156,4.085q-.078,0-.156,0l-2.106-.334A1.1,1.1,0,0,0,160,68.277V73.6a1.1,1.1,0,0,0,1.1,1.1h5.5v1.257a4.4,4.4,0,0,0,8.8,0V74.7h5.5a1.1,1.1,0,0,0,1.1-1.1h0V68.277a1.1,1.1,0,0,0-1.273-1.086l-2.106.334a2.044,2.044,0,1,1-.156-4.085Zm-.076,6.286q.155.006.311,0a1.034,1.034,0,0,0,.172-.014l.928-.147V72.5h-5.5a1.1,1.1,0,0,0-1.1,1.1h0v2.357a2.206,2.206,0,0,1-4.4,0V73.6a1.1,1.1,0,0,0-1.1-1.1h-5.5V69.565l.928.147a1.034,1.034,0,0,0,.172.014,4.247,4.247,0,0,0,.31-8.487q-.155-.006-.311,0a1.035,1.035,0,0,0-.172.014l-.928.147V58.2h17.6v3.2l-.928-.147a1.035,1.035,0,0,0-.172-.014,4.246,4.246,0,0,0-.311,8.487Z" transform="translate(-160 -56)" fill="#7d3a1b"/>
        </g>
      </g>
      <g id="Grupo_1115040" data-name="Grupo 1115040" transform="translate(45.672 0.158)">
        <g id="Grupo_1115039" data-name="Grupo 1115039" transform="translate(0)">
          <rect id="Rectángulo_408045" data-name="Rectángulo 408045" width="2.264" height="5.659" fill="#7d3a1b"/>
        </g>
      </g>
      <g id="Grupo_1115042" data-name="Grupo 1115042" transform="translate(29.716 2.069)">
        <g id="Grupo_1115041" data-name="Grupo 1115041" transform="translate(0)">
          <rect id="Rectángulo_408046" data-name="Rectángulo 408046" width="2.2" height="5.025" transform="matrix(0.754, -0.657, 0.657, 0.754, 0, 1.446)" fill="#7d3a1b"/>
        </g>
      </g>
      <g id="Grupo_1115044" data-name="Grupo 1115044" transform="translate(58.63 2.449)">
        <g id="Grupo_1115043" data-name="Grupo 1115043" transform="translate(0 0)">
          <rect id="Rectángulo_408047" data-name="Rectángulo 408047" width="5.025" height="2.2" transform="matrix(0.754, -0.657, 0.657, 0.754, 0, 3.301)" fill="#7d3a1b"/>
        </g>
      </g>
      <g id="Grupo_1115046" data-name="Grupo 1115046" transform="translate(27.562 16.005)">
        <g id="Grupo_1115045" data-name="Grupo 1115045" transform="translate(0 0)">
          <rect id="Rectángulo_408048" data-name="Rectángulo 408048" width="5.659" height="2.264" fill="#7d3a1b"/>
        </g>
      </g>
      <g id="Grupo_1115048" data-name="Grupo 1115048" transform="translate(60.386 16.005)">
        <g id="Grupo_1115047" data-name="Grupo 1115047" transform="translate(0 0)">
          <rect id="Rectángulo_408049" data-name="Rectángulo 408049" width="5.659" height="2.264" fill="#7d3a1b"/>
        </g>
      </g>
    </g>
  </g>
</svg>
