<svg xmlns="http://www.w3.org/2000/svg" xmlns:xlink="http://www.w3.org/1999/xlink" width="121" height="121" viewBox="0 0 121 121">
  <defs>
    <clipPath id="clip-path">
      <rect id="Rectángulo_400938" data-name="Rectángulo 400938" width="121" height="121" transform="translate(0 0)" fill="none"/>
    </clipPath>
    <clipPath id="clip-path-2">
      <rect id="Rectángulo_401073" data-name="Rectángulo 401073" width="92.219" height="41.532" fill="#fff"/>
    </clipPath>
  </defs>
  <g id="Grupo_1117003" data-name="Grupo 1117003" transform="translate(-1095.711 -1687.798)">
    <g id="Grupo_1099376" data-name="Grupo 1099376" transform="translate(708.043 -4325.202)">
      <rect id="Rectángulo_401103" data-name="Rectángulo 401103" width="121" height="121" transform="translate(387.668 6013)" fill="none"/>
      <g id="Grupo_1099348" data-name="Grupo 1099348" transform="translate(387.668 6013)">
        <g id="Grupo_1099282" data-name="Grupo 1099282">
          <g id="Grupo_1099281" data-name="Grupo 1099281" clip-path="url(#clip-path-2)">
            <path id="Trazado_873375" data-name="Trazado 873375" d="M74.8,9.1c-4.139,0-6.28-2.03-8.17-3.821-1.855-1.756-3.452-3.274-6.792-3.274s-4.937,1.517-6.792,3.274C51.161,7.072,49.023,9.1,44.881,9.1s-6.28-2.03-8.169-3.821C34.857,3.525,33.26,2.007,29.92,2.007s-4.937,1.517-6.789,3.274C21.241,7.072,19.1,9.1,14.962,9.1S8.679,7.072,6.789,5.281C4.937,3.525,3.34,2.007,0,2.007V0C4.139,0,6.28,2.033,8.17,3.821c1.855,1.759,3.452,3.274,6.792,3.274S19.9,5.58,21.75,3.824C23.637,2.033,25.781,0,29.92,0s6.283,2.033,8.17,3.821c1.855,1.759,3.452,3.274,6.792,3.274s4.937-1.514,6.792-3.274C53.56,2.033,55.7,0,59.843,0s6.283,2.033,8.17,3.821C69.867,5.58,71.464,7.094,74.8,7.094S79.742,5.58,81.6,3.821C83.483,2.033,85.624,0,89.766,0V2.007c-3.34,0-4.937,1.517-6.792,3.274C81.084,7.072,78.943,9.1,74.8,9.1" transform="translate(2.453 32.43)" fill="#fff"/>
            <path id="Trazado_873376" data-name="Trazado 873376" d="M74.8,9.1c-4.139,0-6.283-2.03-8.17-3.824-1.855-1.756-3.452-3.27-6.792-3.27s-4.937,1.514-6.792,3.27C51.164,7.072,49.023,9.1,44.881,9.1s-6.283-2.03-8.17-3.824c-1.855-1.756-3.452-3.27-6.792-3.27s-4.937,1.517-6.789,3.27C21.241,7.072,19.1,9.1,14.962,9.1S8.679,7.072,6.789,5.278C4.937,3.522,3.34,2.007,0,2.007V0C4.139,0,6.283,2.03,8.17,3.821c1.855,1.759,3.452,3.274,6.792,3.274S19.9,5.58,21.75,3.821C23.637,2.03,25.781,0,29.92,0S36.2,2.03,38.093,3.821c1.852,1.759,3.449,3.274,6.789,3.274s4.937-1.514,6.792-3.274C53.56,2.03,55.7,0,59.843,0s6.283,2.03,8.17,3.821C69.867,5.58,71.464,7.094,74.8,7.094S79.742,5.58,81.6,3.821C83.486,2.03,85.627,0,89.769,0V2.007c-3.34,0-4.94,1.517-6.8,3.27C81.084,7.072,78.943,9.1,74.8,9.1" transform="translate(1.635 21.62)" fill="#fff"/>
            <path id="Trazado_873377" data-name="Trazado 873377" d="M74.8,9.1c-4.139,0-6.283-2.03-8.169-3.824-1.855-1.756-3.452-3.27-6.792-3.27s-4.937,1.514-6.792,3.27C51.164,7.072,49.02,9.1,44.881,9.1s-6.283-2.03-8.17-3.824c-1.855-1.756-3.452-3.27-6.792-3.27s-4.937,1.517-6.789,3.27C21.241,7.072,19.1,9.1,14.962,9.1S8.678,7.072,6.789,5.278C4.937,3.522,3.34,2.007,0,2.007V0C4.139,0,6.283,2.03,8.169,3.821c1.851,1.759,3.452,3.274,6.792,3.274S19.9,5.58,21.75,3.821C23.637,2.03,25.781,0,29.92,0S36.2,2.03,38.093,3.821c1.852,1.759,3.449,3.274,6.789,3.274s4.937-1.514,6.792-3.274C53.56,2.03,55.7,0,59.843,0s6.283,2.03,8.17,3.821C69.867,5.58,71.464,7.094,74.8,7.094S79.742,5.58,81.6,3.821C83.486,2.03,85.624,0,89.769,0V2.007c-3.34,0-4.941,1.517-6.8,3.27C81.084,7.072,78.943,9.1,74.8,9.1" transform="translate(0.818 10.81)" fill="#fff"/>
            <path id="Trazado_873378" data-name="Trazado 873378" d="M74.8,9.1c-4.139,0-6.28-2.03-8.17-3.821-1.855-1.756-3.452-3.27-6.792-3.27s-4.937,1.514-6.789,3.27C51.164,7.069,49.023,9.1,44.881,9.1s-6.28-2.03-8.169-3.821c-1.855-1.756-3.452-3.27-6.792-3.27s-4.937,1.514-6.789,3.267C21.245,7.069,19.1,9.1,14.962,9.1S8.678,7.069,6.789,5.278C4.937,3.522,3.34,2.007,0,2.007V0C4.139,0,6.283,2.03,8.17,3.821c1.855,1.756,3.452,3.27,6.792,3.27S19.9,5.577,21.75,3.821C23.64,2.03,25.781,0,29.92,0s6.28,2.03,8.173,3.821c1.852,1.756,3.449,3.27,6.789,3.27s4.937-1.514,6.792-3.27C53.563,2.03,55.7,0,59.843,0s6.28,2.03,8.17,3.821c1.855,1.756,3.452,3.27,6.792,3.27s4.937-1.514,6.792-3.27C83.486,2.03,85.627,0,89.769,0V2.007c-3.344,0-4.941,1.514-6.8,3.27C81.084,7.069,78.943,9.1,74.8,9.1" transform="translate(0 0.003)" fill="#fff"/>
          </g>
        </g>
      </g>
      <circle id="Elipse_11504" data-name="Elipse 11504" cx="50.5" cy="50.5" r="50.5" transform="translate(402.668 6031)" fill="#fff"/>
      <circle id="Elipse_11503" data-name="Elipse 11503" cx="52.5" cy="52.5" r="52.5" transform="translate(395.668 6021)" fill="#09614d"/>
    </g>
    <g id="Grupo_1117572" data-name="Grupo 1117572" transform="translate(1124.711 1716.798)">
      <path id="Trazado_904631" data-name="Trazado 904631" d="M1,61H63v2H1Z" fill="#fff"/>
      <path id="Trazado_904632" data-name="Trazado 904632" d="M25.269,7.916a25.048,25.048,0,0,1,23.16,5.241l-2.385,2.385,11.33,2.832L54.542,7.044,52.676,8.91a31.042,31.042,0,0,0-28.942-6.8l-.734.2V8.047l2.047-.1ZM25,3.851a29.033,29.033,0,0,1,27.013,7.17l.707.674.738-.738,1.168,4.67-4.67-1.168L51.31,13.1l-.746-.706A27.042,27.042,0,0,0,25,5.916Z" fill="#fff"/>
      <path id="Trazado_904633" data-name="Trazado 904633" d="M2.114,40.266l.2.734H8.047l-.1-2.047-.036-.222A25.057,25.057,0,0,1,13.157,15.57l2.385,2.386,2.832-11.33L7.044,9.458,8.91,11.324a31.042,31.042,0,0,0-6.8,28.942Zm8.907-28.279.674-.707-.738-.738,4.67-1.168-1.168,4.67L13.1,12.689l-.706.746A27.043,27.043,0,0,0,5.916,39H3.851a29.033,29.033,0,0,1,7.17-27.013Z" fill="#fff"/>
      <path id="Trazado_904634" data-name="Trazado 904634" d="M56.048,22.047l.036.222A25.05,25.05,0,0,1,50.843,45.43l-2.385-2.386-2.832,11.33,11.33-2.832L55.09,49.676a31.042,31.042,0,0,0,6.8-28.942l-.2-.734H55.953Zm4.1-.047a29.033,29.033,0,0,1-7.17,27.013l-.674.707.738.738-4.67,1.168,1.168-4.67L50.9,48.311l.706-.746A27.043,27.043,0,0,0,58.084,22Z" fill="#fff"/>
      <path id="Trazado_904635" data-name="Trazado 904635" d="M22,39h2v2H22Z" fill="#fff"/>
      <path id="Trazado_904636" data-name="Trazado 904636" d="M14,39h2v2H14Z" fill="#fff"/>
      <path id="Trazado_904637" data-name="Trazado 904637" d="M18,39h2v2H18Z" fill="#fff"/>
      <path id="Trazado_904638" data-name="Trazado 904638" d="M18,43h2v2H18Z" fill="#fff"/>
      <path id="Trazado_904639" data-name="Trazado 904639" d="M14,43h2v2H14Z" fill="#fff"/>
      <path id="Trazado_904640" data-name="Trazado 904640" d="M22,43h2v2H22Z" fill="#fff"/>
      <path id="Trazado_904641" data-name="Trazado 904641" d="M18,47h2v2H18Z" fill="#fff"/>
      <path id="Trazado_904642" data-name="Trazado 904642" d="M22,47h2v2H22Z" fill="#fff"/>
      <path id="Trazado_904643" data-name="Trazado 904643" d="M14,47h2v2H14Z" fill="#fff"/>
      <path id="Trazado_904644" data-name="Trazado 904644" d="M14,51h2v2H14Z" fill="#fff"/>
      <path id="Trazado_904645" data-name="Trazado 904645" d="M22,51h2v2H22Z" fill="#fff"/>
      <path id="Trazado_904646" data-name="Trazado 904646" d="M18,51h2v2H18Z" fill="#fff"/>
      <path id="Trazado_904647" data-name="Trazado 904647" d="M16,31h2v2H16Z" fill="#fff"/>
      <path id="Trazado_904648" data-name="Trazado 904648" d="M24,31h2v2H24Z" fill="#fff"/>
      <path id="Trazado_904649" data-name="Trazado 904649" d="M20,31h2v2H20Z" fill="#fff"/>
      <path id="Trazado_904650" data-name="Trazado 904650" d="M28,31h2v2H28Z" fill="#fff"/>
      <path id="Trazado_904651" data-name="Trazado 904651" d="M24,27h2v2H24Z" fill="#fff"/>
      <path id="Trazado_904652" data-name="Trazado 904652" d="M28,27h2v2H28Z" fill="#fff"/>
      <path id="Trazado_904653" data-name="Trazado 904653" d="M20,27h2v2H20Z" fill="#fff"/>
      <path id="Trazado_904654" data-name="Trazado 904654" d="M16,27h2v2H16Z" fill="#fff"/>
      <path id="Trazado_904655" data-name="Trazado 904655" d="M16,23h2v2H16Z" fill="#fff"/>
      <path id="Trazado_904656" data-name="Trazado 904656" d="M24,23h2v2H24Z" fill="#fff"/>
      <path id="Trazado_904657" data-name="Trazado 904657" d="M20,23h2v2H20Z" fill="#fff"/>
      <path id="Trazado_904658" data-name="Trazado 904658" d="M28,23h2v2H28Z" fill="#fff"/>
      <path id="Trazado_904659" data-name="Trazado 904659" d="M44,43h3a7.009,7.009,0,0,0,7-7V35H49a6.973,6.973,0,0,0-5,2.111V33h3a7.009,7.009,0,0,0,7-7V25H49a6.975,6.975,0,0,0-5.054,2.17A7.007,7.007,0,0,0,37,21H34V19H12V35H10V55H1v2H63V55H44Zm5-6h2.9A5.009,5.009,0,0,1,47,41H44.1A5.008,5.008,0,0,1,49,37Zm0-10h2.9A5.009,5.009,0,0,1,47,31H44.1A5.008,5.008,0,0,1,49,27ZM42,55H34V36.889A6.973,6.973,0,0,0,39,39h3V55ZM34.1,33H37a5.008,5.008,0,0,1,4.9,4H39A5.008,5.008,0,0,1,34.1,33ZM37,23a5.008,5.008,0,0,1,4.9,4H39a5.008,5.008,0,0,1-4.9-4Zm2,6h3v4.111A6.973,6.973,0,0,0,37,31H34V26.889A6.973,6.973,0,0,0,39,29ZM14,21H32V55H28V35H14ZM12,37H26V55H12Z" fill="#fff"/>
    </g>
  </g>
</svg>
