<svg xmlns="http://www.w3.org/2000/svg" xmlns:xlink="http://www.w3.org/1999/xlink" width="145" height="145" viewBox="0 0 145 145">
  <defs>
    <clipPath id="clip-path">
      <rect id="Rectángulo_400938" data-name="Rectángulo 400938" width="145" height="145" transform="translate(0 -0.281)" fill="none"/>
    </clipPath>
    <clipPath id="clip-path-2">
      <rect id="Rectángulo_401073" data-name="Rectángulo 401073" width="110.228" height="49.642" fill="#7d3a1b"/>
    </clipPath>
  </defs>
  <g id="Grupo_1099406" data-name="Grupo 1099406" transform="translate(-175 -9540.719)">
    <g id="Grupo_1099404" data-name="Grupo 1099404" transform="translate(175 9541)">
      <g id="Grupo_1099379" data-name="Grupo 1099379" transform="translate(0 0)">
        <rect id="Rectángulo_401103" data-name="Rectángulo 401103" width="145" height="145" transform="translate(0 -0.281)" fill="none"/>
        <g id="Grupo_1099348" data-name="Grupo 1099348" transform="translate(0.045 0.045)">
          <g id="Grupo_1099282" data-name="Grupo 1099282">
            <g id="Grupo_1099281" data-name="Grupo 1099281" clip-path="url(#clip-path-2)">
              <path id="Trazado_873375" data-name="Trazado 873375" d="M89.413,10.879c-4.947,0-7.506-2.426-9.765-4.567C77.431,4.213,75.522,2.4,71.529,2.4s-5.9,1.814-8.118,3.913c-2.259,2.141-4.814,4.567-9.765,4.567S46.14,8.453,43.881,6.312C41.664,4.213,39.755,2.4,35.763,2.4s-5.9,1.814-8.114,3.913c-2.259,2.141-4.818,4.567-9.765,4.567s-7.51-2.426-9.769-4.567C5.9,4.213,3.993,2.4,0,2.4V0C4.947,0,7.506,2.43,9.765,4.567c2.217,2.1,4.126,3.913,8.118,3.913S23.785,6.67,26,4.571C28.253,2.43,30.816,0,35.763,0s7.51,2.43,9.765,4.567c2.217,2.1,4.126,3.913,8.118,3.913s5.9-1.81,8.118-3.913C64.019,2.43,66.582,0,71.529,0s7.51,2.43,9.765,4.567c2.217,2.1,4.126,3.913,8.118,3.913s5.9-1.81,8.118-3.913C99.786,2.43,102.345,0,107.3,0V2.4c-3.993,0-5.9,1.814-8.118,3.913-2.259,2.141-4.818,4.567-9.765,4.567" transform="translate(2.932 38.763)" fill="#7d3a1b"/>
              <path id="Trazado_873376" data-name="Trazado 873376" d="M89.413,10.879c-4.947,0-7.51-2.426-9.765-4.571C77.431,4.209,75.522,2.4,71.529,2.4s-5.9,1.81-8.118,3.909c-2.255,2.145-4.814,4.571-9.765,4.571s-7.51-2.426-9.765-4.571C41.664,4.209,39.755,2.4,35.763,2.4s-5.9,1.814-8.115,3.909c-2.259,2.145-4.818,4.571-9.765,4.571s-7.51-2.426-9.769-4.571C5.9,4.209,3.993,2.4,0,2.4V0C4.947,0,7.51,2.426,9.765,4.567c2.217,2.1,4.126,3.913,8.118,3.913S23.785,6.67,26,4.567C28.253,2.426,30.816,0,35.763,0s7.51,2.426,9.769,4.567c2.213,2.1,4.122,3.913,8.115,3.913s5.9-1.81,8.118-3.913C64.019,2.426,66.582,0,71.529,0s7.51,2.426,9.765,4.567c2.217,2.1,4.126,3.913,8.118,3.913s5.9-1.81,8.118-3.913C99.79,2.426,102.349,0,107.3,0V2.4c-3.993,0-5.905,1.814-8.122,3.909-2.259,2.145-4.818,4.571-9.765,4.571" transform="translate(1.955 25.842)" fill="#7d3a1b"/>
              <path id="Trazado_873377" data-name="Trazado 873377" d="M89.412,10.879c-4.947,0-7.51-2.426-9.765-4.571C77.431,4.209,75.522,2.4,71.529,2.4s-5.9,1.81-8.118,3.909c-2.255,2.145-4.818,4.571-9.765,4.571s-7.51-2.426-9.765-4.571C41.664,4.209,39.755,2.4,35.763,2.4s-5.9,1.814-8.115,3.909c-2.259,2.145-4.818,4.571-9.765,4.571s-7.51-2.426-9.769-4.571C5.9,4.209,3.993,2.4,0,2.4V0C4.947,0,7.51,2.426,9.765,4.567c2.213,2.1,4.126,3.913,8.118,3.913S23.785,6.67,26,4.567C28.253,2.426,30.816,0,35.763,0s7.51,2.426,9.769,4.567c2.213,2.1,4.122,3.913,8.115,3.913s5.9-1.81,8.118-3.913C64.019,2.426,66.582,0,71.529,0s7.51,2.426,9.765,4.567c2.217,2.1,4.126,3.913,8.118,3.913s5.9-1.81,8.118-3.913C99.79,2.426,102.345,0,107.3,0V2.4c-3.993,0-5.905,1.814-8.122,3.909-2.259,2.145-4.818,4.571-9.765,4.571" transform="translate(0.977 12.921)" fill="#7d3a1b"/>
              <path id="Trazado_873378" data-name="Trazado 873378" d="M89.413,10.875c-4.947,0-7.506-2.426-9.765-4.567C77.431,4.209,75.522,2.4,71.529,2.4s-5.9,1.81-8.115,3.909c-2.259,2.141-4.818,4.567-9.769,4.567S46.14,8.449,43.881,6.308C41.664,4.209,39.755,2.4,35.763,2.4s-5.9,1.81-8.115,3.905c-2.255,2.145-4.818,4.571-9.765,4.571s-7.51-2.426-9.769-4.567C5.9,4.209,3.993,2.4,0,2.4V0C4.947,0,7.51,2.426,9.765,4.567c2.217,2.1,4.126,3.909,8.118,3.909s5.9-1.81,8.115-3.909C28.257,2.426,30.816,0,35.763,0s7.506,2.426,9.769,4.567c2.213,2.1,4.122,3.909,8.115,3.909s5.9-1.81,8.118-3.909C64.023,2.426,66.582,0,71.529,0s7.506,2.426,9.765,4.567c2.217,2.1,4.126,3.909,8.118,3.909s5.9-1.81,8.118-3.909C99.79,2.426,102.349,0,107.3,0V2.4c-4,0-5.905,1.81-8.122,3.909-2.259,2.141-4.818,4.567-9.765,4.567" transform="translate(0 0.004)" fill="#7d3a1b"/>
            </g>
          </g>
        </g>
        <path id="Trazado_873425" data-name="Trazado 873425" d="M60.362,0A60.362,60.362,0,1,1,0,60.362,60.362,60.362,0,0,1,60.362,0Z" transform="translate(17.974 21.56)" fill="#efb499"/>
        <circle id="Elipse_11503" data-name="Elipse 11503" cx="63" cy="63" r="63" transform="translate(9 9.719)" fill="#fef7eb"/>
      </g>
    </g>
    <g id="Grupo_1099405" data-name="Grupo 1099405" transform="translate(206.234 9571.193)">
      <g id="Grupo_1099389" data-name="Grupo 1099389" transform="translate(0 0)">
        <rect id="Rectángulo_401104" data-name="Rectángulo 401104" width="81" height="83" transform="translate(-0.234 -0.475)" fill="none"/>
      </g>
      <g id="Saving-Money_Bag-Money-Calculator-Finance-Cost" data-name="Saving-Money Bag-Money-Calculator-Finance-Cost" transform="translate(0.725 1.482)">
        <path id="Trazado_903787" data-name="Trazado 903787" d="M73.334,24.526H46.39a18.714,18.714,0,0,0-7.121-2.365,3.667,3.667,0,0,0,.275-1.389,3.754,3.754,0,0,0-1.865-3.229l6.7-11.15A1.251,1.251,0,0,0,43.3,4.5a3.2,3.2,0,0,1-2.34-.976,5.772,5.772,0,0,0-7.821,0,3.309,3.309,0,0,1-4.693,0,5.772,5.772,0,0,0-7.821,0A3.254,3.254,0,0,1,18.27,4.5a1.251,1.251,0,0,0-1.076,1.89l6.7,11.15a3.722,3.722,0,0,0-1.589,4.63A18.783,18.783,0,0,0,5.756,40.795V57.226A4.994,4.994,0,0,0,2,62.344a5.2,5.2,0,0,0,5.219,4.73H39.545v6.257A3.766,3.766,0,0,0,43.3,77.086H73.334a3.766,3.766,0,0,0,3.754-3.754V28.28a3.766,3.766,0,0,0-3.754-3.754ZM20.273,6.668a6.968,6.968,0,0,0,1.915-1.189,3.2,3.2,0,0,1,2.34-.976,3.254,3.254,0,0,1,2.353.976,5.772,5.772,0,0,0,7.821,0,3.309,3.309,0,0,1,4.693,0,6.7,6.7,0,0,0,1.9,1.189l-6.22,10.349H26.492Zm16.769,14.1a1.251,1.251,0,0,1-1.251,1.251H25.779a1.251,1.251,0,0,1,0-2.5H35.79A1.251,1.251,0,0,1,37.042,20.772ZM32.036,63.321a1.251,1.251,0,0,1-1.251,1.251H15.767a1.251,1.251,0,0,1-1.251-1.251v-2.5a1.251,1.251,0,0,1,1.251-1.251h1.251v2.5h2.5v-2.5h2.5v2.5h2.5v-2.5h2.5v2.5h2.5v-2.5h1.251a1.251,1.251,0,0,1,1.251,1.251Zm0-7.509a1.251,1.251,0,0,1-1.251,1.251H15.767a1.251,1.251,0,0,1-1.251-1.251v-2.5a1.251,1.251,0,0,1,1.251-1.251h1.251v2.5h2.5v-2.5h2.5v2.5h2.5v-2.5h2.5v2.5h2.5v-2.5h1.251a1.251,1.251,0,0,1,1.251,1.251ZM17.019,43.3a6.257,6.257,0,1,1,6.257,6.257A6.257,6.257,0,0,1,17.019,43.3ZM39.545,28.28V64.572H34.314a3.754,3.754,0,0,0,.225-1.251v-2.5a3.722,3.722,0,0,0-.976-2.5,3.722,3.722,0,0,0,.976-2.5v-2.5a3.766,3.766,0,0,0-3.754-3.754H29.4a8.76,8.76,0,1,0-12.239,0H15.767a3.766,3.766,0,0,0-3.754,3.754v2.5a3.722,3.722,0,0,0,.976,2.5,3.722,3.722,0,0,0-.976,2.5v2.5a3.754,3.754,0,0,0,.225,1.251H7.22A2.662,2.662,0,0,1,4.5,62.207a2.5,2.5,0,0,1,2.5-2.641,1.251,1.251,0,0,0,1.251-1.251V40.795A16.284,16.284,0,0,1,24.527,24.526H25.2a7.482,7.482,0,0,0-1.927,5.006v1.251h2.5V29.532a5.006,5.006,0,0,1,10.012,0v1.251h2.5V29.532a7.482,7.482,0,0,0-1.927-5.006h.676a16.411,16.411,0,0,1,4.28.576,3.754,3.754,0,0,0-1.777,3.179Zm35.04,45.052a1.251,1.251,0,0,1-1.251,1.251H43.3a1.251,1.251,0,0,1-1.251-1.251V28.28A1.251,1.251,0,0,1,43.3,27.029H73.334a1.251,1.251,0,0,1,1.251,1.251Z" transform="translate(0)" fill="#7d3a1b"/>
        <path id="Trazado_903788" data-name="Trazado 903788" d="M61.029,24H38.5A2.5,2.5,0,0,0,36,26.5v7.509a2.5,2.5,0,0,0,2.5,2.5H61.029a2.5,2.5,0,0,0,2.5-2.5V26.5A2.5,2.5,0,0,0,61.029,24ZM38.5,34.012V26.5H61.029v7.509Z" transform="translate(8.55 5.532)" fill="#7d3a1b"/>
        <path id="Trazado_903789" data-name="Trazado 903789" d="M50,28h2.5v2.5H50Z" transform="translate(12.071 6.537)" fill="#7d3a1b"/>
        <path id="Trazado_903790" data-name="Trazado 903790" d="M46,28h2.5v2.5H46Z" transform="translate(11.065 6.537)" fill="#7d3a1b"/>
        <path id="Trazado_903791" data-name="Trazado 903791" d="M42,28h2.5v2.5H42Z" transform="translate(10.059 6.537)" fill="#7d3a1b"/>
        <path id="Trazado_903792" data-name="Trazado 903792" d="M42.257,44H37.251A1.251,1.251,0,0,0,36,45.251v5.006a1.251,1.251,0,0,0,1.251,1.251h5.006a1.251,1.251,0,0,0,1.251-1.251V45.251A1.251,1.251,0,0,0,42.257,44Zm-1.251,5.006H38.5V46.5h2.5Z" transform="translate(8.55 10.56)" fill="#7d3a1b"/>
        <path id="Trazado_903793" data-name="Trazado 903793" d="M42.257,36H37.251A1.251,1.251,0,0,0,36,37.251v5.006a1.251,1.251,0,0,0,1.251,1.251h5.006a1.251,1.251,0,0,0,1.251-1.251V37.251A1.251,1.251,0,0,0,42.257,36Zm-1.251,5.006H38.5V38.5h2.5Z" transform="translate(8.55 8.549)" fill="#7d3a1b"/>
        <path id="Trazado_903794" data-name="Trazado 903794" d="M50.257,36H45.251A1.251,1.251,0,0,0,44,37.251v5.006a1.251,1.251,0,0,0,1.251,1.251h5.006a1.251,1.251,0,0,0,1.251-1.251V37.251A1.251,1.251,0,0,0,50.257,36Zm-1.251,5.006H46.5V38.5h2.5Z" transform="translate(10.562 8.549)" fill="#7d3a1b"/>
        <path id="Trazado_903795" data-name="Trazado 903795" d="M58.257,36H53.251A1.251,1.251,0,0,0,52,37.251v5.006a1.251,1.251,0,0,0,1.251,1.251h5.006a1.251,1.251,0,0,0,1.251-1.251V37.251A1.251,1.251,0,0,0,58.257,36Zm-1.251,5.006H54.5V38.5h2.5Z" transform="translate(12.574 8.549)" fill="#7d3a1b"/>
        <path id="Trazado_903796" data-name="Trazado 903796" d="M50.257,44H45.251A1.251,1.251,0,0,0,44,45.251v5.006a1.251,1.251,0,0,0,1.251,1.251h5.006a1.251,1.251,0,0,0,1.251-1.251V45.251A1.251,1.251,0,0,0,50.257,44Zm-1.251,5.006H46.5V46.5h2.5Z" transform="translate(10.562 10.56)" fill="#7d3a1b"/>
        <path id="Trazado_903797" data-name="Trazado 903797" d="M58.257,44H53.251A1.251,1.251,0,0,0,52,45.251v5.006a1.251,1.251,0,0,0,1.251,1.251h5.006a1.251,1.251,0,0,0,1.251-1.251V45.251A1.251,1.251,0,0,0,58.257,44Zm-1.251,5.006H54.5V46.5h2.5Z" transform="translate(12.574 10.56)" fill="#7d3a1b"/>
        <path id="Trazado_903798" data-name="Trazado 903798" d="M42.257,52H37.251A1.251,1.251,0,0,0,36,53.251v5.006a1.251,1.251,0,0,0,1.251,1.251h5.006a1.251,1.251,0,0,0,1.251-1.251V53.251A1.251,1.251,0,0,0,42.257,52Zm-1.251,5.006H38.5V54.5h2.5Z" transform="translate(8.55 12.572)" fill="#7d3a1b"/>
        <path id="Trazado_903799" data-name="Trazado 903799" d="M50.257,52H45.251A1.251,1.251,0,0,0,44,53.251v5.006a1.251,1.251,0,0,0,1.251,1.251h5.006a1.251,1.251,0,0,0,1.251-1.251V53.251A1.251,1.251,0,0,0,50.257,52Zm-1.251,5.006H46.5V54.5h2.5Z" transform="translate(10.562 12.572)" fill="#7d3a1b"/>
        <path id="Trazado_903800" data-name="Trazado 903800" d="M58.257,52H53.251A1.251,1.251,0,0,0,52,53.251v5.006a1.251,1.251,0,0,0,1.251,1.251h5.006a1.251,1.251,0,0,0,1.251-1.251V53.251A1.251,1.251,0,0,0,58.257,52Zm-1.251,5.006H54.5V54.5h2.5Z" transform="translate(12.574 12.572)" fill="#7d3a1b"/>
        <path id="Trazado_903801" data-name="Trazado 903801" d="M19,36.251v2.5A3.754,3.754,0,0,0,22.754,35h-2.5A1.251,1.251,0,0,1,19,36.251Z" transform="translate(4.276 8.298)" fill="#7d3a1b"/>
      </g>
    </g>
  </g>
</svg>
