<svg xmlns="http://www.w3.org/2000/svg" width="85" height="49.392" viewBox="0 0 85 49.392">
  <g id="Grupo_1102434" data-name="Grupo 1102434" transform="translate(-180 -983.653)">
    <path id="Trazado_874433" data-name="Trazado 874433" d="M70.833,8.618C66.914,8.618,64.886,6.7,63.1,5c-1.756-1.663-3.268-3.1-6.431-3.1S51.99,3.338,50.234,5C48.445,6.7,46.421,8.618,42.5,8.618S36.552,6.7,34.763,5c-1.756-1.663-3.268-3.1-6.431-3.1S23.656,3.338,21.9,5c-1.789,1.7-3.817,3.618-7.736,3.618S8.218,6.7,6.428,5C4.675,3.338,3.163,1.9,0,1.9V0C3.919,0,5.946,1.925,7.736,3.618c1.756,1.666,3.268,3.1,6.431,3.1s4.675-1.434,6.428-3.1C22.382,1.925,24.412,0,28.331,0s5.949,1.925,7.736,3.618c1.756,1.666,3.268,3.1,6.431,3.1s4.675-1.434,6.431-3.1C50.716,1.925,52.747,0,56.666,0S62.615,1.925,64.4,3.618c1.756,1.666,3.268,3.1,6.431,3.1s4.675-1.434,6.431-3.1C79.051,1.925,81.078,0,85,0V1.9c-3.163,0-4.675,1.437-6.431,3.1-1.789,1.7-3.817,3.618-7.736,3.618" transform="translate(180 983.653)" fill="#efb499"/>
    <path id="Trazado_874436" data-name="Trazado 874436" d="M70.833,8.618C66.914,8.618,64.886,6.7,63.1,5c-1.756-1.663-3.268-3.1-6.431-3.1S51.99,3.338,50.234,5C48.445,6.7,46.421,8.618,42.5,8.618S36.552,6.7,34.763,5c-1.756-1.663-3.268-3.1-6.431-3.1S23.656,3.338,21.9,5c-1.789,1.7-3.817,3.618-7.736,3.618S8.218,6.7,6.428,5C4.675,3.338,3.163,1.9,0,1.9V0C3.919,0,5.946,1.925,7.736,3.618c1.756,1.666,3.268,3.1,6.431,3.1s4.675-1.434,6.428-3.1C22.382,1.925,24.412,0,28.331,0s5.949,1.925,7.736,3.618c1.756,1.666,3.268,3.1,6.431,3.1s4.675-1.434,6.431-3.1C50.716,1.925,52.747,0,56.666,0S62.615,1.925,64.4,3.618c1.756,1.666,3.268,3.1,6.431,3.1s4.675-1.434,6.431-3.1C79.051,1.925,81.078,0,85,0V1.9c-3.163,0-4.675,1.437-6.431,3.1-1.789,1.7-3.817,3.618-7.736,3.618" transform="translate(180 1004.04)" fill="#efb499"/>
    <path id="Trazado_874434" data-name="Trazado 874434" d="M70.833,8.618C66.914,8.618,64.886,6.7,63.1,5c-1.756-1.663-3.268-3.1-6.431-3.1S51.99,3.338,50.234,5C48.445,6.7,46.421,8.618,42.5,8.618S36.552,6.7,34.763,5c-1.756-1.663-3.268-3.1-6.431-3.1S23.656,3.338,21.9,5c-1.789,1.7-3.817,3.618-7.736,3.618S8.218,6.7,6.428,5C4.675,3.338,3.163,1.9,0,1.9V0C3.919,0,5.946,1.925,7.736,3.618c1.756,1.666,3.268,3.1,6.431,3.1s4.675-1.434,6.428-3.1C22.382,1.925,24.412,0,28.331,0s5.949,1.925,7.736,3.618c1.756,1.666,3.268,3.1,6.431,3.1s4.675-1.434,6.431-3.1C50.716,1.925,52.747,0,56.666,0S62.615,1.925,64.4,3.618c1.756,1.666,3.268,3.1,6.431,3.1s4.675-1.434,6.431-3.1C79.051,1.925,81.078,0,85,0V1.9c-3.163,0-4.675,1.437-6.431,3.1-1.789,1.7-3.817,3.618-7.736,3.618" transform="translate(180 993.847)" fill="#efb499"/>
    <path id="Trazado_874435" data-name="Trazado 874435" d="M70.833,8.618C66.914,8.618,64.886,6.7,63.1,5c-1.756-1.663-3.268-3.1-6.431-3.1S51.99,3.338,50.234,5C48.445,6.7,46.421,8.618,42.5,8.618S36.552,6.7,34.763,5c-1.756-1.663-3.268-3.1-6.431-3.1S23.656,3.338,21.9,5c-1.789,1.7-3.817,3.618-7.736,3.618S8.218,6.7,6.428,5C4.675,3.338,3.163,1.9,0,1.9V0C3.919,0,5.946,1.925,7.736,3.618c1.756,1.666,3.268,3.1,6.431,3.1s4.675-1.434,6.428-3.1C22.382,1.925,24.412,0,28.331,0s5.949,1.925,7.736,3.618c1.756,1.666,3.268,3.1,6.431,3.1s4.675-1.434,6.431-3.1C50.716,1.925,52.747,0,56.666,0S62.615,1.925,64.4,3.618c1.756,1.666,3.268,3.1,6.431,3.1s4.675-1.434,6.431-3.1C79.051,1.925,81.078,0,85,0V1.9c-3.163,0-4.675,1.437-6.431,3.1-1.789,1.7-3.817,3.618-7.736,3.618" transform="translate(180 1014.233)" fill="#efb499"/>
    <path id="Trazado_874437" data-name="Trazado 874437" d="M70.833,8.618C66.914,8.618,64.886,6.7,63.1,5c-1.756-1.663-3.268-3.1-6.431-3.1S51.99,3.338,50.234,5C48.445,6.7,46.421,8.618,42.5,8.618S36.552,6.7,34.763,5c-1.756-1.663-3.268-3.1-6.431-3.1S23.656,3.338,21.9,5c-1.789,1.7-3.817,3.618-7.736,3.618S8.218,6.7,6.428,5C4.675,3.338,3.163,1.9,0,1.9V0C3.919,0,5.946,1.925,7.736,3.618c1.756,1.666,3.268,3.1,6.431,3.1s4.675-1.434,6.428-3.1C22.382,1.925,24.412,0,28.331,0s5.949,1.925,7.736,3.618c1.756,1.666,3.268,3.1,6.431,3.1s4.675-1.434,6.431-3.1C50.716,1.925,52.747,0,56.666,0S62.615,1.925,64.4,3.618c1.756,1.666,3.268,3.1,6.431,3.1s4.675-1.434,6.431-3.1C79.051,1.925,81.078,0,85,0V1.9c-3.163,0-4.675,1.437-6.431,3.1-1.789,1.7-3.817,3.618-7.736,3.618" transform="translate(180 1024.427)" fill="#efb499"/>
  </g>
</svg>
