<svg xmlns="http://www.w3.org/2000/svg" xmlns:xlink="http://www.w3.org/1999/xlink" width="121" height="121" viewBox="0 0 121 121">
  <defs>
    <clipPath id="clip-path">
      <rect id="Rectángulo_400938" data-name="Rectángulo 400938" width="121" height="121" transform="translate(0 0)" fill="none"/>
    </clipPath>
    <clipPath id="clip-path-2">
      <rect id="Rectángulo_401073" data-name="Rectángulo 401073" width="92.219" height="41.532" fill="#efb499"/>
    </clipPath>
  </defs>
  <g id="Grupo_1117107" data-name="Grupo 1117107" transform="translate(-1096.039 -1687.388)">
    <g id="Grupo_1099376" data-name="Grupo 1099376" transform="translate(708.371 -4325.612)">
      <rect id="Rectángulo_401103" data-name="Rectángulo 401103" width="121" height="121" transform="translate(387.668 6013)" fill="none"/>
      <g id="Grupo_1099348" data-name="Grupo 1099348" transform="translate(387.668 6013)">
        <g id="Grupo_1099282" data-name="Grupo 1099282">
          <g id="Grupo_1099281" data-name="Grupo 1099281" clip-path="url(#clip-path-2)">
            <path id="Trazado_873375" data-name="Trazado 873375" d="M74.8,9.1c-4.139,0-6.28-2.03-8.17-3.821-1.855-1.756-3.452-3.274-6.792-3.274s-4.937,1.517-6.792,3.274C51.161,7.072,49.023,9.1,44.881,9.1s-6.28-2.03-8.169-3.821C34.857,3.525,33.26,2.007,29.92,2.007s-4.937,1.517-6.789,3.274C21.241,7.072,19.1,9.1,14.962,9.1S8.679,7.072,6.789,5.281C4.937,3.525,3.34,2.007,0,2.007V0C4.139,0,6.28,2.033,8.17,3.821c1.855,1.759,3.452,3.274,6.792,3.274S19.9,5.58,21.75,3.824C23.637,2.033,25.781,0,29.92,0s6.283,2.033,8.17,3.821c1.855,1.759,3.452,3.274,6.792,3.274s4.937-1.514,6.792-3.274C53.56,2.033,55.7,0,59.843,0s6.283,2.033,8.17,3.821C69.867,5.58,71.464,7.094,74.8,7.094S79.742,5.58,81.6,3.821C83.483,2.033,85.624,0,89.766,0V2.007c-3.34,0-4.937,1.517-6.792,3.274C81.084,7.072,78.943,9.1,74.8,9.1" transform="translate(2.453 32.43)" fill="#efb499"/>
            <path id="Trazado_873376" data-name="Trazado 873376" d="M74.8,9.1c-4.139,0-6.283-2.03-8.17-3.824-1.855-1.756-3.452-3.27-6.792-3.27s-4.937,1.514-6.792,3.27C51.164,7.072,49.023,9.1,44.881,9.1s-6.283-2.03-8.17-3.824c-1.855-1.756-3.452-3.27-6.792-3.27s-4.937,1.517-6.789,3.27C21.241,7.072,19.1,9.1,14.962,9.1S8.679,7.072,6.789,5.278C4.937,3.522,3.34,2.007,0,2.007V0C4.139,0,6.283,2.03,8.17,3.821c1.855,1.759,3.452,3.274,6.792,3.274S19.9,5.58,21.75,3.821C23.637,2.03,25.781,0,29.92,0S36.2,2.03,38.093,3.821c1.852,1.759,3.449,3.274,6.789,3.274s4.937-1.514,6.792-3.274C53.56,2.03,55.7,0,59.843,0s6.283,2.03,8.17,3.821C69.867,5.58,71.464,7.094,74.8,7.094S79.742,5.58,81.6,3.821C83.486,2.03,85.627,0,89.769,0V2.007c-3.34,0-4.94,1.517-6.8,3.27C81.084,7.072,78.943,9.1,74.8,9.1" transform="translate(1.635 21.62)" fill="#efb499"/>
            <path id="Trazado_873377" data-name="Trazado 873377" d="M74.8,9.1c-4.139,0-6.283-2.03-8.169-3.824-1.855-1.756-3.452-3.27-6.792-3.27s-4.937,1.514-6.792,3.27C51.164,7.072,49.02,9.1,44.881,9.1s-6.283-2.03-8.17-3.824c-1.855-1.756-3.452-3.27-6.792-3.27s-4.937,1.517-6.789,3.27C21.241,7.072,19.1,9.1,14.962,9.1S8.678,7.072,6.789,5.278C4.937,3.522,3.34,2.007,0,2.007V0C4.139,0,6.283,2.03,8.169,3.821c1.851,1.759,3.452,3.274,6.792,3.274S19.9,5.58,21.75,3.821C23.637,2.03,25.781,0,29.92,0S36.2,2.03,38.093,3.821c1.852,1.759,3.449,3.274,6.789,3.274s4.937-1.514,6.792-3.274C53.56,2.03,55.7,0,59.843,0s6.283,2.03,8.17,3.821C69.867,5.58,71.464,7.094,74.8,7.094S79.742,5.58,81.6,3.821C83.486,2.03,85.624,0,89.769,0V2.007c-3.34,0-4.941,1.517-6.8,3.27C81.084,7.072,78.943,9.1,74.8,9.1" transform="translate(0.818 10.81)" fill="#efb499"/>
            <path id="Trazado_873378" data-name="Trazado 873378" d="M74.8,9.1c-4.139,0-6.28-2.03-8.17-3.821-1.855-1.756-3.452-3.27-6.792-3.27s-4.937,1.514-6.789,3.27C51.164,7.069,49.023,9.1,44.881,9.1s-6.28-2.03-8.169-3.821c-1.855-1.756-3.452-3.27-6.792-3.27s-4.937,1.514-6.789,3.267C21.245,7.069,19.1,9.1,14.962,9.1S8.678,7.069,6.789,5.278C4.937,3.522,3.34,2.007,0,2.007V0C4.139,0,6.283,2.03,8.17,3.821c1.855,1.756,3.452,3.27,6.792,3.27S19.9,5.577,21.75,3.821C23.64,2.03,25.781,0,29.92,0s6.28,2.03,8.173,3.821c1.852,1.756,3.449,3.27,6.789,3.27s4.937-1.514,6.792-3.27C53.563,2.03,55.7,0,59.843,0s6.28,2.03,8.17,3.821c1.855,1.756,3.452,3.27,6.792,3.27s4.937-1.514,6.792-3.27C83.486,2.03,85.627,0,89.769,0V2.007c-3.344,0-4.941,1.514-6.8,3.27C81.084,7.069,78.943,9.1,74.8,9.1" transform="translate(0 0.003)" fill="#efb499"/>
          </g>
        </g>
      </g>
      <circle id="Elipse_11504" data-name="Elipse 11504" cx="50.5" cy="50.5" r="50.5" transform="translate(402.668 6031)" fill="#ffce73"/>
      <circle id="Elipse_11503" data-name="Elipse 11503" cx="52.5" cy="52.5" r="52.5" transform="translate(395.668 6021)" fill="#f3f9ff"/>
    </g>
    <g id="Grupo_1117121" data-name="Grupo 1117121" transform="translate(1121.039 1710.801)">
      <path id="Trazado_903754" data-name="Trazado 903754" d="M64.5,48.192A1.025,1.025,0,1,0,63,49.6a18.186,18.186,0,1,1-2.942-2.522,1.025,1.025,0,0,0,1.163-1.689,20.25,20.25,0,0,0-16.308-2.972,4.007,4.007,0,0,0-2.905-1.239h-.4a4,4,0,0,0,.519-1.973V35.43A4.028,4.028,0,0,0,38.1,31.406H33.742L25.6,17.31a5.238,5.238,0,0,0-4.582-2.645h0a5.234,5.234,0,0,0-4.578,2.644L8.3,31.406H5.673A4.028,4.028,0,0,0,1.649,35.43V39.2a4.028,4.028,0,0,0,4.024,4.024h.4A4,4,0,0,0,5.556,45.2v3.773a4,4,0,0,0,.519,1.973H4.024A4.028,4.028,0,0,0,0,54.968v3.773A4.029,4.029,0,0,0,3.292,62.7a4,4,0,0,0-.558,2.041v3.773a4,4,0,0,0,.655,2.2,4.03,4.03,0,0,0-2.705,3.8v3.773a4.028,4.028,0,0,0,4.024,4.024H37.138A4.038,4.038,0,0,0,40.7,80.159,20.238,20.238,0,0,0,64.5,48.192ZM4.785,68.512V64.738a1.975,1.975,0,0,1,1.973-1.973H29.535a20.1,20.1,0,0,0,1.822,7.719H6.758a1.975,1.975,0,0,1-1.973-1.973ZM42.308,43.25a20.354,20.354,0,0,0-9.448,7.7H28.01V43.227h14a1.975,1.975,0,0,1,.3.023Zm-2.231-7.82V39.2A1.975,1.975,0,0,1,38.1,41.176H28.01v-.923h1.678a5.292,5.292,0,0,0,5.072-6.8H38.1a1.975,1.975,0,0,1,1.973,1.973ZM3.7,39.2V35.43a1.975,1.975,0,0,1,1.973-1.973h1.61a5.223,5.223,0,0,0-.094,2.653,1.025,1.025,0,0,0,2-.451,3.168,3.168,0,0,1,.362-2.316l8.667-15.009a3.2,3.2,0,0,1,2.8-1.618h0a3.208,3.208,0,0,1,2.806,1.62l8.665,15.008a3.239,3.239,0,0,1-2.8,4.859h-2.7a1.025,1.025,0,0,0-1.025,1.025V55.045A1.66,1.66,0,0,1,24.3,56.7H17.743a1.66,1.66,0,0,1-1.658-1.658V39.228A1.025,1.025,0,0,0,15.06,38.2h-2.7a3.259,3.259,0,0,1-1.117-.193,1.025,1.025,0,0,0-.7,1.927,5.3,5.3,0,0,0,1.817.316h1.679v.923H5.672A1.975,1.975,0,0,1,3.7,39.2Zm3.907,9.77V45.2A1.975,1.975,0,0,1,9.58,43.227h4.454v7.719H9.58A1.975,1.975,0,0,1,7.607,48.973ZM2.051,58.742V54.968A1.974,1.974,0,0,1,4.024,53H14.034v2.048a3.713,3.713,0,0,0,3.709,3.709H24.3a3.713,3.713,0,0,0,3.709-3.709V53h3.662a20.09,20.09,0,0,0-2.1,7.718H4.024a1.975,1.975,0,0,1-1.973-1.973ZM37.138,80.255H4.707a1.975,1.975,0,0,1-1.973-1.973V74.508a1.975,1.975,0,0,1,1.973-1.973H32.445a20.4,20.4,0,0,0,6.465,6.61A1.978,1.978,0,0,1,37.138,80.255Z" transform="translate(0 -10.426)" fill="#7d3a1b"/>
      <path id="Trazado_903755" data-name="Trazado 903755" d="M330.819,297.7c-.363-.106-.735-.217-1.1-.333v-4.544a4.334,4.334,0,0,1,1.808.662,1.025,1.025,0,0,0,1.234-1.638,6.485,6.485,0,0,0-3.042-1.088v-.886a1.025,1.025,0,1,0-2.051,0v.952c-.2.033-.4.075-.607.126a4.286,4.286,0,0,0-3.288,3.36,3.3,3.3,0,0,0,1.448,3.378,12.141,12.141,0,0,0,2.447,1.15V304.6a5.913,5.913,0,0,1-2.926-.848,1.025,1.025,0,0,0-.973,1.806,7.846,7.846,0,0,0,3.9,1.095v1.007a1.025,1.025,0,0,0,2.051,0v-1.074a5.222,5.222,0,0,0,4.612-4.212C334.623,300.242,333.247,298.41,330.819,297.7Zm-4.49-1.733a1.27,1.27,0,0,1-.538-1.318,2.2,2.2,0,0,1,1.759-1.707l.113-.026v3.723A8.58,8.58,0,0,1,326.329,295.97Zm5.965,6.117a3.112,3.112,0,0,1-2.581,2.41v-4.982l.532.157C331.7,300.1,332.45,300.976,332.295,302.087Z" transform="translate(-279.034 -247.127)" fill="#7d3a1b"/>
      <path id="Trazado_903756" data-name="Trazado 903756" d="M275.568,258.977a14,14,0,1,0,14,14A14.015,14.015,0,0,0,275.568,258.977Zm0,25.948a11.949,11.949,0,1,1,11.949-11.949A11.962,11.962,0,0,1,275.568,284.925Z" transform="translate(-225.808 -221.336)" fill="#7d3a1b"/>
      <path id="Trazado_903757" data-name="Trazado 903757" d="M364.85,133.648l.078.293h0a3.07,3.07,0,0,0,2.957,2.266,3.031,3.031,0,0,0,.584-.057l3.226-.632a3.058,3.058,0,0,0,2.366-3.793l-.195-.727a3.058,3.058,0,0,0-3.946-2.1l-3.109,1.066A3.068,3.068,0,0,0,364.85,133.648Zm2.627-1.744,3.109-1.066a1.007,1.007,0,0,1,1.3.692l.195.727a1.007,1.007,0,0,1-.779,1.249l-3.226.632a1.009,1.009,0,0,1-1.166-.728l-.078-.293A1.01,1.01,0,0,1,367.477,131.9Z" transform="translate(-314.878 -108.9)" fill="#7d3a1b"/>
      <path id="Trazado_903758" data-name="Trazado 903758" d="M324.7,56.145a3.067,3.067,0,0,0,4.172.143l2.478-2.16a3.058,3.058,0,0,0,.153-4.468l-.533-.533a3.058,3.058,0,0,0-4.468.153l-2.16,2.478a3.068,3.068,0,0,0,.143,4.172Zm1.189-3.039,2.16-2.478a1,1,0,0,1,.725-.345h.036a1,1,0,0,1,.711.3l.533.533a1.008,1.008,0,0,1-.05,1.472l-2.478,2.16a1.01,1.01,0,0,1-1.374-.047l-.214-.214A1.01,1.01,0,0,1,325.889,53.107Z" transform="translate(-279.352 -39.404)" fill="#7d3a1b"/>
      <path id="Trazado_903759" data-name="Trazado 903759" d="M271.547,70.725h0Z" transform="translate(-234.421 -58.822)" fill="#7d3a1b"/>
      <path id="Trazado_903760" data-name="Trazado 903760" d="M255.1,11.825l.293.078a3.037,3.037,0,0,0,.786.1,3.07,3.07,0,0,0,2.9-2.066l1.066-3.109a3.058,3.058,0,0,0-2.1-3.946l-.727-.195a3.058,3.058,0,0,0-3.793,2.366l-.632,3.226a3.068,3.068,0,0,0,2.21,3.541Zm-.2-3.148.632-3.226a1.009,1.009,0,0,1,.986-.814,1.019,1.019,0,0,1,.263.035l.727.195a1.007,1.007,0,0,1,.692,1.3l-1.066,3.109a1.011,1.011,0,0,1-1.214.646h0l-.293-.078a1.011,1.011,0,0,1-.728-1.167Z" transform="translate(-218.262)" fill="#7d3a1b"/>
    </g>
  </g>
</svg>
