<svg xmlns="http://www.w3.org/2000/svg" xmlns:xlink="http://www.w3.org/1999/xlink" width="121" height="121" viewBox="0 0 121 121">
  <defs>
    <clipPath id="clip-path">
      <rect id="Rectángulo_400938" data-name="Rectángulo 400938" width="121" height="121" transform="translate(0 0)" fill="none"/>
    </clipPath>
    <clipPath id="clip-path-2">
      <rect id="Rectángulo_401073" data-name="Rectángulo 401073" width="92.219" height="41.532" fill="#efb499"/>
    </clipPath>
  </defs>
  <g id="Grupo_1117116" data-name="Grupo 1117116" transform="translate(-745.039 -1687.388)">
    <g id="Grupo_1099379" data-name="Grupo 1099379" transform="translate(357.371 -4325.612)">
      <rect id="Rectángulo_401103" data-name="Rectángulo 401103" width="121" height="121" transform="translate(387.668 6013)" fill="none"/>
      <g id="Grupo_1099348" data-name="Grupo 1099348" transform="translate(387.668 6013)">
        <g id="Grupo_1099282" data-name="Grupo 1099282">
          <g id="Grupo_1099281" data-name="Grupo 1099281" clip-path="url(#clip-path-2)">
            <path id="Trazado_873375" data-name="Trazado 873375" d="M74.8,9.1c-4.139,0-6.28-2.03-8.17-3.821-1.855-1.756-3.452-3.274-6.792-3.274s-4.937,1.517-6.792,3.274C51.161,7.072,49.023,9.1,44.881,9.1s-6.28-2.03-8.169-3.821C34.857,3.525,33.26,2.007,29.92,2.007s-4.937,1.517-6.789,3.274C21.241,7.072,19.1,9.1,14.962,9.1S8.679,7.072,6.789,5.281C4.937,3.525,3.34,2.007,0,2.007V0C4.139,0,6.28,2.033,8.17,3.821c1.855,1.759,3.452,3.274,6.792,3.274S19.9,5.58,21.75,3.824C23.637,2.033,25.781,0,29.92,0s6.283,2.033,8.17,3.821c1.855,1.759,3.452,3.274,6.792,3.274s4.937-1.514,6.792-3.274C53.56,2.033,55.7,0,59.843,0s6.283,2.033,8.17,3.821C69.867,5.58,71.464,7.094,74.8,7.094S79.742,5.58,81.6,3.821C83.483,2.033,85.624,0,89.766,0V2.007c-3.34,0-4.937,1.517-6.792,3.274C81.084,7.072,78.943,9.1,74.8,9.1" transform="translate(2.453 32.43)" fill="#efb499"/>
            <path id="Trazado_873376" data-name="Trazado 873376" d="M74.8,9.1c-4.139,0-6.283-2.03-8.17-3.824-1.855-1.756-3.452-3.27-6.792-3.27s-4.937,1.514-6.792,3.27C51.164,7.072,49.023,9.1,44.881,9.1s-6.283-2.03-8.17-3.824c-1.855-1.756-3.452-3.27-6.792-3.27s-4.937,1.517-6.789,3.27C21.241,7.072,19.1,9.1,14.962,9.1S8.679,7.072,6.789,5.278C4.937,3.522,3.34,2.007,0,2.007V0C4.139,0,6.283,2.03,8.17,3.821c1.855,1.759,3.452,3.274,6.792,3.274S19.9,5.58,21.75,3.821C23.637,2.03,25.781,0,29.92,0S36.2,2.03,38.093,3.821c1.852,1.759,3.449,3.274,6.789,3.274s4.937-1.514,6.792-3.274C53.56,2.03,55.7,0,59.843,0s6.283,2.03,8.17,3.821C69.867,5.58,71.464,7.094,74.8,7.094S79.742,5.58,81.6,3.821C83.486,2.03,85.627,0,89.769,0V2.007c-3.34,0-4.94,1.517-6.8,3.27C81.084,7.072,78.943,9.1,74.8,9.1" transform="translate(1.635 21.62)" fill="#efb499"/>
            <path id="Trazado_873377" data-name="Trazado 873377" d="M74.8,9.1c-4.139,0-6.283-2.03-8.169-3.824-1.855-1.756-3.452-3.27-6.792-3.27s-4.937,1.514-6.792,3.27C51.164,7.072,49.02,9.1,44.881,9.1s-6.283-2.03-8.17-3.824c-1.855-1.756-3.452-3.27-6.792-3.27s-4.937,1.517-6.789,3.27C21.241,7.072,19.1,9.1,14.962,9.1S8.678,7.072,6.789,5.278C4.937,3.522,3.34,2.007,0,2.007V0C4.139,0,6.283,2.03,8.169,3.821c1.851,1.759,3.452,3.274,6.792,3.274S19.9,5.58,21.75,3.821C23.637,2.03,25.781,0,29.92,0S36.2,2.03,38.093,3.821c1.852,1.759,3.449,3.274,6.789,3.274s4.937-1.514,6.792-3.274C53.56,2.03,55.7,0,59.843,0s6.283,2.03,8.17,3.821C69.867,5.58,71.464,7.094,74.8,7.094S79.742,5.58,81.6,3.821C83.486,2.03,85.624,0,89.769,0V2.007c-3.34,0-4.941,1.517-6.8,3.27C81.084,7.072,78.943,9.1,74.8,9.1" transform="translate(0.818 10.81)" fill="#efb499"/>
            <path id="Trazado_873378" data-name="Trazado 873378" d="M74.8,9.1c-4.139,0-6.28-2.03-8.17-3.821-1.855-1.756-3.452-3.27-6.792-3.27s-4.937,1.514-6.789,3.27C51.164,7.069,49.023,9.1,44.881,9.1s-6.28-2.03-8.169-3.821c-1.855-1.756-3.452-3.27-6.792-3.27s-4.937,1.514-6.789,3.267C21.245,7.069,19.1,9.1,14.962,9.1S8.678,7.069,6.789,5.278C4.937,3.522,3.34,2.007,0,2.007V0C4.139,0,6.283,2.03,8.17,3.821c1.855,1.756,3.452,3.27,6.792,3.27S19.9,5.577,21.75,3.821C23.64,2.03,25.781,0,29.92,0s6.28,2.03,8.173,3.821c1.852,1.756,3.449,3.27,6.789,3.27s4.937-1.514,6.792-3.27C53.563,2.03,55.7,0,59.843,0s6.28,2.03,8.17,3.821c1.855,1.756,3.452,3.27,6.792,3.27s4.937-1.514,6.792-3.27C83.486,2.03,85.627,0,89.769,0V2.007c-3.344,0-4.941,1.514-6.8,3.27C81.084,7.069,78.943,9.1,74.8,9.1" transform="translate(0 0.003)" fill="#efb499"/>
          </g>
        </g>
      </g>
      <circle id="Elipse_11504" data-name="Elipse 11504" cx="50.5" cy="50.5" r="50.5" transform="translate(402.668 6031)" fill="#ffce73"/>
      <circle id="Elipse_11503" data-name="Elipse 11503" cx="52.5" cy="52.5" r="52.5" transform="translate(395.668 6021)" fill="#f3f9ff"/>
    </g>
    <g id="Grupo_1117124" data-name="Grupo 1117124" transform="translate(770.039 1715.387)">
      <path id="Trazado_903781" data-name="Trazado 903781" d="M124.015,292.126a1.367,1.367,0,1,0-1.868-.5A1.368,1.368,0,0,0,124.015,292.126Zm0,0" transform="translate(-105.289 -249.984)" fill="#7d3a1b"/>
      <path id="Trazado_903782" data-name="Trazado 903782" d="M13.123,70.877,20.008,82.8a5.469,5.469,0,1,0,9.472-5.468l-4.1-7.105,3.552-2.051a1.368,1.368,0,0,0,.5-1.868l-1.778-3.079L53.84,58.1a4.1,4.1,0,0,0,3.325-6.145l-4.544-7.87,2.9-4.4a1.368,1.368,0,0,0,.043-1.437l-2.734-4.736a1.37,1.37,0,0,0-1.266-.681l-5.26.316-5.044-8.737a4.066,4.066,0,0,0-3.5-2.05H37.71a4.066,4.066,0,0,0-3.453,1.891L16.4,47,4.786,53.7a9.57,9.57,0,0,0,8.337,17.175ZM27.112,78.7a2.734,2.734,0,0,1-4.737,2.734L15.54,69.595l4.736-2.734L27.112,78.7Zm-3.1-10.841-1.367-2.368,2.368-1.367,1.367,2.368ZM50.888,35.608l1.889,3.273-1.685,2.552-3.257-5.641ZM36.543,25.746a1.367,1.367,0,0,1,2.351.027L54.8,53.317a1.367,1.367,0,0,1-1.15,2.05,5.02,5.02,0,0,0-.75.127L36.075,26.358c.353-.454.4-.5.468-.613Zm-2.288,2.93L50.06,56.05,26.208,60.729,18.955,48.167ZM3.651,65.408a6.831,6.831,0,0,1,2.5-9.338l10.656-6.152,6.836,11.84L12.989,67.911a6.844,6.844,0,0,1-9.338-2.5Zm0,0" transform="translate(0 -19.299)" fill="#7d3a1b"/>
      <path id="Trazado_903783" data-name="Trazado 903783" d="M51.336,310.256a1.367,1.367,0,0,0-1.868-.5L47.1,311.123a1.369,1.369,0,0,1-1.868-.5,1.367,1.367,0,1,0-2.368,1.367,4.107,4.107,0,0,0,5.6,1.5l2.368-1.367a1.367,1.367,0,0,0,.5-1.868Zm0,0" transform="translate(-36.846 -267.248)" fill="#7d3a1b"/>
      <path id="Trazado_903784" data-name="Trazado 903784" d="M444.6,42.654l-7.618,4.239a1.367,1.367,0,0,0,1.33,2.389l7.618-4.239a1.367,1.367,0,0,0-1.329-2.389Zm0,0" transform="translate(-376.628 -36.673)" fill="#7d3a1b"/>
      <path id="Trazado_903785" data-name="Trazado 903785" d="M447.067,138.083l-5.282-1.415a1.367,1.367,0,1,0-.708,2.641l5.283,1.415a1.367,1.367,0,1,0,.707-2.641Zm0,0" transform="translate(-379.898 -117.942)" fill="#7d3a1b"/>
      <path id="Trazado_903786" data-name="Trazado 903786" d="M384.956,1.014,383.539,6.3A1.367,1.367,0,0,0,386.181,7L387.6,1.722a1.367,1.367,0,1,0-2.641-.708Zm0,0" transform="translate(-331.062)" fill="#7d3a1b"/>
    </g>
  </g>
</svg>
