<svg xmlns="http://www.w3.org/2000/svg" xmlns:xlink="http://www.w3.org/1999/xlink" width="102" height="60" viewBox="0 0 102 60">
  <defs>
    <clipPath id="clip-path">
      <rect id="Rectángulo_401073" data-name="Rectángulo 401073" width="92.219" height="41.532" fill="#efb499"/>
    </clipPath>
  </defs>
  <g id="Grupo_1117625" data-name="Grupo 1117625" transform="translate(-623.021 -2236)">
    <g id="Grupo_1117084" data-name="Grupo 1117084" transform="translate(623.021 2236)">
      <g id="Grupo_1099282" data-name="Grupo 1099282">
        <g id="Grupo_1099281" data-name="Grupo 1099281" clip-path="url(#clip-path)">
          <path id="Trazado_873375" data-name="Trazado 873375" d="M74.8,9.1c-4.139,0-6.28-2.03-8.17-3.821-1.855-1.756-3.452-3.274-6.792-3.274s-4.937,1.517-6.792,3.274C51.161,7.072,49.023,9.1,44.881,9.1s-6.28-2.03-8.169-3.821C34.857,3.525,33.26,2.007,29.92,2.007s-4.937,1.517-6.789,3.274C21.241,7.072,19.1,9.1,14.962,9.1S8.679,7.072,6.789,5.281C4.937,3.525,3.34,2.007,0,2.007V0C4.139,0,6.28,2.033,8.17,3.821c1.855,1.759,3.452,3.274,6.792,3.274S19.9,5.58,21.75,3.824C23.637,2.033,25.781,0,29.92,0s6.283,2.033,8.17,3.821c1.855,1.759,3.452,3.274,6.792,3.274s4.937-1.514,6.792-3.274C53.56,2.033,55.7,0,59.843,0s6.283,2.033,8.17,3.821C69.867,5.58,71.464,7.094,74.8,7.094S79.742,5.58,81.6,3.821C83.483,2.033,85.624,0,89.766,0V2.007c-3.34,0-4.937,1.517-6.792,3.274C81.084,7.072,78.943,9.1,74.8,9.1" transform="translate(2.453 32.43)" fill="#efb499"/>
          <path id="Trazado_873376" data-name="Trazado 873376" d="M74.8,9.1c-4.139,0-6.283-2.03-8.17-3.824-1.855-1.756-3.452-3.27-6.792-3.27s-4.937,1.514-6.792,3.27C51.164,7.072,49.023,9.1,44.881,9.1s-6.283-2.03-8.17-3.824c-1.855-1.756-3.452-3.27-6.792-3.27s-4.937,1.517-6.789,3.27C21.241,7.072,19.1,9.1,14.962,9.1S8.679,7.072,6.789,5.278C4.937,3.522,3.34,2.007,0,2.007V0C4.139,0,6.283,2.03,8.17,3.821c1.855,1.759,3.452,3.274,6.792,3.274S19.9,5.58,21.75,3.821C23.637,2.03,25.781,0,29.92,0S36.2,2.03,38.093,3.821c1.852,1.759,3.449,3.274,6.789,3.274s4.937-1.514,6.792-3.274C53.56,2.03,55.7,0,59.843,0s6.283,2.03,8.17,3.821C69.867,5.58,71.464,7.094,74.8,7.094S79.742,5.58,81.6,3.821C83.486,2.03,85.627,0,89.769,0V2.007c-3.34,0-4.94,1.517-6.8,3.27C81.084,7.072,78.943,9.1,74.8,9.1" transform="translate(1.635 21.62)" fill="#efb499"/>
          <path id="Trazado_873377" data-name="Trazado 873377" d="M74.8,9.1c-4.139,0-6.283-2.03-8.169-3.824-1.855-1.756-3.452-3.27-6.792-3.27s-4.937,1.514-6.792,3.27C51.164,7.072,49.02,9.1,44.881,9.1s-6.283-2.03-8.17-3.824c-1.855-1.756-3.452-3.27-6.792-3.27s-4.937,1.517-6.789,3.27C21.241,7.072,19.1,9.1,14.962,9.1S8.678,7.072,6.789,5.278C4.937,3.522,3.34,2.007,0,2.007V0C4.139,0,6.283,2.03,8.169,3.821c1.851,1.759,3.452,3.274,6.792,3.274S19.9,5.58,21.75,3.821C23.637,2.03,25.781,0,29.92,0S36.2,2.03,38.093,3.821c1.852,1.759,3.449,3.274,6.789,3.274s4.937-1.514,6.792-3.274C53.56,2.03,55.7,0,59.843,0s6.283,2.03,8.17,3.821C69.867,5.58,71.464,7.094,74.8,7.094S79.742,5.58,81.6,3.821C83.486,2.03,85.624,0,89.769,0V2.007c-3.34,0-4.941,1.517-6.8,3.27C81.084,7.072,78.943,9.1,74.8,9.1" transform="translate(0.818 10.81)" fill="#efb499"/>
          <path id="Trazado_873378" data-name="Trazado 873378" d="M74.8,9.1c-4.139,0-6.28-2.03-8.17-3.821-1.855-1.756-3.452-3.27-6.792-3.27s-4.937,1.514-6.789,3.27C51.164,7.069,49.023,9.1,44.881,9.1s-6.28-2.03-8.169-3.821c-1.855-1.756-3.452-3.27-6.792-3.27s-4.937,1.514-6.789,3.267C21.245,7.069,19.1,9.1,14.962,9.1S8.678,7.069,6.789,5.278C4.937,3.522,3.34,2.007,0,2.007V0C4.139,0,6.283,2.03,8.17,3.821c1.855,1.756,3.452,3.27,6.792,3.27S19.9,5.577,21.75,3.821C23.64,2.03,25.781,0,29.92,0s6.28,2.03,8.173,3.821c1.852,1.756,3.449,3.27,6.789,3.27s4.937-1.514,6.792-3.27C53.563,2.03,55.7,0,59.843,0s6.28,2.03,8.17,3.821c1.855,1.756,3.452,3.27,6.792,3.27s4.937-1.514,6.792-3.27C83.486,2.03,85.627,0,89.769,0V2.007c-3.344,0-4.941,1.514-6.8,3.27C81.084,7.069,78.943,9.1,74.8,9.1" transform="translate(0 0.003)" fill="#efb499"/>
        </g>
      </g>
    </g>
    <g id="Grupo_1117087" data-name="Grupo 1117087" transform="translate(665.021 2236)">
      <g id="Grupo_1117015" data-name="Grupo 1117015" transform="translate(0 0.879)">
        <g id="Grupo_1117007" data-name="Grupo 1117007" transform="translate(0.879 0)">
          <g id="Grupo_1117006" data-name="Grupo 1117006">
            <path id="Trazado_903657" data-name="Trazado 903657" d="M7.5,16.814a9.313,9.313,0,1,1,15.434,7.019.4.4,0,0,0,.06.653l1.755,1.038a.324.324,0,0,1-.165.6l-7.946,0A9.313,9.313,0,0,1,7.5,16.814Z" transform="translate(-7.5 -7.501)" fill="#7acaa6"/>
          </g>
        </g>
        <path id="Trazado_903658" data-name="Trazado 903658" d="M81.58,25.523l-1.755-1.038a.4.4,0,0,1-.062-.651A9.313,9.313,0,0,0,73.923,7.5a9.388,9.388,0,0,0-2.047.164,9.311,9.311,0,0,1,5.608,14.858,2.011,2.011,0,0,0,.543,2.976l.037.022a.324.324,0,0,1-.155.6h3.505A.324.324,0,0,0,81.58,25.523Z" transform="translate(-63.453 -7.5)" fill="#57be92"/>
        <g id="Grupo_1117013" data-name="Grupo 1117013" transform="translate(14.024 0)">
          <g id="Grupo_1117010" data-name="Grupo 1117010" transform="translate(0 0)">
            <path id="Trazado_903659" data-name="Trazado 903659" d="M188.545,41.3H167.417a6.231,6.231,0,0,1-4.794-10.21l.187-.226a9.966,9.966,0,0,0,2.3-6.365V20.43a12.93,12.93,0,1,1,25.86,0v4.212a9.967,9.967,0,0,0,2.343,6.419A6.231,6.231,0,0,1,188.545,41.3Z" transform="translate(-156.311 -7.5)" fill="#c59191"/>
            <path id="Trazado_903660" data-name="Trazado 903660" d="M163.009,260.692V274.66H119.67V260.8a7.8,7.8,0,0,1,4.774-7.188l6.995-3.042,2.357-1.024a4.895,4.895,0,0,0,2.944-4.488v-.9h9.2v.858a4.895,4.895,0,0,0,2.966,4.5l9.463,4.056a7.8,7.8,0,0,1,4.639,7.13Z" transform="translate(-119.67 -216.418)" fill="#fff"/>
            <path id="Trazado_903661" data-name="Trazado 903661" d="M216.656,253.9a33.513,33.513,0,0,0,19.8-.186L237.6,251l-3.474-1.489a4.9,4.9,0,0,1-2.967-4.5v-.857h-9.2v.9a4.9,4.9,0,0,1-2.943,4.489l-2.814,1.223Z" transform="translate(-204.887 -216.422)" fill="#ffcebf"/>
            <path id="Trazado_903662" data-name="Trazado 903662" d="M396.2,301.457l-7.128-3.055h0v24.152h11.769V308.587A7.8,7.8,0,0,0,396.2,301.457Z" transform="translate(-357.504 -264.312)" fill="#8795de"/>
            <path id="Trazado_903663" data-name="Trazado 903663" d="M131.439,298.91V323H119.67V309.14a7.8,7.8,0,0,1,4.774-7.188Z" transform="translate(-119.67 -264.76)" fill="#8795de"/>
            <g id="Grupo_1117008" data-name="Grupo 1117008" transform="translate(20.527 22.464)">
              <path id="Trazado_903664" data-name="Trazado 903664" d="M298.591,202.584h-2.06a1.7,1.7,0,0,1,0-3.395h2.06a1.7,1.7,0,1,1,0,3.395Z" transform="translate(-294.834 -199.189)" fill="#fff"/>
              <path id="Trazado_903665" data-name="Trazado 903665" d="M303.153,206.688a.819.819,0,0,0,0,1.637h2.06a.819.819,0,1,0,0-1.637Z" transform="translate(-301.455 -205.809)"/>
            </g>
            <g id="Grupo_1117009" data-name="Grupo 1117009" transform="translate(20.821 42.89)">
              <circle id="Elipse_11562" data-name="Elipse 11562" cx="0.849" cy="0.849" r="0.849"/>
            </g>
          </g>
          <g id="Grupo_1117012" data-name="Grupo 1117012" transform="translate(8.797)">
            <path id="Trazado_903666" data-name="Trazado 903666" d="M269.888,249.206a7.74,7.74,0,0,0,2.987-.6,4.894,4.894,0,0,1-1.576-3.6v-.857h-9.2v.9a4.886,4.886,0,0,1-.429,2,7.737,7.737,0,0,0,5.355,2.145Z" transform="translate(-253.826 -216.422)" fill="#ffb09e"/>
            <path id="Trazado_903667" data-name="Trazado 903667" d="M244.5,87.976v7.612a7.765,7.765,0,0,1-7.765,7.765h-2.864a7.765,7.765,0,0,1-7.765-7.765V87.976a5.052,5.052,0,0,1,5.052-5.052h8.291a5.052,5.052,0,0,1,5.052,5.052Z" transform="translate(-222.43 -74.085)" fill="#ffcebf"/>
            <path id="Trazado_903668" data-name="Trazado 903668" d="M298.591,202.584h-2.06a1.7,1.7,0,0,1,0-3.395h2.06a1.7,1.7,0,1,1,0,3.395Z" transform="translate(-283.104 -176.725)" fill="#685e68"/>
            <g id="Grupo_1117011" data-name="Grupo 1117011">
              <path id="Trazado_903669" data-name="Trazado 903669" d="M320.147,28.12c.2-2.487,2.578-4.138,4.857-4.993a12.923,12.923,0,0,1,6.294,11.1v.889c-.208.044-.416.082-.621.113a10.468,10.468,0,0,1-3.055,0c-4.707-.627-7.714-4.1-7.475-7.107Z" transform="translate(-305.439 -21.296)" fill="#b98080"/>
              <path id="Trazado_903670" data-name="Trazado 903670" d="M207.669,7.5a12.872,12.872,0,0,1,7.778,2.6,23.062,23.062,0,0,1-8.208,8.344,22.883,22.883,0,0,1-8.71,2.987h-3.789v-1A12.93,12.93,0,0,1,207.669,7.5Z" transform="translate(-194.739 -7.5)" fill="#c59191"/>
            </g>
          </g>
        </g>
        <path id="Trazado_903671" data-name="Trazado 903671" d="M204.693,379.583H176.558l-1.552-14.639A1.758,1.758,0,0,1,176.754,363H204.5a1.758,1.758,0,0,1,1.748,1.943Z" transform="translate(-154.489 -321.341)" fill="#efedef"/>
        <path id="Trazado_903672" data-name="Trazado 903672" d="M400.25,363h-3.516a1.758,1.758,0,0,1,1.748,1.943l-1.552,14.639h3.516L402,364.943A1.758,1.758,0,0,0,400.25,363Z" transform="translate(-350.242 -321.34)" fill="#e5e1e5"/>
        <g id="Grupo_1117014" data-name="Grupo 1117014" transform="translate(0 57.363)">
          <path id="Trazado_903673" data-name="Trazado 903673" d="M59.121,498.758H.879a.879.879,0,0,1,0-1.758H59.121a.879.879,0,0,1,0,1.758Z" transform="translate(0 -497)" fill="#c9bfc8"/>
        </g>
        <circle id="Elipse_11563" data-name="Elipse 11563" cx="2.461" cy="2.461" r="2.461" transform="translate(33.676 47.49)" fill="#c9bfc8"/>
      </g>
      <path id="Trazado_903674" data-name="Trazado 903674" d="M13.708,11.071a.879.879,0,1,0-.879-.879A.879.879,0,0,0,13.708,11.071Zm-7.031,0a.879.879,0,1,0-.879-.879A.879.879,0,0,0,6.677,11.071Zm3.516,0a.879.879,0,1,0-.879-.879A.879.879,0,0,0,10.192,11.071ZM10,20.382h.016l7.946,0h0a1.2,1.2,0,0,0,.612-2.238l-1.209-.715A10.192,10.192,0,1,0,0,10.192a10.3,10.3,0,0,0,10,10.19ZM4.271,4.185a8.373,8.373,0,0,1,6.045-2.426,8.434,8.434,0,0,1,5.418,14.79,1.283,1.283,0,0,0,.19,2.072l.009.005H10.024A8.434,8.434,0,0,1,4.271,4.185Zm54.85,54.057h-.879V45.153a8.688,8.688,0,0,0-5.172-7.937l-4.632-1.985a6.938,6.938,0,0,0,2.974-1.87,7.281,7.281,0,0,0,1.967-4.941A6.992,6.992,0,0,0,51.7,23.873,9.1,9.1,0,0,1,49.56,18.02V13.808a13.809,13.809,0,0,0-27.617,0v4.075a9.5,9.5,0,0,1-2.283,6.029,7.118,7.118,0,0,0,3.4,11.348l-4.6,2a8.66,8.66,0,0,0-5.312,8V55.605a.879.879,0,1,0,1.758,0V45.259a6.909,6.909,0,0,1,4.246-6.382l5.765-2.507v5.29H22.265a2.636,2.636,0,0,0-2.622,2.915l1.449,13.667H.879A.879.879,0,1,0,.879,60H59.121a.879.879,0,1,0,0-1.758Zm-8.77-33.237a5.255,5.255,0,0,1,1.27,3.415,5.506,5.506,0,0,1-1.489,3.736A5.261,5.261,0,0,1,46.258,33.8H45.112l-1.5-.645A4.011,4.011,0,0,1,41.21,30a8.651,8.651,0,0,0,4.56-7.616V15.774c.257.017.514.027.771.027A11.2,11.2,0,0,0,47.8,15.73v2.29a10.859,10.859,0,0,0,2.549,6.985ZM35.964,38.88A32.561,32.561,0,0,1,26.672,37.7V35.605l.254-.111.006,0L28.5,34.81a5.772,5.772,0,0,0,3.353-4.129,8.615,8.615,0,0,0,2.409.344h2.864a8.615,8.615,0,0,0,2.418-.347,5.768,5.768,0,0,0,3.371,4.1l1.673.717h0l.124.053v1.978a32.625,32.625,0,0,1-8.751,1.355Zm8.751.475V41.66H26.672V39.518a34.353,34.353,0,0,0,8.72,1.125q.3,0,.6-.005a34.378,34.378,0,0,0,8.721-1.283Zm3.087-25.4a9.762,9.762,0,0,1-7.03-1.778A.879.879,0,1,0,39.7,13.569a10.619,10.619,0,0,0,4.317,1.961v4.785a6.43,6.43,0,0,1-1.952,2.638,6.739,6.739,0,0,1-1.458.917,2.578,2.578,0,0,0-2.294-1.406h-2.06a2.576,2.576,0,0,0,0,5.153h2.06A2.581,2.581,0,0,0,40.8,25.691a15.684,15.684,0,0,0,3.093-2.047,6.9,6.9,0,0,1-6.768,5.623H34.262a6.894,6.894,0,0,1-6.886-6.886V15.587a23.568,23.568,0,0,0,8.392-3.008A23.875,23.875,0,0,0,43.756,4.8,12.044,12.044,0,0,1,47.8,13.957ZM39.126,25.042a.819.819,0,0,1-.818.816h-2.06a.819.819,0,0,1,0-1.637h2.06a.819.819,0,0,1,.818.816ZM23.7,13.808A12.055,12.055,0,0,1,42.357,3.726a22.13,22.13,0,0,1-7.484,7.341,21.854,21.854,0,0,1-8.32,2.864H23.7Zm-3.414,16.92a5.3,5.3,0,0,1,.725-5.692A11.226,11.226,0,0,0,23.7,17.883V15.689h1.918v6.693A8.651,8.651,0,0,0,30.183,30,4.013,4.013,0,0,1,27.8,33.2l-1.4.607H25.13a5.3,5.3,0,0,1-4.844-3.077Zm30.6,13.662L49.413,58.242H22.86L21.391,44.389a.879.879,0,0,1,.874-.971H50.008a.879.879,0,0,1,.874.971Zm5.6,13.853h-5.3L52.63,44.575a2.637,2.637,0,0,0-2.622-2.915H46.473V38.186c0-.011,0-.021,0-.032V36.3l5.895,2.526a6.925,6.925,0,0,1,4.117,6.326ZM36.137,47.49a3.34,3.34,0,1,0,3.34,3.34A3.344,3.344,0,0,0,36.137,47.49Zm0,4.922a1.582,1.582,0,1,1,1.582-1.582A1.584,1.584,0,0,1,36.137,52.412Z" transform="translate(0 0)"/>
    </g>
  </g>
</svg>
