<svg xmlns="http://www.w3.org/2000/svg" xmlns:xlink="http://www.w3.org/1999/xlink" width="102" height="60.048" viewBox="0 0 102 60.048">
  <defs>
    <clipPath id="clip-path">
      <rect id="Rectángulo_401073" data-name="Rectángulo 401073" width="92.219" height="41.532" fill="#efb499"/>
    </clipPath>
  </defs>
  <g id="Grupo_1117626" data-name="Grupo 1117626" transform="translate(-623.021 -2316)">
    <g id="Grupo_1117085" data-name="Grupo 1117085" transform="translate(623.021 2316)">
      <g id="Grupo_1099282" data-name="Grupo 1099282">
        <g id="Grupo_1099281" data-name="Grupo 1099281" clip-path="url(#clip-path)">
          <path id="Trazado_873375" data-name="Trazado 873375" d="M74.8,9.1c-4.139,0-6.28-2.03-8.17-3.821-1.855-1.756-3.452-3.274-6.792-3.274s-4.937,1.517-6.792,3.274C51.161,7.072,49.023,9.1,44.881,9.1s-6.28-2.03-8.169-3.821C34.857,3.525,33.26,2.007,29.92,2.007s-4.937,1.517-6.789,3.274C21.241,7.072,19.1,9.1,14.962,9.1S8.679,7.072,6.789,5.281C4.937,3.525,3.34,2.007,0,2.007V0C4.139,0,6.28,2.033,8.17,3.821c1.855,1.759,3.452,3.274,6.792,3.274S19.9,5.58,21.75,3.824C23.637,2.033,25.781,0,29.92,0s6.283,2.033,8.17,3.821c1.855,1.759,3.452,3.274,6.792,3.274s4.937-1.514,6.792-3.274C53.56,2.033,55.7,0,59.843,0s6.283,2.033,8.17,3.821C69.867,5.58,71.464,7.094,74.8,7.094S79.742,5.58,81.6,3.821C83.483,2.033,85.624,0,89.766,0V2.007c-3.34,0-4.937,1.517-6.792,3.274C81.084,7.072,78.943,9.1,74.8,9.1" transform="translate(2.453 32.43)" fill="#efb499"/>
          <path id="Trazado_873376" data-name="Trazado 873376" d="M74.8,9.1c-4.139,0-6.283-2.03-8.17-3.824-1.855-1.756-3.452-3.27-6.792-3.27s-4.937,1.514-6.792,3.27C51.164,7.072,49.023,9.1,44.881,9.1s-6.283-2.03-8.17-3.824c-1.855-1.756-3.452-3.27-6.792-3.27s-4.937,1.517-6.789,3.27C21.241,7.072,19.1,9.1,14.962,9.1S8.679,7.072,6.789,5.278C4.937,3.522,3.34,2.007,0,2.007V0C4.139,0,6.283,2.03,8.17,3.821c1.855,1.759,3.452,3.274,6.792,3.274S19.9,5.58,21.75,3.821C23.637,2.03,25.781,0,29.92,0S36.2,2.03,38.093,3.821c1.852,1.759,3.449,3.274,6.789,3.274s4.937-1.514,6.792-3.274C53.56,2.03,55.7,0,59.843,0s6.283,2.03,8.17,3.821C69.867,5.58,71.464,7.094,74.8,7.094S79.742,5.58,81.6,3.821C83.486,2.03,85.627,0,89.769,0V2.007c-3.34,0-4.94,1.517-6.8,3.27C81.084,7.072,78.943,9.1,74.8,9.1" transform="translate(1.635 21.62)" fill="#efb499"/>
          <path id="Trazado_873377" data-name="Trazado 873377" d="M74.8,9.1c-4.139,0-6.283-2.03-8.169-3.824-1.855-1.756-3.452-3.27-6.792-3.27s-4.937,1.514-6.792,3.27C51.164,7.072,49.02,9.1,44.881,9.1s-6.283-2.03-8.17-3.824c-1.855-1.756-3.452-3.27-6.792-3.27s-4.937,1.517-6.789,3.27C21.241,7.072,19.1,9.1,14.962,9.1S8.678,7.072,6.789,5.278C4.937,3.522,3.34,2.007,0,2.007V0C4.139,0,6.283,2.03,8.169,3.821c1.851,1.759,3.452,3.274,6.792,3.274S19.9,5.58,21.75,3.821C23.637,2.03,25.781,0,29.92,0S36.2,2.03,38.093,3.821c1.852,1.759,3.449,3.274,6.789,3.274s4.937-1.514,6.792-3.274C53.56,2.03,55.7,0,59.843,0s6.283,2.03,8.17,3.821C69.867,5.58,71.464,7.094,74.8,7.094S79.742,5.58,81.6,3.821C83.486,2.03,85.624,0,89.769,0V2.007c-3.34,0-4.941,1.517-6.8,3.27C81.084,7.072,78.943,9.1,74.8,9.1" transform="translate(0.818 10.81)" fill="#efb499"/>
          <path id="Trazado_873378" data-name="Trazado 873378" d="M74.8,9.1c-4.139,0-6.28-2.03-8.17-3.821-1.855-1.756-3.452-3.27-6.792-3.27s-4.937,1.514-6.789,3.27C51.164,7.069,49.023,9.1,44.881,9.1s-6.28-2.03-8.169-3.821c-1.855-1.756-3.452-3.27-6.792-3.27s-4.937,1.514-6.789,3.267C21.245,7.069,19.1,9.1,14.962,9.1S8.678,7.069,6.789,5.278C4.937,3.522,3.34,2.007,0,2.007V0C4.139,0,6.283,2.03,8.17,3.821c1.855,1.756,3.452,3.27,6.792,3.27S19.9,5.577,21.75,3.821C23.64,2.03,25.781,0,29.92,0s6.28,2.03,8.173,3.821c1.852,1.756,3.449,3.27,6.789,3.27s4.937-1.514,6.792-3.27C53.563,2.03,55.7,0,59.843,0s6.28,2.03,8.17,3.821c1.855,1.756,3.452,3.27,6.792,3.27s4.937-1.514,6.792-3.27C83.486,2.03,85.627,0,89.769,0V2.007c-3.344,0-4.941,1.514-6.8,3.27C81.084,7.069,78.943,9.1,74.8,9.1" transform="translate(0 0.003)" fill="#efb499"/>
        </g>
      </g>
    </g>
    <g id="Grupo_1117088" data-name="Grupo 1117088" transform="translate(665.021 2316)">
      <path id="Trazado_903675" data-name="Trazado 903675" d="M88.1,151.435A19.418,19.418,0,1,0,68.68,170.9,19.444,19.444,0,0,0,88.1,151.435Zm0,0" transform="translate(-43.484 -116.488)" fill="#97c9e8"/>
      <path id="Trazado_903676" data-name="Trazado 903676" d="M192.76,131.965a19.525,19.525,0,0,0-2.932.221,19.48,19.48,0,0,1,0,38.5,19.467,19.467,0,1,0,2.932-38.718Zm0,0" transform="translate(-167.564 -116.488)" fill="#60b6ff"/>
      <g id="Grupo_1117017" data-name="Grupo 1117017" transform="translate(5.778 15.516)">
        <path id="Trazado_903677" data-name="Trazado 903677" d="M162.232,139.823c-2.991,1.874-5.235,4.874-3.552,8.248s5.422,2.062,8.88,1.593.841,10.216,2.9,12.84,7.852-2.625,7.291-6c-.83-5-1.122-6.748,5.609-10.31l.018-.006a19.44,19.44,0,0,0-17.4-13.894v.029s-.748,5.624-3.739,7.5Zm0,0" transform="translate(-145.338 -132.296)" fill="#baeb6c"/>
        <path id="Trazado_903678" data-name="Trazado 903678" d="M318.566,168.6l0,0Zm0,0" transform="translate(-286.982 -164.34)" fill="#baeb6c"/>
        <path id="Trazado_903679" data-name="Trazado 903679" d="M338.809,187.961h0Zm0,0" transform="translate(-304.851 -181.433)" fill="#baeb6c"/>
        <path id="Trazado_903680" data-name="Trazado 903680" d="M55.78,255.719c-.9-1.37,1.589-4.592,2.15-7.029s-2.8-2.249-3.833-3.093-2.43-4.5-3.459-5.342l-.164-.13a19.525,19.525,0,0,0,6.7,22.47l.006-.408a8.962,8.962,0,0,0-1.4-6.467Zm0,0" transform="translate(-49.262 -227.479)" fill="#baeb6c"/>
        <path id="Trazado_903681" data-name="Trazado 903681" d="M313.383,338.179c0-.024-.008-.048-.012-.073a19.376,19.376,0,0,1-1.614,4.274A5.676,5.676,0,0,0,313.383,338.179Zm0,0" transform="translate(-280.972 -313.968)" fill="#baeb6c"/>
      </g>
      <path id="Trazado_903682" data-name="Trazado 903682" d="M223.513,132.3v.029s-.063.47-.223,1.182a19.477,19.477,0,0,1,12.48,16.431c.858-1.174,2.428-2.312,5.13-3.742l.018-.006a19.441,19.441,0,0,0-17.4-13.894Zm0,0" transform="translate(-197.101 -116.781)" fill="#96d629"/>
      <path id="Trazado_903683" data-name="Trazado 903683" d="M54.552,29.014C45.161,27.421,39.336,15.6,39.336,15.6s9.4-9.24,18.79-7.647S73.341,21.367,73.341,21.367,63.942,30.607,54.552,29.014Zm0,0" transform="translate(-34.722 -6.855)" fill="#49cb5c"/>
      <path id="Trazado_903684" data-name="Trazado 903684" d="M159.552,7.956a14.577,14.577,0,0,0-5.314.133c9,2.02,14.548,13.283,14.548,13.283s-6.153,6.047-13.476,7.513c.221.05.443.1.668.134,9.39,1.593,18.789-7.647,18.789-7.647S168.943,9.549,159.552,7.956Zm0,0" transform="translate(-136.149 -6.86)" fill="#07b128"/>
      <path id="Trazado_903685" data-name="Trazado 903685" d="M378.1,31.116c2.519-5.961,11.247-7.968,11.247-7.968s4.644,7.658,2.125,13.618-11.247,7.967-11.247,7.967-4.644-7.657-2.125-13.618Zm0,0" transform="translate(-333.097 -20.433)" fill="#49cb5c"/>
      <path id="Trazado_903686" data-name="Trazado 903686" d="M404.765,23.148a23.354,23.354,0,0,0-4.335,1.581c1.205,2.554,3.117,7.737,1.3,12.037-1.318,3.118-4.335,5.154-6.913,6.387.465.986.826,1.581.826,1.581s8.728-2.007,11.247-7.967-2.125-13.618-2.125-13.618Zm0,0" transform="translate(-348.512 -20.433)" fill="#07b128"/>
      <path id="Trazado_903687" data-name="Trazado 903687" d="M59.1,7a24.159,24.159,0,0,0-2.093-4.764.9.9,0,0,0-.949-.4,24.181,24.181,0,0,0-4.874,1.819c-3.458,1.726-5.873,4.031-6.986,6.663a12.907,12.907,0,0,0-.4,7.834,24.951,24.951,0,0,0-4.69-4.082,36.329,36.329,0,0,0-4.076-6.248.88.88,0,0,0-1.365,1.11A35.191,35.191,0,0,1,36.907,13.7l-8.013-1.562L21.281,1.757a12.434,12.434,0,0,1,2.219.227,15.188,15.188,0,0,1,6.871,3.542.88.88,0,0,0,1.141-1.339A16.922,16.922,0,0,0,23.839.257c-4.031-.789-8.731.246-13.6,3A35.1,35.1,0,0,0,4.092,7.646a.931.931,0,0,0-.1,1.208,35.9,35.9,0,0,0,3.945,6.193,27.509,27.509,0,0,0,4.158,4.274q-.614.515-1.194,1.08A20.336,20.336,0,0,0,17.476,53.78a.88.88,0,0,0,.662-1.63,18.571,18.571,0,0,1-3.805-2.093,9.911,9.911,0,0,0-1.494-6.938c-.279-.434.555-2.14,1.053-3.159A16.519,16.519,0,0,0,15.184,36.8a2.407,2.407,0,0,0-.856-2.637,6.492,6.492,0,0,0-2.091-.927,4.491,4.491,0,0,1-1.149-.45A11.705,11.705,0,0,1,9.6,30.365a15.046,15.046,0,0,0-1.608-2.642,18.706,18.706,0,0,1,5.553-7.316,15.382,15.382,0,0,0,7.412,2.754c-3.109,2.409-4.114,5.485-2.677,8.44,1.679,3.45,5.133,2.9,8.182,2.413.527-.084,1.073-.171,1.6-.236.2-.025.255.029.295.064.667.594.648,3.43.634,5.5-.02,2.864-.038,5.569,1.029,6.959a2.685,2.685,0,0,0,2.209,1.07,4.437,4.437,0,0,0,1.737-.393c2.653-1.136,5.411-4.556,4.99-7.261-.368-2.365-.611-3.928-.038-5.188.531-1.166,1.812-2.245,4.337-3.622A18.575,18.575,0,0,1,23.064,53.393a.88.88,0,0,0-.192,1.749,20.447,20.447,0,0,0,16.465-5.675A20.323,20.323,0,0,0,36.207,17.9c1.162-.829,2.028-1.545,2.508-1.961A23.356,23.356,0,1,1,2.078,31.129a.88.88,0,0,0-1.735-.287A25.108,25.108,0,0,0,21.025,59.706a25.427,25.427,0,0,0,4.145.341A25.124,25.124,0,0,0,48.147,24.912a25.318,25.318,0,0,0,4.056-1.6c3.457-1.726,5.873-4.031,6.985-6.663S60.27,10.68,59.1,7ZM8.042,31.186a10.952,10.952,0,0,0,1.917,2.952,5.041,5.041,0,0,0,1.761.782c1.719.529,1.919.788,1.754,1.468a15.363,15.363,0,0,1-1.162,2.8c-.908,1.859-1.767,3.614-.953,4.882a8.365,8.365,0,0,1,1.331,4.667,18.749,18.749,0,0,1-5.422-18.97c.259.443.531.959.774,1.419ZM50.6,13.9,48.1,7.841a16.464,16.464,0,0,1,3.83-2.6,23.5,23.5,0,0,1,2.779-1.17Zm5.731-9.143a23.515,23.515,0,0,1,1.1,2.812,16.816,16.816,0,0,1,.8,4.241l-5.859,2.417ZM45.816,11A8.358,8.358,0,0,1,46.8,9.294l2.846,6.9L47.09,22.3a23.4,23.4,0,0,1-1.14-2.9c-.719-2.274-1.326-5.578-.134-8.4Zm5.635,10.723a23.4,23.4,0,0,1-2.692,1.139l2.65-6.336,6.746-2.784a8.5,8.5,0,0,1-.588,2.223c-1.192,2.82-3.983,4.688-6.116,5.757Zm-31.719-.5c-.311-.061-.618-.135-.92-.22l9.736-7.137,8.016,1.563c-2.92,2.3-10.027,7.127-16.832,5.794Zm-8.9-5.5A34.252,34.252,0,0,1,6.35,9.539l10.2,1.989Zm1.8-11.736L16.9,9.8,6.637,7.8a34.655,34.655,0,0,1,6-3.82ZM19.449,10.3,14.275,3.242a19.786,19.786,0,0,1,4.917-1.361l7.158,9.764ZM18.9,11.986l7.3,1.422-9.364,6.864a18.2,18.2,0,0,1-4.745-3.291ZM42.771,29.164c-3.171,1.69-4.724,3.017-5.461,4.636-.791,1.738-.5,3.6-.1,6.187.237,1.523-1.573,4.358-3.944,5.374-.877.376-1.5.331-1.858-.132-.7-.909-.68-3.663-.665-5.875.021-3.06.039-5.7-1.224-6.827a2.074,2.074,0,0,0-1.68-.5c-.553.069-1.114.158-1.656.245-3.233.515-5.268.722-6.323-1.445-1.708-3.51,1.75-6.11,3.315-7.065a5.569,5.569,0,0,0,.89-.678,25.576,25.576,0,0,0,10.546-4.109,18.672,18.672,0,0,1,8.16,10.186Zm0,0" transform="translate(0)"/>
    </g>
  </g>
</svg>
