<svg xmlns="http://www.w3.org/2000/svg" xmlns:xlink="http://www.w3.org/1999/xlink" width="121" height="121" viewBox="0 0 121 121">
  <defs>
    <clipPath id="clip-path">
      <rect id="Rectángulo_400938" data-name="Rectángulo 400938" width="121" height="121" transform="translate(0 0)" fill="none"/>
    </clipPath>
    <clipPath id="clip-path-2">
      <rect id="Rectángulo_401073" data-name="Rectángulo 401073" width="92.219" height="41.532" fill="#efb499"/>
    </clipPath>
  </defs>
  <g id="Grupo_1099541" data-name="Grupo 1099541" transform="translate(11109.621 9471.442)">
    <g id="Grupo_1099528" data-name="Grupo 1099528" transform="translate(-11497.289 -15484.442)">
      <rect id="Rectángulo_401103" data-name="Rectángulo 401103" width="121" height="121" transform="translate(387.668 6013)" fill="none"/>
      <g id="Grupo_1099348" data-name="Grupo 1099348" transform="translate(387.668 6013)">
        <g id="Grupo_1099282" data-name="Grupo 1099282">
          <g id="Grupo_1099281" data-name="Grupo 1099281" clip-path="url(#clip-path-2)">
            <path id="Trazado_873375" data-name="Trazado 873375" d="M74.8,9.1c-4.139,0-6.28-2.03-8.17-3.821-1.855-1.756-3.452-3.274-6.792-3.274s-4.937,1.517-6.792,3.274C51.161,7.072,49.023,9.1,44.881,9.1s-6.28-2.03-8.169-3.821C34.857,3.525,33.26,2.007,29.92,2.007s-4.937,1.517-6.789,3.274C21.241,7.072,19.1,9.1,14.962,9.1S8.679,7.072,6.789,5.281C4.937,3.525,3.34,2.007,0,2.007V0C4.139,0,6.28,2.033,8.17,3.821c1.855,1.759,3.452,3.274,6.792,3.274S19.9,5.58,21.75,3.824C23.637,2.033,25.781,0,29.92,0s6.283,2.033,8.17,3.821c1.855,1.759,3.452,3.274,6.792,3.274s4.937-1.514,6.792-3.274C53.56,2.033,55.7,0,59.843,0s6.283,2.033,8.17,3.821C69.867,5.58,71.464,7.094,74.8,7.094S79.742,5.58,81.6,3.821C83.483,2.033,85.624,0,89.766,0V2.007c-3.34,0-4.937,1.517-6.792,3.274C81.084,7.072,78.943,9.1,74.8,9.1" transform="translate(2.453 32.43)" fill="#efb499"/>
            <path id="Trazado_873376" data-name="Trazado 873376" d="M74.8,9.1c-4.139,0-6.283-2.03-8.17-3.824-1.855-1.756-3.452-3.27-6.792-3.27s-4.937,1.514-6.792,3.27C51.164,7.072,49.023,9.1,44.881,9.1s-6.283-2.03-8.17-3.824c-1.855-1.756-3.452-3.27-6.792-3.27s-4.937,1.517-6.789,3.27C21.241,7.072,19.1,9.1,14.962,9.1S8.679,7.072,6.789,5.278C4.937,3.522,3.34,2.007,0,2.007V0C4.139,0,6.283,2.03,8.17,3.821c1.855,1.759,3.452,3.274,6.792,3.274S19.9,5.58,21.75,3.821C23.637,2.03,25.781,0,29.92,0S36.2,2.03,38.093,3.821c1.852,1.759,3.449,3.274,6.789,3.274s4.937-1.514,6.792-3.274C53.56,2.03,55.7,0,59.843,0s6.283,2.03,8.17,3.821C69.867,5.58,71.464,7.094,74.8,7.094S79.742,5.58,81.6,3.821C83.486,2.03,85.627,0,89.769,0V2.007c-3.34,0-4.94,1.517-6.8,3.27C81.084,7.072,78.943,9.1,74.8,9.1" transform="translate(1.635 21.62)" fill="#efb499"/>
            <path id="Trazado_873377" data-name="Trazado 873377" d="M74.8,9.1c-4.139,0-6.283-2.03-8.169-3.824-1.855-1.756-3.452-3.27-6.792-3.27s-4.937,1.514-6.792,3.27C51.164,7.072,49.02,9.1,44.881,9.1s-6.283-2.03-8.17-3.824c-1.855-1.756-3.452-3.27-6.792-3.27s-4.937,1.517-6.789,3.27C21.241,7.072,19.1,9.1,14.962,9.1S8.678,7.072,6.789,5.278C4.937,3.522,3.34,2.007,0,2.007V0C4.139,0,6.283,2.03,8.169,3.821c1.851,1.759,3.452,3.274,6.792,3.274S19.9,5.58,21.75,3.821C23.637,2.03,25.781,0,29.92,0S36.2,2.03,38.093,3.821c1.852,1.759,3.449,3.274,6.789,3.274s4.937-1.514,6.792-3.274C53.56,2.03,55.7,0,59.843,0s6.283,2.03,8.17,3.821C69.867,5.58,71.464,7.094,74.8,7.094S79.742,5.58,81.6,3.821C83.486,2.03,85.624,0,89.769,0V2.007c-3.34,0-4.941,1.517-6.8,3.27C81.084,7.072,78.943,9.1,74.8,9.1" transform="translate(0.818 10.81)" fill="#efb499"/>
            <path id="Trazado_873378" data-name="Trazado 873378" d="M74.8,9.1c-4.139,0-6.28-2.03-8.17-3.821-1.855-1.756-3.452-3.27-6.792-3.27s-4.937,1.514-6.789,3.27C51.164,7.069,49.023,9.1,44.881,9.1s-6.28-2.03-8.169-3.821c-1.855-1.756-3.452-3.27-6.792-3.27s-4.937,1.514-6.789,3.267C21.245,7.069,19.1,9.1,14.962,9.1S8.678,7.069,6.789,5.278C4.937,3.522,3.34,2.007,0,2.007V0C4.139,0,6.283,2.03,8.17,3.821c1.855,1.756,3.452,3.27,6.792,3.27S19.9,5.577,21.75,3.821C23.64,2.03,25.781,0,29.92,0s6.28,2.03,8.173,3.821c1.852,1.756,3.449,3.27,6.789,3.27s4.937-1.514,6.792-3.27C53.563,2.03,55.7,0,59.843,0s6.28,2.03,8.17,3.821c1.855,1.756,3.452,3.27,6.792,3.27s4.937-1.514,6.792-3.27C83.486,2.03,85.627,0,89.769,0V2.007c-3.344,0-4.941,1.514-6.8,3.27C81.084,7.069,78.943,9.1,74.8,9.1" transform="translate(0 0.003)" fill="#efb499"/>
          </g>
        </g>
      </g>
      <circle id="Elipse_11504" data-name="Elipse 11504" cx="50.5" cy="50.5" r="50.5" transform="translate(402.668 6031)" fill="#ffce73"/>
      <circle id="Elipse_11503" data-name="Elipse 11503" cx="52.5" cy="52.5" r="52.5" transform="translate(395.668 6021)" fill="#f3f9ff"/>
    </g>
    <path id="Trazado_873477" data-name="Trazado 873477" d="M45.567,54.042H26.659a1.308,1.308,0,0,1,0-2.616H45.551A1.308,1.308,0,0,1,45.567,54.042ZM87.355,78.715a2.79,2.79,0,0,1-2.018,3.359L80.67,83.268a2.777,2.777,0,0,1-3.359-1.986Q75.253,73.241,73.226,65.2A2.771,2.771,0,0,1,74.5,62.164l-1.6-6.313a17.1,17.1,0,0,1-2.228-.016c-.065,1.776.226,6.652-.307,8.3a9.865,9.865,0,0,1-9.559,7.411H18.182a9.9,9.9,0,0,1-9.882-9.9V59.807A1.3,1.3,0,0,1,9.608,58.5H19.716V13.207A12.194,12.194,0,0,1,31.907,1H76.859a9.132,9.132,0,0,1,8.9,9.123v8.09a2.446,2.446,0,0,1-2.438,2.438H70.659v2.89C84.174,22.491,92.619,36.313,86,48A15.751,15.751,0,0,1,79.1,54.3l1.6,6.3a2.735,2.735,0,0,1,2.567,2.083C84.626,68.009,86,73.37,87.355,78.715Zm-16.7-60.68H83.14V10.123a6.466,6.466,0,0,0-6.346-6.507,6.269,6.269,0,0,0-6.136,6.233ZM54.06,68.946a10.109,10.109,0,0,1-3.181-7.815c-7.185,0-33.262,0-39.979-.016a7.336,7.336,0,0,0,7.282,7.831Zm13.983-13.5c-16.05-3.956-16.389-27.789,0-31.535V9.848a8.809,8.809,0,0,1,2.567-6.233h-38.7a9.592,9.592,0,0,0-9.591,9.591V58.531H52.2a1.3,1.3,0,0,1,1.308,1.308v1.55a7.591,7.591,0,0,0,5.781,7.428A7.3,7.3,0,0,0,67.833,63.5c.4-1.276.145-6.652.21-8.057Zm15.695-8.768c5.377-9.478-.856-20.636-11.836-20.6A13.2,13.2,0,0,0,58.468,40.14C59.066,53.994,76.779,58.047,83.738,46.679Zm-8.219,8.929,1.469,5.781,1.13-.291-1.469-5.781A8.27,8.27,0,0,1,75.519,55.608Zm9.3,23.752c-1.356-5.361-2.745-10.705-4.1-16.066-.032-.242-.484-.016-.694.032-.484.113-3.6.92-4.15,1.05-.1.032-.145.1-.129.178,1.4,5.377,2.664,10.835,4.166,16.147a.107.107,0,0,0,.1.016l4.7-1.195a.121.121,0,0,0,.113-.161ZM71.967,50.845A11.066,11.066,0,0,1,60.906,40.091a10.824,10.824,0,0,1,9.155-11.416A11.442,11.442,0,0,1,81.429,33.39C86.208,40.673,80.993,50.974,71.967,50.845Zm7.282-16.018c-2.6-4.053-9.22-4.957-12.885-1.728-4.134,3.278-3.633,10.754.727,13.628A8.681,8.681,0,0,0,79.249,34.828Zm-32.374,0V41.3a1.3,1.3,0,0,1-1.308,1.308H39.092A1.3,1.3,0,0,1,37.784,41.3V34.828a1.3,1.3,0,0,1,1.308-1.308h6.475A1.313,1.313,0,0,1,46.875,34.828Zm-2.616,1.308H40.4v3.859h3.859ZM75.842,55.528a.059.059,0,0,0,.048-.016A.059.059,0,0,1,75.842,55.528ZM58.662,19.375H65.3a1.308,1.308,0,0,0,0-2.616H59.227L56.3,13.691a1.345,1.345,0,0,0-1.889,0l-5.49,5.764L43.08,10.543a1.3,1.3,0,0,0-2.277.194L35.491,22.766l-2.083-5.183a1.3,1.3,0,0,0-1.211-.823h-6.33a1.308,1.308,0,0,0,0,2.616h5.458l2.923,7.234a1.323,1.323,0,0,0,1.195.823,1.284,1.284,0,0,0,1.211-.775l5.587-12.675,5.441,8.283a1.305,1.305,0,0,0,2.035.178L55.4,16.469l2.374,2.487a1.073,1.073,0,0,0,.888.42Zm-32,29.161H36.25a1.308,1.308,0,0,0,0-2.616H26.659A1.308,1.308,0,0,0,26.659,48.536Zm7.783-13.709V41.3a1.3,1.3,0,0,1-1.308,1.308H26.659A1.3,1.3,0,0,1,25.351,41.3V34.828a1.3,1.3,0,0,1,1.308-1.308h6.475A1.3,1.3,0,0,1,34.442,34.828Zm-2.616,1.308H27.967v3.859h3.859Z" transform="translate(-11097.925 -9453.123)" fill="#7d3a1b"/>
  </g>
</svg>
