<svg xmlns="http://www.w3.org/2000/svg" xmlns:xlink="http://www.w3.org/1999/xlink" width="145" height="145" viewBox="0 0 145 145">
  <defs>
    <clipPath id="clip-path">
      <rect id="Rectángulo_400938" data-name="Rectángulo 400938" width="145" height="145" transform="translate(0 -0.281)" fill="none"/>
    </clipPath>
    <clipPath id="clip-path-2">
      <rect id="Rectángulo_401073" data-name="Rectángulo 401073" width="110.228" height="49.642" fill="#7d3a1b"/>
    </clipPath>
  </defs>
  <g id="Grupo_1099410" data-name="Grupo 1099410" transform="translate(-175 -9540.719)">
    <g id="Grupo_1099404" data-name="Grupo 1099404" transform="translate(175 9541)">
      <g id="Grupo_1099379" data-name="Grupo 1099379" transform="translate(0 0)">
        <rect id="Rectángulo_401103" data-name="Rectángulo 401103" width="145" height="145" transform="translate(0 -0.281)" fill="none"/>
        <g id="Grupo_1099348" data-name="Grupo 1099348" transform="translate(0.045 0.045)">
          <g id="Grupo_1099282" data-name="Grupo 1099282">
            <g id="Grupo_1099281" data-name="Grupo 1099281" clip-path="url(#clip-path-2)">
              <path id="Trazado_873375" data-name="Trazado 873375" d="M89.413,10.879c-4.947,0-7.506-2.426-9.765-4.567C77.431,4.213,75.522,2.4,71.529,2.4s-5.9,1.814-8.118,3.913c-2.259,2.141-4.814,4.567-9.765,4.567S46.14,8.453,43.881,6.312C41.664,4.213,39.755,2.4,35.763,2.4s-5.9,1.814-8.114,3.913c-2.259,2.141-4.818,4.567-9.765,4.567s-7.51-2.426-9.769-4.567C5.9,4.213,3.993,2.4,0,2.4V0C4.947,0,7.506,2.43,9.765,4.567c2.217,2.1,4.126,3.913,8.118,3.913S23.785,6.67,26,4.571C28.253,2.43,30.816,0,35.763,0s7.51,2.43,9.765,4.567c2.217,2.1,4.126,3.913,8.118,3.913s5.9-1.81,8.118-3.913C64.019,2.43,66.582,0,71.529,0s7.51,2.43,9.765,4.567c2.217,2.1,4.126,3.913,8.118,3.913s5.9-1.81,8.118-3.913C99.786,2.43,102.345,0,107.3,0V2.4c-3.993,0-5.9,1.814-8.118,3.913-2.259,2.141-4.818,4.567-9.765,4.567" transform="translate(2.932 38.763)" fill="#7d3a1b"/>
              <path id="Trazado_873376" data-name="Trazado 873376" d="M89.413,10.879c-4.947,0-7.51-2.426-9.765-4.571C77.431,4.209,75.522,2.4,71.529,2.4s-5.9,1.81-8.118,3.909c-2.255,2.145-4.814,4.571-9.765,4.571s-7.51-2.426-9.765-4.571C41.664,4.209,39.755,2.4,35.763,2.4s-5.9,1.814-8.115,3.909c-2.259,2.145-4.818,4.571-9.765,4.571s-7.51-2.426-9.769-4.571C5.9,4.209,3.993,2.4,0,2.4V0C4.947,0,7.51,2.426,9.765,4.567c2.217,2.1,4.126,3.913,8.118,3.913S23.785,6.67,26,4.567C28.253,2.426,30.816,0,35.763,0s7.51,2.426,9.769,4.567c2.213,2.1,4.122,3.913,8.115,3.913s5.9-1.81,8.118-3.913C64.019,2.426,66.582,0,71.529,0s7.51,2.426,9.765,4.567c2.217,2.1,4.126,3.913,8.118,3.913s5.9-1.81,8.118-3.913C99.79,2.426,102.349,0,107.3,0V2.4c-3.993,0-5.905,1.814-8.122,3.909-2.259,2.145-4.818,4.571-9.765,4.571" transform="translate(1.955 25.842)" fill="#7d3a1b"/>
              <path id="Trazado_873377" data-name="Trazado 873377" d="M89.412,10.879c-4.947,0-7.51-2.426-9.765-4.571C77.431,4.209,75.522,2.4,71.529,2.4s-5.9,1.81-8.118,3.909c-2.255,2.145-4.818,4.571-9.765,4.571s-7.51-2.426-9.765-4.571C41.664,4.209,39.755,2.4,35.763,2.4s-5.9,1.814-8.115,3.909c-2.259,2.145-4.818,4.571-9.765,4.571s-7.51-2.426-9.769-4.571C5.9,4.209,3.993,2.4,0,2.4V0C4.947,0,7.51,2.426,9.765,4.567c2.213,2.1,4.126,3.913,8.118,3.913S23.785,6.67,26,4.567C28.253,2.426,30.816,0,35.763,0s7.51,2.426,9.769,4.567c2.213,2.1,4.122,3.913,8.115,3.913s5.9-1.81,8.118-3.913C64.019,2.426,66.582,0,71.529,0s7.51,2.426,9.765,4.567c2.217,2.1,4.126,3.913,8.118,3.913s5.9-1.81,8.118-3.913C99.79,2.426,102.345,0,107.3,0V2.4c-3.993,0-5.905,1.814-8.122,3.909-2.259,2.145-4.818,4.571-9.765,4.571" transform="translate(0.977 12.921)" fill="#7d3a1b"/>
              <path id="Trazado_873378" data-name="Trazado 873378" d="M89.413,10.875c-4.947,0-7.506-2.426-9.765-4.567C77.431,4.209,75.522,2.4,71.529,2.4s-5.9,1.81-8.115,3.909c-2.259,2.141-4.818,4.567-9.769,4.567S46.14,8.449,43.881,6.308C41.664,4.209,39.755,2.4,35.763,2.4s-5.9,1.81-8.115,3.905c-2.255,2.145-4.818,4.571-9.765,4.571s-7.51-2.426-9.769-4.567C5.9,4.209,3.993,2.4,0,2.4V0C4.947,0,7.51,2.426,9.765,4.567c2.217,2.1,4.126,3.909,8.118,3.909s5.9-1.81,8.115-3.909C28.257,2.426,30.816,0,35.763,0s7.506,2.426,9.769,4.567c2.213,2.1,4.122,3.909,8.115,3.909s5.9-1.81,8.118-3.909C64.023,2.426,66.582,0,71.529,0s7.506,2.426,9.765,4.567c2.217,2.1,4.126,3.909,8.118,3.909s5.9-1.81,8.118-3.909C99.79,2.426,102.349,0,107.3,0V2.4c-4,0-5.905,1.81-8.122,3.909-2.259,2.141-4.818,4.567-9.765,4.567" transform="translate(0 0.004)" fill="#7d3a1b"/>
            </g>
          </g>
        </g>
        <path id="Trazado_873425" data-name="Trazado 873425" d="M60.362,0A60.362,60.362,0,1,1,0,60.362,60.362,60.362,0,0,1,60.362,0Z" transform="translate(17.974 21.56)" fill="#efb499"/>
        <circle id="Elipse_11503" data-name="Elipse 11503" cx="63" cy="63" r="63" transform="translate(9 9.719)" fill="#fef7eb"/>
      </g>
    </g>
    <g id="Grupo_1099405" data-name="Grupo 1099405" transform="translate(206.234 9571.193)">
      <g id="Grupo_1099389" data-name="Grupo 1099389" transform="translate(0 0)">
        <rect id="Rectángulo_401104" data-name="Rectángulo 401104" width="81" height="83" transform="translate(-0.234 -0.475)" fill="none"/>
      </g>
      <g id="Grupo_1115082" data-name="Grupo 1115082" transform="translate(-17.315 5.518)">
        <path id="Trazado_900926" data-name="Trazado 900926" d="M76.307,34.877h4.954a2.033,2.033,0,0,0,2.031-2.031V27.892a2.033,2.033,0,0,0-2.031-2.031H76.307a2.033,2.033,0,0,0-2.031,2.031v4.954A2.033,2.033,0,0,0,76.307,34.877Zm.05-6.935h4.855V32.8H76.357Zm-.05,20.112h4.954a2.033,2.033,0,0,0,2.031-2.031V41.069a2.033,2.033,0,0,0-2.031-2.031H76.307a2.033,2.033,0,0,0-2.031,2.031v4.954A2.033,2.033,0,0,0,76.307,48.054Zm.05-6.935h4.855v4.855H76.357ZM62.171,34.877h4.954a2.033,2.033,0,0,0,2.031-2.031V27.892a2.033,2.033,0,0,0-2.031-2.031H62.171a2.033,2.033,0,0,0-2.031,2.031v4.954A2.033,2.033,0,0,0,62.171,34.877Zm.05-6.935h4.855V32.8H62.221ZM38.853,51.6H33.9a2.033,2.033,0,0,0-2.031,2.031v4.954A2.033,2.033,0,0,0,33.9,60.612h4.954a2.033,2.033,0,0,0,2.031-2.031V53.628A2.033,2.033,0,0,0,38.853,51.6Zm-.05,6.935H33.949V53.677H38.8Zm.05-32.671H33.9a2.033,2.033,0,0,0-2.031,2.031v4.954A2.033,2.033,0,0,0,33.9,34.877h4.954a2.033,2.033,0,0,0,2.031-2.031V27.892A2.033,2.033,0,0,0,38.853,25.861ZM38.8,32.8H33.949V27.942H38.8ZM62.171,47.745h4.954a2.033,2.033,0,0,0,2.031-2.031V40.76a2.033,2.033,0,0,0-2.031-2.031H62.171A2.033,2.033,0,0,0,60.14,40.76v4.954A2.033,2.033,0,0,0,62.171,47.745Zm.05-6.935h4.855v4.855H62.221Zm22.1-36.056H79.877V3.163A3.167,3.167,0,0,0,76.714,0h-.478a3.167,3.167,0,0,0-3.163,3.163v1.59H42.087V3.163A3.167,3.167,0,0,0,38.924,0h-.478a3.167,3.167,0,0,0-3.163,3.163v1.59H30.835a5.214,5.214,0,0,0-5.208,5.208V65.814a5.207,5.207,0,0,0,5.2,5.2h53.5a5.207,5.207,0,0,0,5.2-5.2V9.962a5.214,5.214,0,0,0-5.209-5.208Zm-9.171-1.59a1.084,1.084,0,0,1,1.083-1.083h.478A1.084,1.084,0,0,1,77.8,3.163v1.59H75.153Zm-37.79,0a1.084,1.084,0,0,1,1.083-1.083h.478a1.084,1.084,0,0,1,1.083,1.083v1.59H37.363V3.163Zm50.089,62.65a3.124,3.124,0,0,1-3.121,3.121h-53.5a3.124,3.124,0,0,1-3.121-3.121v-.007a5.181,5.181,0,0,0,3.128,1.047H73.012a5.174,5.174,0,0,0,3.683-1.526L87.453,54.57ZM75.633,63.448a4.449,4.449,0,0,0,.126-1.049V55.455a2.378,2.378,0,0,1,2.375-2.375h6.944a4.449,4.449,0,0,0,1.049-.126ZM87.453,19.62H43.127a1.04,1.04,0,0,0,0,2.081H87.453V48.625A2.378,2.378,0,0,1,85.078,51H78.134a4.46,4.46,0,0,0-4.455,4.455V62.4A2.378,2.378,0,0,1,71.3,64.774H30.835a3.131,3.131,0,0,1-3.128-3.128V21.7H38.966a1.04,1.04,0,0,0,0-2.081H27.707V9.962a3.131,3.131,0,0,1,3.128-3.128h4.448V9.893a3.167,3.167,0,0,0,3.163,3.163,1.04,1.04,0,0,0,0-2.081,1.084,1.084,0,0,1-1.083-1.083V6.834h35.71V9.893a3.167,3.167,0,0,0,3.163,3.163,1.04,1.04,0,0,0,0-2.081,1.084,1.084,0,0,1-1.083-1.083V6.834h9.171a3.131,3.131,0,0,1,3.128,3.128Zm-48.6,19.109H33.9a2.033,2.033,0,0,0-2.031,2.031v4.954A2.033,2.033,0,0,0,33.9,47.745h4.954a2.033,2.033,0,0,0,2.031-2.031V40.76A2.033,2.033,0,0,0,38.853,38.729Zm-.05,6.935H33.949V40.81H38.8Zm9.232-10.787h4.954a2.033,2.033,0,0,0,2.031-2.031V27.892a2.033,2.033,0,0,0-2.031-2.031H48.035A2.033,2.033,0,0,0,46,27.892v4.954A2.033,2.033,0,0,0,48.035,34.877Zm.05-6.935h4.855V32.8H48.085Zm14.135,30.59a1.04,1.04,0,0,0-2.079.05,2.033,2.033,0,0,0,2.031,2.031h4.954a2.033,2.033,0,0,0,2.031-2.031V53.628A2.033,2.033,0,0,0,67.125,51.6H62.171a2.033,2.033,0,0,0-2.031,2.031v1.429a1.04,1.04,0,0,0,2.081,0V53.677h4.855v4.855ZM48.035,47.745h4.954a2.033,2.033,0,0,0,2.031-2.031V40.76a2.033,2.033,0,0,0-2.031-2.031H48.035A2.033,2.033,0,0,0,46,40.76v4.954A2.033,2.033,0,0,0,48.035,47.745Zm.05-6.935h4.855v4.855H48.085Zm-.05,19.8h4.954a2.033,2.033,0,0,0,2.031-2.031V53.628A2.033,2.033,0,0,0,52.989,51.6H48.035A2.033,2.033,0,0,0,46,53.628v4.954A2.033,2.033,0,0,0,48.035,60.612Zm.05-6.935h4.855v4.855H48.085Z" transform="translate(0 0)" fill="#7d3a1b"/>
      </g>
    </g>
  </g>
</svg>
