<svg xmlns="http://www.w3.org/2000/svg" xmlns:xlink="http://www.w3.org/1999/xlink" width="121" height="121" viewBox="0 0 121 121">
  <defs>
    <clipPath id="clip-path">
      <rect id="Rectángulo_400938" data-name="Rectángulo 400938" width="121" height="121" transform="translate(0 0)" fill="none"/>
    </clipPath>
    <clipPath id="clip-path-2">
      <rect id="Rectángulo_401073" data-name="Rectángulo 401073" width="92.219" height="41.532" fill="#efb499"/>
    </clipPath>
  </defs>
  <g id="Grupo_1117113" data-name="Grupo 1117113" transform="translate(-1096.039 -1687.388)">
    <g id="Grupo_1099376" data-name="Grupo 1099376" transform="translate(708.371 -4325.612)">
      <rect id="Rectángulo_401103" data-name="Rectángulo 401103" width="121" height="121" transform="translate(387.668 6013)" fill="none"/>
      <g id="Grupo_1099348" data-name="Grupo 1099348" transform="translate(387.668 6013)">
        <g id="Grupo_1099282" data-name="Grupo 1099282">
          <g id="Grupo_1099281" data-name="Grupo 1099281" clip-path="url(#clip-path-2)">
            <path id="Trazado_873375" data-name="Trazado 873375" d="M74.8,9.1c-4.139,0-6.28-2.03-8.17-3.821-1.855-1.756-3.452-3.274-6.792-3.274s-4.937,1.517-6.792,3.274C51.161,7.072,49.023,9.1,44.881,9.1s-6.28-2.03-8.169-3.821C34.857,3.525,33.26,2.007,29.92,2.007s-4.937,1.517-6.789,3.274C21.241,7.072,19.1,9.1,14.962,9.1S8.679,7.072,6.789,5.281C4.937,3.525,3.34,2.007,0,2.007V0C4.139,0,6.28,2.033,8.17,3.821c1.855,1.759,3.452,3.274,6.792,3.274S19.9,5.58,21.75,3.824C23.637,2.033,25.781,0,29.92,0s6.283,2.033,8.17,3.821c1.855,1.759,3.452,3.274,6.792,3.274s4.937-1.514,6.792-3.274C53.56,2.033,55.7,0,59.843,0s6.283,2.033,8.17,3.821C69.867,5.58,71.464,7.094,74.8,7.094S79.742,5.58,81.6,3.821C83.483,2.033,85.624,0,89.766,0V2.007c-3.34,0-4.937,1.517-6.792,3.274C81.084,7.072,78.943,9.1,74.8,9.1" transform="translate(2.453 32.43)" fill="#efb499"/>
            <path id="Trazado_873376" data-name="Trazado 873376" d="M74.8,9.1c-4.139,0-6.283-2.03-8.17-3.824-1.855-1.756-3.452-3.27-6.792-3.27s-4.937,1.514-6.792,3.27C51.164,7.072,49.023,9.1,44.881,9.1s-6.283-2.03-8.17-3.824c-1.855-1.756-3.452-3.27-6.792-3.27s-4.937,1.517-6.789,3.27C21.241,7.072,19.1,9.1,14.962,9.1S8.679,7.072,6.789,5.278C4.937,3.522,3.34,2.007,0,2.007V0C4.139,0,6.283,2.03,8.17,3.821c1.855,1.759,3.452,3.274,6.792,3.274S19.9,5.58,21.75,3.821C23.637,2.03,25.781,0,29.92,0S36.2,2.03,38.093,3.821c1.852,1.759,3.449,3.274,6.789,3.274s4.937-1.514,6.792-3.274C53.56,2.03,55.7,0,59.843,0s6.283,2.03,8.17,3.821C69.867,5.58,71.464,7.094,74.8,7.094S79.742,5.58,81.6,3.821C83.486,2.03,85.627,0,89.769,0V2.007c-3.34,0-4.94,1.517-6.8,3.27C81.084,7.072,78.943,9.1,74.8,9.1" transform="translate(1.635 21.62)" fill="#efb499"/>
            <path id="Trazado_873377" data-name="Trazado 873377" d="M74.8,9.1c-4.139,0-6.283-2.03-8.169-3.824-1.855-1.756-3.452-3.27-6.792-3.27s-4.937,1.514-6.792,3.27C51.164,7.072,49.02,9.1,44.881,9.1s-6.283-2.03-8.17-3.824c-1.855-1.756-3.452-3.27-6.792-3.27s-4.937,1.517-6.789,3.27C21.241,7.072,19.1,9.1,14.962,9.1S8.678,7.072,6.789,5.278C4.937,3.522,3.34,2.007,0,2.007V0C4.139,0,6.283,2.03,8.169,3.821c1.851,1.759,3.452,3.274,6.792,3.274S19.9,5.58,21.75,3.821C23.637,2.03,25.781,0,29.92,0S36.2,2.03,38.093,3.821c1.852,1.759,3.449,3.274,6.789,3.274s4.937-1.514,6.792-3.274C53.56,2.03,55.7,0,59.843,0s6.283,2.03,8.17,3.821C69.867,5.58,71.464,7.094,74.8,7.094S79.742,5.58,81.6,3.821C83.486,2.03,85.624,0,89.769,0V2.007c-3.34,0-4.941,1.517-6.8,3.27C81.084,7.072,78.943,9.1,74.8,9.1" transform="translate(0.818 10.81)" fill="#efb499"/>
            <path id="Trazado_873378" data-name="Trazado 873378" d="M74.8,9.1c-4.139,0-6.28-2.03-8.17-3.821-1.855-1.756-3.452-3.27-6.792-3.27s-4.937,1.514-6.789,3.27C51.164,7.069,49.023,9.1,44.881,9.1s-6.28-2.03-8.169-3.821c-1.855-1.756-3.452-3.27-6.792-3.27s-4.937,1.514-6.789,3.267C21.245,7.069,19.1,9.1,14.962,9.1S8.678,7.069,6.789,5.278C4.937,3.522,3.34,2.007,0,2.007V0C4.139,0,6.283,2.03,8.17,3.821c1.855,1.756,3.452,3.27,6.792,3.27S19.9,5.577,21.75,3.821C23.64,2.03,25.781,0,29.92,0s6.28,2.03,8.173,3.821c1.852,1.756,3.449,3.27,6.789,3.27s4.937-1.514,6.792-3.27C53.563,2.03,55.7,0,59.843,0s6.28,2.03,8.17,3.821c1.855,1.756,3.452,3.27,6.792,3.27s4.937-1.514,6.792-3.27C83.486,2.03,85.627,0,89.769,0V2.007c-3.344,0-4.941,1.514-6.8,3.27C81.084,7.069,78.943,9.1,74.8,9.1" transform="translate(0 0.003)" fill="#efb499"/>
          </g>
        </g>
      </g>
      <circle id="Elipse_11504" data-name="Elipse 11504" cx="50.5" cy="50.5" r="50.5" transform="translate(402.668 6031)" fill="#ffce73"/>
      <circle id="Elipse_11503" data-name="Elipse 11503" cx="52.5" cy="52.5" r="52.5" transform="translate(395.668 6021)" fill="#f3f9ff"/>
    </g>
    <g id="Grupo_1117123" data-name="Grupo 1117123" transform="translate(1064.91 1712.388)">
      <path id="Trazado_903767" data-name="Trazado 903767" d="M116.16,10.194h-2.338V7.856a2.195,2.195,0,0,0-2.192-2.192H97.689a2.194,2.194,0,0,0-1.918-1.133H79.739a5.59,5.59,0,0,0-10.977,0h-2.44a2.195,2.195,0,0,0-2.192,2.192v29.45a2.194,2.194,0,0,0,1.133,1.918V65.623a2.195,2.195,0,0,0,2.192,2.192h2.338v2.338a2.195,2.195,0,0,0,2.192,2.193H116.16a2.195,2.195,0,0,0,2.192-2.193V12.387A2.195,2.195,0,0,0,116.16,10.194ZM66.249,6.723a.073.073,0,0,1,.073-.073H68.66V16.918a5.591,5.591,0,1,0,11.181,0V12.387a3.325,3.325,0,1,0-6.65,0v2.265a1.06,1.06,0,0,0,2.12,0V12.387a1.206,1.206,0,1,1,2.411,0v4.531a3.471,3.471,0,1,1-6.942,0V5.595s0,0,0,0v0a3.471,3.471,0,0,1,6.776-1.057H74.25a1.06,1.06,0,1,0,0,2.12H95.771a.073.073,0,0,1,.073.073v29.45a.073.073,0,0,1-.073.073H66.321a.073.073,0,0,1-.073-.073Zm49.984,63.43a.073.073,0,0,1-.073.073H71.985a.073.073,0,0,1-.073-.073V67.815h29.717a3.3,3.3,0,0,0,2.351-.974l8.867-8.867a3.3,3.3,0,0,0,.974-2.351V18.05a1.06,1.06,0,1,0-2.12,0V55.5h-8a2.195,2.195,0,0,0-2.192,2.192v8H67.454a.073.073,0,0,1-.073-.073V38.366h28.39a2.195,2.195,0,0,0,2.192-2.192V7.783h13.665a.073.073,0,0,1,.073.073v5.663a1.06,1.06,0,1,0,2.12,0V12.314h2.338a.073.073,0,0,1,.073.073V70.154ZM103.627,64.2v-6.5a.073.073,0,0,1,.073-.073h6.5Z" fill="#7d3a1b"/>
      <path id="Trazado_903768" data-name="Trazado 903768" d="M201.463,106.329h5.663a1.06,1.06,0,0,0,0-2.12h-5.663a1.06,1.06,0,0,0,0,2.12Z" transform="translate(-117.018 -89.484)" fill="#7d3a1b"/>
      <path id="Trazado_903769" data-name="Trazado 903769" d="M201.463,146.411h5.663a1.06,1.06,0,0,0,0-2.12h-5.663a1.06,1.06,0,1,0,0,2.12Z" transform="translate(-117.018 -123.903)" fill="#7d3a1b"/>
      <path id="Trazado_903770" data-name="Trazado 903770" d="M113.286,186.49h18.123a1.06,1.06,0,1,0,0-2.119H113.286a1.06,1.06,0,1,0,0,2.119Z" transform="translate(-41.301 -158.319)" fill="#7d3a1b"/>
      <path id="Trazado_903771" data-name="Trazado 903771" d="M340,184.371h-2.265a1.06,1.06,0,1,0,0,2.119H340a1.06,1.06,0,1,0,0-2.119Z" transform="translate(-234.037 -158.319)" fill="#7d3a1b"/>
      <path id="Trazado_903772" data-name="Trazado 903772" d="M340,104.209h-2.265a1.06,1.06,0,0,0,0,2.12H340a1.06,1.06,0,0,0,0-2.12Z" transform="translate(-234.037 -89.484)" fill="#7d3a1b"/>
      <path id="Trazado_903773" data-name="Trazado 903773" d="M340,144.291h-2.265a1.06,1.06,0,0,0,0,2.12H340a1.06,1.06,0,0,0,0-2.12Z" transform="translate(-234.037 -123.903)" fill="#7d3a1b"/>
      <path id="Trazado_903774" data-name="Trazado 903774" d="M340,224.452h-2.265a1.06,1.06,0,1,0,0,2.12H340a1.06,1.06,0,1,0,0-2.12Z" transform="translate(-234.037 -192.737)" fill="#7d3a1b"/>
      <path id="Trazado_903775" data-name="Trazado 903775" d="M123.566,296.6H121.3a1.06,1.06,0,1,0,0,2.119h2.265a1.06,1.06,0,1,0,0-2.119Z" transform="translate(-48.183 -254.687)" fill="#7d3a1b"/>
      <path id="Trazado_903776" data-name="Trazado 903776" d="M123.566,376.758H121.3a1.06,1.06,0,1,0,0,2.12h2.265a1.06,1.06,0,0,0,0-2.12Z" transform="translate(-48.183 -323.522)" fill="#7d3a1b"/>
      <path id="Trazado_903777" data-name="Trazado 903777" d="M123.566,336.677H121.3a1.06,1.06,0,0,0,0,2.12h2.265a1.06,1.06,0,0,0,0-2.12Z" transform="translate(-48.183 -289.104)" fill="#7d3a1b"/>
      <path id="Trazado_903778" data-name="Trazado 903778" d="M202.334,296.6H177.415a1.06,1.06,0,1,0,0,2.119h24.919a1.06,1.06,0,1,0,0-2.119Z" transform="translate(-96.368 -254.687)" fill="#7d3a1b"/>
      <path id="Trazado_903779" data-name="Trazado 903779" d="M193.272,376.758H177.415a1.06,1.06,0,0,0,0,2.12h15.858a1.06,1.06,0,0,0,0-2.12Z" transform="translate(-96.368 -323.522)" fill="#7d3a1b"/>
      <path id="Trazado_903780" data-name="Trazado 903780" d="M202.334,336.677H177.415a1.06,1.06,0,0,0,0,2.12h24.919a1.06,1.06,0,0,0,0-2.12Z" transform="translate(-96.368 -289.104)" fill="#7d3a1b"/>
    </g>
  </g>
</svg>
