<svg xmlns="http://www.w3.org/2000/svg" xmlns:xlink="http://www.w3.org/1999/xlink" width="121" height="121" viewBox="0 0 121 121">
  <defs>
    <clipPath id="clip-path">
      <rect id="Rectángulo_400938" data-name="Rectángulo 400938" width="121" height="121" transform="translate(0 0)" fill="none"/>
    </clipPath>
    <clipPath id="clip-path-2">
      <rect id="Rectángulo_401073" data-name="Rectángulo 401073" width="92.219" height="41.532" fill="#fff"/>
    </clipPath>
  </defs>
  <g id="Grupo_1117003" data-name="Grupo 1117003" transform="translate(-1095.711 -1687.798)">
    <g id="Grupo_1099376" data-name="Grupo 1099376" transform="translate(708.043 -4325.202)">
      <rect id="Rectángulo_401103" data-name="Rectángulo 401103" width="121" height="121" transform="translate(387.668 6013)" fill="none"/>
      <g id="Grupo_1099348" data-name="Grupo 1099348" transform="translate(387.668 6013)">
        <g id="Grupo_1099282" data-name="Grupo 1099282">
          <g id="Grupo_1099281" data-name="Grupo 1099281" clip-path="url(#clip-path-2)">
            <path id="Trazado_873375" data-name="Trazado 873375" d="M74.8,9.1c-4.139,0-6.28-2.03-8.17-3.821-1.855-1.756-3.452-3.274-6.792-3.274s-4.937,1.517-6.792,3.274C51.161,7.072,49.023,9.1,44.881,9.1s-6.28-2.03-8.169-3.821C34.857,3.525,33.26,2.007,29.92,2.007s-4.937,1.517-6.789,3.274C21.241,7.072,19.1,9.1,14.962,9.1S8.679,7.072,6.789,5.281C4.937,3.525,3.34,2.007,0,2.007V0C4.139,0,6.28,2.033,8.17,3.821c1.855,1.759,3.452,3.274,6.792,3.274S19.9,5.58,21.75,3.824C23.637,2.033,25.781,0,29.92,0s6.283,2.033,8.17,3.821c1.855,1.759,3.452,3.274,6.792,3.274s4.937-1.514,6.792-3.274C53.56,2.033,55.7,0,59.843,0s6.283,2.033,8.17,3.821C69.867,5.58,71.464,7.094,74.8,7.094S79.742,5.58,81.6,3.821C83.483,2.033,85.624,0,89.766,0V2.007c-3.34,0-4.937,1.517-6.792,3.274C81.084,7.072,78.943,9.1,74.8,9.1" transform="translate(2.453 32.43)" fill="#fff"/>
            <path id="Trazado_873376" data-name="Trazado 873376" d="M74.8,9.1c-4.139,0-6.283-2.03-8.17-3.824-1.855-1.756-3.452-3.27-6.792-3.27s-4.937,1.514-6.792,3.27C51.164,7.072,49.023,9.1,44.881,9.1s-6.283-2.03-8.17-3.824c-1.855-1.756-3.452-3.27-6.792-3.27s-4.937,1.517-6.789,3.27C21.241,7.072,19.1,9.1,14.962,9.1S8.679,7.072,6.789,5.278C4.937,3.522,3.34,2.007,0,2.007V0C4.139,0,6.283,2.03,8.17,3.821c1.855,1.759,3.452,3.274,6.792,3.274S19.9,5.58,21.75,3.821C23.637,2.03,25.781,0,29.92,0S36.2,2.03,38.093,3.821c1.852,1.759,3.449,3.274,6.789,3.274s4.937-1.514,6.792-3.274C53.56,2.03,55.7,0,59.843,0s6.283,2.03,8.17,3.821C69.867,5.58,71.464,7.094,74.8,7.094S79.742,5.58,81.6,3.821C83.486,2.03,85.627,0,89.769,0V2.007c-3.34,0-4.94,1.517-6.8,3.27C81.084,7.072,78.943,9.1,74.8,9.1" transform="translate(1.635 21.62)" fill="#fff"/>
            <path id="Trazado_873377" data-name="Trazado 873377" d="M74.8,9.1c-4.139,0-6.283-2.03-8.169-3.824-1.855-1.756-3.452-3.27-6.792-3.27s-4.937,1.514-6.792,3.27C51.164,7.072,49.02,9.1,44.881,9.1s-6.283-2.03-8.17-3.824c-1.855-1.756-3.452-3.27-6.792-3.27s-4.937,1.517-6.789,3.27C21.241,7.072,19.1,9.1,14.962,9.1S8.678,7.072,6.789,5.278C4.937,3.522,3.34,2.007,0,2.007V0C4.139,0,6.283,2.03,8.169,3.821c1.851,1.759,3.452,3.274,6.792,3.274S19.9,5.58,21.75,3.821C23.637,2.03,25.781,0,29.92,0S36.2,2.03,38.093,3.821c1.852,1.759,3.449,3.274,6.789,3.274s4.937-1.514,6.792-3.274C53.56,2.03,55.7,0,59.843,0s6.283,2.03,8.17,3.821C69.867,5.58,71.464,7.094,74.8,7.094S79.742,5.58,81.6,3.821C83.486,2.03,85.624,0,89.769,0V2.007c-3.34,0-4.941,1.517-6.8,3.27C81.084,7.072,78.943,9.1,74.8,9.1" transform="translate(0.818 10.81)" fill="#fff"/>
            <path id="Trazado_873378" data-name="Trazado 873378" d="M74.8,9.1c-4.139,0-6.28-2.03-8.17-3.821-1.855-1.756-3.452-3.27-6.792-3.27s-4.937,1.514-6.789,3.27C51.164,7.069,49.023,9.1,44.881,9.1s-6.28-2.03-8.169-3.821c-1.855-1.756-3.452-3.27-6.792-3.27s-4.937,1.514-6.789,3.267C21.245,7.069,19.1,9.1,14.962,9.1S8.678,7.069,6.789,5.278C4.937,3.522,3.34,2.007,0,2.007V0C4.139,0,6.283,2.03,8.17,3.821c1.855,1.756,3.452,3.27,6.792,3.27S19.9,5.577,21.75,3.821C23.64,2.03,25.781,0,29.92,0s6.28,2.03,8.173,3.821c1.852,1.756,3.449,3.27,6.789,3.27s4.937-1.514,6.792-3.27C53.563,2.03,55.7,0,59.843,0s6.28,2.03,8.17,3.821c1.855,1.756,3.452,3.27,6.792,3.27s4.937-1.514,6.792-3.27C83.486,2.03,85.627,0,89.769,0V2.007c-3.344,0-4.941,1.514-6.8,3.27C81.084,7.069,78.943,9.1,74.8,9.1" transform="translate(0 0.003)" fill="#fff"/>
          </g>
        </g>
      </g>
      <circle id="Elipse_11504" data-name="Elipse 11504" cx="50.5" cy="50.5" r="50.5" transform="translate(402.668 6031)" fill="#fff"/>
      <circle id="Elipse_11503" data-name="Elipse 11503" cx="52.5" cy="52.5" r="52.5" transform="translate(395.668 6021)" fill="#09614d"/>
    </g>
    <g id="Grupo_1116999" data-name="Grupo 1116999" transform="translate(1121.69 1695.261)">
      <g id="Grupo_1116998" data-name="Grupo 1116998" transform="translate(0 23.501)">
        <path id="Trazado_903617" data-name="Trazado 903617" d="M63.581,74.315H60.4a3.47,3.47,0,0,0,.384-1.589V46.875a.953.953,0,0,0-1.906,0V72.726a1.59,1.59,0,0,1-1.588,1.588H7.75a1.59,1.59,0,0,1-1.588-1.588V39.7a1.59,1.59,0,0,1,1.588-1.588H33.03a2.181,2.181,0,0,0-.119,1.906H9.02a.953.953,0,0,0-.953.953V61.091a.953.953,0,1,0,1.906,0V41.922H25.619c-.13.519-.275,1.154-.344,1.644a.275.275,0,0,1-.136.2l-1.593.918a.276.276,0,0,1-.24.02c-.541-.218-1.314-.447-1.868-.6a2.188,2.188,0,0,0-2.478,1.011L18.1,46.6a2.183,2.183,0,0,0,.363,2.655c.409.4.993.953,1.453,1.311a.272.272,0,0,1,.1.215v1.833a.273.273,0,0,1-.1.215,19.522,19.522,0,0,0-1.453,1.311,2.183,2.183,0,0,0-.363,2.655l.861,1.488a2.187,2.187,0,0,0,2.478,1.011c.553-.153,1.327-.382,1.868-.6a.277.277,0,0,1,.239.02l1.593.918a.275.275,0,0,1,.136.2,19.476,19.476,0,0,0,.412,1.909A2.188,2.188,0,0,0,27.8,63.376h1.725a2.187,2.187,0,0,0,2.117-1.641,19.459,19.459,0,0,0,.412-1.909.276.276,0,0,1,.136-.2l1.594-.918a.276.276,0,0,1,.24-.02c.541.218,1.314.447,1.868.6a2.188,2.188,0,0,0,2.478-1.011l.861-1.488a2.183,2.183,0,0,0-.363-2.655,19.517,19.517,0,0,0-1.453-1.311.274.274,0,0,1-.1-.215V50.779a.273.273,0,0,1,.1-.215,19.523,19.523,0,0,0,1.453-1.311,2.183,2.183,0,0,0,.363-2.655l-.861-1.488A2.187,2.187,0,0,0,35.895,44.1c-.553.153-1.327.382-1.868.6a.278.278,0,0,1-.239-.02l-1.594-.918a.274.274,0,0,1-.136-.2c-.069-.49-.215-1.125-.344-1.644H34a2.187,2.187,0,0,0,2.38.857c.554-.154,1.327-.383,1.868-.6a.277.277,0,0,1,.239.02l1.593.918a.275.275,0,0,1,.136.2,19.514,19.514,0,0,0,.412,1.909,2.188,2.188,0,0,0,2.117,1.641h1.725a2.187,2.187,0,0,0,2.117-1.641A19.422,19.422,0,0,0,47,43.311a.275.275,0,0,1,.136-.2l1.593-.918a.277.277,0,0,1,.24-.02c.541.218,1.314.447,1.868.6a2.188,2.188,0,0,0,2.38-.857h1.853V70.5H9.974V65.2a.953.953,0,1,0-1.906,0v6.254a.953.953,0,0,0,.953.953h47a.953.953,0,0,0,.953-.953V40.968a.953.953,0,0,0-.953-.953H54.3a2.181,2.181,0,0,0-.119-1.906h3.108A1.59,1.59,0,0,1,58.88,39.7v3.135a.953.953,0,1,0,1.906,0V39.7A3.5,3.5,0,0,0,57.292,36.2H52.279a.281.281,0,0,1-.022-.107V34.264a.272.272,0,0,1,.1-.215c.46-.358,1.044-.911,1.453-1.311a2.183,2.183,0,0,0,.363-2.655L53.314,28.6a2.187,2.187,0,0,0-2.478-1.011c-.554.154-1.328.383-1.868.6a.278.278,0,0,1-.239-.02l-1.594-.918a.274.274,0,0,1-.136-.2,19.5,19.5,0,0,0-.412-1.909A2.188,2.188,0,0,0,44.469,23.5H42.745a2.187,2.187,0,0,0-2.117,1.641,19.452,19.452,0,0,0-.412,1.909.275.275,0,0,1-.136.2l-1.593.918a.276.276,0,0,1-.24.02c-.54-.218-1.314-.447-1.869-.6A2.188,2.188,0,0,0,33.9,28.6l-.861,1.488a2.183,2.183,0,0,0,.363,2.655c.409.4.993.953,1.453,1.311a.272.272,0,0,1,.1.215V36.1a.281.281,0,0,1-.022.107H7.749A3.5,3.5,0,0,0,4.256,39.7V72.727a3.471,3.471,0,0,0,.383,1.588H1.461A1.463,1.463,0,0,0,0,75.776v2.541a4.26,4.26,0,0,0,4.256,4.256H48.764a.953.953,0,0,0,0-1.906H4.256a2.353,2.353,0,0,1-2.35-2.35v-2.1H25.725v.572A2.48,2.48,0,0,0,28.2,79.269H36.84a2.48,2.48,0,0,0,2.477-2.477v-.572H63.137v2.1a2.353,2.353,0,0,1-2.35,2.35h-7.91a.953.953,0,1,0,0,1.906h7.91a4.261,4.261,0,0,0,4.256-4.256V75.776a1.463,1.463,0,0,0-1.461-1.461ZM29.8,42.133a17.233,17.233,0,0,1,.37,1.7,2.164,2.164,0,0,0,1.072,1.582l1.594.918a2.168,2.168,0,0,0,1.9.136,17.437,17.437,0,0,1,1.665-.532.282.282,0,0,1,.32.129l.861,1.488a.279.279,0,0,1-.047.339,17.265,17.265,0,0,1-1.291,1.17,2.163,2.163,0,0,0-.836,1.718v1.833a2.162,2.162,0,0,0,.836,1.718,17.275,17.275,0,0,1,1.291,1.17.279.279,0,0,1,.047.339l-.861,1.488a.283.283,0,0,1-.319.129,17.413,17.413,0,0,1-1.665-.532,2.167,2.167,0,0,0-1.9.136l-1.593.918A2.165,2.165,0,0,0,30.17,59.56h0a17.218,17.218,0,0,1-.37,1.7.282.282,0,0,1-.272.212H27.8a.282.282,0,0,1-.273-.212,17.232,17.232,0,0,1-.37-1.7,2.165,2.165,0,0,0-1.072-1.582L24.5,57.06a2.166,2.166,0,0,0-1.9-.136,17.437,17.437,0,0,1-1.665.532.281.281,0,0,1-.32-.129l-.861-1.488a.279.279,0,0,1,.047-.339,17.309,17.309,0,0,1,1.291-1.17,2.162,2.162,0,0,0,.836-1.718V50.779a2.162,2.162,0,0,0-.836-1.718,17.277,17.277,0,0,1-1.291-1.17.279.279,0,0,1-.047-.339l.861-1.488a.283.283,0,0,1,.319-.129,17.415,17.415,0,0,1,1.665.532,2.167,2.167,0,0,0,1.9-.136l1.593-.918a2.165,2.165,0,0,0,1.072-1.582,17.217,17.217,0,0,1,.37-1.7.282.282,0,0,1,.268-.212h1.731a.282.282,0,0,1,.27.212Zm4.935-10.757a.279.279,0,0,1-.047-.339l.861-1.488a.283.283,0,0,1,.319-.129,17.357,17.357,0,0,1,1.665.532,2.167,2.167,0,0,0,1.9-.136L41.03,28.9A2.165,2.165,0,0,0,42.1,27.317a17.186,17.186,0,0,1,.37-1.7.282.282,0,0,1,.272-.212h1.725a.282.282,0,0,1,.273.212,17.2,17.2,0,0,1,.37,1.7A2.164,2.164,0,0,0,46.184,28.9l1.594.918a2.166,2.166,0,0,0,1.9.135,17.418,17.418,0,0,1,1.665-.532.282.282,0,0,1,.32.129l.861,1.488a.279.279,0,0,1-.047.339,17.3,17.3,0,0,1-1.291,1.17,2.162,2.162,0,0,0-.837,1.718V36.1a2.162,2.162,0,0,0,.836,1.718,17.255,17.255,0,0,1,1.291,1.17.279.279,0,0,1,.047.339l-.861,1.488a.283.283,0,0,1-.319.129,17.415,17.415,0,0,1-1.665-.532,2.167,2.167,0,0,0-1.9.136l-1.593.918a2.165,2.165,0,0,0-1.072,1.582h0a17.218,17.218,0,0,1-.37,1.7.282.282,0,0,1-.272.212H42.745a.282.282,0,0,1-.273-.212,17.23,17.23,0,0,1-.37-1.7,2.165,2.165,0,0,0-1.072-1.582l-1.593-.918a2.166,2.166,0,0,0-1.9-.136,17.415,17.415,0,0,1-1.665.532.281.281,0,0,1-.32-.129l-.169-.292-.017-.029-.675-1.167a.279.279,0,0,1,.047-.339,17.327,17.327,0,0,1,1.291-1.17,2.162,2.162,0,0,0,.836-1.718V34.264a2.162,2.162,0,0,0-.836-1.718,17.266,17.266,0,0,1-1.291-1.17Zm2.676,45.416a.572.572,0,0,1-.572.572H28.2a.572.572,0,0,1-.572-.572v-.572h9.782Z" transform="translate(0 -23.501)" fill="#fff"/>
        <path id="Trazado_903618" data-name="Trazado 903618" d="M307.542,84.98a5.188,5.188,0,1,0-5.2-5.188A5.2,5.2,0,0,0,307.542,84.98Zm-1.485-2.259h2.969a3.291,3.291,0,0,1-2.969,0Zm1.485-6.212a3.292,3.292,0,0,1,3.293,3.283,3.257,3.257,0,0,1-.165,1.023h-6.257a3.28,3.28,0,0,1,3.129-4.306Z" transform="translate(-263.935 -68.111)" fill="#fff"/>
        <path id="Trazado_903619" data-name="Trazado 903619" d="M184.73,209.791a5.2,5.2,0,1,0,5.2-5.188,5.2,5.2,0,0,0-5.2,5.188Zm8.492,0a3.293,3.293,0,1,1-3.293-3.283A3.292,3.292,0,0,1,193.222,209.791Z" transform="translate(-161.263 -181.597)" fill="#fff"/>
      </g>
    </g>
  </g>
</svg>
