<svg xmlns="http://www.w3.org/2000/svg" xmlns:xlink="http://www.w3.org/1999/xlink" width="121" height="121" viewBox="0 0 121 121">
  <defs>
    <clipPath id="clip-path">
      <rect id="Rectángulo_400938" data-name="Rectángulo 400938" width="121" height="121" transform="translate(0 0)" fill="none"/>
    </clipPath>
    <clipPath id="clip-path-2">
      <rect id="Rectángulo_401073" data-name="Rectángulo 401073" width="92.219" height="41.532" fill="#efb499"/>
    </clipPath>
  </defs>
  <g id="Grupo_1116991" data-name="Grupo 1116991" transform="translate(-1095.711 -1687.798)">
    <g id="Grupo_1099376" data-name="Grupo 1099376" transform="translate(708.043 -4325.202)">
      <rect id="Rectángulo_401103" data-name="Rectángulo 401103" width="121" height="121" transform="translate(387.668 6013)" fill="none"/>
      <g id="Grupo_1099348" data-name="Grupo 1099348" transform="translate(387.668 6013)">
        <g id="Grupo_1099282" data-name="Grupo 1099282">
          <g id="Grupo_1099281" data-name="Grupo 1099281" clip-path="url(#clip-path-2)">
            <path id="Trazado_873375" data-name="Trazado 873375" d="M74.8,9.1c-4.139,0-6.28-2.03-8.17-3.821-1.855-1.756-3.452-3.274-6.792-3.274s-4.937,1.517-6.792,3.274C51.161,7.072,49.023,9.1,44.881,9.1s-6.28-2.03-8.169-3.821C34.857,3.525,33.26,2.007,29.92,2.007s-4.937,1.517-6.789,3.274C21.241,7.072,19.1,9.1,14.962,9.1S8.679,7.072,6.789,5.281C4.937,3.525,3.34,2.007,0,2.007V0C4.139,0,6.28,2.033,8.17,3.821c1.855,1.759,3.452,3.274,6.792,3.274S19.9,5.58,21.75,3.824C23.637,2.033,25.781,0,29.92,0s6.283,2.033,8.17,3.821c1.855,1.759,3.452,3.274,6.792,3.274s4.937-1.514,6.792-3.274C53.56,2.033,55.7,0,59.843,0s6.283,2.033,8.17,3.821C69.867,5.58,71.464,7.094,74.8,7.094S79.742,5.58,81.6,3.821C83.483,2.033,85.624,0,89.766,0V2.007c-3.34,0-4.937,1.517-6.792,3.274C81.084,7.072,78.943,9.1,74.8,9.1" transform="translate(2.453 32.43)" fill="#efb499"/>
            <path id="Trazado_873376" data-name="Trazado 873376" d="M74.8,9.1c-4.139,0-6.283-2.03-8.17-3.824-1.855-1.756-3.452-3.27-6.792-3.27s-4.937,1.514-6.792,3.27C51.164,7.072,49.023,9.1,44.881,9.1s-6.283-2.03-8.17-3.824c-1.855-1.756-3.452-3.27-6.792-3.27s-4.937,1.517-6.789,3.27C21.241,7.072,19.1,9.1,14.962,9.1S8.679,7.072,6.789,5.278C4.937,3.522,3.34,2.007,0,2.007V0C4.139,0,6.283,2.03,8.17,3.821c1.855,1.759,3.452,3.274,6.792,3.274S19.9,5.58,21.75,3.821C23.637,2.03,25.781,0,29.92,0S36.2,2.03,38.093,3.821c1.852,1.759,3.449,3.274,6.789,3.274s4.937-1.514,6.792-3.274C53.56,2.03,55.7,0,59.843,0s6.283,2.03,8.17,3.821C69.867,5.58,71.464,7.094,74.8,7.094S79.742,5.58,81.6,3.821C83.486,2.03,85.627,0,89.769,0V2.007c-3.34,0-4.94,1.517-6.8,3.27C81.084,7.072,78.943,9.1,74.8,9.1" transform="translate(1.635 21.62)" fill="#efb499"/>
            <path id="Trazado_873377" data-name="Trazado 873377" d="M74.8,9.1c-4.139,0-6.283-2.03-8.169-3.824-1.855-1.756-3.452-3.27-6.792-3.27s-4.937,1.514-6.792,3.27C51.164,7.072,49.02,9.1,44.881,9.1s-6.283-2.03-8.17-3.824c-1.855-1.756-3.452-3.27-6.792-3.27s-4.937,1.517-6.789,3.27C21.241,7.072,19.1,9.1,14.962,9.1S8.678,7.072,6.789,5.278C4.937,3.522,3.34,2.007,0,2.007V0C4.139,0,6.283,2.03,8.169,3.821c1.851,1.759,3.452,3.274,6.792,3.274S19.9,5.58,21.75,3.821C23.637,2.03,25.781,0,29.92,0S36.2,2.03,38.093,3.821c1.852,1.759,3.449,3.274,6.789,3.274s4.937-1.514,6.792-3.274C53.56,2.03,55.7,0,59.843,0s6.283,2.03,8.17,3.821C69.867,5.58,71.464,7.094,74.8,7.094S79.742,5.58,81.6,3.821C83.486,2.03,85.624,0,89.769,0V2.007c-3.34,0-4.941,1.517-6.8,3.27C81.084,7.072,78.943,9.1,74.8,9.1" transform="translate(0.818 10.81)" fill="#efb499"/>
            <path id="Trazado_873378" data-name="Trazado 873378" d="M74.8,9.1c-4.139,0-6.28-2.03-8.17-3.821-1.855-1.756-3.452-3.27-6.792-3.27s-4.937,1.514-6.789,3.27C51.164,7.069,49.023,9.1,44.881,9.1s-6.28-2.03-8.169-3.821c-1.855-1.756-3.452-3.27-6.792-3.27s-4.937,1.514-6.789,3.267C21.245,7.069,19.1,9.1,14.962,9.1S8.678,7.069,6.789,5.278C4.937,3.522,3.34,2.007,0,2.007V0C4.139,0,6.283,2.03,8.17,3.821c1.855,1.756,3.452,3.27,6.792,3.27S19.9,5.577,21.75,3.821C23.64,2.03,25.781,0,29.92,0s6.28,2.03,8.173,3.821c1.852,1.756,3.449,3.27,6.789,3.27s4.937-1.514,6.792-3.27C53.563,2.03,55.7,0,59.843,0s6.28,2.03,8.17,3.821c1.855,1.756,3.452,3.27,6.792,3.27s4.937-1.514,6.792-3.27C83.486,2.03,85.627,0,89.769,0V2.007c-3.344,0-4.941,1.514-6.8,3.27C81.084,7.069,78.943,9.1,74.8,9.1" transform="translate(0 0.003)" fill="#efb499"/>
          </g>
        </g>
      </g>
      <circle id="Elipse_11504" data-name="Elipse 11504" cx="50.5" cy="50.5" r="50.5" transform="translate(402.668 6031)" fill="#ffce73"/>
      <circle id="Elipse_11503" data-name="Elipse 11503" cx="52.5" cy="52.5" r="52.5" transform="translate(395.668 6021)" fill="#f3f9ff"/>
    </g>
    <path id="Trazado_903620" data-name="Trazado 903620" d="M18.64,46.243a.773.773,0,0,1,.773-.773H38.094a.773.773,0,1,1,0,1.545H19.412A.773.773,0,0,1,18.64,46.243Zm.773-4.956H33.06a.773.773,0,1,0,0-1.545H19.412a.773.773,0,1,0,0,1.545ZM51.042,52.574v9.169a1.792,1.792,0,0,1-1.79,1.79H36.935a1.792,1.792,0,0,1-1.79-1.79v-5.6a28.254,28.254,0,0,1-6.392.718c-.91,0-1.826-.043-2.725-.127l-9.544,6.659a.773.773,0,0,1-1.195-.808l1.916-8.254C12.054,51.8,9,47.745,9,43.378a10.959,10.959,0,0,1,4.035-8.186,21.351,21.351,0,0,1,9.939-4.713.773.773,0,1,1,.314,1.513,20.094,20.094,0,0,0-9.222,4.352,9.463,9.463,0,0,0-3.52,7.035c0,3.9,2.944,7.574,7.874,9.817a.773.773,0,0,1,.433.878l-1.6,6.9L25.378,55.3a.774.774,0,0,1,.522-.135,27.716,27.716,0,0,0,2.853.147,26.6,26.6,0,0,0,6.392-.762v-1.98a1.792,1.792,0,0,1,1.79-1.79H43.01a9.763,9.763,0,0,0,3.952-7.405c0-2.861-1.585-5.635-4.464-7.81a.773.773,0,1,1,.932-1.233c3.274,2.474,5.078,5.686,5.078,9.043a10.711,10.711,0,0,1-3.227,7.405h3.972a1.792,1.792,0,0,1,1.79,1.79Zm-1.545,0a.248.248,0,0,0-.245-.245H36.935a.248.248,0,0,0-.245.245v9.169a.248.248,0,0,0,.245.245H49.251a.248.248,0,0,0,.245-.245Zm-3.425,4.584a.773.773,0,0,1-.386.669l-4.409,2.546a.773.773,0,0,1-1.159-.669V54.612a.773.773,0,0,1,1.159-.669l4.409,2.546A.773.773,0,0,1,46.071,57.158Zm-2.318,0-2.091-1.207v2.415ZM58.49,17.076a.769.769,0,0,0,.386-.1L61.86,15.25a.773.773,0,1,0-.773-1.338L58.1,15.634a.773.773,0,0,0,.387,1.442ZM53.515,13.59a.772.772,0,0,0,1.056-.283l1.818-3.148a.773.773,0,0,0-1.338-.773l-1.818,3.148a.773.773,0,0,0,.283,1.056Zm4.837,8.378a.773.773,0,0,0,.773.773H62.76a.773.773,0,0,0,0-1.545H59.125A.773.773,0,0,0,58.352,21.968Zm-32.738,8.48a5.886,5.886,0,0,1,2.756-3.6l4.042-2.334a.77.77,0,0,1,.8.02A32.7,32.7,0,0,0,42.522,14.3l-.071-.123A3.176,3.176,0,1,1,47.952,11l3.153,5.461a3.556,3.556,0,0,1,3.552,6.152l3.153,5.461a3.175,3.175,0,0,1-2.74,4.763,3.21,3.21,0,0,1-.831-.11,3.154,3.154,0,0,1-1.929-1.477l-.071-.123a32.6,32.6,0,0,0-13.388,2.89l5.579,7.51a1.794,1.794,0,0,1-.227,2.407l-1.227,1.114a1.805,1.805,0,0,1-1.211.467q-.086,0-.172-.008a1.779,1.779,0,0,1-1.252-.7L34.5,37l-.2.118a5.872,5.872,0,0,1-2.944.792A6,6,0,0,1,29.8,37.7a5.908,5.908,0,0,1-4.188-7.254ZM43.189,42.454l-5.444-7.328L35.851,36.22l5.727,7.664a.225.225,0,0,0,.163.091.252.252,0,0,0,.2-.065l1.227-1.114A.251.251,0,0,0,43.189,42.454ZM51.88,17.807l2,3.468a2.009,2.009,0,0,0-2-3.468Zm-8.09-4.4,9.858,17.075a1.631,1.631,0,0,0,2.824-1.63L46.614,11.776a1.63,1.63,0,0,0-2.824,1.63ZM34.065,25.829l3.963,6.864A35.386,35.386,0,0,1,51.34,29.576l-7.92-13.718a35.385,35.385,0,0,1-9.356,9.971Zm-6.526,8.344a4.4,4.4,0,0,0,5.988,1.6L36.9,33.83l-4.383-7.592-3.373,1.947a4.4,4.4,0,0,0-1.6,5.988Zm-14.3-16.239a4.694,4.694,0,1,1,4.694,4.693,4.7,4.7,0,0,1-4.694-4.693Zm1.545,0a3.148,3.148,0,1,0,3.148-3.148A3.152,3.152,0,0,0,14.785,17.933ZM9,18.749V17.117a1.31,1.31,0,0,1,1.309-1.309,1.034,1.034,0,0,0,.731-1.764,1.309,1.309,0,0,1,0-1.851l1.154-1.154a1.31,1.31,0,0,1,1.851,0,1.034,1.034,0,0,0,1.764-.731A1.31,1.31,0,0,1,17.117,9h1.632a1.31,1.31,0,0,1,1.309,1.309,1.034,1.034,0,0,0,1.764.731,1.31,1.31,0,0,1,1.851,0l1.154,1.154a1.309,1.309,0,0,1,0,1.851,1.034,1.034,0,0,0,.731,1.764,1.31,1.31,0,0,1,1.309,1.309v1.632a1.31,1.31,0,0,1-1.309,1.309,1.034,1.034,0,0,0-.731,1.764,1.31,1.31,0,0,1,0,1.851l-1.154,1.154a1.309,1.309,0,0,1-1.851,0,1.034,1.034,0,0,0-1.764.731,1.31,1.31,0,0,1-1.309,1.309H17.117a1.31,1.31,0,0,1-1.309-1.309,1.033,1.033,0,0,0-1.764-.731,1.309,1.309,0,0,1-1.851,0l-1.154-1.154a1.309,1.309,0,0,1,0-1.851,1.034,1.034,0,0,0-.731-1.764A1.31,1.31,0,0,1,9,18.749Zm1.545-.227a2.581,2.581,0,0,1,1.747,4.217l.834.834a2.58,2.58,0,0,1,4.217,1.747h1.179a2.581,2.581,0,0,1,4.217-1.747l.834-.834a2.581,2.581,0,0,1,1.747-4.217V17.343a2.581,2.581,0,0,1-1.747-4.217l-.834-.834a2.581,2.581,0,0,1-4.217-1.747H17.343a2.581,2.581,0,0,1-4.217,1.747l-.834.834a2.581,2.581,0,0,1-1.747,4.218ZM63.472,39.067a16.735,16.735,0,0,1-5.816,10.074,5.99,5.99,0,0,1-3.568,1.345,4.7,4.7,0,0,1-2.375-.66l-.278-.16a1.982,1.982,0,0,1-.725-2.7l1.11-1.922a1.982,1.982,0,0,1,2.7-.725l.651.376a.425.425,0,0,0,.543-.09,15.184,15.184,0,0,0,2.854-4.943.425.425,0,0,0-.194-.516l-.651-.376a1.982,1.982,0,0,1-.725-2.7l1.11-1.922a1.982,1.982,0,0,1,2.7-.725l.278.16C62.95,34.649,63.772,36.547,63.472,39.067ZM60.32,34.916l-.278-.16a.435.435,0,0,0-.593.159l-1.11,1.922a.436.436,0,0,0,.159.593l.651.376a1.96,1.96,0,0,1,.885,2.351,16.728,16.728,0,0,1-3.155,5.465,1.96,1.96,0,0,1-2.478.409l-.651-.376a.434.434,0,0,0-.593.159l-1.11,1.922a.436.436,0,0,0,.159.593l.278.16c1.316.76,2.7.569,4.245-.584a15.223,15.223,0,0,0,5.208-9.02c.228-1.911-.3-3.209-1.617-3.969Z" transform="translate(1119.945 1713.728)" fill="#7d3a1b"/>
  </g>
</svg>
