<svg xmlns="http://www.w3.org/2000/svg" xmlns:xlink="http://www.w3.org/1999/xlink" width="145" height="145" viewBox="0 0 145 145">
  <defs>
    <clipPath id="clip-path">
      <rect id="Rectángulo_400938" data-name="Rectángulo 400938" width="145" height="145" transform="translate(0 -0.281)" fill="none"/>
    </clipPath>
    <clipPath id="clip-path-2">
      <rect id="Rectángulo_401073" data-name="Rectángulo 401073" width="110.228" height="49.642" fill="#7d3a1b"/>
    </clipPath>
  </defs>
  <g id="Grupo_1099406" data-name="Grupo 1099406" transform="translate(-175 -9540.719)">
    <g id="Grupo_1099404" data-name="Grupo 1099404" transform="translate(175 9541)">
      <g id="Grupo_1099379" data-name="Grupo 1099379" transform="translate(0 0)">
        <rect id="Rectángulo_401103" data-name="Rectángulo 401103" width="145" height="145" transform="translate(0 -0.281)" fill="none"/>
        <g id="Grupo_1099348" data-name="Grupo 1099348" transform="translate(0.045 0.045)">
          <g id="Grupo_1099282" data-name="Grupo 1099282">
            <g id="Grupo_1099281" data-name="Grupo 1099281" clip-path="url(#clip-path-2)">
              <path id="Trazado_873375" data-name="Trazado 873375" d="M89.413,10.879c-4.947,0-7.506-2.426-9.765-4.567C77.431,4.213,75.522,2.4,71.529,2.4s-5.9,1.814-8.118,3.913c-2.259,2.141-4.814,4.567-9.765,4.567S46.14,8.453,43.881,6.312C41.664,4.213,39.755,2.4,35.763,2.4s-5.9,1.814-8.114,3.913c-2.259,2.141-4.818,4.567-9.765,4.567s-7.51-2.426-9.769-4.567C5.9,4.213,3.993,2.4,0,2.4V0C4.947,0,7.506,2.43,9.765,4.567c2.217,2.1,4.126,3.913,8.118,3.913S23.785,6.67,26,4.571C28.253,2.43,30.816,0,35.763,0s7.51,2.43,9.765,4.567c2.217,2.1,4.126,3.913,8.118,3.913s5.9-1.81,8.118-3.913C64.019,2.43,66.582,0,71.529,0s7.51,2.43,9.765,4.567c2.217,2.1,4.126,3.913,8.118,3.913s5.9-1.81,8.118-3.913C99.786,2.43,102.345,0,107.3,0V2.4c-3.993,0-5.9,1.814-8.118,3.913-2.259,2.141-4.818,4.567-9.765,4.567" transform="translate(2.932 38.763)" fill="#7d3a1b"/>
              <path id="Trazado_873376" data-name="Trazado 873376" d="M89.413,10.879c-4.947,0-7.51-2.426-9.765-4.571C77.431,4.209,75.522,2.4,71.529,2.4s-5.9,1.81-8.118,3.909c-2.255,2.145-4.814,4.571-9.765,4.571s-7.51-2.426-9.765-4.571C41.664,4.209,39.755,2.4,35.763,2.4s-5.9,1.814-8.115,3.909c-2.259,2.145-4.818,4.571-9.765,4.571s-7.51-2.426-9.769-4.571C5.9,4.209,3.993,2.4,0,2.4V0C4.947,0,7.51,2.426,9.765,4.567c2.217,2.1,4.126,3.913,8.118,3.913S23.785,6.67,26,4.567C28.253,2.426,30.816,0,35.763,0s7.51,2.426,9.769,4.567c2.213,2.1,4.122,3.913,8.115,3.913s5.9-1.81,8.118-3.913C64.019,2.426,66.582,0,71.529,0s7.51,2.426,9.765,4.567c2.217,2.1,4.126,3.913,8.118,3.913s5.9-1.81,8.118-3.913C99.79,2.426,102.349,0,107.3,0V2.4c-3.993,0-5.905,1.814-8.122,3.909-2.259,2.145-4.818,4.571-9.765,4.571" transform="translate(1.955 25.842)" fill="#7d3a1b"/>
              <path id="Trazado_873377" data-name="Trazado 873377" d="M89.412,10.879c-4.947,0-7.51-2.426-9.765-4.571C77.431,4.209,75.522,2.4,71.529,2.4s-5.9,1.81-8.118,3.909c-2.255,2.145-4.818,4.571-9.765,4.571s-7.51-2.426-9.765-4.571C41.664,4.209,39.755,2.4,35.763,2.4s-5.9,1.814-8.115,3.909c-2.259,2.145-4.818,4.571-9.765,4.571s-7.51-2.426-9.769-4.571C5.9,4.209,3.993,2.4,0,2.4V0C4.947,0,7.51,2.426,9.765,4.567c2.213,2.1,4.126,3.913,8.118,3.913S23.785,6.67,26,4.567C28.253,2.426,30.816,0,35.763,0s7.51,2.426,9.769,4.567c2.213,2.1,4.122,3.913,8.115,3.913s5.9-1.81,8.118-3.913C64.019,2.426,66.582,0,71.529,0s7.51,2.426,9.765,4.567c2.217,2.1,4.126,3.913,8.118,3.913s5.9-1.81,8.118-3.913C99.79,2.426,102.345,0,107.3,0V2.4c-3.993,0-5.905,1.814-8.122,3.909-2.259,2.145-4.818,4.571-9.765,4.571" transform="translate(0.977 12.921)" fill="#7d3a1b"/>
              <path id="Trazado_873378" data-name="Trazado 873378" d="M89.413,10.875c-4.947,0-7.506-2.426-9.765-4.567C77.431,4.209,75.522,2.4,71.529,2.4s-5.9,1.81-8.115,3.909c-2.259,2.141-4.818,4.567-9.769,4.567S46.14,8.449,43.881,6.308C41.664,4.209,39.755,2.4,35.763,2.4s-5.9,1.81-8.115,3.905c-2.255,2.145-4.818,4.571-9.765,4.571s-7.51-2.426-9.769-4.567C5.9,4.209,3.993,2.4,0,2.4V0C4.947,0,7.51,2.426,9.765,4.567c2.217,2.1,4.126,3.909,8.118,3.909s5.9-1.81,8.115-3.909C28.257,2.426,30.816,0,35.763,0s7.506,2.426,9.769,4.567c2.213,2.1,4.122,3.909,8.115,3.909s5.9-1.81,8.118-3.909C64.023,2.426,66.582,0,71.529,0s7.506,2.426,9.765,4.567c2.217,2.1,4.126,3.909,8.118,3.909s5.9-1.81,8.118-3.909C99.79,2.426,102.349,0,107.3,0V2.4c-4,0-5.905,1.81-8.122,3.909-2.259,2.141-4.818,4.567-9.765,4.567" transform="translate(0 0.004)" fill="#7d3a1b"/>
            </g>
          </g>
        </g>
        <path id="Trazado_873425" data-name="Trazado 873425" d="M60.362,0A60.362,60.362,0,1,1,0,60.362,60.362,60.362,0,0,1,60.362,0Z" transform="translate(17.974 21.56)" fill="#efb499"/>
        <circle id="Elipse_11503" data-name="Elipse 11503" cx="63" cy="63" r="63" transform="translate(9 9.719)" fill="#fef7eb"/>
      </g>
    </g>
    <g id="Grupo_1099405" data-name="Grupo 1099405" transform="translate(206.234 9571.193)">
      <g id="Grupo_1099389" data-name="Grupo 1099389" transform="translate(0 0)">
        <rect id="Rectángulo_401104" data-name="Rectángulo 401104" width="81" height="83" transform="translate(-0.234 -0.475)" fill="none"/>
      </g>
      <g id="Grupo_1115081" data-name="Grupo 1115081" transform="translate(4.152 -18.826)">
        <path id="Trazado_900911" data-name="Trazado 900911" d="M314.589,261.816a14.981,14.981,0,0,0,0,29.962h0a14.981,14.981,0,0,0,0-29.962Zm11.383,8.993a12.768,12.768,0,0,1,1.334,4.033l-2.139-1.554Zm-1.5-2.236-1.4,4.319-2.854,1.13-4.57-3.32V267.45l3.626-2.634A12.923,12.923,0,0,1,324.474,268.573Zm-5.652,7.051-1.617,4.976h-5.232l-1.617-4.976,4.233-3.075Zm-4.233-11.692a12.9,12.9,0,0,1,2.069.167l-2.069,1.5-2.069-1.5A12.9,12.9,0,0,1,314.589,263.932Zm-4.684.883,3.626,2.634V270.7l-4.57,3.32-2.854-1.13-1.4-4.319A12.925,12.925,0,0,1,309.9,264.815Zm-6.7,5.993.805,2.479-2.139,1.554A12.764,12.764,0,0,1,303.206,270.809Zm.473,12.8a12.779,12.779,0,0,1-1.932-6.058l3.66-2.659,2.854,1.13,1.763,5.425-1.714,2.161Zm1.654,2.116h2.719l.848,2.611A12.93,12.93,0,0,1,305.333,285.723Zm12.415,3.551a12.958,12.958,0,0,1-6.319,0L310,284.877l1.714-2.161h5.747l1.714,2.161Zm5.938-3.379a12.88,12.88,0,0,1-3.41,2.446l.851-2.618h2.723C323.794,285.78,323.742,285.838,323.686,285.894Zm-2.817-2.288-1.714-2.161,1.763-5.425,2.854-1.13,3.659,2.658a12.747,12.747,0,0,1-1.925,6.059h-4.636Z" transform="translate(-257.342 -201.144)" fill="#7d3a1b"/>
        <path id="Trazado_900912" data-name="Trazado 900912" d="M31.119,276.132c.087-.14.173-.283.256-.424a1.058,1.058,0,0,0-1.824-1.073c-.077.131-.156.262-.235.39a6.8,6.8,0,0,1-5.77,3.236,7.018,7.018,0,0,1-1.645-.195,7.124,7.124,0,0,1-.991-.321,22.653,22.653,0,0,0,1.048-5.225,4.673,4.673,0,0,1,4.171.575,1.058,1.058,0,0,0,1.2-1.744,6.778,6.778,0,0,0-5.293-1.047V263.04a1.827,1.827,0,0,0-1.063-1.66,23.662,23.662,0,0,0-6.4-1.916v-2.852a30.6,30.6,0,0,0,17.8,0v7.633a20.542,20.542,0,0,1-.918,6.072,1.058,1.058,0,1,0,2.022.625,22.656,22.656,0,0,0,1.012-6.7V256.22a1.826,1.826,0,0,0-2.379-1.742,28.483,28.483,0,0,1-17.276,0,1.828,1.828,0,0,0-2.379,1.742v3.023c-.476-.028-.953-.044-1.433-.044a23.636,23.636,0,0,0-9.955,2.181A1.833,1.833,0,0,0,0,263.04v2.236a1.058,1.058,0,1,0,2.116,0v-2.05a21.7,21.7,0,0,1,17.8,0V270.7A20.548,20.548,0,0,1,16.9,281.416a6.805,6.805,0,0,1-5.809,3.3,7.065,7.065,0,0,1-6.048-3.436,19.99,19.99,0,0,1-2.932-10.423v-.646a1.058,1.058,0,1,0-2.116,0v.646a22.11,22.11,0,0,0,3.244,11.529,9.187,9.187,0,0,0,7.851,4.445,8.934,8.934,0,0,0,7.615-4.315,22.672,22.672,0,0,0,1.45-2.795,9,9,0,0,0,3.385.653,8.93,8.93,0,0,0,7.573-4.245Z" transform="translate(0 -194.768)" fill="#7d3a1b"/>
        <path id="Trazado_900913" data-name="Trazado 900913" d="M49.142,415.081a1.058,1.058,0,1,0-1.2,1.744,6.859,6.859,0,0,0,7.718,0,1.058,1.058,0,1,0-1.2-1.744A4.73,4.73,0,0,1,49.142,415.081Z" transform="translate(-40.786 -332.629)" fill="#7d3a1b"/>
        <path id="Trazado_900914" data-name="Trazado 900914" d="M89.651,368.888a4.313,4.313,0,0,0,2.441-.752,1.058,1.058,0,1,0-1.2-1.744,2.211,2.211,0,0,1-2.487,0,1.058,1.058,0,0,0-1.2,1.744A4.312,4.312,0,0,0,89.651,368.888Z" transform="translate(-74.513 -290.808)" fill="#7d3a1b"/>
        <path id="Trazado_900915" data-name="Trazado 900915" d="M170.206,316.43a1.058,1.058,0,1,0,1.2,1.744,2.435,2.435,0,0,1,2.739,0,1.058,1.058,0,0,0,1.2-1.745A4.564,4.564,0,0,0,170.206,316.43Z" transform="translate(-145.801 -247.375)" fill="#7d3a1b"/>
        <path id="Trazado_900916" data-name="Trazado 900916" d="M132.126,53.781a1.722,1.722,0,0,0,1.535.249,23.137,23.137,0,0,1,14.153,0l.853.272a1.07,1.07,0,0,0,.651,0l.858-.275a23.355,23.355,0,0,1,4.716-.981,1.058,1.058,0,1,0-.214-2.105,25.459,25.459,0,0,0-4.625.912V30.9a23.164,23.164,0,0,1,14.4,0v1.675a1.058,1.058,0,1,0,2.116,0V30.606a1.713,1.713,0,0,0-1.195-1.636,25.4,25.4,0,0,0-16.38.044,25.4,25.4,0,0,0-16.379-.043,1.712,1.712,0,0,0-1.195,1.636V52.395a1.723,1.723,0,0,0,.7,1.387ZM133.538,30.9a23.157,23.157,0,0,1,14.4,0V51.855a25.223,25.223,0,0,0-14.4,0Z" transform="translate(-112.882)" fill="#7d3a1b"/>
        <path id="Trazado_900917" data-name="Trazado 900917" d="M325.49,106.73a23.352,23.352,0,0,1,4.713.98,1.717,1.717,0,0,0,2.242-1.635V91.191a1.058,1.058,0,1,0-2.116,0v14.345a25.466,25.466,0,0,0-4.624-.911,1.058,1.058,0,1,0-.214,2.105Z" transform="translate(-278.756 -53.681)" fill="#7d3a1b"/>
        <path id="Trazado_900918" data-name="Trazado 900918" d="M164.516,100.224h7.478a1.058,1.058,0,1,0,0-2.116h-7.478a1.058,1.058,0,1,0,0,2.116Z" transform="translate(-140.399 -60.531)" fill="#7d3a1b"/>
        <path id="Trazado_900919" data-name="Trazado 900919" d="M173.052,132.706a1.058,1.058,0,0,0-1.058-1.058h-7.478a1.058,1.058,0,1,0,0,2.116h7.478A1.058,1.058,0,0,0,173.052,132.706Z" transform="translate(-140.399 -89.339)" fill="#7d3a1b"/>
        <path id="Trazado_900920" data-name="Trazado 900920" d="M281.594,100.224h7.478a1.058,1.058,0,0,0,0-2.116h-7.478a1.058,1.058,0,0,0,0,2.116Z" transform="translate(-240.961 -60.531)" fill="#7d3a1b"/>
        <path id="Trazado_900921" data-name="Trazado 900921" d="M281.594,133.764h7.478a1.058,1.058,0,0,0,0-2.116h-7.478a1.058,1.058,0,0,0,0,2.116Z" transform="translate(-240.961 -89.339)" fill="#7d3a1b"/>
        <path id="Trazado_900922" data-name="Trazado 900922" d="M43.347,140.8a1.06,1.06,0,0,0,1.2-.9,28.448,28.448,0,0,1,5.911-13.649,1.058,1.058,0,1,0-1.654-1.319A30.563,30.563,0,0,0,42.451,139.6,1.058,1.058,0,0,0,43.347,140.8Z" transform="translate(-36.453 -83.233)" fill="#7d3a1b"/>
        <path id="Trazado_900923" data-name="Trazado 900923" d="M420.147,139.906a1.058,1.058,0,1,0,2.094-.3,30.562,30.562,0,0,0-6.351-14.665,1.058,1.058,0,1,0-1.654,1.319A28.449,28.449,0,0,1,420.147,139.906Z" transform="translate(-355.601 -83.234)" fill="#7d3a1b"/>
        <path id="Trazado_900924" data-name="Trazado 900924" d="M210,457.084a28.727,28.727,0,0,1-15.435,0,1.058,1.058,0,0,0-.571,2.038,30.841,30.841,0,0,0,16.577,0,1.058,1.058,0,0,0-.571-2.038Z" transform="translate(-165.964 -368.832)" fill="#7d3a1b"/>
        <path id="Trazado_900925" data-name="Trazado 900925" d="M33.014,366.205a1.052,1.052,0,0,0-.6.186h0a2.21,2.21,0,0,1-2.487,0,1.058,1.058,0,1,0-1.2,1.744,4.339,4.339,0,0,0,4.882,0h0a1.058,1.058,0,0,0-.6-1.93Z" transform="translate(-24.284 -290.808)" fill="#7d3a1b"/>
      </g>
    </g>
  </g>
</svg>
