<svg xmlns="http://www.w3.org/2000/svg" xmlns:xlink="http://www.w3.org/1999/xlink" width="102" height="57.818" viewBox="0 0 102 57.818">
  <defs>
    <clipPath id="clip-path">
      <rect id="Rectángulo_401073" data-name="Rectángulo 401073" width="92.219" height="41.532" fill="#efb499"/>
    </clipPath>
  </defs>
  <g id="Grupo_1117627" data-name="Grupo 1117627" transform="translate(-623.021 -2397)">
    <g id="Grupo_1117086" data-name="Grupo 1117086" transform="translate(623.021 2397.001)">
      <g id="Grupo_1099282" data-name="Grupo 1099282">
        <g id="Grupo_1099281" data-name="Grupo 1099281" clip-path="url(#clip-path)">
          <path id="Trazado_873375" data-name="Trazado 873375" d="M74.8,9.1c-4.139,0-6.28-2.03-8.17-3.821-1.855-1.756-3.452-3.274-6.792-3.274s-4.937,1.517-6.792,3.274C51.161,7.072,49.023,9.1,44.881,9.1s-6.28-2.03-8.169-3.821C34.857,3.525,33.26,2.007,29.92,2.007s-4.937,1.517-6.789,3.274C21.241,7.072,19.1,9.1,14.962,9.1S8.679,7.072,6.789,5.281C4.937,3.525,3.34,2.007,0,2.007V0C4.139,0,6.28,2.033,8.17,3.821c1.855,1.759,3.452,3.274,6.792,3.274S19.9,5.58,21.75,3.824C23.637,2.033,25.781,0,29.92,0s6.283,2.033,8.17,3.821c1.855,1.759,3.452,3.274,6.792,3.274s4.937-1.514,6.792-3.274C53.56,2.033,55.7,0,59.843,0s6.283,2.033,8.17,3.821C69.867,5.58,71.464,7.094,74.8,7.094S79.742,5.58,81.6,3.821C83.483,2.033,85.624,0,89.766,0V2.007c-3.34,0-4.937,1.517-6.792,3.274C81.084,7.072,78.943,9.1,74.8,9.1" transform="translate(2.453 32.43)" fill="#efb499"/>
          <path id="Trazado_873376" data-name="Trazado 873376" d="M74.8,9.1c-4.139,0-6.283-2.03-8.17-3.824-1.855-1.756-3.452-3.27-6.792-3.27s-4.937,1.514-6.792,3.27C51.164,7.072,49.023,9.1,44.881,9.1s-6.283-2.03-8.17-3.824c-1.855-1.756-3.452-3.27-6.792-3.27s-4.937,1.517-6.789,3.27C21.241,7.072,19.1,9.1,14.962,9.1S8.679,7.072,6.789,5.278C4.937,3.522,3.34,2.007,0,2.007V0C4.139,0,6.283,2.03,8.17,3.821c1.855,1.759,3.452,3.274,6.792,3.274S19.9,5.58,21.75,3.821C23.637,2.03,25.781,0,29.92,0S36.2,2.03,38.093,3.821c1.852,1.759,3.449,3.274,6.789,3.274s4.937-1.514,6.792-3.274C53.56,2.03,55.7,0,59.843,0s6.283,2.03,8.17,3.821C69.867,5.58,71.464,7.094,74.8,7.094S79.742,5.58,81.6,3.821C83.486,2.03,85.627,0,89.769,0V2.007c-3.34,0-4.94,1.517-6.8,3.27C81.084,7.072,78.943,9.1,74.8,9.1" transform="translate(1.635 21.62)" fill="#efb499"/>
          <path id="Trazado_873377" data-name="Trazado 873377" d="M74.8,9.1c-4.139,0-6.283-2.03-8.169-3.824-1.855-1.756-3.452-3.27-6.792-3.27s-4.937,1.514-6.792,3.27C51.164,7.072,49.02,9.1,44.881,9.1s-6.283-2.03-8.17-3.824c-1.855-1.756-3.452-3.27-6.792-3.27s-4.937,1.517-6.789,3.27C21.241,7.072,19.1,9.1,14.962,9.1S8.678,7.072,6.789,5.278C4.937,3.522,3.34,2.007,0,2.007V0C4.139,0,6.283,2.03,8.169,3.821c1.851,1.759,3.452,3.274,6.792,3.274S19.9,5.58,21.75,3.821C23.637,2.03,25.781,0,29.92,0S36.2,2.03,38.093,3.821c1.852,1.759,3.449,3.274,6.789,3.274s4.937-1.514,6.792-3.274C53.56,2.03,55.7,0,59.843,0s6.283,2.03,8.17,3.821C69.867,5.58,71.464,7.094,74.8,7.094S79.742,5.58,81.6,3.821C83.486,2.03,85.624,0,89.769,0V2.007c-3.34,0-4.941,1.517-6.8,3.27C81.084,7.072,78.943,9.1,74.8,9.1" transform="translate(0.818 10.81)" fill="#efb499"/>
          <path id="Trazado_873378" data-name="Trazado 873378" d="M74.8,9.1c-4.139,0-6.28-2.03-8.17-3.821-1.855-1.756-3.452-3.27-6.792-3.27s-4.937,1.514-6.789,3.27C51.164,7.069,49.023,9.1,44.881,9.1s-6.28-2.03-8.169-3.821c-1.855-1.756-3.452-3.27-6.792-3.27s-4.937,1.514-6.789,3.267C21.245,7.069,19.1,9.1,14.962,9.1S8.678,7.069,6.789,5.278C4.937,3.522,3.34,2.007,0,2.007V0C4.139,0,6.283,2.03,8.17,3.821c1.855,1.756,3.452,3.27,6.792,3.27S19.9,5.577,21.75,3.821C23.64,2.03,25.781,0,29.92,0s6.28,2.03,8.173,3.821c1.852,1.756,3.449,3.27,6.789,3.27s4.937-1.514,6.792-3.27C53.563,2.03,55.7,0,59.843,0s6.28,2.03,8.17,3.821c1.855,1.756,3.452,3.27,6.792,3.27s4.937-1.514,6.792-3.27C83.486,2.03,85.627,0,89.769,0V2.007c-3.344,0-4.941,1.514-6.8,3.27C81.084,7.069,78.943,9.1,74.8,9.1" transform="translate(0 0.003)" fill="#efb499"/>
        </g>
      </g>
    </g>
    <g id="Grupo_1117089" data-name="Grupo 1117089" transform="translate(665.021 2387.689)">
      <g id="Grupo_1117082" data-name="Grupo 1117082" transform="translate(0.879 10.189)">
        <g id="Grupo_1117034" data-name="Grupo 1117034" transform="translate(0 12.012)">
          <g id="Grupo_1117033" data-name="Grupo 1117033">
            <g id="Grupo_1117032" data-name="Grupo 1117032">
              <g id="Grupo_1117031" data-name="Grupo 1117031">
                <g id="Grupo_1117027" data-name="Grupo 1117027" transform="translate(3.218 22.461)">
                  <g id="Grupo_1117019" data-name="Grupo 1117019" transform="translate(5.199 2.654)">
                    <path id="Trazado_903688" data-name="Trazado 903688" d="M79.325,333.624h3.647v18.933H79.325Z" transform="translate(-79.325 -333.624)" fill="#f3f0f3"/>
                  </g>
                  <g id="Grupo_1117020" data-name="Grupo 1117020" transform="translate(5.199 19.198)">
                    <path id="Trazado_903689" data-name="Trazado 903689" d="M79.325,474.8h3.647v2.389H79.325Z" transform="translate(-79.325 -474.799)" fill="#e2dee2"/>
                  </g>
                  <g id="Grupo_1117022" data-name="Grupo 1117022" transform="translate(14.346)">
                    <g id="Grupo_1117021" data-name="Grupo 1117021">
                      <path id="Trazado_903690" data-name="Trazado 903690" d="M157.383,310.975h5.69v16.551h-5.69Z" transform="translate(-157.383 -310.975)" fill="#b5adb6"/>
                    </g>
                  </g>
                  <g id="Grupo_1117023" data-name="Grupo 1117023" transform="translate(8.728)">
                    <path id="Trazado_903691" data-name="Trazado 903691" d="M109.444,310.975h5.735v21.588h-5.735Z" transform="translate(-109.444 -310.975)" fill="#b5adb6"/>
                  </g>
                  <g id="Grupo_1117024" data-name="Grupo 1117024" transform="translate(8.728 19.198)">
                    <path id="Trazado_903692" data-name="Trazado 903692" d="M109.444,474.8h5.735v2.389h-5.735Z" transform="translate(-109.444 -474.799)" fill="#a79ba7"/>
                  </g>
                  <g id="Grupo_1117025" data-name="Grupo 1117025" transform="translate(0 2.654)">
                    <path id="Trazado_903693" data-name="Trazado 903693" d="M34.963,333.624H40.27v18.933H34.963Z" transform="translate(-34.963 -333.624)" fill="#f3f0f3"/>
                  </g>
                  <g id="Grupo_1117026" data-name="Grupo 1117026" transform="translate(0 19.198)">
                    <path id="Trazado_903694" data-name="Trazado 903694" d="M34.963,474.8H40.27v2.389H34.963Z" transform="translate(-34.963 -474.799)" fill="#e2dee2"/>
                  </g>
                </g>
                <g id="Grupo_1117028" data-name="Grupo 1117028" transform="translate(0 8.545)">
                  <path id="Trazado_903695" data-name="Trazado 903695" d="M19.564,208.678H18.181a2.1,2.1,0,0,1-2.095-2.095V192.225H10.891A3.391,3.391,0,0,0,7.5,195.616v13.731a2.047,2.047,0,0,0,2.047,2.047h1.172v-2.6h8.845Z" transform="translate(-7.5 -192.225)" fill="#f3f0f3"/>
                </g>
                <g id="Grupo_1117029" data-name="Grupo 1117029" transform="translate(3.863)">
                  <path id="Trazado_903696" data-name="Trazado 903696" d="M45.19,127.37a3.551,3.551,0,0,1,3.547-3.547h.921a4.6,4.6,0,1,0-4.594,4.675c.042,0,.084,0,.126,0Z" transform="translate(-40.467 -119.305)" fill="#c96e59"/>
                </g>
                <g id="Grupo_1117030" data-name="Grupo 1117030" transform="translate(4.557 0.033)">
                  <path id="Trazado_903697" data-name="Trazado 903697" d="M50.416,127.616a3.551,3.551,0,0,1,3.547-3.547h.921a4.6,4.6,0,0,0-4.054-4.485,4.6,4.6,0,0,1-3.9,7.024,4.649,4.649,0,0,1-.541-.033,4.592,4.592,0,0,0,3.9,2.169c.042,0,.084,0,.126,0v-1.124Z" transform="translate(-46.387 -119.584)" fill="#bb5d4c"/>
                </g>
              </g>
            </g>
          </g>
        </g>
        <g id="Grupo_1117047" data-name="Grupo 1117047" transform="translate(45.057 12.012)">
          <g id="Grupo_1117046" data-name="Grupo 1117046">
            <g id="Grupo_1117045" data-name="Grupo 1117045">
              <g id="Grupo_1117044" data-name="Grupo 1117044">
                <g id="Grupo_1117036" data-name="Grupo 1117036" transform="translate(1.122 25.116)">
                  <g id="Grupo_1117035" data-name="Grupo 1117035">
                    <path id="Trazado_903698" data-name="Trazado 903698" d="M401.557,333.624H405.1v18.933h-3.538Z" transform="translate(-401.557 -333.624)" fill="#f3f0f3"/>
                  </g>
                </g>
                <g id="Grupo_1117037" data-name="Grupo 1117037" transform="translate(1.122 41.659)">
                  <path id="Trazado_903699" data-name="Trazado 903699" d="M401.557,474.8H405.1v2.389h-3.538Z" transform="translate(-401.557 -474.799)" fill="#e2dee2"/>
                </g>
                <g id="Grupo_1117041" data-name="Grupo 1117041" transform="translate(1.122 8.545)">
                  <g id="Grupo_1117038" data-name="Grupo 1117038" transform="translate(3.538 16.57)">
                    <path id="Trazado_903700" data-name="Trazado 903700" d="M431.75,333.624h5.307v18.933H431.75Z" transform="translate(-431.75 -333.624)" fill="#f3f0f3"/>
                  </g>
                  <g id="Grupo_1117039" data-name="Grupo 1117039" transform="translate(0 0)">
                    <path id="Trazado_903701" data-name="Trazado 903701" d="M401.557,208.678h1.383a2.1,2.1,0,0,0,2.095-2.095V192.225h5.195a3.391,3.391,0,0,1,3.391,3.391v13.731a2.047,2.047,0,0,1-2.047,2.047H410.4v-2.6h-8.845v-.117Z" transform="translate(-401.557 -192.225)" fill="#f3f0f3"/>
                  </g>
                  <g id="Grupo_1117040" data-name="Grupo 1117040" transform="translate(3.538)">
                    <path id="Trazado_903702" data-name="Trazado 903702" d="M436.884,192.225h-2.175v31.942a1.172,1.172,0,0,1-1.172,1.172H431.75v2.389h5.307V211.394h1.172a2.047,2.047,0,0,0,2.047-2.047V195.616A3.391,3.391,0,0,0,436.884,192.225Z" transform="translate(-431.75 -192.225)" fill="#e2dee2"/>
                  </g>
                </g>
                <g id="Grupo_1117042" data-name="Grupo 1117042">
                  <path id="Trazado_903703" data-name="Trazado 903703" d="M396.578,119.305a4.6,4.6,0,0,0-4.594,4.518h1.052a3.551,3.551,0,0,1,3.547,3.547V128.5a4.6,4.6,0,0,0-.005-9.193Z" transform="translate(-391.984 -119.305)" fill="#ffcebf"/>
                </g>
                <g id="Grupo_1117043" data-name="Grupo 1117043" transform="translate(4.015 0.033)">
                  <path id="Trazado_903704" data-name="Trazado 903704" d="M427.366,119.584a4.595,4.595,0,0,1-1.12,6.085,3.526,3.526,0,0,1,.584,1.947v1.127a4.6,4.6,0,0,0,.535-9.16Z" transform="translate(-426.246 -119.584)" fill="#ffb09e"/>
                </g>
              </g>
            </g>
          </g>
        </g>
        <g id="Grupo_1117054" data-name="Grupo 1117054" transform="translate(8.469 7.179)">
          <g id="Grupo_1117053" data-name="Grupo 1117053">
            <g id="Grupo_1117052" data-name="Grupo 1117052">
              <g id="Grupo_1117051" data-name="Grupo 1117051">
                <g id="Grupo_1117048" data-name="Grupo 1117048" transform="translate(0 9.234)">
                  <path id="Trazado_903705" data-name="Trazado 903705" d="M94.552,173.182H93.093a2.229,2.229,0,0,1-2.227-2.227v-14.1H83.43a3.664,3.664,0,0,0-3.664,3.664v14.839a2.212,2.212,0,0,0,2.212,2.212h1.266v-2.654H94.552Z" transform="translate(-79.766 -156.858)" fill="#e2dee2"/>
                </g>
                <g id="Grupo_1117049" data-name="Grupo 1117049" transform="translate(4.175)">
                  <path id="Trazado_903706" data-name="Trazado 903706" d="M122.318,85.667A3.771,3.771,0,0,1,125.22,82a4.966,4.966,0,1,0-2.9,5.588Z" transform="translate(-115.392 -78.058)" fill="#ffcebf"/>
                </g>
                <g id="Grupo_1117050" data-name="Grupo 1117050" transform="translate(4.882 0.038)">
                  <path id="Trazado_903707" data-name="Trazado 903707" d="M127.644,85.956a3.771,3.771,0,0,1,2.9-3.664,4.97,4.97,0,0,0-4.252-3.906,4.967,4.967,0,0,1-4.26,7.522,5.01,5.01,0,0,1-.608-.038,4.969,4.969,0,0,0,6.219,2.011Z" transform="translate(-121.425 -78.385)" fill="#ffb09e"/>
                </g>
              </g>
            </g>
          </g>
        </g>
        <g id="Grupo_1117067" data-name="Grupo 1117067" transform="translate(19.452)">
          <g id="Grupo_1117066" data-name="Grupo 1117066">
            <g id="Grupo_1117065" data-name="Grupo 1117065">
              <g id="Grupo_1117064" data-name="Grupo 1117064">
                <g id="Grupo_1117060" data-name="Grupo 1117060" transform="translate(15.722 16.413)">
                  <g id="Grupo_1117056" data-name="Grupo 1117056" transform="translate(5.269 18.061)">
                    <g id="Grupo_1117055" data-name="Grupo 1117055">
                      <path id="Trazado_903708" data-name="Trazado 903708" d="M352.617,310.975h5.852v21.588h-5.852Z" transform="translate(-352.617 -310.975)" fill="#b5adb6"/>
                    </g>
                  </g>
                  <g id="Grupo_1117057" data-name="Grupo 1117057" transform="translate(5.269 37.259)">
                    <path id="Trazado_903709" data-name="Trazado 903709" d="M352.617,474.8h5.852v2.389h-5.852Z" transform="translate(-352.617 -474.799)" fill="#a79ba7"/>
                  </g>
                  <g id="Grupo_1117058" data-name="Grupo 1117058" transform="translate(0 18.061)">
                    <path id="Trazado_903710" data-name="Trazado 903710" d="M307.652,310.975h5.387v16.551h-5.387Z" transform="translate(-307.652 -310.975)" fill="#b5adb6"/>
                  </g>
                  <g id="Grupo_1117059" data-name="Grupo 1117059">
                    <path id="Trazado_903711" data-name="Trazado 903711" d="M318.587,156.858H307.652v18.061h11.122v2.654h1.266a2.212,2.212,0,0,0,2.212-2.212V160.522A3.665,3.665,0,0,0,318.587,156.858Z" transform="translate(-307.652 -156.858)" fill="#e2dee2"/>
                  </g>
                </g>
                <g id="Grupo_1117061" data-name="Grupo 1117061" transform="translate(16.207 7.283)">
                  <path id="Trazado_903712" data-name="Trazado 903712" d="M317.639,78.947l-5.267,5.267a3.65,3.65,0,0,0-.579.753,4.967,4.967,0,1,0,5.845-6.02Z" transform="translate(-311.794 -78.947)" fill="#c96e59"/>
                </g>
                <g id="Grupo_1117062" data-name="Grupo 1117062" transform="translate(16.779 7.284)">
                  <path id="Trazado_903713" data-name="Trazado 903713" d="M321.948,78.957l-.256.256a4.962,4.962,0,0,1-5.016,7.164,4.967,4.967,0,1,0,5.272-7.42Z" transform="translate(-316.676 -78.957)" fill="#bb5d4c"/>
                </g>
                <g id="Grupo_1117063" data-name="Grupo 1117063">
                  <path id="Trazado_903714" data-name="Trazado 903714" d="M199.847,17.34a1.843,1.843,0,0,0-2.606,0l-8.821,8.82a5.273,5.273,0,0,1-3.729,1.545h-7.318a3.883,3.883,0,0,0-3.883,3.883V47.311a2.344,2.344,0,0,0,2.344,2.344h1.341V46.842H189.33V31.918a3.515,3.515,0,0,1,1.03-2.486l9.487-9.487a1.843,1.843,0,0,0,0-2.606Z" transform="translate(-173.491 -16.8)" fill="#ffe177"/>
                </g>
              </g>
            </g>
          </g>
        </g>
        <g id="Grupo_1117079" data-name="Grupo 1117079" transform="translate(19.452)">
          <g id="Grupo_1117068" data-name="Grupo 1117068">
            <path id="Trazado_903715" data-name="Trazado 903715" d="M199.847,17.34a1.843,1.843,0,0,0-2.606,0l-8.821,8.82a5.273,5.273,0,0,1-3.729,1.545h-7.318a3.883,3.883,0,0,0-3.883,3.883V47.311a2.344,2.344,0,0,0,2.344,2.344h1.341V46.842H189.33V31.918a3.515,3.515,0,0,1,1.03-2.486l9.487-9.487a1.843,1.843,0,0,0,0-2.606Z" transform="translate(-173.491 -16.8)" fill="#ffe177"/>
          </g>
          <g id="Grupo_1117070" data-name="Grupo 1117070" transform="translate(13.378 0.001)">
            <g id="Grupo_1117069" data-name="Grupo 1117069">
              <path id="Trazado_903716" data-name="Trazado 903716" d="M300.63,17.348a1.841,1.841,0,0,0-2.533-.066c.024.022.049.042.072.066a1.843,1.843,0,0,1,0,2.606l-9.487,9.487a3.516,3.516,0,0,0-1.03,2.486V46.85h2.461V31.926a3.516,3.516,0,0,1,1.03-2.486l9.487-9.487A1.843,1.843,0,0,0,300.63,17.348Z" transform="translate(-287.652 -16.809)" fill="#ffd15b"/>
            </g>
          </g>
          <g id="Grupo_1117074" data-name="Grupo 1117074" transform="translate(3.685 30.042)">
            <g id="Grupo_1117071" data-name="Grupo 1117071" transform="translate(0)">
              <path id="Trazado_903717" data-name="Trazado 903717" d="M204.938,273.158h12.154v21.1H204.938Z" transform="translate(-204.938 -273.158)" fill="#0593fc"/>
            </g>
            <g id="Grupo_1117072" data-name="Grupo 1117072" transform="translate(0)">
              <path id="Trazado_903718" data-name="Trazado 903718" d="M204.938,273.158h12.154v21.1H204.938Z" transform="translate(-204.938 -273.158)" fill="#26a6fe"/>
            </g>
            <g id="Grupo_1117073" data-name="Grupo 1117073">
              <path id="Trazado_903719" data-name="Trazado 903719" d="M214.638,273.158v17.536a1.172,1.172,0,0,1-1.172,1.172h-8.528v2.392h12.154v-21.1Z" transform="translate(-204.938 -273.158)" fill="#0593fc"/>
            </g>
          </g>
          <g id="Grupo_1117075" data-name="Grupo 1117075" transform="translate(7.577 18.089)">
            <path id="Trazado_903720" data-name="Trazado 903720" d="M242.019,176.9H238.5a.352.352,0,0,1-.352-.352V171.51a.352.352,0,0,1,.352-.352h3.516a.352.352,0,0,1,.352.352v5.039A.352.352,0,0,1,242.019,176.9Z" transform="translate(-238.152 -171.158)" fill="#fff"/>
          </g>
          <g id="Grupo_1117076" data-name="Grupo 1117076" transform="translate(7.577 18.089)">
            <path id="Trazado_903721" data-name="Trazado 903721" d="M242.019,171.158h-1.541v3.474a.352.352,0,0,1-.352.352h-1.974v1.566a.352.352,0,0,0,.352.352h3.516a.352.352,0,0,0,.352-.352V171.51A.352.352,0,0,0,242.019,171.158Z" transform="translate(-238.152 -171.158)" fill="#f3f0f3"/>
          </g>
          <g id="Grupo_1117077" data-name="Grupo 1117077" transform="translate(4.424 1.12)">
            <circle id="Elipse_11564" data-name="Elipse 11564" cx="5.263" cy="5.263" r="5.263" fill="#ffcebf"/>
          </g>
          <g id="Grupo_1117078" data-name="Grupo 1117078" transform="translate(5.225 1.184)">
            <path id="Trazado_903722" data-name="Trazado 903722" d="M223.358,26.9a5.262,5.262,0,0,1-4.462,8.053,5.3,5.3,0,0,1-.822-.064,5.263,5.263,0,1,0,5.284-7.989Z" transform="translate(-218.074 -26.904)" fill="#ffb09e"/>
          </g>
        </g>
        <g id="Grupo_1117080" data-name="Grupo 1117080" transform="translate(17.682 51.025)">
          <path id="Trazado_903723" data-name="Trazado 903723" d="M158.383,452.212h22.879v5.036H158.383Z" transform="translate(-158.383 -452.212)" fill="#685e68"/>
        </g>
        <g id="Grupo_1117081" data-name="Grupo 1117081" transform="translate(17.682 51.025)">
          <path id="Trazado_903724" data-name="Trazado 903724" d="M178.143,452.212v1.475a1.172,1.172,0,0,1-1.172,1.172H158.383v2.389h22.879v-5.036Z" transform="translate(-158.383 -452.212)" fill="#554e56"/>
        </g>
      </g>
      <path id="Trazado_903725" data-name="Trazado 903725" d="M57.074,50.794A2.929,2.929,0,0,0,60,47.868V34.137a4.275,4.275,0,0,0-4.27-4.27h-.668a5.477,5.477,0,0,0-7.851-7.429c0-.035,0-.069,0-.1A5.821,5.821,0,0,0,44.1,17.163l3.208-3.208a2.722,2.722,0,0,0-3.849-3.849L41.936,11.63a.879.879,0,1,0,1.243,1.243L44.7,11.35a.964.964,0,1,1,1.363,1.363L36.578,22.2a4.366,4.366,0,0,0-1.287,3.107V39.352H24.9V28.278a.879.879,0,0,0-1.758,0V42.164h-.463A1.466,1.466,0,0,1,21.21,40.7V24.976a3.007,3.007,0,0,1,3-3h2.663L28.789,27.4H28.26a1.232,1.232,0,0,0-1.23,1.23v5.039a1.232,1.232,0,0,0,1.23,1.23h3.516a1.232,1.232,0,0,0,1.23-1.23V28.629a1.232,1.232,0,0,0-1.23-1.23h-.507l1.949-5.586c.079-.049.157-.1.234-.15a6.172,6.172,0,0,0,2.43-1.491l4.4-4.4a.879.879,0,1,0-1.243-1.243l-2.943,2.943a6.142,6.142,0,1,0-11.017,2.741h-.863c-.092,0-.182,0-.273.008a5.846,5.846,0,0,0-11.3,2.111c0,.032,0,.064,0,.1a5.475,5.475,0,0,0-7.839,7.437H4.27A4.275,4.275,0,0,0,0,34.137V47.868a2.929,2.929,0,0,0,2.926,2.926h.293v4.183a.879.879,0,0,0,1.758,0V34.994a.879.879,0,0,0-1.758,0V49.036H2.926a1.169,1.169,0,0,1-1.168-1.168V34.137A2.515,2.515,0,0,1,4.27,31.625H6.759a5.431,5.431,0,0,0,1.71.577V45.1A3.094,3.094,0,0,0,11.56,48.2h.387V65.371H10.283V50.97a.879.879,0,1,0-1.758,0v14.4H4.976V59.079a.879.879,0,0,0-1.758,0v6.292H.879a.879.879,0,1,0,0,1.758H59.121a.879.879,0,0,0,0-1.758H56.782V50.794h.293ZM31.248,33.141H28.787V29.156h2.461ZM28.969,22.622a6.059,6.059,0,0,0,2.1,0l-1.047,3Zm1.049-10.435a4.384,4.384,0,1,1-4.384,4.384A4.389,4.389,0,0,1,30.018,12.187ZM50.53,23.08a3.718,3.718,0,0,1,1,7.3v-.113a4.548,4.548,0,0,0-4.543-4.543h-.016A3.705,3.705,0,0,1,50.53,23.08Zm-12.709.363,4.949-4.949a4.088,4.088,0,1,1-5.226,5.28,2.66,2.66,0,0,1,.278-.331ZM24.9,41.11h10.4V60.335H30.972V43.821a.879.879,0,0,0-1.758,0V60.335H24.9ZM18.489,18.246a4.067,4.067,0,0,1,3.728,2.409,4.767,4.767,0,0,0-2.765,4.321v1.331a4.088,4.088,0,1,1-.963-8.061ZM8.469,30.266v.145A3.717,3.717,0,1,1,12.9,25.726a4.548,4.548,0,0,0-4.429,4.54Zm4.357.047a.879.879,0,0,0-.879.879V46.438h-.387A1.335,1.335,0,0,1,10.226,45.1V30.266a2.789,2.789,0,0,1,2.785-2.785h2.707a5.813,5.813,0,0,0,3.733.618V40.7a3.228,3.228,0,0,0,2.288,3.084H13.7V31.192a.879.879,0,0,0-.879-.879Zm5.735,17.124a.879.879,0,0,0-.879.879V65.371H13.7V45.541h9.433V60.335h-3.7V48.316A.879.879,0,0,0,18.561,47.437Zm22,17.934H19.439V62.092H40.561Zm5.735,0H42.319v-17.1a.879.879,0,0,0-1.758,0v12.06H37.049V45.541H46.3v19.83ZM55.9,34.115a.879.879,0,0,0-.879.879V65.371H51.475V50.853a.879.879,0,0,0-1.758,0V65.371H48.054V48.2h.387A3.094,3.094,0,0,0,51.532,45.1V40.446a.879.879,0,0,0-1.758,0V45.1a1.335,1.335,0,0,1-1.333,1.333h-.387V31.192a.879.879,0,0,0-1.758,0V43.783H37.049v-16.3H38.6a5.826,5.826,0,0,0,5.536,0h2.849a2.789,2.789,0,0,1,2.785,2.785v6.078a.879.879,0,0,0,1.758,0V32.179a5.426,5.426,0,0,0,1.58-.553H55.73a2.515,2.515,0,0,1,2.512,2.512V47.868a1.169,1.169,0,0,1-1.168,1.168h-.293V34.994a.879.879,0,0,0-.879-.879Z"/>
    </g>
  </g>
</svg>
