<svg xmlns="http://www.w3.org/2000/svg" xmlns:xlink="http://www.w3.org/1999/xlink" width="145" height="145" viewBox="0 0 145 145">
  <defs>
    <clipPath id="clip-path">
      <rect id="Rectángulo_400938" data-name="Rectángulo 400938" width="145" height="145" transform="translate(0 -0.281)" fill="none"/>
    </clipPath>
    <clipPath id="clip-path-2">
      <rect id="Rectángulo_401073" data-name="Rectángulo 401073" width="110.228" height="49.642" fill="#7d3a1b"/>
    </clipPath>
  </defs>
  <g id="Grupo_1099410" data-name="Grupo 1099410" transform="translate(-175 -9540.719)">
    <g id="Grupo_1099404" data-name="Grupo 1099404" transform="translate(175 9541)">
      <g id="Grupo_1099379" data-name="Grupo 1099379" transform="translate(0 0)">
        <rect id="Rectángulo_401103" data-name="Rectángulo 401103" width="145" height="145" transform="translate(0 -0.281)" fill="none"/>
        <g id="Grupo_1099348" data-name="Grupo 1099348" transform="translate(0.045 0.045)">
          <g id="Grupo_1099282" data-name="Grupo 1099282">
            <g id="Grupo_1099281" data-name="Grupo 1099281" clip-path="url(#clip-path-2)">
              <path id="Trazado_873375" data-name="Trazado 873375" d="M89.413,10.879c-4.947,0-7.506-2.426-9.765-4.567C77.431,4.213,75.522,2.4,71.529,2.4s-5.9,1.814-8.118,3.913c-2.259,2.141-4.814,4.567-9.765,4.567S46.14,8.453,43.881,6.312C41.664,4.213,39.755,2.4,35.763,2.4s-5.9,1.814-8.114,3.913c-2.259,2.141-4.818,4.567-9.765,4.567s-7.51-2.426-9.769-4.567C5.9,4.213,3.993,2.4,0,2.4V0C4.947,0,7.506,2.43,9.765,4.567c2.217,2.1,4.126,3.913,8.118,3.913S23.785,6.67,26,4.571C28.253,2.43,30.816,0,35.763,0s7.51,2.43,9.765,4.567c2.217,2.1,4.126,3.913,8.118,3.913s5.9-1.81,8.118-3.913C64.019,2.43,66.582,0,71.529,0s7.51,2.43,9.765,4.567c2.217,2.1,4.126,3.913,8.118,3.913s5.9-1.81,8.118-3.913C99.786,2.43,102.345,0,107.3,0V2.4c-3.993,0-5.9,1.814-8.118,3.913-2.259,2.141-4.818,4.567-9.765,4.567" transform="translate(2.932 38.763)" fill="#7d3a1b"/>
              <path id="Trazado_873376" data-name="Trazado 873376" d="M89.413,10.879c-4.947,0-7.51-2.426-9.765-4.571C77.431,4.209,75.522,2.4,71.529,2.4s-5.9,1.81-8.118,3.909c-2.255,2.145-4.814,4.571-9.765,4.571s-7.51-2.426-9.765-4.571C41.664,4.209,39.755,2.4,35.763,2.4s-5.9,1.814-8.115,3.909c-2.259,2.145-4.818,4.571-9.765,4.571s-7.51-2.426-9.769-4.571C5.9,4.209,3.993,2.4,0,2.4V0C4.947,0,7.51,2.426,9.765,4.567c2.217,2.1,4.126,3.913,8.118,3.913S23.785,6.67,26,4.567C28.253,2.426,30.816,0,35.763,0s7.51,2.426,9.769,4.567c2.213,2.1,4.122,3.913,8.115,3.913s5.9-1.81,8.118-3.913C64.019,2.426,66.582,0,71.529,0s7.51,2.426,9.765,4.567c2.217,2.1,4.126,3.913,8.118,3.913s5.9-1.81,8.118-3.913C99.79,2.426,102.349,0,107.3,0V2.4c-3.993,0-5.905,1.814-8.122,3.909-2.259,2.145-4.818,4.571-9.765,4.571" transform="translate(1.955 25.842)" fill="#7d3a1b"/>
              <path id="Trazado_873377" data-name="Trazado 873377" d="M89.412,10.879c-4.947,0-7.51-2.426-9.765-4.571C77.431,4.209,75.522,2.4,71.529,2.4s-5.9,1.81-8.118,3.909c-2.255,2.145-4.818,4.571-9.765,4.571s-7.51-2.426-9.765-4.571C41.664,4.209,39.755,2.4,35.763,2.4s-5.9,1.814-8.115,3.909c-2.259,2.145-4.818,4.571-9.765,4.571s-7.51-2.426-9.769-4.571C5.9,4.209,3.993,2.4,0,2.4V0C4.947,0,7.51,2.426,9.765,4.567c2.213,2.1,4.126,3.913,8.118,3.913S23.785,6.67,26,4.567C28.253,2.426,30.816,0,35.763,0s7.51,2.426,9.769,4.567c2.213,2.1,4.122,3.913,8.115,3.913s5.9-1.81,8.118-3.913C64.019,2.426,66.582,0,71.529,0s7.51,2.426,9.765,4.567c2.217,2.1,4.126,3.913,8.118,3.913s5.9-1.81,8.118-3.913C99.79,2.426,102.345,0,107.3,0V2.4c-3.993,0-5.905,1.814-8.122,3.909-2.259,2.145-4.818,4.571-9.765,4.571" transform="translate(0.977 12.921)" fill="#7d3a1b"/>
              <path id="Trazado_873378" data-name="Trazado 873378" d="M89.413,10.875c-4.947,0-7.506-2.426-9.765-4.567C77.431,4.209,75.522,2.4,71.529,2.4s-5.9,1.81-8.115,3.909c-2.259,2.141-4.818,4.567-9.769,4.567S46.14,8.449,43.881,6.308C41.664,4.209,39.755,2.4,35.763,2.4s-5.9,1.81-8.115,3.905c-2.255,2.145-4.818,4.571-9.765,4.571s-7.51-2.426-9.769-4.567C5.9,4.209,3.993,2.4,0,2.4V0C4.947,0,7.51,2.426,9.765,4.567c2.217,2.1,4.126,3.909,8.118,3.909s5.9-1.81,8.115-3.909C28.257,2.426,30.816,0,35.763,0s7.506,2.426,9.769,4.567c2.213,2.1,4.122,3.909,8.115,3.909s5.9-1.81,8.118-3.909C64.023,2.426,66.582,0,71.529,0s7.506,2.426,9.765,4.567c2.217,2.1,4.126,3.909,8.118,3.909s5.9-1.81,8.118-3.909C99.79,2.426,102.349,0,107.3,0V2.4c-4,0-5.905,1.81-8.122,3.909-2.259,2.141-4.818,4.567-9.765,4.567" transform="translate(0 0.004)" fill="#7d3a1b"/>
            </g>
          </g>
        </g>
        <path id="Trazado_873425" data-name="Trazado 873425" d="M60.362,0A60.362,60.362,0,1,1,0,60.362,60.362,60.362,0,0,1,60.362,0Z" transform="translate(17.974 21.56)" fill="#efb499"/>
        <circle id="Elipse_11503" data-name="Elipse 11503" cx="63" cy="63" r="63" transform="translate(9 9.719)" fill="#fef7eb"/>
      </g>
    </g>
    <path id="Trazado_902577" data-name="Trazado 902577" d="M38.585,27.895a1.217,1.217,0,0,1,1.721-1.721l2.342,2.342,3.676-3.673a1.218,1.218,0,0,1,1.721,1.724L43.509,31.1a1.217,1.217,0,0,1-1.721,0Zm14.654,1.293H66.454a1.217,1.217,0,0,0,0-2.434H53.239a1.217,1.217,0,0,0,0,2.434ZM41.788,42.14a1.215,1.215,0,0,0,1.721,0l4.537-4.537a1.217,1.217,0,0,0-1.721-1.721l-3.676,3.676-2.342-2.345a1.217,1.217,0,0,0-1.722,1.719Zm11.451-1.91H63.367a1.217,1.217,0,1,0,0-2.434H53.239a1.217,1.217,0,1,0,0,2.434ZM41.788,53.183a1.215,1.215,0,0,0,1.721,0l4.537-4.537a1.217,1.217,0,0,0-1.721-1.721L42.649,50.6l-2.342-2.345a1.217,1.217,0,0,0-1.722,1.719Zm11.451-1.913H66.454a1.217,1.217,0,1,0,0-2.434H53.239a1.217,1.217,0,1,0,0,2.434ZM41.788,64.222a1.215,1.215,0,0,0,1.721,0l4.537-4.532a1.218,1.218,0,0,0-1.721-1.724l-3.676,3.672-2.342-2.345a1.217,1.217,0,1,0-1.722,1.719Zm11.451-1.908H66.454a1.217,1.217,0,1,0,0-2.434H53.239a1.217,1.217,0,1,0,0,2.434Zm44.1-23.326A15.063,15.063,0,0,1,78.05,53.444V73.282a4.7,4.7,0,0,1-4.7,4.692H32.547a4.7,4.7,0,0,1-4.7-4.692V13.219a4.7,4.7,0,0,1,4.7-4.7h7.426a3.936,3.936,0,0,1,3.4-2.016H45.71a7.282,7.282,0,0,1,14.48,0h2.336a3.934,3.934,0,0,1,3.4,2.016h7.426a4.7,4.7,0,0,1,4.7,4.7V24.532A15.063,15.063,0,0,1,97.343,38.988Zm-23.99-28.03H66.489v2.287h5.927a1.216,1.216,0,0,1,1.217,1.217v12.2a15.064,15.064,0,0,1,1.981-1.179V13.219A2.264,2.264,0,0,0,73.353,10.958ZM34.7,15.68V70.822H71.2V49.174a15.033,15.033,0,0,1,0-20.371V15.68H66.191a3.974,3.974,0,0,1-3.666,2.565H43.375a3.974,3.974,0,0,1-3.666-2.565Zm7.144-5.038v3.466a1.644,1.644,0,0,0,1.528,1.7h19.15a1.642,1.642,0,0,0,1.528-1.7V10.642a1.644,1.644,0,0,0-1.528-1.7h-3.46a1.216,1.216,0,0,1-1.217-1.217,4.91,4.91,0,1,0-9.791,0,1.217,1.217,0,0,1-1.217,1.217H43.377a1.644,1.644,0,0,0-1.531,1.7Zm33.769,41.85a15.066,15.066,0,0,1-1.981-1.179V72.041a1.217,1.217,0,0,1-1.217,1.217H33.485a1.217,1.217,0,0,1-1.217-1.217V14.462a1.216,1.216,0,0,1,1.217-1.217h5.927V10.958H32.547a2.264,2.264,0,0,0-2.262,2.262V73.282a2.263,2.263,0,0,0,2.262,2.259h40.8a2.262,2.262,0,0,0,2.262-2.259V52.492Zm19.293-13.5A12.625,12.625,0,1,0,82.281,51.615,12.641,12.641,0,0,0,94.908,38.988Zm-1.748,0A10.876,10.876,0,1,1,82.281,28.109,10.89,10.89,0,0,1,93.159,38.988Zm-2.435,0a8.443,8.443,0,1,0-8.445,8.445A8.454,8.454,0,0,0,90.724,38.988Zm-4.485-1.217H83.5V33.51a1.217,1.217,0,1,0-2.434,0v5.478A1.216,1.216,0,0,0,82.281,40.2h3.958a1.217,1.217,0,1,0,0-2.434Z" transform="translate(184.904 9574.232)" fill="#7d3a1b"/>
  </g>
</svg>
