<svg xmlns="http://www.w3.org/2000/svg" xmlns:xlink="http://www.w3.org/1999/xlink" width="145" height="145" viewBox="0 0 145 145">
  <defs>
    <clipPath id="clip-path">
      <rect id="Rectángulo_400938" data-name="Rectángulo 400938" width="145" height="145" transform="translate(0 -0.281)" fill="none"/>
    </clipPath>
    <clipPath id="clip-path-2">
      <rect id="Rectángulo_401073" data-name="Rectángulo 401073" width="110.228" height="49.642" fill="#7d3a1b"/>
    </clipPath>
  </defs>
  <g id="Grupo_1099406" data-name="Grupo 1099406" transform="translate(-175 -9540.719)">
    <g id="Grupo_1099404" data-name="Grupo 1099404" transform="translate(175 9541)">
      <g id="Grupo_1099379" data-name="Grupo 1099379" transform="translate(0 0)">
        <rect id="Rectángulo_401103" data-name="Rectángulo 401103" width="145" height="145" transform="translate(0 -0.281)" fill="none"/>
        <g id="Grupo_1099348" data-name="Grupo 1099348" transform="translate(0.045 0.045)">
          <g id="Grupo_1099282" data-name="Grupo 1099282">
            <g id="Grupo_1099281" data-name="Grupo 1099281" clip-path="url(#clip-path-2)">
              <path id="Trazado_873375" data-name="Trazado 873375" d="M89.413,10.879c-4.947,0-7.506-2.426-9.765-4.567C77.431,4.213,75.522,2.4,71.529,2.4s-5.9,1.814-8.118,3.913c-2.259,2.141-4.814,4.567-9.765,4.567S46.14,8.453,43.881,6.312C41.664,4.213,39.755,2.4,35.763,2.4s-5.9,1.814-8.114,3.913c-2.259,2.141-4.818,4.567-9.765,4.567s-7.51-2.426-9.769-4.567C5.9,4.213,3.993,2.4,0,2.4V0C4.947,0,7.506,2.43,9.765,4.567c2.217,2.1,4.126,3.913,8.118,3.913S23.785,6.67,26,4.571C28.253,2.43,30.816,0,35.763,0s7.51,2.43,9.765,4.567c2.217,2.1,4.126,3.913,8.118,3.913s5.9-1.81,8.118-3.913C64.019,2.43,66.582,0,71.529,0s7.51,2.43,9.765,4.567c2.217,2.1,4.126,3.913,8.118,3.913s5.9-1.81,8.118-3.913C99.786,2.43,102.345,0,107.3,0V2.4c-3.993,0-5.9,1.814-8.118,3.913-2.259,2.141-4.818,4.567-9.765,4.567" transform="translate(2.932 38.763)" fill="#7d3a1b"/>
              <path id="Trazado_873376" data-name="Trazado 873376" d="M89.413,10.879c-4.947,0-7.51-2.426-9.765-4.571C77.431,4.209,75.522,2.4,71.529,2.4s-5.9,1.81-8.118,3.909c-2.255,2.145-4.814,4.571-9.765,4.571s-7.51-2.426-9.765-4.571C41.664,4.209,39.755,2.4,35.763,2.4s-5.9,1.814-8.115,3.909c-2.259,2.145-4.818,4.571-9.765,4.571s-7.51-2.426-9.769-4.571C5.9,4.209,3.993,2.4,0,2.4V0C4.947,0,7.51,2.426,9.765,4.567c2.217,2.1,4.126,3.913,8.118,3.913S23.785,6.67,26,4.567C28.253,2.426,30.816,0,35.763,0s7.51,2.426,9.769,4.567c2.213,2.1,4.122,3.913,8.115,3.913s5.9-1.81,8.118-3.913C64.019,2.426,66.582,0,71.529,0s7.51,2.426,9.765,4.567c2.217,2.1,4.126,3.913,8.118,3.913s5.9-1.81,8.118-3.913C99.79,2.426,102.349,0,107.3,0V2.4c-3.993,0-5.905,1.814-8.122,3.909-2.259,2.145-4.818,4.571-9.765,4.571" transform="translate(1.955 25.842)" fill="#7d3a1b"/>
              <path id="Trazado_873377" data-name="Trazado 873377" d="M89.412,10.879c-4.947,0-7.51-2.426-9.765-4.571C77.431,4.209,75.522,2.4,71.529,2.4s-5.9,1.81-8.118,3.909c-2.255,2.145-4.818,4.571-9.765,4.571s-7.51-2.426-9.765-4.571C41.664,4.209,39.755,2.4,35.763,2.4s-5.9,1.814-8.115,3.909c-2.259,2.145-4.818,4.571-9.765,4.571s-7.51-2.426-9.769-4.571C5.9,4.209,3.993,2.4,0,2.4V0C4.947,0,7.51,2.426,9.765,4.567c2.213,2.1,4.126,3.913,8.118,3.913S23.785,6.67,26,4.567C28.253,2.426,30.816,0,35.763,0s7.51,2.426,9.769,4.567c2.213,2.1,4.122,3.913,8.115,3.913s5.9-1.81,8.118-3.913C64.019,2.426,66.582,0,71.529,0s7.51,2.426,9.765,4.567c2.217,2.1,4.126,3.913,8.118,3.913s5.9-1.81,8.118-3.913C99.79,2.426,102.345,0,107.3,0V2.4c-3.993,0-5.905,1.814-8.122,3.909-2.259,2.145-4.818,4.571-9.765,4.571" transform="translate(0.977 12.921)" fill="#7d3a1b"/>
              <path id="Trazado_873378" data-name="Trazado 873378" d="M89.413,10.875c-4.947,0-7.506-2.426-9.765-4.567C77.431,4.209,75.522,2.4,71.529,2.4s-5.9,1.81-8.115,3.909c-2.259,2.141-4.818,4.567-9.769,4.567S46.14,8.449,43.881,6.308C41.664,4.209,39.755,2.4,35.763,2.4s-5.9,1.81-8.115,3.905c-2.255,2.145-4.818,4.571-9.765,4.571s-7.51-2.426-9.769-4.567C5.9,4.209,3.993,2.4,0,2.4V0C4.947,0,7.51,2.426,9.765,4.567c2.217,2.1,4.126,3.909,8.118,3.909s5.9-1.81,8.115-3.909C28.257,2.426,30.816,0,35.763,0s7.506,2.426,9.769,4.567c2.213,2.1,4.122,3.909,8.115,3.909s5.9-1.81,8.118-3.909C64.023,2.426,66.582,0,71.529,0s7.506,2.426,9.765,4.567c2.217,2.1,4.126,3.909,8.118,3.909s5.9-1.81,8.118-3.909C99.79,2.426,102.349,0,107.3,0V2.4c-4,0-5.905,1.81-8.122,3.909-2.259,2.141-4.818,4.567-9.765,4.567" transform="translate(0 0.004)" fill="#7d3a1b"/>
            </g>
          </g>
        </g>
        <path id="Trazado_873425" data-name="Trazado 873425" d="M60.362,0A60.362,60.362,0,1,1,0,60.362,60.362,60.362,0,0,1,60.362,0Z" transform="translate(17.974 21.56)" fill="#efb499"/>
        <circle id="Elipse_11503" data-name="Elipse 11503" cx="63" cy="63" r="63" transform="translate(9 9.719)" fill="#fef7eb"/>
      </g>
    </g>
    <g id="Grupo_1116345" data-name="Grupo 1116345" transform="translate(211.083 9559.08)">
      <g id="Grupo_1116344" data-name="Grupo 1116344" transform="translate(0 20.661)">
        <path id="Trazado_902572" data-name="Trazado 902572" d="M35.918,86.516l39.528-21.25-.821,3.366a1.067,1.067,0,0,0,2.073.506l1.389-5.692a1.07,1.07,0,0,0-.784-1.289l-5.692-1.389a1.067,1.067,0,0,0-.506,2.073l2.99.729L34.908,84.637a1.067,1.067,0,1,0,1.01,1.879Z" transform="translate(-29.46 -55.036)" fill="#7d3a1b"/>
        <path id="Trazado_902573" data-name="Trazado 902573" d="M69.007,79.962H66.351V38.43a2.569,2.569,0,0,0-2.566-2.566H59.468v-5.6h9.108a1.69,1.69,0,0,0,1.295-2.777l-1.7-2.024,1.7-2.024a1.69,1.69,0,0,0-1.295-2.777H58.4a1.067,1.067,0,0,0-1.067,1.067V35.864H53.018a2.569,2.569,0,0,0-2.566,2.566v2.314a1.067,1.067,0,0,0,2.134,0V38.43A.433.433,0,0,1,53.018,38H63.785a.433.433,0,0,1,.432.432V79.962H52.586v-34.2a1.067,1.067,0,1,0-2.134,0v34.2H44.366V53.356A2.569,2.569,0,0,0,41.8,50.79H31.034a2.569,2.569,0,0,0-2.566,2.566V79.962H22.381V66.456a2.569,2.569,0,0,0-2.566-2.566H9.049a2.569,2.569,0,0,0-2.566,2.566v2.335a1.067,1.067,0,1,0,2.134,0V66.456a.433.433,0,0,1,.432-.432H19.815a.433.433,0,0,1,.432.432V79.962H8.617v-6.2a1.067,1.067,0,0,0-2.134,0v6.2H3.827a3.827,3.827,0,0,0,0,7.654h65.18a3.827,3.827,0,0,0,0-7.654ZM66.3,26.548l1.326,1.58H59.468V22.795h8.157L66.3,24.375A1.687,1.687,0,0,0,66.3,26.548ZM30.6,53.356a.433.433,0,0,1,.432-.432H41.8a.433.433,0,0,1,.432.432V79.962H30.6V53.356ZM69.007,85.483H3.827a1.693,1.693,0,1,1,0-3.386h65.18a1.693,1.693,0,1,1,0,3.386Z" transform="translate(0 -20.661)" fill="#7d3a1b"/>
      </g>
    </g>
  </g>
</svg>
